<svg xmlns="http://www.w3.org/2000/svg" width="1334" height="864" viewBox="0 0 1334 864">
  <g fill="none">
    <path d="M 459.75 145 L 482.25 145 M 459.75 170 L 482.25 170 M 457.8247318527657 193.23330549576022 L 480.1752681472343 195.82242259424063 M 459.2738654409789 223.63347722884959 L 480.0926977050206 215.0996490631494 M 462.75 243.49510479216428 L 485.25 243.49510479216428 M 462.20386251048296 264.64892431488727 L 483.46341131992847 272.01652802429 M 460.75 293.13593118904686 L 483.25 293.13593118904686 M 459.81697811842616 316.7478796524066 L 482.18302188157384 319.1994274053503 M 457.05094886848804 343.8435972429174 L 478.94905113151196 338.6741565306018 M 459.989152711069 367.8579965076095 L 482.010847288931 363.2433494009109 M 460.75 390.3146049767604 L 483.25 390.3146049767604 M 460.75 415.3146049767604 L 483.25 415.3146049767604 M 468.0003587829796 447.84695819250084 L 481.7178412362966 430.0121418171372 M 503.6345952344289 452.74438444651577 L 488.2790674945757 436.29878418898187 M 511.25 420.87450192298354 L 488.75 420.87450192298354 M 512.2331784093957 396.72555186988234 L 489.7668215906043 395.4955879310843 M 516.025561727345 374.4316991644916 L 494.12745946432113 369.262258452176 M 517.25 347.5371210392175 L 494.75 347.5371210392175 M 516.2034408048003 321.7507340625328 L 493.79655919519973 323.7956439709017 M 512.25 298.71746092671634 L 489.75 298.71746092671634 M 512.25 273.71746092671634 L 489.75 273.71746092671634 M 515.577040646561 251.82981014666228 L 493.66393123808245 246.72435854547666 M 520.1634379378709 227.33580140157795 L 497.8365620621292 224.5500136082913 M 531.0379738685846 214.9791491132717 L 515.4000517855719 198.80183805965012 M 547.875976207601 206.55655341170097 L 541.643081056067 184.93709416707634 M 570.7492930909896 201.6402859019386 L 566.5376736929009 179.5379724020888 M 594.4520038896269 195.08347330328795 L 590.595000111924 172.91652669671205 M 618.1034159373529 189.9834964574886 L 615.3542925041996 167.65207643212327 M 638.2856437574385 189.0433141643251 L 644.838078982993 167.51854720589066 M 657.5238422738126 195.9109968939143 L 670.2247930049685 177.33854819901276 M 671.4489225231486 209.0189894729107 L 691.0181104533025 197.91507647999143 M 678.9885835263881 230.5169160502023 L 700.0554924641647 222.61531192145574 M 680.75 251.1534639389605 L 703.25 251.1534639389605 M 682.4818501927551 277.5459757084816 L 704.766028123813 274.43705082406393 M 682.8986489770075 298.7861528496727 L 705.1013510229925 302.431701074181 M 680.75 325.2738394708342 L 703.25 325.2738394708342 M 680.75 350.2738394708342 L 703.25 350.2738394708342 M 680.75 375.2738394708342 L 703.25 375.2738394708342 M 679.75 400.0377714933344 L 702.25 400.0377714933344 M 679.75 425.0377714933344 L 702.25 425.0377714933344 M 678.75 449.91466586771674 L 701.25 449.91466586771674 " stroke="#8B4513" stroke-width="7" fill="none" stroke-linecap="butt" />
    <path d="M 463.5 145 L 463.5 147 L 463.5 149 L 463.5 151 L 463.5 153 L 463.5 156 L 463.5 158 L 463.5 160 L 463.5 164 L 463.5 166 L 463.5 168 L 463.5 170 L 463.5 172 L 463.5 175 L 463.5 177 L 463.5 179 L 463.5 181 L 463.5 181.22949016875157 L 462.5 183.22949016875157 L 462.5 187 L 462.5 189.22949016875157 L 461.5 191.22949016875157 L 461.5 196 L 461.5 198 L 461.5 200 L 461.5 202 L 461.5 204 L 461.5 206 L 461.5 209 L 461.5 211 L 461.5 213 L 461.5 215 L 461.5 219.77050983124843 L 463.2917960675006 223.3541019662497 L 463.5 223.77050983124843 L 463.5 226.21708245126285 L 464.5 229.21708245126285 L 464.5 231.77050983124843 L 465.5 233.77050983124843 L 465.5 235.21708245126285 L 466.5 238.21708245126285 L 466.5 240 L 466.5 242 L 466.5 245 L 466.5 247 L 466.5 250 L 466.5 252 L 466.5 255 L 466.5 257 L 466.5 260 L 466.5 262 L 466.5 263.07670780786754 L 465.923608819558 265.3822725296356 L 464.5 268.22949016875157 L 464.5 273 L 464.5 275 L 464.5 278 L 464.5 282 L 464.5 284 L 464.5 286 L 464.5 288 L 464.5 290 L 464.5 293 L 464.5 295 L 464.5 297 L 464.5 300 L 464.5 302 L 464.5 305 L 464.5 309 L 464.5 311 L 464.5 312.78291754873715 L 463.5 315.78291754873715 L 463.5 320 L 463.5 322 L 463.5 324 L 463.5 322.8933982822018 L 461.8360918865498 324.557306395652 L 459.5 329.22949016875157 L 459.5 333 L 459.5 335 L 459.5 337 L 459.5 340.77050983124843 L 460.5 342.77050983124843 L 460.5 344.77050983124843 L 462.2917960675006 348.3541019662497 L 462.5 348.77050983124843 L 462.5 350.77050983124843 L 463.5 352.77050983124843 L 463.5 353 L 463.5 355 L 463.5 357 L 463.5 359 L 463.5 362 L 463.5 367.77050983124843 L 464.5 369.77050983124843 L 464.5 371 L 464.5 374 L 464.5 376 L 464.5 379 L 464.5 384 L 464.5 386 L 464.5 388 L 464.5 391 L 464.5 395 L 464.5 398 L 464.5 400 L 464.5 403 L 464.5 405 L 464.5 407 L 464.5 409 L 464.5 411 L 464.5 414 L 464.5 416 L 464.5 418 L 464.5 420 L 464.5 422 L 464.5 424 L 464.5 426 L 464.5 428 L 464.5 430 L 464.5 433.77050983124843 L 465.5 435.77050983124843 L 465.5 436 L 465.5 442.6352549156242 L 470.557306395652 445.1639081134502 L 473.8933982822018 448.5 L 471.5 448.5 L 471.5 447.6352549156242 L 477.6458980337503 450.7082039324994 L 479.6458980337503 451.7082039324994 L 483.22949016875157 453.5 L 487 453.5 L 489 453.5 L 491 453.5 L 494.77050983124843 453.5 L 498.3541019662497 451.7082039324994 L 504.5 448.6352549156242 L 504.5 443.77050983124843 L 505.5 441.77050983124843 L 505.5 438 L 505.5 437.77050983124843 L 506.5 435.77050983124843 L 506.5 432 L 506.5 431.77050983124843 L 507.5 429.77050983124843 L 507.5 425 L 507.5 423 L 507.5 421 L 507.5 419 L 507.5 416 L 507.5 414 L 507.5 411 L 507.5 409 L 507.5 407 L 507.5 406.77050983124843 L 508.5 404.77050983124843 L 508.5 401 L 508.5 399 L 508.5 397 L 508.5 395.92329219213246 L 509.27606875109 392.8190171877725 L 510.5 387.92329219213246 L 510.5 384 L 510.5 382.77050983124843 L 510.7082039324994 382.3541019662497 L 512.5 378.77050983124843 L 512.5 375 L 512.5 373.77050983124843 L 513.5 371.77050983124843 L 513.5 368 L 513.5 367.77050983124843 L 514.5 365.77050983124843 L 514.5 362 L 514.5 360 L 514.5 358 L 514.5 355 L 514.5 351.22949016875157 L 513.5 349.22949016875157 L 513.5 349 L 513.5 346 L 513.5 343 L 513.5 341 L 513.5 339 L 513.5 336 L 513.5 334 L 513.5 332 L 513.5 330 L 513.5 328 L 513.5 324.22949016875157 L 512.5 322.22949016875157 L 512.5 322 L 512.5 318.22949016875157 L 510.7082039324994 314.6458980337503 L 509.7082039324994 312.6458980337503 L 509.5 312.22949016875157 L 509.5 311 L 509.5 309 L 509.5 305.22949016875157 L 508.5 303.22949016875157 L 508.5 303 L 508.5 301 L 508.5 299 L 508.5 296 L 508.5 294 L 508.5 292 L 508.5 289 L 508.5 287 L 508.5 284 L 508.5 281 L 508.5 279 L 508.5 277 L 508.5 275 L 508.5 273 L 508.5 271 L 508.5 268 L 508.5 266 L 508.5 263.4443680267544 L 510.15261611025204 259.3128277511243 L 511.3487133925521 254.52843862192407 L 512.3012121753246 248.81344592528905 L 513.5 245.21708245126285 L 513.5 242 L 513.5 240 L 513.5 239.77050983124843 L 514.5 237.77050983124843 L 514.5 234 L 514.5 236.63525491562422 L 516.5 235.63525491562422 L 516.5 229 L 516.5 227 L 516.5 226.77050983124843 L 517.5 224.77050983124843 L 517.5 224.1066017177982 L 517.3033008588991 224.3033008588991 L 519.8284311303835 221.7781705874147 L 521.1355623673658 219.81747373194133 L 523.1355623673658 218.81747373194133 L 525.1355623673658 215.81747373194133 L 527.5901699437495 214.5901699437495 L 528.5901699437495 212.5901699437495 L 529.442693604348 212.16390811345022 L 532.3033008588991 209.3033008588991 L 533.442693604348 208.16390811345022 L 533.8773645912196 207.94657262001442 L 538.0513613510659 206.5552403667323 L 539.1066017177982 205.5 L 539.2170824512629 205.5 L 543.3717082451262 204.11512473537886 L 546.3717082451262 203.11512473537886 L 548.2170824512629 202.5 L 550.7705098312484 202.5 L 552.7705098312484 201.5 L 554.7705098312484 201.5 L 556.7705098312484 200.5 L 557 200.5 L 560.7705098312484 200.5 L 564.3541019662497 198.70820393249937 L 564.7705098312484 198.5 L 565 198.5 L 567.9232921921324 198.5 L 573.098453228654 197.2062097408696 L 576.3717082451262 196.11512473537886 L 579.3717082451262 195.11512473537886 L 582.3717082451262 194.11512473537886 L 584.2170824512629 193.5 L 586.2170824512629 193.5 L 590.8773645912196 191.94657262001442 L 591.7705098312484 191.5 L 594.2170824512629 191.5 L 598.3717082451262 190.11512473537886 L 600.2170824512629 189.5 L 602.9232921921324 189.5 L 608.098453228654 188.2062097408696 L 610.2170824512629 187.5 L 612.2170824512629 187.5 L 615.2170824512629 186.5 L 616.9232921921324 186.5 L 620.9232921921324 185.5 L 623 185.5 L 626 185.5 L 629 185.5 L 631 185.5 L 633 185.5 L 636 185.5 L 638 185.5 L 639.2294901687516 185.5 L 639.6458980337503 185.70820393249937 L 641.6458980337503 186.70820393249937 L 645.2294901687516 188.5 L 645.3647450843758 188.5 L 646.3647450843758 190.5 L 651.2294901687516 190.5 L 655.2294901687516 192.5 L 658.2294901687516 192.5 L 659.1226354087804 192.94657262001442 L 659.6811105915035 193.13273101425546 L 660.6811105915035 195.13273101425546 L 664.9486386489341 196.5552403667323 L 666.0735931288071 197.68019484660536 L 670.0735931288071 200.68019484660536 L 670.8360918865498 201.442693604348 L 671.5942352531274 202.95898033750316 L 674.5942352531274 206.95898033750316 L 675.0534273799856 207.8773645912196 L 676.4447596332677 212.0513613510659 L 677.5 213.1066017177982 L 677.5 213.77050983124843 L 678.923608819558 216.6177274703644 L 679.72393124891 219.8190171877725 L 680.7937902591304 224.09845322865402 L 681.8848752646212 227.37170824512629 L 683.0534273799856 230.8773645912196 L 683.5 231.77050983124843 L 683.5 232.7426463519459 L 684.5 237.7426463519459 L 684.5 239 L 684.5 243 L 684.5 245 L 684.5 247 L 684.5 249 L 684.5 251 L 684.5 253 L 684.5 257.92329219213246 L 685.5 261.92329219213246 L 685.5 265 L 685.5 268 L 685.5 271.46693311223913 L 686.6140897699734 280.3796512720258 L 687.5 283.92329219213246 L 687.5 286 L 687.5 288 L 687.5 290 L 687.5 292 L 687.5 294 L 687.5 296 L 687.5 296.22949016875157 L 686.5 298.22949016875157 L 686.5 302 L 686.5 304 L 686.5 306 L 686.5 309.2573536480541 L 685.5 314.2573536480541 L 685.5 318.22949016875157 L 684.5 320.22949016875157 L 684.5 325 L 684.5 328 L 684.5 332 L 684.5 337 L 684.5 339 L 684.5 342 L 684.5 345 L 684.5 347 L 684.5 349 L 684.5 351 L 684.5 353 L 684.5 355 L 684.5 357 L 684.5 359 L 684.5 361 L 684.5 364 L 684.5 366 L 684.5 369 L 684.5 372 L 684.5 374 L 684.5 377 L 684.5 379 L 684.5 381 L 684.5 383.22949016875157 L 683.5 385.22949016875157 L 683.5 389 L 683.5 391 L 683.5 396 L 683.5 400 L 683.5 403 L 683.5 405 L 683.5 408 L 683.5 413 L 683.5 416 L 683.5 418 L 683.5 420 L 683.5 422 L 683.5 425 L 683.5 429 L 683.5 432 L 683.5 433.07670780786754 L 682.5 437.07670780786754 L 682.5 440 L 682.5 442 L 682.5 444 L 682.5 446 L 682.5 448 L 682.5 450 L 682.5 452 L 682.5 454 " stroke="#4a5568" stroke-width="2" fill="none" stroke-linecap="butt" stroke-linejoin="round" />
    <path d="M 478.5 145 L 478.5 147 L 478.5 149 L 478.5 151 L 478.5 153 L 478.5 156 L 478.5 158 L 478.5 160 L 478.5 164 L 478.5 166 L 478.5 168 L 478.5 170 L 478.5 172 L 478.5 175 L 478.5 177 L 478.5 179 L 478.5 181 L 478.5 184.77050983124843 L 477.5 186.77050983124843 L 477.5 187 L 477.5 192.77050983124843 L 476.5 194.77050983124843 L 476.5 196 L 476.5 198 L 476.5 200 L 476.5 202 L 476.5 204 L 476.5 206 L 476.5 209 L 476.5 211 L 476.5 213 L 476.5 215 L 476.5 216.22949016875157 L 476.7082039324994 216.6458980337503 L 478.5 220.22949016875157 L 478.5 223.78291754873715 L 479.5 226.78291754873715 L 479.5 228.22949016875157 L 480.5 230.22949016875157 L 480.5 232.78291754873715 L 481.5 235.78291754873715 L 481.5 240 L 481.5 242 L 481.5 245 L 481.5 247 L 481.5 250 L 481.5 252 L 481.5 255 L 481.5 257 L 481.5 260 L 481.5 262 L 481.5 264.92329219213246 L 480.076391180442 270.6177274703644 L 479.5 271.77050983124843 L 479.5 273 L 479.5 275 L 479.5 278 L 479.5 282 L 479.5 284 L 479.5 286 L 479.5 288 L 479.5 290 L 479.5 293 L 479.5 295 L 479.5 297 L 479.5 300 L 479.5 302 L 479.5 305 L 479.5 309 L 479.5 311 L 479.5 315.21708245126285 L 478.5 318.21708245126285 L 478.5 320 L 478.5 322 L 478.5 324 L 478.5 329.1066017177982 L 474.1639081134502 333.442693604348 L 474.5 332.77050983124843 L 474.5 333 L 474.5 335 L 474.5 337 L 474.5 337.22949016875157 L 475.5 339.22949016875157 L 475.5 341.22949016875157 L 475.7082039324994 341.6458980337503 L 477.5 345.22949016875157 L 477.5 347.22949016875157 L 478.5 349.22949016875157 L 478.5 353 L 478.5 355 L 478.5 357 L 478.5 359 L 478.5 362 L 478.5 364.22949016875157 L 479.5 366.22949016875157 L 479.5 371 L 479.5 374 L 479.5 376 L 479.5 379 L 479.5 384 L 479.5 386 L 479.5 388 L 479.5 391 L 479.5 395 L 479.5 398 L 479.5 400 L 479.5 403 L 479.5 405 L 479.5 407 L 479.5 409 L 479.5 411 L 479.5 414 L 479.5 416 L 479.5 418 L 479.5 420 L 479.5 422 L 479.5 424 L 479.5 426 L 479.5 428 L 479.5 430 L 479.5 430.22949016875157 L 480.5 432.22949016875157 L 480.5 436 L 480.5 433.3647450843758 L 479.442693604348 432.8360918865498 L 480.1066017177982 433.5 L 486.5 433.5 L 486.5 438.3647450843758 L 484.3541019662497 437.2917960675006 L 486.3541019662497 438.2917960675006 L 486.77050983124843 438.5 L 487 438.5 L 489 438.5 L 491 438.5 L 491.22949016875157 438.5 L 491.6458980337503 438.2917960675006 L 489.5 439.3647450843758 L 489.5 440.22949016875157 L 490.5 438.22949016875157 L 490.5 438 L 490.5 434.22949016875157 L 491.5 432.22949016875157 L 491.5 432 L 491.5 428.22949016875157 L 492.5 426.22949016875157 L 492.5 425 L 492.5 423 L 492.5 421 L 492.5 419 L 492.5 416 L 492.5 414 L 492.5 411 L 492.5 409 L 492.5 407 L 492.5 403.22949016875157 L 493.5 401.22949016875157 L 493.5 401 L 493.5 399 L 493.5 397 L 493.5 394.07670780786754 L 494.72393124891 389.1809828122275 L 495.5 386.07670780786754 L 495.5 384 L 495.5 379.22949016875157 L 497.2917960675006 375.6458980337503 L 497.5 375.22949016875157 L 497.5 375 L 497.5 370.22949016875157 L 498.5 368.22949016875157 L 498.5 368 L 498.5 364.22949016875157 L 499.5 362.22949016875157 L 499.5 362 L 499.5 360 L 499.5 358 L 499.5 355 L 499.5 354.77050983124843 L 498.5 352.77050983124843 L 498.5 349 L 498.5 346 L 498.5 343 L 498.5 341 L 498.5 339 L 498.5 336 L 498.5 334 L 498.5 332 L 498.5 330 L 498.5 328 L 498.5 327.77050983124843 L 497.5 325.77050983124843 L 497.5 322 L 497.5 321.77050983124843 L 497.2917960675006 321.3541019662497 L 496.2917960675006 319.3541019662497 L 494.5 315.77050983124843 L 494.5 311 L 494.5 309 L 494.5 308.77050983124843 L 493.5 306.77050983124843 L 493.5 303 L 493.5 301 L 493.5 299 L 493.5 296 L 493.5 294 L 493.5 292 L 493.5 289 L 493.5 287 L 493.5 284 L 493.5 281 L 493.5 279 L 493.5 277 L 493.5 275 L 493.5 273 L 493.5 271 L 493.5 268 L 493.5 266 L 493.5 260.5556319732456 L 495.84738388974796 254.68717224887573 L 496.6512866074479 251.47156137807593 L 497.6987878246754 245.18655407471095 L 498.5 242.78291754873715 L 498.5 242 L 498.5 240 L 498.5 236.22949016875157 L 499.5 234.22949016875157 L 499.5 234 L 499.5 227.36474508437578 L 501.5 226.36474508437578 L 501.5 229 L 501.5 227 L 501.5 223.22949016875157 L 502.5 221.22949016875157 L 502.5 217.8933982822018 L 506.6966991411009 213.6966991411009 L 508.1715688696165 212.2218294125853 L 510.86443763263424 208.18252626805867 L 512.8644376326342 207.18252626805867 L 514.8644376326342 204.18252626805867 L 516.4098300562505 203.4098300562505 L 517.4098300562505 201.4098300562505 L 520.557306395652 199.83609188654978 L 521.6966991411009 198.6966991411009 L 524.557306395652 195.83609188654978 L 528.1226354087804 194.05342737998558 L 529.9486386489341 193.4447596332677 L 532.8933982822018 190.5 L 536.7829175487371 190.5 L 538.6282917548738 189.88487526462114 L 541.6282917548738 188.88487526462114 L 545.7829175487371 187.5 L 547.2294901687516 187.5 L 549.2294901687516 186.5 L 551.2294901687516 186.5 L 553.2294901687516 185.5 L 557 185.5 L 557.2294901687516 185.5 L 557.6458980337503 185.29179606750063 L 561.2294901687516 183.5 L 565 183.5 L 566.0767078078676 183.5 L 568.901546771346 182.7937902591304 L 571.6282917548738 181.88487526462114 L 574.6282917548738 180.88487526462114 L 577.6282917548738 179.88487526462114 L 581.7829175487371 178.5 L 583.7829175487371 178.5 L 585.1226354087804 178.05342737998558 L 588.2294901687516 176.5 L 591.7829175487371 176.5 L 593.6282917548738 175.88487526462114 L 597.7829175487371 174.5 L 601.0767078078676 174.5 L 603.901546771346 173.7937902591304 L 607.7829175487371 172.5 L 609.7829175487371 172.5 L 612.7829175487371 171.5 L 615.0767078078676 171.5 L 619.0767078078676 170.5 L 623 170.5 L 626 170.5 L 629 170.5 L 631 170.5 L 633 170.5 L 636 170.5 L 638 170.5 L 642.7705098312484 170.5 L 646.3541019662497 172.29179606750063 L 648.3541019662497 173.29179606750063 L 648.7705098312484 173.5 L 654.6352549156242 173.5 L 655.6352549156242 175.5 L 654.7705098312484 175.5 L 658.7705098312484 177.5 L 661.7705098312484 177.5 L 664.8773645912196 179.05342737998558 L 670.3188894084965 180.86726898574454 L 671.3188894084965 182.86726898574454 L 673.0513613510659 183.4447596332677 L 675.9264068711929 186.31980515339464 L 679.9264068711929 189.31980515339464 L 683.1639081134502 192.557306395652 L 684.4057647468726 195.04101966249684 L 687.4057647468726 199.04101966249684 L 688.9465726200144 202.1226354087804 L 689.5552403667323 203.9486386489341 L 692.5 206.8933982822018 L 692.5 210.22949016875157 L 693.076391180442 211.3822725296356 L 694.27606875109 216.1809828122275 L 695.2062097408696 219.90154677134598 L 696.1151247353788 222.62829175487371 L 696.9465726200144 225.1226354087804 L 698.5 228.22949016875157 L 698.5 231.2573536480541 L 699.5 236.2573536480541 L 699.5 239 L 699.5 243 L 699.5 245 L 699.5 247 L 699.5 249 L 699.5 251 L 699.5 253 L 699.5 256.07670780786754 L 700.5 260.07670780786754 L 700.5 265 L 700.5 268 L 700.5 270.53306688776087 L 701.3859102300266 277.6203487279742 L 702.5 282.07670780786754 L 702.5 286 L 702.5 288 L 702.5 290 L 702.5 292 L 702.5 294 L 702.5 296 L 702.5 299.77050983124843 L 701.5 301.77050983124843 L 701.5 302 L 701.5 304 L 701.5 306 L 701.5 310.7426463519459 L 700.5 315.7426463519459 L 700.5 321.77050983124843 L 699.5 323.77050983124843 L 699.5 325 L 699.5 328 L 699.5 332 L 699.5 337 L 699.5 339 L 699.5 342 L 699.5 345 L 699.5 347 L 699.5 349 L 699.5 351 L 699.5 353 L 699.5 355 L 699.5 357 L 699.5 359 L 699.5 361 L 699.5 364 L 699.5 366 L 699.5 369 L 699.5 372 L 699.5 374 L 699.5 377 L 699.5 379 L 699.5 381 L 699.5 386.77050983124843 L 698.5 388.77050983124843 L 698.5 389 L 698.5 391 L 698.5 396 L 698.5 400 L 698.5 403 L 698.5 405 L 698.5 408 L 698.5 413 L 698.5 416 L 698.5 418 L 698.5 420 L 698.5 422 L 698.5 425 L 698.5 429 L 698.5 432 L 698.5 434.92329219213246 L 697.5 438.92329219213246 L 697.5 440 L 697.5 442 L 697.5 444 L 697.5 446 L 697.5 448 L 697.5 450 L 697.5 452 L 697.5 454 " stroke="#4a5568" stroke-width="2" fill="none" stroke-linecap="butt" stroke-linejoin="round" />
  </g>
</svg>