<svg xmlns="http://www.w3.org/2000/svg" width="1334" height="864" viewBox="0 0 1334 864">
  <g fill="none">
    <path d="M 383 86.25 L 383 63.75 M 405.13888885648396 87.88073772776812 L 410.46166824855493 66.0194015484916 M 430.3178703720865 91.33623874644863 L 434.625712975667 69.25247792310208 M 455.96742429046435 96.21931963046617 L 457.62798688119835 73.78068036953383 M 481.0710709425017 96.22650890059387 L 482.524340229161 73.77349109940613 M 506.63542792566295 97.25 L 506.63542792566295 74.75 M 532.0709497655122 97.24156664913812 L 531.1999060858137 74.75843335086188 M 557.5412338262959 95.10871280018158 L 555.3241374220463 72.71821295015 M 582.3527354130292 91.17172998893219 L 579.5947179782249 68.84140666325428 M 605.8808821144211 89.24953634335458 L 605.6766072060808 66.75046365664542 M 630.9282530556023 87.2366523466068 L 629.8325449895632 64.7633476533932 M 655.9704598478643 87.23451504171267 L 654.7903381973013 64.76548495828733 M 676.7554177539706 83.95474374834245 L 681.8763900867028 62.045256251657555 M 703.7103526448727 86.25 L 703.7103526448727 63.75 M 728.474284667373 87.25 L 728.474284667373 64.75 M 751.730061036541 90.19512490904552 L 753.9496810678693 67.80487509095448 M 759.7820653607623 93.2077568866009 L 782.2179346392377 91.51017928332 M 755.0308193946206 100.9152955267356 L 764.3427218818714 121.39793383501836 M 733.7252151598357 107.39598111049125 L 738.8946558721514 129.29408337351518 M 707.3652045769987 118.83993986724094 L 721.2502072660003 136.5446482897601 M 690.1177089629446 129.53930217253244 L 697.259869819716 150.87564530569384 M 666.6152238576893 144.68031085661832 L 679.771205262624 162.9332600230684 M 647.344012698186 159.94676682347432 L 660.5342270306593 178.17499344768038 M 627.1489350502558 176.94116237304686 L 643.058837626953 192.8510649497442 M 609.2128028896793 190.42881831226546 L 621.877374556489 209.02609296465036 M 588.267900083177 206.07397607963918 L 603.2768927235322 222.83643830694234 M 572.4945999379793 222.80093477632838 L 585.6505813429139 241.05388394277847 M 555.6251017482475 238.11105452390834 L 565.9957412058361 258.0785239990498 M 535.608489841978 252.28825246728366 L 545.710087095706 272.3931705950323 M 514.9470237576952 262.3211669079038 L 522.025165827801 283.6788330920962 M 491.7284106932266 277.220324718928 L 504.88439209816124 295.4732738853781 M 475.15946659357303 293.0412869089407 L 486.7649840624754 312.3172295390432 M 454.3530220329583 302.279950065002 L 462.90169826905515 323.0926897839912 M 431.72249688843374 316.5730378258739 L 444.8784782933684 334.825986992324 M 411.36398672551644 329.51933676342753 L 425.4197177935833 347.0888109770226 M 392.75 355.5553180465063 L 415.25 355.5553180465063 M 408.658271248438 385.06749247209 L 423.0932986026382 367.808292453448 M 438.5627494485874 394.25 L 438.5627494485874 371.75 M 463.5627494485874 394.25 L 463.5627494485874 371.75 M 488.5627494485874 394.25 L 488.5627494485874 371.75 M 514.4619771418795 392.32456413706484 L 512.24488073763 369.93406428703327 M 538.3406243093768 392.25 L 538.3406243093768 369.75 M 562.6177233513718 388.25 L 562.6177233513718 365.75 M 587.6177233513718 388.25 L 587.6177233513718 365.75 M 612.6177233513718 388.25 L 612.6177233513718 365.75 M 637.6177233513718 388.25 L 637.6177233513718 365.75 M 663.1771421845352 388.23608252769185 L 662.0583045182083 365.76391747230815 M 687.4946177257541 387.25 L 687.4946177257541 364.75 M 712.4946177257541 387.25 L 712.4946177257541 364.75 M 737.4946177257541 387.25 L 737.4946177257541 364.75 M 762.4946177257541 387.25 L 762.4946177257541 364.75 M 787.4946177257541 387.25 L 787.4946177257541 364.75 " stroke="#8B4513" stroke-width="7" fill="none" stroke-linecap="butt" />
    <path d="M 383 82.5 L 385 82.5 L 391.37928102276334 82.5 L 397.37928102276334 83.5 L 403.07670780786754 83.5 L 406.1809828122275 84.27606875109 L 411.07670780786754 85.5 L 416 85.5 L 418.46699141100896 85.5 L 424.73325924066705 86.39518111852259 L 429.5291289864636 87.3543550676819 L 434.6477167745079 88.37807262529076 L 440.18655407471095 89.3012121753246 L 443.78291754873715 90.5 L 448.22949016875157 90.5 L 449.3822725296356 91.07639118044202 L 455.07670780786754 92.5 L 458 92.5 L 462 92.5 L 465 92.5 L 471 92.5 L 474 92.5 L 477 92.5 L 481 92.5 L 481.78291754873715 92.5 L 484.78291754873715 93.5 L 489 93.5 L 493 93.5 L 496 93.5 L 498 93.5 L 502 93.5 L 506 93.5 L 511 93.5 L 514 93.5 L 516 93.5 L 519 93.5 L 522 93.5 L 527 93.5 L 530 93.5 L 533.533008588991 93.5 L 540.533008588991 92.5 L 543 92.5 L 548.9232921921324 92.5 L 552.9232921921324 91.5 L 556.7426463519458 91.5 L 561.7426463519458 90.5 L 563 90.5 L 569.9232921921324 90.5 L 574.8190171877725 89.27606875109 L 581.9232921921324 87.5 L 587.533008588991 87.5 L 594.533008588991 86.5 L 597 86.5 L 599.9232921921324 86.5 L 603.9232921921324 85.5 L 606 85.5 L 609.2170824512629 85.5 L 612.2170824512629 84.5 L 614 84.5 L 618 84.5 L 621 84.5 L 627.7705098312484 84.5 L 629.7705098312484 83.5 L 631 83.5 L 635 83.5 L 639 83.5 L 641 83.5 L 645 83.5 L 647 83.5 L 649 83.5 L 651 83.5 L 653 83.5 L 655 83.5 L 661.1066017177982 83.5 L 663.1066017177982 81.5 L 662 81.5 L 665.7705098312484 81.5 L 667.7705098312484 80.5 L 669 80.5 L 671 80.5 L 674 80.5 L 677 80.5 L 677.7291827170101 80.5 L 680.7291827170101 82.5 L 685 82.5 L 688 82.5 L 691 82.5 L 693 82.5 L 696 82.5 L 699 82.5 L 701 82.5 L 703 82.5 L 705 82.5 L 707 82.5 L 710 82.5 L 713 82.5 L 715 82.5 L 717 82.5 L 720 82.5 L 720.2294901687516 82.5 L 722.2294901687516 83.5 L 726 83.5 L 728 83.5 L 730 83.5 L 733 83.5 L 735 83.5 L 737 83.5 L 737.2294901687516 83.5 L 738.1226354087804 83.94657262001442 L 742.7829175487371 85.5 L 744.2294901687516 85.5 L 746.2294901687516 86.5 L 750 86.5 L 752 86.5 L 752.2294901687516 86.5 L 754.2294901687516 87.5 L 756.2294901687516 87.5 L 756.6458980337503 87.70820393249937 L 756.4098300562505 87.59016994374947 L 758.3647450843758 91.5 L 760.3647450843758 91.5 L 760.4098300562505 91.59016994374947 L 763.557306395652 93.1639081134502 L 763.8360918865498 93.44269360434801 L 763.5 92.77050983124842 L 763.5 93 L 763.5 95 L 763.5 97 L 763.5 99 L 763.5 101 L 763.5 101.22949016875158 L 763.8360918865498 100.55730639565199 L 763.557306395652 100.8360918865498 L 762.6458980337503 101.29179606750063 L 760.6458980337503 102.29179606750063 L 758.6458980337503 103.29179606750063 L 756.6458980337503 104.29179606750063 L 756.2294901687516 104.5 L 754.2294901687516 104.5 L 751.1226354087804 106.05342737998558 L 748.1226354087804 107.05342737998558 L 745.6458980337503 108.29179606750063 L 745.2294901687516 108.5 L 743.2294901687516 108.5 L 741.2294901687516 109.5 L 739.2294901687516 109.5 L 737.2294901687516 110.5 L 735.2294901687516 110.5 L 733.2294901687516 111.5 L 731.2294901687516 111.5 L 729.2294901687516 112.5 L 729 112.5 L 725.2294901687516 112.5 L 723.2294901687516 113.5 L 719.8933982822018 113.5 L 715.557306395652 117.8360918865498 L 714.2282603617854 118.50061490348307 L 710.2218294125853 121.17156886961651 L 708.557306395652 122.8360918865498 L 708.1226354087804 123.05342737998558 L 704.6754478852829 124.20248988781807 L 700.2218294125853 127.17156886961651 L 698.557306395652 128.83609188654978 L 697.6458980337503 129.29179606750063 L 695.6458980337503 130.29179606750063 L 691.4098300562505 132.4098300562505 L 691.3647450843758 132.5 L 691.7291827170101 132.5 L 686.8397485283108 135.75962279246616 L 684.2282603617854 137.50061490348307 L 682.6458980337503 138.29179606750063 L 680.2282603617854 139.50061490348307 L 675.1825262680586 142.86443763263426 L 674.4098300562505 144.4098300562505 L 674.6458980337503 144.29179606750063 L 669.557306395652 146.83609188654978 L 666.557306395652 149.83609188654978 L 663.4098300562505 151.4098300562505 L 662.4098300562505 153.4098300562505 L 661.557306395652 153.83609188654978 L 659.2218294125853 156.1715688696165 L 656.2218294125853 158.17156886961652 L 654.2218294125853 160.1715688696165 L 652.2282603617854 161.50061490348307 L 649.557306395652 162.83609188654978 L 647.2218294125853 165.1715688696165 L 644.2218294125853 167.17156886961652 L 642.2218294125853 169.1715688696165 L 640.2282603617854 170.50061490348307 L 636.4098300562505 172.4098300562505 L 635.4098300562505 174.4098300562505 L 634.557306395652 174.83609188654978 L 631.6966991411009 177.6966991411009 L 629.6966991411009 179.6966991411009 L 628.557306395652 180.83609188654978 L 627.6458980337503 181.29179606750063 L 624.557306395652 182.83609188654978 L 621.2218294125853 186.17156886961652 L 617.1825262680586 188.86443763263426 L 616.4098300562505 190.4098300562505 L 616.2282603617854 190.50061490348307 L 613.2282603617854 192.50061490348307 L 610.557306395652 193.83609188654978 L 608.3495653111744 196.04383297102743 L 603.3495653111744 199.04383297102743 L 600.9904231917553 201.4029750904465 L 595.9904231917553 205.4029750904465 L 594.9486386489341 206.4447596332677 L 590.6811105915035 207.86726898574454 L 589.4098300562505 210.4098300562505 L 586.8672689857445 211.6811105915035 L 585.4447596332677 215.9486386489341 L 584.6966991411009 216.6966991411009 L 583.557306395652 217.83609188654978 L 581.557306395652 218.83609188654978 L 578.1715688696165 222.2218294125853 L 576.8644376326342 224.18252626805867 L 575.557306395652 224.83609188654978 L 573.557306395652 226.83609188654978 L 570.4098300562505 228.4098300562505 L 569.1825262680586 230.86443763263426 L 566.1825262680586 232.86443763263426 L 565.4098300562505 234.4098300562505 L 564.557306395652 234.83609188654978 L 561.6966991411009 237.6966991411009 L 559.6966991411009 239.6966991411009 L 558.557306395652 240.83609188654978 L 557.6458980337503 241.29179606750063 L 554.557306395652 242.83609188654978 L 552.557306395652 244.83609188654978 L 550.557306395652 245.83609188654978 L 547.557306395652 248.83609188654978 L 543.557306395652 250.83609188654978 L 541.557306395652 252.83609188654978 L 540.6458980337503 253.29179606750063 L 537.557306395652 254.83609188654978 L 536.8933982822018 255.5 L 536.2294901687516 255.5 L 533.1226354087804 257.0534273799856 L 530.1226354087804 258.0534273799856 L 527.2282603617854 259.5006149034831 L 524.2282603617854 261.5006149034831 L 522.6458980337503 262.2917960675006 L 520.6458980337503 263.2917960675006 L 518.2282603617854 264.5006149034831 L 516.7291827170101 265.5 L 513.8933982822018 265.5 L 510.9486386489341 268.44475963326767 L 508.67544788528295 269.2024898878181 L 503.18252626805867 272.86443763263424 L 502.40983005625054 274.40983005625054 L 502.6458980337503 274.2917960675006 L 500.22826036178543 275.5006149034831 L 496.2218294125853 278.1715688696165 L 494.557306395652 279.8360918865498 L 492.557306395652 280.8360918865498 L 488.8360918865498 284.557306395652 L 487.8360918865498 286.557306395652 L 486.6966991411009 287.6966991411009 L 484.6966991411009 289.6966991411009 L 482.1715688696165 292.2218294125853 L 481.98612181134 292.5 L 479.3647450843758 292.5 L 477.6811105915035 295.86726898574454 L 476.67544788528295 296.2024898878181 L 472.8397485283108 298.7596227924662 L 471.72918271701 299.5 L 469.72918271701 299.5 L 465.67544788528295 302.2024898878181 L 463.1226354087804 303.0534273799856 L 460.6458980337503 304.2917960675006 L 460.22949016875157 304.5 L 458.22949016875157 304.5 L 454.6458980337503 306.2917960675006 L 452.6458980337503 307.2917960675006 L 452.22949016875157 307.5 L 450.22949016875157 307.5 L 446.6458980337503 309.2917960675006 L 443.557306395652 310.8360918865498 L 440.6966991411009 313.6966991411009 L 439.557306395652 314.8360918865498 L 436.40983005625054 316.40983005625054 L 435.40983005625054 318.40983005625054 L 434.557306395652 318.8360918865498 L 432.557306395652 320.8360918865498 L 431.6458980337503 321.2917960675006 L 425.5 324.3647450843758 L 425.5 323.5 L 429.22949016875157 323.5 L 425.6458980337503 325.2917960675006 L 423.6458980337503 326.2917960675006 L 421.6458980337503 327.2917960675006 L 419.6458980337503 328.2917960675006 L 416.557306395652 329.8360918865498 L 414.557306395652 331.8360918865498 L 411.40983005625054 333.40983005625054 L 411.3647450843758 333.5 L 409.3647450843758 333.5 L 407.40983005625054 337.40983005625054 L 407.6458980337503 337.2917960675006 L 403.40983005625054 339.40983005625054 L 402.40983005625054 341.40983005625054 L 400.40983005625054 342.40983005625054 L 398.2917960675006 346.6458980337503 L 396.5 350.22949016875157 L 396.5 354 L 396.5 356 L 396.5 358 L 396.5 362.27081728299 L 399.5006149034831 366.77173963821457 L 400.5006149034831 368.77173963821457 L 402.5006149034831 371.77173963821457 L 403.2917960675006 373.3541019662497 L 404.8360918865498 376.442693604348 L 407.6966991411009 379.3033008588991 L 410.557306395652 382.1639081134502 L 411.40983005625054 382.59016994374946 L 413.3647450843758 386.5 L 418.22949016875157 386.5 L 418.6458980337503 386.7082039324994 L 422.22949016875157 388.5 L 424.22949016875157 388.5 L 426.22949016875157 389.5 L 428.22949016875157 389.5 L 430.22949016875157 390.5 L 434 390.5 L 437 390.5 L 439 390.5 L 442 390.5 L 446 390.5 L 448 390.5 L 451 390.5 L 454 390.5 L 457 390.5 L 459 390.5 L 463 390.5 L 465 390.5 L 470 390.5 L 472 390.5 L 476 390.5 L 478 390.5 L 480 390.5 L 483 390.5 L 486 390.5 L 488 390.5 L 490 390.5 L 493 390.5 L 497.92329219213246 390.5 L 501.92329219213246 389.5 L 504 389.5 L 507 389.5 L 509.7426463519459 389.5 L 514.7426463519458 388.5 L 516 388.5 L 520 388.5 L 523 388.5 L 525 388.5 L 528 388.5 L 531 388.5 L 535 388.5 L 538 388.5 L 540 388.5 L 544.2170824512629 388.5 L 547.2170824512629 387.5 L 549.7705098312484 387.5 L 551.7705098312484 386.5 L 553.2170824512629 386.5 L 557.3717082451262 385.11512473537886 L 559.2170824512629 384.5 L 562 384.5 L 566 384.5 L 569 384.5 L 571 384.5 L 574 384.5 L 577 384.5 L 581 384.5 L 585 384.5 L 587 384.5 L 589 384.5 L 593 384.5 L 595 384.5 L 598 384.5 L 600 384.5 L 603 384.5 L 607 384.5 L 609 384.5 L 612 384.5 L 614 384.5 L 617 384.5 L 619 384.5 L 621 384.5 L 623 384.5 L 625 384.5 L 627 384.5 L 630 384.5 L 632 384.5 L 635 384.5 L 638 384.5 L 640 384.5 L 643 384.5 L 647 384.5 L 649 384.5 L 651 384.5 L 654 384.5 L 656 384.5 L 658 384.5 L 661 384.5 L 665.9232921921324 384.5 L 669.9232921921324 383.5 L 672 383.5 L 675 383.5 L 677 383.5 L 679 383.5 L 681 383.5 L 683 383.5 L 685 383.5 L 687 383.5 L 689 383.5 L 692 383.5 L 696 383.5 L 698 383.5 L 702 383.5 L 704 383.5 L 707 383.5 L 710 383.5 L 712 383.5 L 714 383.5 L 718 383.5 L 720 383.5 L 722 383.5 L 725 383.5 L 728 383.5 L 731 383.5 L 733 383.5 L 736 383.5 L 738 383.5 L 740 383.5 L 742 383.5 L 745 383.5 L 748 383.5 L 750 383.5 L 752 383.5 L 754 383.5 L 756 383.5 L 759 383.5 L 761 383.5 L 763 383.5 L 766 383.5 L 768 383.5 L 770 383.5 L 772 383.5 L 774 383.5 L 776 383.5 L 778 383.5 L 780 383.5 L 782 383.5 L 784 383.5 L 786 383.5 L 788 383.5 L 790 383.5 L 792 383.5 " stroke="#4a5568" stroke-width="2" fill="none" stroke-linecap="butt" stroke-linejoin="round" />
    <path d="M 383 67.5 L 385 67.5 L 392.62071897723666 67.5 L 398.62071897723666 68.5 L 404.92329219213246 68.5 L 409.8190171877725 69.72393124891 L 412.92329219213246 70.5 L 416 70.5 L 419.53300858899104 70.5 L 427.26674075933295 71.60481888147741 L 432.4708710135364 72.6456449323181 L 437.3522832254921 73.62192737470924 L 443.81344592528905 74.6987878246754 L 446.21708245126285 75.5 L 451.77050983124843 75.5 L 454.6177274703644 76.92360881955798 L 456.92329219213246 77.5 L 458 77.5 L 462 77.5 L 465 77.5 L 471 77.5 L 474 77.5 L 477 77.5 L 481 77.5 L 484.21708245126285 77.5 L 487.21708245126285 78.5 L 489 78.5 L 493 78.5 L 496 78.5 L 498 78.5 L 502 78.5 L 506 78.5 L 511 78.5 L 514 78.5 L 516 78.5 L 519 78.5 L 522 78.5 L 527 78.5 L 530 78.5 L 532.466991411009 78.5 L 539.466991411009 77.5 L 543 77.5 L 547.0767078078676 77.5 L 551.0767078078676 76.5 L 555.2573536480542 76.5 L 560.2573536480542 75.5 L 563 75.5 L 568.0767078078676 75.5 L 571.1809828122275 74.72393124891 L 580.0767078078676 72.5 L 586.466991411009 72.5 L 593.466991411009 71.5 L 597 71.5 L 598.0767078078676 71.5 L 602.0767078078676 70.5 L 606 70.5 L 606.7829175487371 70.5 L 609.7829175487371 69.5 L 614 69.5 L 618 69.5 L 621 69.5 L 624.2294901687516 69.5 L 626.2294901687516 68.5 L 631 68.5 L 635 68.5 L 639 68.5 L 641 68.5 L 645 68.5 L 647 68.5 L 649 68.5 L 651 68.5 L 653 68.5 L 655 68.5 L 654.8933982822018 68.5 L 656.8933982822018 66.5 L 662 66.5 L 662.2294901687516 66.5 L 664.2294901687516 65.5 L 669 65.5 L 671 65.5 L 674 65.5 L 677 65.5 L 682.2708172829899 65.5 L 685.2708172829899 67.5 L 685 67.5 L 688 67.5 L 691 67.5 L 693 67.5 L 696 67.5 L 699 67.5 L 701 67.5 L 703 67.5 L 705 67.5 L 707 67.5 L 710 67.5 L 713 67.5 L 715 67.5 L 717 67.5 L 720 67.5 L 723.7705098312484 67.5 L 725.7705098312484 68.5 L 726 68.5 L 728 68.5 L 730 68.5 L 733 68.5 L 735 68.5 L 737 68.5 L 740.7705098312484 68.5 L 743.8773645912196 70.05342737998558 L 745.2170824512629 70.5 L 747.7705098312484 70.5 L 749.7705098312484 71.5 L 750 71.5 L 752 71.5 L 755.7705098312484 71.5 L 757.7705098312484 72.5 L 759.7705098312484 72.5 L 763.3541019662497 74.29179606750063 L 767.5901699437495 76.40983005625053 L 767.6352549156242 76.5 L 769.6352549156242 76.5 L 771.5901699437495 80.40983005625053 L 772.442693604348 80.8360918865498 L 776.1639081134502 84.55730639565199 L 778.5 89.22949016875158 L 778.5 93 L 778.5 95 L 778.5 97 L 778.5 99 L 778.5 101 L 778.5 104.77050983124842 L 776.1639081134502 109.44269360434801 L 772.442693604348 113.1639081134502 L 769.3541019662497 114.70820393249937 L 767.3541019662497 115.70820393249937 L 765.3541019662497 116.70820393249937 L 763.3541019662497 117.70820393249937 L 759.7705098312484 119.5 L 757.7705098312484 119.5 L 756.8773645912196 119.94657262001442 L 753.8773645912196 120.94657262001442 L 752.3541019662497 121.70820393249937 L 748.7705098312484 123.5 L 746.7705098312484 123.5 L 744.7705098312484 124.5 L 742.7705098312484 124.5 L 740.7705098312484 125.5 L 738.7705098312484 125.5 L 736.7705098312484 126.5 L 734.7705098312484 126.5 L 732.7705098312484 127.5 L 729 127.5 L 728.7705098312484 127.5 L 726.7705098312484 128.5 L 726.1066017177982 128.5 L 724.442693604348 130.16390811345022 L 721.7717396382146 131.49938509651693 L 719.7781705874147 132.82843113038348 L 717.442693604348 135.16390811345022 L 713.8773645912196 136.94657262001442 L 711.3245521147171 137.79751011218193 L 709.7781705874147 138.82843113038348 L 707.442693604348 141.16390811345022 L 704.3541019662497 142.70820393249937 L 702.3541019662497 143.70820393249937 L 702.5901699437495 143.5901699437495 L 700.6352549156242 147.5 L 696.2708172829899 147.5 L 695.1602514716892 148.24037720753384 L 691.7717396382146 150.49938509651693 L 689.3541019662497 151.70820393249937 L 687.7717396382146 152.49938509651693 L 686.8174737319414 153.13556236736574 L 685.5901699437495 155.5901699437495 L 681.3541019662497 157.70820393249937 L 678.442693604348 159.16390811345022 L 675.442693604348 162.16390811345022 L 674.5901699437495 162.5901699437495 L 673.5901699437495 164.5901699437495 L 670.442693604348 166.16390811345022 L 668.7781705874147 167.8284311303835 L 665.7781705874147 169.82843113038348 L 663.7781705874147 171.8284311303835 L 659.7717396382146 174.49938509651693 L 658.442693604348 175.16390811345022 L 656.7781705874147 176.8284311303835 L 653.7781705874147 178.82843113038348 L 651.7781705874147 180.8284311303835 L 647.7717396382146 183.49938509651693 L 647.5901699437495 183.5901699437495 L 646.5901699437495 185.5901699437495 L 643.442693604348 187.16390811345022 L 642.3033008588991 188.3033008588991 L 640.3033008588991 190.3033008588991 L 637.442693604348 193.16390811345022 L 634.3541019662497 194.70820393249937 L 633.442693604348 195.16390811345022 L 630.7781705874147 197.82843113038348 L 628.8174737319414 199.13556236736574 L 627.5901699437495 201.5901699437495 L 623.7717396382146 203.49938509651693 L 620.7717396382146 205.49938509651693 L 619.442693604348 206.16390811345022 L 617.6504346888256 207.95616702897257 L 612.6504346888256 210.95616702897257 L 611.0095768082447 212.5970249095535 L 606.0095768082447 216.5970249095535 L 603.0513613510659 219.5552403667323 L 601.3188894084965 220.13273101425546 L 600.5901699437495 221.5901699437495 L 599.1327310142555 222.3188894084965 L 598.5552403667323 224.0513613510659 L 595.3033008588991 227.3033008588991 L 592.442693604348 230.16390811345022 L 590.442693604348 231.16390811345022 L 589.8284311303835 231.7781705874147 L 587.1355623673658 235.81747373194133 L 584.442693604348 237.16390811345022 L 582.442693604348 239.16390811345022 L 581.5901699437495 239.5901699437495 L 580.8174737319414 241.13556236736574 L 577.8174737319414 243.13556236736574 L 576.5901699437495 245.5901699437495 L 573.442693604348 247.16390811345022 L 572.3033008588991 248.3033008588991 L 570.3033008588991 250.3033008588991 L 567.442693604348 253.16390811345022 L 564.3541019662497 254.70820393249937 L 563.442693604348 255.16390811345022 L 561.442693604348 257.1639081134502 L 559.442693604348 258.1639081134502 L 556.442693604348 261.1639081134502 L 552.442693604348 263.1639081134502 L 550.442693604348 265.1639081134502 L 547.3541019662497 266.7082039324994 L 546.442693604348 267.1639081134502 L 543.1066017177982 270.5 L 539.7705098312484 270.5 L 538.8773645912196 270.9465726200144 L 535.8773645912196 271.9465726200144 L 534.7717396382146 272.4993850965169 L 531.7717396382146 274.4993850965169 L 529.3541019662497 275.7082039324994 L 527.3541019662497 276.7082039324994 L 525.7717396382146 277.4993850965169 L 521.2708172829899 280.5 L 520.1066017177982 280.5 L 519.0513613510659 281.55524036673233 L 515.3245521147171 282.7975101121819 L 514.8174737319414 283.13556236736576 L 513.5901699437495 285.59016994374946 L 509.3541019662497 287.7082039324994 L 507.77173963821457 288.4993850965169 L 505.7781705874147 289.8284311303835 L 503.442693604348 292.1639081134502 L 501.442693604348 293.1639081134502 L 501.1639081134502 293.442693604348 L 500.1639081134502 295.442693604348 L 497.3033008588991 298.3033008588991 L 495.3033008588991 300.3033008588991 L 493.8284311303835 301.7781705874147 L 490.01387818866 307.5 L 488.6352549156242 307.5 L 488.3188894084965 308.13273101425546 L 483.32455211471705 309.7975101121819 L 481.1602514716892 311.2403772075338 L 476.27081728299 314.5 L 474.27081728299 314.5 L 472.32455211471705 315.7975101121819 L 468.8773645912196 316.9465726200144 L 467.3541019662497 317.7082039324994 L 463.77050983124843 319.5 L 461.77050983124843 319.5 L 461.3541019662497 319.7082039324994 L 459.3541019662497 320.7082039324994 L 455.77050983124843 322.5 L 453.77050983124843 322.5 L 453.3541019662497 322.7082039324994 L 452.442693604348 323.1639081134502 L 451.3033008588991 324.3033008588991 L 448.442693604348 327.1639081134502 L 447.59016994374946 327.59016994374946 L 446.59016994374946 329.59016994374946 L 443.442693604348 331.1639081134502 L 441.442693604348 333.1639081134502 L 438.3541019662497 334.7082039324994 L 440.5 333.6352549156242 L 440.5 338.5 L 432.77050983124843 338.5 L 432.3541019662497 338.7082039324994 L 430.3541019662497 339.7082039324994 L 428.3541019662497 340.7082039324994 L 426.3541019662497 341.7082039324994 L 425.442693604348 342.1639081134502 L 423.442693604348 344.1639081134502 L 422.59016994374946 344.59016994374946 L 420.6352549156242 348.5 L 418.6352549156242 348.5 L 418.59016994374946 348.59016994374946 L 414.3541019662497 350.7082039324994 L 414.59016994374946 350.59016994374946 L 413.59016994374946 352.59016994374946 L 411.59016994374946 353.59016994374946 L 411.7082039324994 353.3541019662497 L 411.5 353.77050983124843 L 411.5 354 L 411.5 356 L 411.5 358 L 411.5 357.72918271701 L 412.4993850965169 359.22826036178543 L 413.4993850965169 361.22826036178543 L 415.4993850965169 364.22826036178543 L 416.7082039324994 366.6458980337503 L 417.1639081134502 367.557306395652 L 418.3033008588991 368.6966991411009 L 419.442693604348 369.8360918865498 L 422.59016994374946 371.40983005625054 L 422.6352549156242 371.5 L 421.77050983124843 371.5 L 425.3541019662497 373.2917960675006 L 425.77050983124843 373.5 L 427.77050983124843 373.5 L 429.77050983124843 374.5 L 431.77050983124843 374.5 L 433.77050983124843 375.5 L 434 375.5 L 437 375.5 L 439 375.5 L 442 375.5 L 446 375.5 L 448 375.5 L 451 375.5 L 454 375.5 L 457 375.5 L 459 375.5 L 463 375.5 L 465 375.5 L 470 375.5 L 472 375.5 L 476 375.5 L 478 375.5 L 480 375.5 L 483 375.5 L 486 375.5 L 488 375.5 L 490 375.5 L 493 375.5 L 496.07670780786754 375.5 L 500.07670780786754 374.5 L 504 374.5 L 507 374.5 L 508.2573536480541 374.5 L 513.2573536480542 373.5 L 516 373.5 L 520 373.5 L 523 373.5 L 525 373.5 L 528 373.5 L 531 373.5 L 535 373.5 L 538 373.5 L 540 373.5 L 541.7829175487371 373.5 L 544.7829175487371 372.5 L 546.2294901687516 372.5 L 548.2294901687516 371.5 L 550.7829175487371 371.5 L 552.6282917548738 370.88487526462114 L 556.7829175487371 369.5 L 562 369.5 L 566 369.5 L 569 369.5 L 571 369.5 L 574 369.5 L 577 369.5 L 581 369.5 L 585 369.5 L 587 369.5 L 589 369.5 L 593 369.5 L 595 369.5 L 598 369.5 L 600 369.5 L 603 369.5 L 607 369.5 L 609 369.5 L 612 369.5 L 614 369.5 L 617 369.5 L 619 369.5 L 621 369.5 L 623 369.5 L 625 369.5 L 627 369.5 L 630 369.5 L 632 369.5 L 635 369.5 L 638 369.5 L 640 369.5 L 643 369.5 L 647 369.5 L 649 369.5 L 651 369.5 L 654 369.5 L 656 369.5 L 658 369.5 L 661 369.5 L 664.0767078078676 369.5 L 668.0767078078676 368.5 L 672 368.5 L 675 368.5 L 677 368.5 L 679 368.5 L 681 368.5 L 683 368.5 L 685 368.5 L 687 368.5 L 689 368.5 L 692 368.5 L 696 368.5 L 698 368.5 L 702 368.5 L 704 368.5 L 707 368.5 L 710 368.5 L 712 368.5 L 714 368.5 L 718 368.5 L 720 368.5 L 722 368.5 L 725 368.5 L 728 368.5 L 731 368.5 L 733 368.5 L 736 368.5 L 738 368.5 L 740 368.5 L 742 368.5 L 745 368.5 L 748 368.5 L 750 368.5 L 752 368.5 L 754 368.5 L 756 368.5 L 759 368.5 L 761 368.5 L 763 368.5 L 766 368.5 L 768 368.5 L 770 368.5 L 772 368.5 L 774 368.5 L 776 368.5 L 778 368.5 L 780 368.5 L 782 368.5 L 784 368.5 L 786 368.5 L 788 368.5 L 790 368.5 L 792 368.5 " stroke="#4a5568" stroke-width="2" fill="none" stroke-linecap="butt" stroke-linejoin="round" />
  </g>
</svg>