<svg xmlns="http://www.w3.org/2000/svg" width="1334" height="864" viewBox="0 0 1334 864">
  <g fill="none">
    <path d="M 581.0311529493745 268.93769410125094 L 570.9688470506255 289.06230589874906 M 557.1118993254208 257.24195782201167 L 551.3614312356256 278.9947074585115 M 533.7066472182138 250.111912299516 L 528.5372065058981 272.01001456253994 M 512.0280701423428 242.98865062422857 L 503.84453851235327 263.9476537031195 M 481.6388174569753 241.946169930126 L 485.8222805135106 264.05383006987404 M 456.2585760156333 248.80081359474184 L 463.3750198962105 270.14574804052063 M 431.54577745832285 263.5144658123585 L 445.8105278344475 280.9146639924613 M 412.6553508856917 281.44192455440077 L 429.0359369022087 296.86678765769886 M 398.0992952913444 307.30772627479297 L 419.54573441481665 314.112154900563 M 390.80937391533257 333.24462826087387 L 413.19062608466743 335.5532103652495 M 389.75 359.16285133556187 L 412.25 359.16285133556187 M 395.5061541232086 387.6938169548285 L 416.2049634739026 378.8728594408382 M 406.21165136233526 412.5938440376232 L 424.6551152033227 399.7063058108636 M 421.09794679603124 434.58058593415694 L 436.58968101518656 418.263227971452 M 442.4890251191403 452.2612213721739 L 452.22542278698603 431.97692792986817 M 468.03931133695204 462.0934096105525 L 471.78030757458765 439.9065903894475 M 491.2707669735044 467.9154690350586 L 496.6918296432995 446.0782970677421 M 518.5966375424703 471.25 L 518.5966375424703 448.75 M 544.878533467563 469.1402933478049 L 541.7439750458053 446.8597066521951 M 571.56397447348 458.4315674269561 L 560.6792126143613 438.73964118114975 M 594.1298643631588 439.63952505998947 L 575.6437602358118 426.8132257420693 M 606.9125037280133 413.37874074505396 L 584.7030359311697 409.7746402773972 M 612.1657100126827 388.8630717564732 L 589.8342899873173 386.1139483233198 M 614.25 362.84768364301397 L 591.75 362.84768364301397 M 616.9912004055298 340.8812666239174 L 595.0087995944702 336.08292789244655 M 620.25 314.19030119068145 L 597.75 314.19030119068145 M 620.25 289.19030119068145 L 597.75 289.19030119068145 M 621.25 264.4263691681813 L 598.75 264.4263691681813 M 621.25 239.42636916818128 L 598.75 239.42636916818128 M 621.25 214.42636916818128 L 598.75 214.42636916818128 M 619.25 189.89850512318094 L 596.75 189.89850512318094 M 616.4170836883469 160.69763887987168 L 595.9144277700792 169.96538403698074 M 613.2497407821843 141.09096263661397 L 590.7502592178157 141.2437020704199 M 613.25 116.16733235351694 L 590.75 116.16733235351694 M 613.25 91.16733235351694 L 590.75 91.16733235351694 M 613.25 66.16733235351694 L 590.75 66.16733235351694 M 615.8966625639302 45.02919138772503 L 594.1033374360698 39.434463523800936 M 617.8126899174046 43.024151451450194 L 629.6416399400852 23.8845082635293 M 625.75 50.78879607453575 L 648.25 50.78879607453575 M 626.75 75.55272809703592 L 649.25 75.55272809703592 M 625.75 100.3166601195361 L 648.25 100.3166601195361 M 625.4621205623789 122.59293625606047 L 647.3602228254028 127.7623769683761 M 624.75 150.08059214203627 L 647.25 150.08059214203627 M 628.1002093706815 176.58230174237366 L 650.1819787069111 172.26426249040395 M 631.7615258826381 199.08481333875534 L 654.2384741173619 198.06658052964622 M 632.75 223.33962895670106 L 655.25 223.33962895670106 M 633.75 248.10356097920135 L 656.25 248.10356097920135 M 634.75 272.86749300170163 L 657.25 272.86749300170163 M 634.3047129615979 295.96960918611217 L 656.5141807584416 299.5737096537689 M 629.7506557109349 321.78706186599356 L 652.2493442890651 322.0299862664001 M 627.75 346.54935046307946 L 650.25 346.54935046307946 M 624.75 370.9149368479116 L 647.25 370.9149368479116 M 623.75 395.67886887041186 L 646.25 395.67886887041186 M 622.7653343373764 421.0299869358891 L 645.2346656626236 419.8556148499352 M 631.908670491117 446.8690766741442 L 652.8642177899554 438.67669988800054 " stroke="#8B4513" stroke-width="7" fill="none" stroke-linecap="butt" />
    <path d="M 579.3541019662497 272.2917960675006 L 577.3541019662497 271.2917960675006 L 575.3541019662497 270.2917960675006 L 574.442693604348 269.8360918865498 L 570.1066017177982 265.5 L 566.7705098312484 265.5 L 566.7717396382146 265.5006149034831 L 562.2708172829899 262.5 L 559.7705098312484 262.5 L 559.3541019662497 262.2917960675006 L 555.7705098312484 260.5 L 555.1066017177982 260.5 L 554.442693604348 259.8360918865498 L 549.7705098312484 257.5 L 547.7705098312484 257.5 L 546.4557521507835 256.84262115976753 L 541.4557521507835 255.8426211597675 L 538.7705098312484 254.5 L 534.7705098312484 254.5 L 532.7705098312484 253.5 L 531.1066017177982 253.5 L 529.8343715596868 252.22776984188857 L 522.9232921921324 250.5 L 521.2170824512629 250.5 L 519.8773645912196 250.05342737998558 L 517.8773645912196 249.05342737998558 L 514.3717082451262 247.88487526462114 L 511.8773645912196 247.05342737998558 L 509.6177274703644 245.92360881955798 L 505.098453228654 244.7937902591304 L 501.21708245126285 243.5 L 498 243.5 L 495 243.5 L 492 243.5 L 488.78291754873715 243.5 L 484.1226354087804 245.05342737998558 L 483.22949016875157 245.5 L 481.78291754873715 245.5 L 477.6282917548737 246.88487526462114 L 474.6282917548737 247.88487526462114 L 472.78291754873715 248.5 L 472 248.5 L 468.5556319732456 248.5 L 462.6871722488757 250.84738388974796 L 458.6871722488757 251.84738388974796 L 453.4192040957879 253.9545711509831 L 449.67544788528295 255.20248988781807 L 446.22826036178543 257.5006149034831 L 444.22826036178543 258.5006149034831 L 440.2218294125853 261.1715688696165 L 438.557306395652 262.8360918865498 L 436.557306395652 263.8360918865498 L 434.2218294125853 266.1715688696165 L 431.2218294125853 268.1715688696165 L 428.557306395652 270.8360918865498 L 425.40983005625054 272.40983005625054 L 424.18252626805867 274.86443763263424 L 422.2218294125853 276.1715688696165 L 419.3198051533946 279.07359312880715 L 416.3198051533946 283.07359312880715 L 414.6966991411009 284.6966991411009 L 411.8360918865498 287.557306395652 L 410.5006149034831 290.22826036178543 L 408.2024898878181 293.67544788528295 L 407.2024898878181 296.67544788528295 L 405.5006149034831 299.22826036178543 L 403.0534273799856 304.1226354087804 L 401.7937902591304 307.901546771346 L 401.03901003634303 310.92066766249553 L 399.2024898878181 313.67544788528295 L 398.0534273799856 317.1226354087804 L 396.5 320.22949016875157 L 396.5 323.07670780786754 L 395.6512866074479 326.47156137807593 L 394.5 333.37928102276334 L 394.5 335.22949016875157 L 393.5 337.22949016875157 L 393.5 341 L 393.5 343 L 393.5 347 L 393.5 349 L 393.5 352 L 393.5 355 L 393.5 358 L 393.5 361 L 393.5 363 L 393.5 365.92329219213246 L 394.7937902591304 371.098453228654 L 395.5 373.21708245126285 L 395.5 376.77050983124843 L 396.84262115976753 379.45575215078344 L 397.9366202660126 384.9257476820089 L 400.03901003634303 388.07933233750447 L 400.923608819558 391.6177274703644 L 403.0534273799856 395.8773645912196 L 404.0534273799856 398.8773645912196 L 405.923608819558 402.6177274703644 L 407.03901003634303 407.07933233750447 L 410.1715688696165 411.7781705874147 L 410.5 412.1066017177982 L 410.5 413.27081728299 L 414.1715688696165 418.7781705874147 L 415.8360918865498 420.442693604348 L 417.2917960675006 423.3541019662497 L 418.8360918865498 426.442693604348 L 420.8360918865498 428.442693604348 L 422.40983005625054 431.59016994374946 L 424.86443763263424 432.81747373194133 L 426.1715688696165 434.7781705874147 L 429.557306395652 438.1639081134502 L 431.557306395652 439.1639081134502 L 431.8360918865498 439.442693604348 L 433.6811105915035 443.13273101425546 L 437.9486386489341 444.55524036673233 L 439.2218294125853 445.8284311303835 L 443.67544788528295 448.7975101121819 L 447.1226354087804 449.9465726200144 L 448.6458980337503 450.7082039324994 L 453.1226354087804 452.9465726200144 L 454.9486386489341 453.55524036673233 L 457.8933982822018 456.5 L 462.72918271701 456.5 L 465.72918271701 458.5 L 468.78291754873715 458.5 L 470.1226354087804 458.9465726200144 L 473.22949016875157 460.5 L 476.78291754873715 460.5 L 481.901546771346 462.2062097408696 L 486.47156137807593 463.3487133925521 L 492.18655407471095 464.3012121753246 L 495.78291754873715 465.5 L 502 465.5 L 505.07670780786754 465.5 L 508.35412444712125 466.31935415981343 L 514.2573536480542 467.5 L 518 467.5 L 522 467.5 L 527 467.5 L 530 467.5 L 533 467.5 L 537.2170824512629 467.5 L 541.098453228654 466.2062097408696 L 543.9232921921324 465.5 L 546.7705098312484 465.5 L 549.8773645912196 463.9465726200144 L 552.098453228654 463.2062097408696 L 556.6177274703643 462.076391180442 L 559.3541019662497 460.7082039324994 L 561.7717396382146 459.4993850965169 L 564.3245521147171 457.7975101121819 L 567.3245521147171 456.7975101121819 L 570.7717396382146 454.4993850965169 L 572.3541019662497 453.7082039324994 L 575.442693604348 452.1639081134502 L 578.3033008588991 449.3033008588991 L 579.0513613510659 448.55524036673233 L 582.0513613510659 447.55524036673233 L 584.7781705874147 444.8284311303835 L 588.8174737319414 442.13556236736576 L 590.7082039324994 438.3541019662497 L 591.1639081134502 437.442693604348 L 592.3033008588991 436.3033008588991 L 594.8284311303835 433.7781705874147 L 597.797510112182 429.32455211471705 L 598.797510112182 426.32455211471705 L 601.5 422.27081728299 L 601.5 418.21708245126285 L 603.5 412.21708245126285 L 603.5 410.77050983124843 L 605.5 406.77050983124843 L 605.5 402 L 605.5 401.21708245126285 L 606.2062097408696 399.098453228654 L 607.27606875109 394.8190171877725 L 608.5 389.92329219213246 L 608.5 385.92329219213246 L 609.076391180442 383.6177274703644 L 610.5 380.77050983124843 L 610.5 375 L 610.5 372 L 610.5 369 L 610.5 367 L 610.5 365 L 610.5 363 L 610.5 361 L 610.5 359 L 610.5 358.77050983124843 L 611.5 356.77050983124843 L 611.5 353 L 611.5 351 L 611.5 348 L 611.5 346.77050983124843 L 611.9465726200144 345.8773645912196 L 613.5 341.21708245126285 L 613.5 339.77050983124843 L 614.5 337.77050983124843 L 614.5 334 L 614.5 333.77050983124843 L 615.5 331.77050983124843 L 615.5 328 L 615.5 326 L 615.5 324.77050983124843 L 616.5 322.77050983124843 L 616.5 317 L 616.5 314 L 616.5 311 L 616.5 309 L 616.5 306 L 616.5 303 L 616.5 301 L 616.5 298 L 616.5 295 L 616.5 293 L 616.5 289 L 616.5 287 L 616.5 284 L 616.5 281 L 616.5 277 L 616.5 275 L 616.5 273 L 616.5 271 L 616.5 270.77050983124843 L 617.5 268.77050983124843 L 617.5 265 L 617.5 263 L 617.5 259 L 617.5 256 L 617.5 254 L 617.5 252 L 617.5 249 L 617.5 246 L 617.5 243 L 617.5 241 L 617.5 239 L 617.5 237 L 617.5 235 L 617.5 233 L 617.5 231 L 617.5 228 L 617.5 224 L 617.5 222 L 617.5 219 L 617.5 216 L 617.5 214 L 617.5 212 L 617.5 208.22949016875157 L 616.5 206.22949016875157 L 616.5 206 L 616.5 202.22949016875157 L 615.5 200.22949016875157 L 615.5 200 L 615.5 198 L 615.5 196 L 615.5 193 L 615.5 191 L 615.5 189 L 615.5 187 L 615.5 185 L 615.5 182 L 615.5 179 L 615.5 177 L 615.5 175 L 615.5 173 L 615.5 169.22949016875157 L 614.5 167.22949016875157 L 614.5 165.22949016875157 L 612.7082039324994 161.6458980337503 L 611.9465726200144 160.1226354087804 L 611.5 158.78291754873715 L 611.5 158 L 611.5 155 L 611.5 151.22949016875157 L 610.5 149.22949016875157 L 610.5 146.78291754873715 L 609.5 143.78291754873715 L 609.5 141 L 609.5 138 L 609.5 136 L 609.5 134 L 609.5 132 L 609.5 130 L 609.5 127 L 609.5 125 L 609.5 123 L 609.5 121 L 609.5 119 L 609.5 116 L 609.5 113 L 609.5 111 L 609.5 108 L 609.5 105 L 609.5 103 L 609.5 101 L 609.5 98 L 609.5 96 L 609.5 94 L 609.5 90 L 609.5 88 L 609.5 86 L 609.5 84 L 609.5 81 L 609.5 77 L 609.5 75 L 609.5 73 L 609.5 71 L 609.5 69 L 609.5 66 L 609.5 64 L 609.5 62 L 609.5 60 L 609.5 58 L 609.5 56 L 609.5 54 L 609.5 52 L 609.5 50 L 609.5 49.770509831248425 L 609.1639081134502 50.442693604348 L 612.5 47.10660171779821 L 612.5 43.770509831248425 L 612.4993850965169 43.77173963821457 L 613.8284311303835 41.77817058741472 L 614.442693604348 41.16390811345021 L 613.7705098312484 41.5 L 618.6352549156242 41.5 L 619.6352549156242 39.5 L 617 39.5 L 619 39.5 L 621 39.5 L 618.3647450843758 39.5 L 619.3647450843758 41.5 L 622.8933982822018 41.5 L 622.6966991411009 41.30330085889911 L 625.557306395652 44.16390811345021 L 628.6458980337503 45.70820393249937 L 626.5 44.63525491562421 L 626.5 46.63525491562421 L 630.4098300562505 48.59016994374947 L 629.5 46.770509831248425 L 629.5 47 L 629.5 49 L 629.5 52 L 629.5 54 L 629.5 56 L 629.5 58 L 629.5 60 L 629.5 63.770509831248425 L 630.5 65.77050983124842 L 630.5 67 L 630.5 69 L 630.5 71 L 630.5 73 L 630.5 75 L 630.5 77 L 630.5 79 L 630.5 81 L 630.5 83 L 630.5 85 L 630.5 87 L 630.5 90 L 630.5 90.22949016875158 L 629.5 92.22949016875158 L 629.5 96 L 629.5 98 L 629.5 101 L 629.5 103 L 629.5 106 L 629.5 108 L 629.5 110 L 629.5 112 L 629.5 114 L 629.5 116 L 629.5 118 L 629.5 121 L 629.5 122.22949016875158 L 628.5 124.22949016875158 L 628.5 128 L 628.5 130 L 628.5 132 L 628.5 135 L 628.5 137 L 628.5 139 L 628.5 141 L 628.5 144 L 628.5 146 L 628.5 148 L 628.5 150 L 628.5 154 L 628.5 156 L 628.5 159 L 628.5 161 L 628.5 164.21708245126285 L 630.0534273799856 168.8773645912196 L 630.5 169.77050983124843 L 630.5 171.77050983124843 L 631.5 173.77050983124843 L 631.5 175.21708245126285 L 633.0534273799856 179.8773645912196 L 634.2917960675006 182.3541019662497 L 635.2917960675006 184.3541019662497 L 635.5 184.77050983124843 L 635.5 185 L 635.5 187 L 635.5 190 L 635.5 192 L 635.5 194 L 635.5 198 L 635.5 202.77050983124843 L 636.5 204.77050983124843 L 636.5 205 L 636.5 207 L 636.5 209 L 636.5 211 L 636.5 214 L 636.5 216 L 636.5 218 L 636.5 220 L 636.5 222 L 636.5 225 L 636.5 228 L 636.5 230 L 636.5 232 L 636.5 234 L 636.5 236 L 636.5 238 L 636.5 240 L 636.5 243.77050983124843 L 637.5 245.77050983124843 L 637.5 246 L 637.5 249 L 637.5 253 L 637.5 255 L 637.5 257 L 637.5 259 L 637.5 261 L 637.5 264.77050983124843 L 638.5 266.77050983124843 L 638.5 267 L 638.5 269 L 638.5 271 L 638.5 273 L 638.5 276 L 638.5 278 L 638.5 280 L 638.5 282 L 638.5 284 L 638.5 286 L 638.5 288 L 638.5 290 L 638.5 292 L 638.5 294 L 638.5 294.78291754873715 L 637.5 297.78291754873715 L 637.5 301 L 637.5 301.78291754873715 L 637.0534273799856 303.1226354087804 L 635.5 306.22949016875157 L 635.5 310 L 635.5 313 L 635.5 313.78291754873715 L 635.0534273799856 315.1226354087804 L 633.5 318.22949016875157 L 633.5 322 L 633.5 324 L 633.5 326 L 633.5 328.07670780786754 L 632.923608819558 330.3822725296356 L 631.5 333.22949016875157 L 631.5 337 L 631.5 339 L 631.5 341 L 631.5 343 L 631.5 345 L 631.5 347 L 631.5 349 L 631.5 351 L 631.5 352.78291754873715 L 631.0534273799856 354.1226354087804 L 629.5 357.22949016875157 L 629.5 361 L 629.5 361.22949016875157 L 628.5 363.22949016875157 L 628.5 367 L 628.5 369 L 628.5 371 L 628.5 373 L 628.5 375 L 628.5 377 L 628.5 379 L 628.5 382 L 628.5 384 L 628.5 386 L 628.5 388 L 628.5 388.22949016875157 L 627.5 390.22949016875157 L 627.5 394 L 627.5 396 L 627.5 396.22949016875157 L 626.5 398.22949016875157 L 626.5 402 L 626.5 404 L 626.5 406 L 626.5 408 L 626.5 410 L 626.5 412 L 626.5 414 L 626.5 416 L 626.5 418 L 626.5 420 L 626.5 423.77050983124843 L 627.5 425.77050983124843 L 627.5 427.21708245126285 L 629.0534273799856 431.8773645912196 L 630.2917960675006 434.3541019662497 L 630.5 434.77050983124843 L 630.5 439.6352549156242 L 634.4098300562505 441.59016994374946 L 633.5 439.77050983124843 L 633.5 441.77050983124843 L 635.2917960675006 445.3541019662497 L 635.5 445.77050983124843 L 635.5 447.77050983124843 L 637.2917960675006 451.3541019662497 L 638.2917960675006 453.3541019662497 L 638.5 453.77050983124843 L 638.5 454 " stroke="#4a5568" stroke-width="2" fill="none" stroke-linecap="butt" stroke-linejoin="round" />
    <path d="M 572.6458980337503 285.7082039324994 L 570.6458980337503 284.7082039324994 L 568.6458980337503 283.7082039324994 L 565.557306395652 282.1639081134502 L 563.8933982822018 280.5 L 563.2294901687516 280.5 L 559.2282603617854 278.4993850965169 L 557.7291827170101 277.5 L 556.2294901687516 277.5 L 552.6458980337503 275.7082039324994 L 552.2294901687516 275.5 L 548.8933982822018 275.5 L 545.557306395652 272.1639081134502 L 546.2294901687516 272.5 L 544.2294901687516 272.5 L 541.5442478492165 271.15737884023247 L 536.5442478492165 270.15737884023247 L 535.2294901687516 269.5 L 531.2294901687516 269.5 L 529.2294901687516 268.5 L 524.8933982822018 268.5 L 522.1656284403132 265.7722301581114 L 521.0767078078676 265.5 L 518.7829175487371 265.5 L 514.1226354087804 263.9465726200144 L 512.1226354087804 262.9465726200144 L 509.6282917548737 262.11512473537886 L 506.1226354087804 260.9465726200144 L 504.3822725296356 260.076391180442 L 500.901546771346 259.2062097408696 L 498.78291754873715 258.5 L 498 258.5 L 495 258.5 L 492 258.5 L 491.21708245126285 258.5 L 489.8773645912196 258.9465726200144 L 486.77050983124843 260.5 L 484.21708245126285 260.5 L 482.3717082451263 261.11512473537886 L 479.3717082451263 262.11512473537886 L 475.21708245126285 263.5 L 472 263.5 L 471.4443680267544 263.5 L 467.3128277511243 265.15261611025204 L 463.3128277511243 266.15261611025204 L 458.5807959042121 268.0454288490169 L 456.32455211471705 268.7975101121819 L 453.77173963821457 270.4993850965169 L 451.77173963821457 271.4993850965169 L 449.7781705874147 272.8284311303835 L 447.442693604348 275.1639081134502 L 445.442693604348 276.1639081134502 L 443.7781705874147 277.8284311303835 L 440.7781705874147 279.8284311303835 L 437.442693604348 283.1639081134502 L 436.59016994374946 283.59016994374946 L 435.81747373194133 285.13556236736576 L 431.7781705874147 287.8284311303835 L 430.6801948466054 288.92640687119285 L 427.6801948466054 292.92640687119285 L 425.3033008588991 295.3033008588991 L 424.1639081134502 296.442693604348 L 423.4993850965169 297.77173963821457 L 421.7975101121819 300.32455211471705 L 420.7975101121819 303.32455211471705 L 418.4993850965169 306.77173963821457 L 416.9465726200144 309.8773645912196 L 416.2062097408696 312.098453228654 L 414.96098996365697 317.07933233750447 L 412.7975101121819 320.32455211471705 L 411.9465726200144 322.8773645912196 L 411.5 323.77050983124843 L 411.5 324.92329219213246 L 410.3487133925521 329.52843862192407 L 409.5 334.62071897723666 L 409.5 338.77050983124843 L 408.5 340.77050983124843 L 408.5 341 L 408.5 343 L 408.5 347 L 408.5 349 L 408.5 352 L 408.5 355 L 408.5 358 L 408.5 361 L 408.5 363 L 408.5 364.07670780786754 L 409.2062097408696 366.901546771346 L 410.5 370.78291754873715 L 410.5 373.22949016875157 L 411.15737884023247 374.54424784921656 L 412.0633797339874 379.0742523179911 L 413.96098996365697 381.92066766249553 L 415.076391180442 386.3822725296356 L 416.9465726200144 390.1226354087804 L 417.9465726200144 393.1226354087804 L 420.076391180442 397.3822725296356 L 420.96098996365697 400.92066766249553 L 421.8284311303835 402.2218294125853 L 425.5 405.8933982822018 L 425.5 408.72918271701 L 425.8284311303835 409.2218294125853 L 428.1639081134502 411.557306395652 L 430.7082039324994 416.6458980337503 L 431.1639081134502 417.557306395652 L 433.1639081134502 419.557306395652 L 433.59016994374946 420.40983005625054 L 435.13556236736576 421.18252626805867 L 437.8284311303835 425.2218294125853 L 438.442693604348 425.8360918865498 L 440.442693604348 426.8360918865498 L 444.1639081134502 430.557306395652 L 444.3188894084965 430.86726898574454 L 446.0513613510659 431.44475963326767 L 448.7781705874147 434.1715688696165 L 450.32455211471705 435.2024898878181 L 452.8773645912196 436.0534273799856 L 455.3541019662497 437.2917960675006 L 458.8773645912196 439.0534273799856 L 463.0513613510659 440.44475963326767 L 464.1066017177982 441.5 L 467.27081728299 441.5 L 470.27081728299 443.5 L 471.21708245126285 443.5 L 475.8773645912196 445.0534273799856 L 476.77050983124843 445.5 L 479.21708245126285 445.5 L 486.098453228654 447.7937902591304 L 489.52843862192407 448.6512866074479 L 495.81344592528905 449.6987878246754 L 498.21708245126285 450.5 L 502 450.5 L 506.92329219213246 450.5 L 511.64587555287875 451.68064584018657 L 515.7426463519458 452.5 L 518 452.5 L 522 452.5 L 527 452.5 L 530 452.5 L 533 452.5 L 534.7829175487371 452.5 L 536.901546771346 451.7937902591304 L 542.0767078078676 450.5 L 543.2294901687516 450.5 L 544.1226354087804 450.0534273799856 L 547.901546771346 448.7937902591304 L 551.3822725296357 447.923608819558 L 552.6458980337503 447.2917960675006 L 554.2282603617854 446.5006149034831 L 557.6754478852829 444.2024898878181 L 560.6754478852829 443.2024898878181 L 563.2282603617854 441.5006149034831 L 565.6458980337503 440.2917960675006 L 566.557306395652 439.8360918865498 L 567.6966991411009 438.6966991411009 L 570.9486386489341 435.44475963326767 L 573.9486386489341 434.44475963326767 L 575.2218294125853 433.1715688696165 L 577.1825262680586 431.86443763263424 L 577.2917960675006 431.6458980337503 L 578.8360918865498 428.557306395652 L 581.6966991411009 425.6966991411009 L 583.1715688696165 424.2218294125853 L 584.202489887818 422.67544788528295 L 585.202489887818 419.67544788528295 L 586.5 417.72918271701 L 586.5 415.78291754873715 L 588.5 409.78291754873715 L 588.5 407.22949016875157 L 590.5 403.22949016875157 L 590.5 402 L 590.5 398.78291754873715 L 591.7937902591304 394.901546771346 L 592.72393124891 391.1809828122275 L 593.5 388.07670780786754 L 593.5 384.07670780786754 L 594.923608819558 378.3822725296356 L 595.5 377.22949016875157 L 595.5 375 L 595.5 372 L 595.5 369 L 595.5 367 L 595.5 365 L 595.5 363 L 595.5 361 L 595.5 359 L 595.5 355.22949016875157 L 596.5 353.22949016875157 L 596.5 353 L 596.5 351 L 596.5 348 L 596.5 343.22949016875157 L 598.0534273799856 340.1226354087804 L 598.5 338.78291754873715 L 598.5 336.22949016875157 L 599.5 334.22949016875157 L 599.5 334 L 599.5 330.22949016875157 L 600.5 328.22949016875157 L 600.5 328 L 600.5 326 L 600.5 321.22949016875157 L 601.5 319.22949016875157 L 601.5 317 L 601.5 314 L 601.5 311 L 601.5 309 L 601.5 306 L 601.5 303 L 601.5 301 L 601.5 298 L 601.5 295 L 601.5 293 L 601.5 289 L 601.5 287 L 601.5 284 L 601.5 281 L 601.5 277 L 601.5 275 L 601.5 273 L 601.5 271 L 601.5 267.22949016875157 L 602.5 265.22949016875157 L 602.5 265 L 602.5 263 L 602.5 259 L 602.5 256 L 602.5 254 L 602.5 252 L 602.5 249 L 602.5 246 L 602.5 243 L 602.5 241 L 602.5 239 L 602.5 237 L 602.5 235 L 602.5 233 L 602.5 231 L 602.5 228 L 602.5 224 L 602.5 222 L 602.5 219 L 602.5 216 L 602.5 214 L 602.5 212 L 602.5 211.77050983124843 L 601.5 209.77050983124843 L 601.5 206 L 601.5 205.77050983124843 L 600.5 203.77050983124843 L 600.5 200 L 600.5 198 L 600.5 196 L 600.5 193 L 600.5 191 L 600.5 189 L 600.5 187 L 600.5 185 L 600.5 182 L 600.5 179 L 600.5 177 L 600.5 175 L 600.5 173 L 600.5 172.77050983124843 L 599.5 170.77050983124843 L 599.5 168.77050983124843 L 599.2917960675006 168.3541019662497 L 598.0534273799856 165.8773645912196 L 596.5 161.21708245126285 L 596.5 158 L 596.5 155 L 596.5 154.77050983124843 L 595.5 152.77050983124843 L 595.5 149.21708245126285 L 594.5 146.21708245126285 L 594.5 141 L 594.5 138 L 594.5 136 L 594.5 134 L 594.5 132 L 594.5 130 L 594.5 127 L 594.5 125 L 594.5 123 L 594.5 121 L 594.5 119 L 594.5 116 L 594.5 113 L 594.5 111 L 594.5 108 L 594.5 105 L 594.5 103 L 594.5 101 L 594.5 98 L 594.5 96 L 594.5 94 L 594.5 90 L 594.5 88 L 594.5 86 L 594.5 84 L 594.5 81 L 594.5 77 L 594.5 75 L 594.5 73 L 594.5 71 L 594.5 69 L 594.5 66 L 594.5 64 L 594.5 62 L 594.5 60 L 594.5 58 L 594.5 56 L 594.5 54 L 594.5 52 L 594.5 50 L 594.5 46.229490168751575 L 596.8360918865498 41.557306395652 L 597.5 40.89339828220179 L 597.5 40.229490168751575 L 599.5006149034831 36.22826036178543 L 602.1715688696165 32.22182941258528 L 605.557306395652 28.836091886549788 L 610.2294901687516 26.5 L 609.3647450843758 26.5 L 610.3647450843758 24.5 L 617 24.5 L 619 24.5 L 621 24.5 L 627.6352549156242 24.5 L 628.6352549156242 26.5 L 629.1066017177982 26.5 L 633.3033008588991 30.696699141100893 L 634.442693604348 31.836091886549788 L 635.3541019662497 32.29179606750063 L 641.5 35.36474508437579 L 641.5 37.36474508437579 L 641.5901699437495 37.40983005625053 L 644.5 43.229490168751575 L 644.5 47 L 644.5 49 L 644.5 52 L 644.5 54 L 644.5 56 L 644.5 58 L 644.5 60 L 644.5 60.229490168751575 L 645.5 62.229490168751575 L 645.5 67 L 645.5 69 L 645.5 71 L 645.5 73 L 645.5 75 L 645.5 77 L 645.5 79 L 645.5 81 L 645.5 83 L 645.5 85 L 645.5 87 L 645.5 90 L 645.5 93.77050983124842 L 644.5 95.77050983124842 L 644.5 96 L 644.5 98 L 644.5 101 L 644.5 103 L 644.5 106 L 644.5 108 L 644.5 110 L 644.5 112 L 644.5 114 L 644.5 116 L 644.5 118 L 644.5 121 L 644.5 125.77050983124842 L 643.5 127.77050983124842 L 643.5 128 L 643.5 130 L 643.5 132 L 643.5 135 L 643.5 137 L 643.5 139 L 643.5 141 L 643.5 144 L 643.5 146 L 643.5 148 L 643.5 150 L 643.5 154 L 643.5 156 L 643.5 159 L 643.5 161 L 643.5 161.78291754873715 L 643.9465726200144 163.1226354087804 L 645.5 166.22949016875157 L 645.5 168.22949016875157 L 646.5 170.22949016875157 L 646.5 172.78291754873715 L 646.9465726200144 174.1226354087804 L 647.7082039324994 175.6458980337503 L 648.7082039324994 177.6458980337503 L 650.5 181.22949016875157 L 650.5 185 L 650.5 187 L 650.5 190 L 650.5 192 L 650.5 194 L 650.5 198 L 650.5 199.22949016875157 L 651.5 201.22949016875157 L 651.5 205 L 651.5 207 L 651.5 209 L 651.5 211 L 651.5 214 L 651.5 216 L 651.5 218 L 651.5 220 L 651.5 222 L 651.5 225 L 651.5 228 L 651.5 230 L 651.5 232 L 651.5 234 L 651.5 236 L 651.5 238 L 651.5 240 L 651.5 240.22949016875157 L 652.5 242.22949016875157 L 652.5 246 L 652.5 249 L 652.5 253 L 652.5 255 L 652.5 257 L 652.5 259 L 652.5 261 L 652.5 261.22949016875157 L 653.5 263.22949016875157 L 653.5 267 L 653.5 269 L 653.5 271 L 653.5 273 L 653.5 276 L 653.5 278 L 653.5 280 L 653.5 282 L 653.5 284 L 653.5 286 L 653.5 288 L 653.5 290 L 653.5 292 L 653.5 294 L 653.5 297.21708245126285 L 652.5 300.21708245126285 L 652.5 301 L 652.5 304.21708245126285 L 650.9465726200144 308.8773645912196 L 650.5 309.77050983124843 L 650.5 310 L 650.5 313 L 650.5 316.21708245126285 L 648.9465726200144 320.8773645912196 L 648.5 321.77050983124843 L 648.5 322 L 648.5 324 L 648.5 326 L 648.5 329.92329219213246 L 647.076391180442 335.6177274703644 L 646.5 336.77050983124843 L 646.5 337 L 646.5 339 L 646.5 341 L 646.5 343 L 646.5 345 L 646.5 347 L 646.5 349 L 646.5 351 L 646.5 355.21708245126285 L 644.9465726200144 359.8773645912196 L 644.5 360.77050983124843 L 644.5 361 L 644.5 364.77050983124843 L 643.5 366.77050983124843 L 643.5 367 L 643.5 369 L 643.5 371 L 643.5 373 L 643.5 375 L 643.5 377 L 643.5 379 L 643.5 382 L 643.5 384 L 643.5 386 L 643.5 388 L 643.5 391.77050983124843 L 642.5 393.77050983124843 L 642.5 394 L 642.5 396 L 642.5 399.77050983124843 L 641.5 401.77050983124843 L 641.5 402 L 641.5 404 L 641.5 406 L 641.5 408 L 641.5 410 L 641.5 412 L 641.5 414 L 641.5 416 L 641.5 418 L 641.5 420 L 641.5 420.22949016875157 L 642.5 422.22949016875157 L 642.5 424.78291754873715 L 642.9465726200144 426.1226354087804 L 643.7082039324994 427.6458980337503 L 645.5 431.22949016875157 L 645.5 430.3647450843758 L 645.5901699437495 430.40983005625054 L 648.5 436.22949016875157 L 648.5 438.22949016875157 L 648.7082039324994 438.6458980337503 L 650.5 442.22949016875157 L 650.5 444.22949016875157 L 650.7082039324994 444.6458980337503 L 651.7082039324994 446.6458980337503 L 653.5 450.22949016875157 L 653.5 454 " stroke="#4a5568" stroke-width="2" fill="none" stroke-linecap="butt" stroke-linejoin="round" />
  </g>
</svg>