<svg xmlns="http://www.w3.org/2000/svg" width="1334" height="864" viewBox="0 0 1334 864">
  <g fill="none">
    <path d="M 475.75 24 L 498.25 24 M 473.44057269389987 45.464333585129175 L 494.9963911937791 51.913883088797 M 467.80392476233334 71.65104784497821 L 490.19607523766666 73.85141079004673 M 467.8725488725249 99.40722793032951 L 490.1274511274751 96.09523070469542 M 469.75 122.4899321437513 L 492.25 122.4899321437513 M 469.75 147.4899321437513 L 492.25 147.4899321437513 M 469.75 172.4899321437513 L 492.25 172.4899321437513 M 469.82398664582576 196.20182286759533 L 492.17601335417424 198.77804141990728 M 466.7581354559583 221.73319490723472 L 489.2418645440417 222.58872181720082 M 465.8647834773781 245.4752444931919 L 488.1352165226219 248.6811471706472 M 464.75 271.9159181717512 L 487.25 271.9159181717512 M 464.75 296.9159181717512 L 487.25 296.9159181717512 M 462.75 321.517572534083 L 485.25 321.517572534083 M 462.75 346.517572534083 L 485.25 346.517572534083 M 462.75 371.517572534083 L 485.25 371.517572534083 M 461.75 396.3552948739146 L 484.25 396.3552948739146 M 460.0702017553353 418.3767738701477 L 481.9683040183592 423.5462145824633 M 458.75 445.79467157607803 L 481.25 445.79467157607803 M 458.7991652006058 471.84529034455653 L 481.2008347993942 469.74405280759953 M 476.96056090935525 498.4340734022537 L 488.9554772032024 479.3980028228616 M 513.3955926530361 482.63919015912137 L 492.6044073469639 474.0382243082086 M 515.25 453.50098489383345 L 492.75 453.50098489383345 M 515.25 428.50098489383345 L 492.75 428.50098489383345 M 515.25 403.50098489383345 L 492.75 403.50098489383345 M 515.25 378.50098489383345 L 492.75 378.50098489383345 M 515.25 353.50098489383345 L 492.75 353.50098489383345 M 520.25 329.6075344640011 L 497.75 329.6075344640011 M 517.4974723650064 303.37616516592533 L 495.2880045681627 306.98026563358206 M 516.25 280.40422573933745 L 493.75 280.40422573933745 M 517.1537813234969 257.03472074976844 L 494.8462186765031 254.09828604924314 M 522.232010869619 234.87319578197776 L 500.7555676928349 228.1640685306606 M 525.25 206.8861621330998 L 502.75 206.8861621330998 M 525.25 181.8861621330998 L 502.75 181.8861621330998 M 522.25 157.59436606559927 L 499.75 157.59436606559927 M 525.25 133.22877968076727 L 502.75 133.22877968076727 M 525.25 108.22877968076727 L 502.75 108.22877968076727 M 522.25 83.93698361326676 L 499.75 83.93698361326676 M 517.6966611372766 67.52640493819355 L 501.5624111104334 51.844058937951445 M 533.9956388511163 68.25 L 533.9956388511163 45.75 M 558.5235028961166 66.25 L 558.5235028961166 43.75 M 583.5235028961166 66.25 L 583.5235028961166 43.75 M 606.8569582190736 69.17943628679647 L 609.3730697503523 46.82056371320353 M 625.5997880830912 76.37452764961833 L 636.1168672841729 56.483800034013775 M 645.3208605819257 89.09338031357866 L 658.3134788887967 70.72378942178251 M 658.7780797642715 103.26488947294332 L 678.3877715666708 92.23266451988373 M 669.9449633177618 124.24222957061126 L 690.4981275862962 115.08704314156232 M 677.9901065650569 146.53717678341542 L 699.1722743885567 138.94996607742536 M 678.864816464823 165.83635954766046 L 701.135183535177 169.04272049922096 M 673.6042052480897 188.35126168189984 L 695.2627724489711 194.44687213573505 M 666.1742676686232 205.91670974559764 L 682.2506233508547 221.65839923492445 M 648.8942846379794 218.4795356506928 L 659.4948160410318 238.32591400980158 M 629.6762965072011 228.06231075379142 L 634.941067709589 249.93768924620858 M 605.6045866186404 233.05094886848804 L 610.7740273309561 254.94905113151196 M 583.6614429297977 234.75 L 583.6614429297977 257.25 M 562.739667189899 229.10625649638646 L 557.3995965455141 250.96337537132004 M 540.6112942415737 226.73097190970105 L 531.00598881984 247.07766962100578 " stroke="#8B4513" stroke-width="7" fill="none" stroke-linecap="butt" />
    <path d="M 479.5 24 L 479.5 27 L 479.5 29 L 479.5 33 L 479.5 35.07670780786754 L 478.72393124891 38.180982812227505 L 477.6512866074479 42.47156137807593 L 476.78744771350296 47.65459474174569 L 476.0534273799856 49.122635408780425 L 474.5 53.78291754873715 L 474.5 57.78291754873715 L 473.5 60.78291754873715 L 473.5 64.07670780786755 L 472.923608819558 66.38227252963561 L 471.5 69.22949016875158 L 471.5 74 L 471.5 77 L 471.5 79 L 471.5 81 L 471.5 83 L 471.5 86 L 471.5 88 L 471.5 92 L 471.5 95 L 471.5 99.21708245126284 L 472.5 102.21708245126284 L 472.5 103 L 472.5 106 L 472.5 109 L 472.5 112 L 472.5 115.74264635194588 L 473.5 120.74264635194588 L 473.5 122 L 473.5 124 L 473.5 126 L 473.5 128 L 473.5 131 L 473.5 134 L 473.5 136 L 473.5 138 L 473.5 141 L 473.5 143 L 473.5 147 L 473.5 149 L 473.5 152 L 473.5 154 L 473.5 156 L 473.5 161 L 473.5 163 L 473.5 168 L 473.5 172 L 473.5 175 L 473.5 178 L 473.5 185 L 473.5 190 L 473.5 197.07670780786754 L 472.5 201.07670780786754 L 472.5 206.07670780786754 L 471.5 210.07670780786754 L 471.5 213.37928102276337 L 470.5 219.37928102276337 L 470.5 224 L 470.5 227 L 470.5 231 L 470.5 234 L 470.5 237.37928102276337 L 469.5 243.37928102276337 L 469.5 246.78291754873715 L 468.5 249.78291754873715 L 468.5 254 L 468.5 258 L 468.5 260 L 468.5 262 L 468.5 264 L 468.5 266 L 468.5 268 L 468.5 270 L 468.5 272 L 468.5 274 L 468.5 277 L 468.5 281 L 468.5 284 L 468.5 289 L 468.5 292 L 468.5 295 L 468.5 298 L 468.5 300 L 468.5 302 L 468.5 304 L 468.5 304.22949016875157 L 468.0534273799856 305.1226354087804 L 466.5 309.78291754873715 L 466.5 313 L 466.5 316 L 466.5 318 L 466.5 320 L 466.5 323 L 466.5 325 L 466.5 327 L 466.5 330 L 466.5 332 L 466.5 334 L 466.5 337 L 466.5 339 L 466.5 341 L 466.5 343 L 466.5 345 L 466.5 347 L 466.5 350 L 466.5 352 L 466.5 356 L 466.5 358 L 466.5 360 L 466.5 363 L 466.5 367 L 466.5 371 L 466.5 373 L 466.5 376 L 466.5 377.78291754873715 L 465.5 380.78291754873715 L 465.5 384 L 465.5 387 L 465.5 391 L 465.5 394 L 465.5 396 L 465.5 398 L 465.5 402 L 465.5 404 L 465.5 407 L 465.5 407.78291754873715 L 464.5 410.78291754873715 L 464.5 414 L 464.5 417 L 464.5 417.22949016875157 L 463.5 419.22949016875157 L 463.5 422.78291754873715 L 462.5 425.78291754873715 L 462.5 431 L 462.5 433 L 462.5 435 L 462.5 438 L 462.5 441 L 462.5 444 L 462.5 446 L 462.5 448 L 462.5 450 L 462.5 452 L 462.5 454 L 462.5 456 L 462.5 458 L 462.5 460 L 462.5 462 L 462.5 464 L 462.5 466 L 462.5 468 L 462.5 470 L 462.5 473.77050983124843 L 463.5 475.77050983124843 L 463.5 483.5 L 465.5 483.5 L 465.5 479.77050983124843 L 467.2917960675006 483.3541019662497 L 469.40983005625054 487.59016994374946 L 471.40983005625054 488.59016994374946 L 472.40983005625054 490.59016994374946 L 476.6458980337503 492.7082039324994 L 476.40983005625054 492.59016994374946 L 478.3647450843758 496.5 L 485 496.5 L 487 496.5 L 490.77050983124843 496.5 L 494.3541019662497 494.7082039324994 L 496.3541019662497 493.7082039324994 L 500.59016994374946 491.59016994374946 L 500.6352549156242 491.5 L 501.1066017177982 491.5 L 506.1639081134502 486.442693604348 L 506.59016994374946 485.59016994374946 L 510.5 483.6352549156242 L 510.5 477 L 510.5 475 L 510.5 474.21708245126285 L 511.5 471.21708245126285 L 511.5 467 L 511.5 465 L 511.5 463 L 511.5 461 L 511.5 459 L 511.5 457 L 511.5 455 L 511.5 453 L 511.5 451 L 511.5 449 L 511.5 447 L 511.5 445 L 511.5 442 L 511.5 440 L 511.5 437 L 511.5 435 L 511.5 433 L 511.5 431 L 511.5 429 L 511.5 427 L 511.5 425 L 511.5 423 L 511.5 421 L 511.5 418 L 511.5 416 L 511.5 413 L 511.5 411 L 511.5 409 L 511.5 407 L 511.5 403 L 511.5 400 L 511.5 398 L 511.5 396 L 511.5 394 L 511.5 392 L 511.5 390 L 511.5 388 L 511.5 386 L 511.5 383 L 511.5 381 L 511.5 378 L 511.5 376 L 511.5 374 L 511.5 371 L 511.5 369 L 511.5 366 L 511.5 364 L 511.5 362 L 511.5 360 L 511.5 358 L 511.5 356 L 511.5 354 L 511.5 352 L 511.5 351.77050983124843 L 511.7082039324994 351.3541019662497 L 512.9465726200144 348.8773645912196 L 513.9465726200144 345.8773645912196 L 515.5 342.77050983124843 L 515.5 340.77050983124843 L 516.5 338.77050983124843 L 516.5 334 L 516.5 332 L 516.5 330 L 516.5 328 L 516.5 326 L 516.5 324 L 516.5 322 L 516.5 320 L 516.5 318 L 516.5 314.22949016875157 L 514.7082039324994 310.6458980337503 L 514.5 310.22949016875157 L 514.5 309 L 514.5 305.78291754873715 L 513.5 302.78291754873715 L 513.5 302 L 513.5 300 L 513.5 294.78291754873715 L 512.5 291.78291754873715 L 512.5 290 L 512.5 288 L 512.5 286 L 512.5 283 L 512.5 281 L 512.5 278 L 512.5 276 L 512.5 274.21708245126285 L 513.5 271.21708245126285 L 513.5 268 L 513.5 266 L 513.5 264 L 513.5 262 L 513.5 260 L 513.5 258 L 513.5 256.21708245126285 L 514.5 253.21708245126285 L 514.5 250 L 514.5 249.4443680267544 L 516.5 244.44436802675438 L 516.5 240.21708245126285 L 518.1151247353788 235.37170824512629 L 519.2062097408696 232.09845322865402 L 520.2062097408696 228.09845322865402 L 521.5 224.21708245126285 L 521.5 221 L 521.5 218 L 521.5 216 L 521.5 213 L 521.5 209 L 521.5 207 L 521.5 204 L 521.5 202 L 521.5 200 L 521.5 198 L 521.5 195 L 521.5 191 L 521.5 189 L 521.5 186 L 521.5 184 L 521.5 182 L 521.5 180 L 521.5 176.22949016875157 L 520.5 174.22949016875157 L 520.5 174 L 520.5 172 L 520.5 170 L 520.5 168 L 520.5 164.22949016875157 L 519.5 162.22949016875157 L 519.5 160.22949016875157 L 518.5 158.22949016875157 L 518.5 158 L 518.5 156 L 518.5 154.77050983124843 L 519.5 152.77050983124843 L 519.5 150.77050983124843 L 520.5 148.77050983124843 L 520.5 143.21708245126285 L 521.5 140.21708245126285 L 521.5 136 L 521.5 134 L 521.5 132 L 521.5 129 L 521.5 127 L 521.5 125 L 521.5 123 L 521.5 121 L 521.5 119 L 521.5 117 L 521.5 115 L 521.5 112 L 521.5 109 L 521.5 107 L 521.5 105 L 521.5 101.22949016875158 L 520.5 99.22949016875158 L 520.5 97 L 520.5 92.22949016875158 L 519.5 90.22949016875158 L 519.5 87.22949016875158 L 518.5 85.22949016875158 L 518.5 85 L 518.5 83 L 518.5 81 L 518.5 79 L 518.5 76 L 518.5 74 L 518.5 71.07670780786755 L 517.5 67.07670780786755 L 517.5 66 L 517.5 62.229490168751575 L 516.5 60.229490168751575 L 516.5 64.63525491562422 L 512.7705098312484 66.5 L 513 66.5 L 516.7705098312484 66.5 L 518.7705098312484 65.5 L 519 65.5 L 521 65.5 L 523 65.5 L 525 65.5 L 528.7705098312484 65.5 L 530.7705098312484 64.5 L 531 64.5 L 533 64.5 L 536 64.5 L 539 64.5 L 541 64.5 L 543 64.5 L 545 64.5 L 547 64.5 L 550 64.5 L 553.7705098312484 64.5 L 557.3541019662497 62.70820393249937 L 557.7705098312484 62.5 L 558 62.5 L 561 62.5 L 565 62.5 L 567 62.5 L 571 62.5 L 575 62.5 L 578 62.5 L 580 62.5 L 583 62.5 L 587 62.5 L 588.0767078078676 62.5 L 592.0767078078676 63.5 L 595 63.5 L 596.0767078078676 63.5 L 598.901546771346 64.20620974086961 L 602.7829175487371 65.5 L 607 65.5 L 607.7291827170101 65.5 L 610.7291827170101 67.5 L 614.2294901687516 67.5 L 618.2294901687516 69.5 L 620.7291827170101 69.5 L 622.2282603617854 70.49938509651693 L 626.6458980337503 72.70820393249937 L 629.9352285315831 74.35286918141577 L 634.5689387438302 78.05983735121347 L 638.2282603617854 80.49938509651693 L 640.2282603617854 81.49938509651693 L 642.8397485283108 83.24037720753383 L 646.2282603617854 85.49938509651693 L 647.557306395652 86.1639081134502 L 649.557306395652 88.1639081134502 L 651.557306395652 89.1639081134502 L 653.2218294125853 90.82843113038349 L 655.591673086804 92.40832691319598 L 656.7596227924662 94.16025147168922 L 659.1715688696165 97.77817058741472 L 661.4447596332677 100.05136135106589 L 662.2697505292423 102.52633403898972 L 665.8750963020602 107.33346173608032 L 667.2806925025967 109.44185603688499 L 670.2173703738194 117.27299702681229 L 673.1452229643878 122.15275134442626 L 674.8848752646212 127.37170824512629 L 676.4447596332677 132.0513613510659 L 678.6081557940292 134.21475751182743 L 679.5 136.44436802675438 L 679.5 139.21708245126285 L 682.0534273799856 146.8773645912196 L 682.5 147.77050983124843 L 682.5 149 L 682.5 151 L 682.5 155 L 682.5 159 L 682.5 162 L 682.5 165 L 682.5 167.22949016875157 L 681.5 169.22949016875157 L 681.5 173.07670780786754 L 680.7937902591304 175.90154677134598 L 679.5 179.78291754873715 L 679.5 182.22949016875157 L 677.787447713503 185.65459474174568 L 676.6987878246754 192.18655407471095 L 676.0534273799856 194.1226354087804 L 675.2917960675006 195.6458980337503 L 674.2917960675006 197.6458980337503 L 672.923608819558 200.3822725296356 L 671.923608819558 204.3822725296356 L 671.5006149034831 205.22826036178543 L 670.1715688696165 207.2218294125853 L 668.6966991411009 208.6966991411009 L 666.0735931288071 211.31980515339464 L 662.6665382639197 213.87509630206023 L 659.2218294125853 216.17156886961652 L 656.557306395652 218.83609188654978 L 653.6458980337503 220.29179606750063 L 649.3882707335626 222.4206097175945 L 644.3882707335626 225.4206097175945 L 642.6458980337503 226.29179606750063 L 640.2294901687516 227.5 L 636.8933982822018 227.5 L 634.8933982822018 229.5 L 633.7291827170101 229.5 L 630.7291827170101 231.5 L 630.0767078078676 231.5 L 626.0767078078676 232.5 L 623.7829175487371 232.5 L 620.7829175487371 233.5 L 619.0767078078676 233.5 L 613.3822725296357 234.92360881955798 L 612.2294901687516 235.5 L 610.2294901687516 235.5 L 608.2294901687516 236.5 L 606.2294901687516 236.5 L 604.2294901687516 237.5 L 604 237.5 L 602 237.5 L 600 237.5 L 598 237.5 L 596 237.5 L 591.2294901687516 237.5 L 589.2294901687516 238.5 L 589 238.5 L 587 238.5 L 585 238.5 L 582 238.5 L 580 238.5 L 578 238.5 L 576 238.5 L 575.7705098312484 238.5 L 575.3541019662497 238.29179606750063 L 571.7705098312484 236.5 L 569.7705098312484 236.5 L 569.3541019662497 236.29179606750063 L 567.3541019662497 235.29179606750063 L 565.3541019662497 234.29179606750063 L 561.7705098312484 232.5 L 559.7705098312484 232.5 L 557.7705098312484 231.5 L 555.7705098312484 231.5 L 553.7705098312484 230.5 L 550 230.5 L 548 230.5 L 546 230.5 L 544 230.5 L 542 230.5 L 540 230.5 L 539.7705098312484 230.5 L 539.3541019662497 230.29179606750063 L 535.7705098312484 228.5 L 532 228.5 " stroke="#4a5568" stroke-width="2" fill="none" stroke-linecap="butt" stroke-linejoin="round" />
    <path d="M 494.5 24 L 494.5 27 L 494.5 29 L 494.5 33 L 494.5 36.92329219213246 L 493.27606875109 41.819017187772495 L 492.3487133925521 45.52843862192407 L 491.21255228649704 52.34540525825431 L 489.9465726200144 54.877364591219575 L 489.5 56.21708245126285 L 489.5 60.21708245126285 L 488.5 63.21708245126285 L 488.5 65.92329219213245 L 487.076391180442 71.61772747036439 L 486.5 72.77050983124842 L 486.5 74 L 486.5 77 L 486.5 79 L 486.5 81 L 486.5 83 L 486.5 86 L 486.5 88 L 486.5 92 L 486.5 95 L 486.5 96.78291754873716 L 487.5 99.78291754873716 L 487.5 103 L 487.5 106 L 487.5 109 L 487.5 112 L 487.5 114.25735364805412 L 488.5 119.25735364805412 L 488.5 122 L 488.5 124 L 488.5 126 L 488.5 128 L 488.5 131 L 488.5 134 L 488.5 136 L 488.5 138 L 488.5 141 L 488.5 143 L 488.5 147 L 488.5 149 L 488.5 152 L 488.5 154 L 488.5 156 L 488.5 161 L 488.5 163 L 488.5 168 L 488.5 172 L 488.5 175 L 488.5 178 L 488.5 185 L 488.5 190 L 488.5 198.92329219213246 L 487.5 202.92329219213246 L 487.5 207.92329219213246 L 486.5 211.92329219213246 L 486.5 214.62071897723663 L 485.5 220.62071897723663 L 485.5 224 L 485.5 227 L 485.5 231 L 485.5 234 L 485.5 238.62071897723663 L 484.5 244.62071897723663 L 484.5 249.21708245126285 L 483.5 252.21708245126285 L 483.5 254 L 483.5 258 L 483.5 260 L 483.5 262 L 483.5 264 L 483.5 266 L 483.5 268 L 483.5 270 L 483.5 272 L 483.5 274 L 483.5 277 L 483.5 281 L 483.5 284 L 483.5 289 L 483.5 292 L 483.5 295 L 483.5 298 L 483.5 300 L 483.5 302 L 483.5 304 L 483.5 307.77050983124843 L 481.9465726200144 310.8773645912196 L 481.5 312.21708245126285 L 481.5 313 L 481.5 316 L 481.5 318 L 481.5 320 L 481.5 323 L 481.5 325 L 481.5 327 L 481.5 330 L 481.5 332 L 481.5 334 L 481.5 337 L 481.5 339 L 481.5 341 L 481.5 343 L 481.5 345 L 481.5 347 L 481.5 350 L 481.5 352 L 481.5 356 L 481.5 358 L 481.5 360 L 481.5 363 L 481.5 367 L 481.5 371 L 481.5 373 L 481.5 376 L 481.5 380.21708245126285 L 480.5 383.21708245126285 L 480.5 384 L 480.5 387 L 480.5 391 L 480.5 394 L 480.5 396 L 480.5 398 L 480.5 402 L 480.5 404 L 480.5 407 L 480.5 410.21708245126285 L 479.5 413.21708245126285 L 479.5 414 L 479.5 417 L 479.5 420.77050983124843 L 478.5 422.77050983124843 L 478.5 425.21708245126285 L 477.5 428.21708245126285 L 477.5 431 L 477.5 433 L 477.5 435 L 477.5 438 L 477.5 441 L 477.5 444 L 477.5 446 L 477.5 448 L 477.5 450 L 477.5 452 L 477.5 454 L 477.5 456 L 477.5 458 L 477.5 460 L 477.5 462 L 477.5 464 L 477.5 466 L 477.5 468 L 477.5 470 L 477.5 470.22949016875157 L 478.5 472.22949016875157 L 478.5 468.5 L 480.5 468.5 L 480.5 476.22949016875157 L 480.7082039324994 476.6458980337503 L 480.59016994374946 476.40983005625054 L 482.59016994374946 477.40983005625054 L 483.59016994374946 479.40983005625054 L 483.3541019662497 479.2917960675006 L 487.59016994374946 481.40983005625054 L 487.6352549156242 481.5 L 485 481.5 L 487 481.5 L 487.22949016875157 481.5 L 487.6458980337503 481.2917960675006 L 489.6458980337503 480.2917960675006 L 489.40983005625054 480.40983005625054 L 491.3647450843758 476.5 L 494.8933982822018 476.5 L 493.8360918865498 477.557306395652 L 495.40983005625054 474.40983005625054 L 495.5 474.3647450843758 L 495.5 477 L 495.5 475 L 495.5 471.78291754873715 L 496.5 468.78291754873715 L 496.5 467 L 496.5 465 L 496.5 463 L 496.5 461 L 496.5 459 L 496.5 457 L 496.5 455 L 496.5 453 L 496.5 451 L 496.5 449 L 496.5 447 L 496.5 445 L 496.5 442 L 496.5 440 L 496.5 437 L 496.5 435 L 496.5 433 L 496.5 431 L 496.5 429 L 496.5 427 L 496.5 425 L 496.5 423 L 496.5 421 L 496.5 418 L 496.5 416 L 496.5 413 L 496.5 411 L 496.5 409 L 496.5 407 L 496.5 403 L 496.5 400 L 496.5 398 L 496.5 396 L 496.5 394 L 496.5 392 L 496.5 390 L 496.5 388 L 496.5 386 L 496.5 383 L 496.5 381 L 496.5 378 L 496.5 376 L 496.5 374 L 496.5 371 L 496.5 369 L 496.5 366 L 496.5 364 L 496.5 362 L 496.5 360 L 496.5 358 L 496.5 356 L 496.5 354 L 496.5 352 L 496.5 348.22949016875157 L 498.2917960675006 344.6458980337503 L 499.0534273799856 343.1226354087804 L 500.0534273799856 340.1226354087804 L 500.5 339.22949016875157 L 500.5 337.22949016875157 L 501.5 335.22949016875157 L 501.5 334 L 501.5 332 L 501.5 330 L 501.5 328 L 501.5 326 L 501.5 324 L 501.5 322 L 501.5 320 L 501.5 318 L 501.5 317.77050983124843 L 501.2917960675006 317.3541019662497 L 499.5 313.77050983124843 L 499.5 309 L 499.5 308.21708245126285 L 498.5 305.21708245126285 L 498.5 302 L 498.5 300 L 498.5 297.21708245126285 L 497.5 294.21708245126285 L 497.5 290 L 497.5 288 L 497.5 286 L 497.5 283 L 497.5 281 L 497.5 278 L 497.5 276 L 497.5 271.78291754873715 L 498.5 268.78291754873715 L 498.5 268 L 498.5 266 L 498.5 264 L 498.5 262 L 498.5 260 L 498.5 258 L 498.5 253.78291754873715 L 499.5 250.78291754873715 L 499.5 250 L 499.5 246.5556319732456 L 501.5 241.55563197324562 L 501.5 237.78291754873715 L 503.88487526462114 230.62829175487371 L 504.7937902591304 227.90154677134598 L 505.7937902591304 223.90154677134598 L 506.5 221.78291754873715 L 506.5 221 L 506.5 218 L 506.5 216 L 506.5 213 L 506.5 209 L 506.5 207 L 506.5 204 L 506.5 202 L 506.5 200 L 506.5 198 L 506.5 195 L 506.5 191 L 506.5 189 L 506.5 186 L 506.5 184 L 506.5 182 L 506.5 180 L 506.5 179.77050983124843 L 505.5 177.77050983124843 L 505.5 174 L 505.5 172 L 505.5 170 L 505.5 168 L 505.5 167.77050983124843 L 504.5 165.77050983124843 L 504.5 163.77050983124843 L 503.5 161.77050983124843 L 503.5 158 L 503.5 156 L 503.5 151.22949016875157 L 504.5 149.22949016875157 L 504.5 147.22949016875157 L 505.5 145.22949016875157 L 505.5 140.78291754873715 L 506.5 137.78291754873715 L 506.5 136 L 506.5 134 L 506.5 132 L 506.5 129 L 506.5 127 L 506.5 125 L 506.5 123 L 506.5 121 L 506.5 119 L 506.5 117 L 506.5 115 L 506.5 112 L 506.5 109 L 506.5 107 L 506.5 105 L 506.5 104.77050983124842 L 505.5 102.77050983124842 L 505.5 97 L 505.5 95.77050983124842 L 504.5 93.77050983124842 L 504.5 90.77050983124842 L 503.5 88.77050983124842 L 503.5 85 L 503.5 83 L 503.5 81 L 503.5 79 L 503.5 76 L 503.5 74 L 503.5 72.92329219213245 L 502.5 68.92329219213245 L 502.5 66 L 502.5 65.77050983124842 L 501.5 63.770509831248425 L 501.5 55.36474508437579 L 509.22949016875157 51.5 L 513 51.5 L 513.2294901687516 51.5 L 515.2294901687516 50.5 L 519 50.5 L 521 50.5 L 523 50.5 L 525 50.5 L 525.2294901687516 50.5 L 527.2294901687516 49.5 L 531 49.5 L 533 49.5 L 536 49.5 L 539 49.5 L 541 49.5 L 543 49.5 L 545 49.5 L 547 49.5 L 550 49.5 L 550.2294901687516 49.5 L 550.6458980337503 49.29179606750063 L 554.2294901687516 47.5 L 558 47.5 L 561 47.5 L 565 47.5 L 567 47.5 L 571 47.5 L 575 47.5 L 578 47.5 L 580 47.5 L 583 47.5 L 587 47.5 L 589.9232921921324 47.5 L 593.9232921921324 48.5 L 595 48.5 L 597.9232921921324 48.5 L 603.098453228654 49.79379025913039 L 605.2170824512629 50.5 L 607 50.5 L 612.2708172829899 50.5 L 615.2708172829899 52.5 L 617.7705098312484 52.5 L 621.7705098312484 54.5 L 625.2708172829899 54.5 L 629.7717396382146 57.500614903483076 L 633.3541019662497 59.29179606750063 L 638.0647714684169 61.64713081858422 L 643.4310612561698 65.94016264878653 L 645.7717396382146 67.50061490348307 L 647.7717396382146 68.50061490348307 L 651.1602514716892 70.75962279246617 L 653.7717396382146 72.50061490348307 L 656.442693604348 73.8360918865498 L 658.442693604348 75.8360918865498 L 660.442693604348 76.8360918865498 L 662.7781705874147 79.17156886961651 L 666.408326913196 81.59167308680402 L 669.2403772075338 85.83974852831078 L 670.8284311303835 88.22182941258528 L 674.5552403667323 91.94863864893411 L 675.7302494707577 95.47366596101028 L 678.1249036979398 98.66653826391968 L 680.7193074974033 102.55814396311501 L 683.7826296261806 110.72700297318771 L 686.8547770356122 115.84724865557374 L 689.1151247353788 122.62829175487371 L 689.5552403667323 123.94863864893411 L 691.3918442059708 125.78524248817257 L 694.5 133.55563197324562 L 694.5 136.78291754873715 L 695.9465726200144 141.1226354087804 L 697.5 144.22949016875157 L 697.5 149 L 697.5 151 L 697.5 155 L 697.5 159 L 697.5 162 L 697.5 165 L 697.5 170.77050983124843 L 696.5 172.77050983124843 L 696.5 174.92329219213246 L 695.2062097408696 180.09845322865402 L 694.5 182.21708245126285 L 694.5 185.77050983124843 L 692.212552286497 190.34540525825432 L 691.3012121753246 195.81344592528905 L 689.9465726200144 199.8773645912196 L 688.7082039324994 202.3541019662497 L 687.7082039324994 204.3541019662497 L 687.076391180442 205.6177274703644 L 686.076391180442 209.6177274703644 L 684.4993850965169 212.77173963821457 L 681.8284311303835 216.7781705874147 L 679.3033008588991 219.3033008588991 L 675.9264068711929 222.68019484660536 L 671.3334617360803 226.12490369793977 L 668.7781705874147 227.82843113038348 L 665.442693604348 231.16390811345022 L 660.3541019662497 233.70820393249937 L 656.6117292664374 235.5793902824055 L 651.6117292664374 238.5793902824055 L 649.3541019662497 239.70820393249937 L 643.7705098312484 242.5 L 643.1066017177982 242.5 L 641.1066017177982 244.5 L 638.2708172829899 244.5 L 635.2708172829899 246.5 L 631.9232921921324 246.5 L 627.9232921921324 247.5 L 626.2170824512629 247.5 L 623.2170824512629 248.5 L 620.9232921921324 248.5 L 618.6177274703643 249.07639118044202 L 615.7705098312484 250.5 L 613.7705098312484 250.5 L 611.7705098312484 251.5 L 609.7705098312484 251.5 L 607.7705098312484 252.5 L 604 252.5 L 602 252.5 L 600 252.5 L 598 252.5 L 596 252.5 L 594.7705098312484 252.5 L 592.7705098312484 253.5 L 589 253.5 L 587 253.5 L 585 253.5 L 582 253.5 L 580 253.5 L 578 253.5 L 576 253.5 L 572.2294901687516 253.5 L 568.6458980337503 251.70820393249937 L 568.2294901687516 251.5 L 566.2294901687516 251.5 L 562.6458980337503 249.70820393249937 L 560.6458980337503 248.70820393249937 L 558.6458980337503 247.70820393249937 L 558.2294901687516 247.5 L 556.2294901687516 247.5 L 554.2294901687516 246.5 L 552.2294901687516 246.5 L 550.2294901687516 245.5 L 550 245.5 L 548 245.5 L 546 245.5 L 544 245.5 L 542 245.5 L 540 245.5 L 536.2294901687516 245.5 L 532.6458980337503 243.70820393249937 L 532.2294901687516 243.5 L 532 243.5 " stroke="#4a5568" stroke-width="2" fill="none" stroke-linecap="butt" stroke-linejoin="round" />
  </g>
</svg>