<svg xmlns="http://www.w3.org/2000/svg" width="1334" height="864" viewBox="0 0 1334 864">
  <g fill="none">
    <path d="M 702.75 153 L 725.25 153 M 703.050948868488 180.58472035615782 L 724.949051131512 175.41527964384218 M 707.75 201.96724074716388 L 730.25 201.96724074716388 M 708.7659336675262 226.13262984089664 L 731.2340663324738 227.32971569843158 M 706.75 251.52530461374823 L 729.25 251.52530461374823 M 706.7525538450664 276.2856069043988 L 729.2474461549336 276.7650023230977 M 705.75 301.36302695357983 L 728.25 301.36302695357983 M 704.7764538896198 325.3559124741302 L 727.2235461103802 326.8980054780299 M 702.7135657138944 348.5577853154948 L 724.7975086006494 352.8646944826987 M 696.8408340681216 370.22585376814567 L 717.6281235496255 378.83623099636014 M 687.631478558246 392.5813420321628 L 707.7787184902586 402.5982638708278 M 674.0402752600197 405.5085738178683 L 686.6317701644399 424.1554034699019 M 654.0158944998516 418.7837881572803 L 665.0657298531091 438.38356210153535 M 633.9874358692259 426.6574391329132 L 639.2350184928748 448.53694727656165 M 611.4544093716246 429.7635327024073 L 612.5576820852001 452.2364672975927 M 587.12915135403 430.75 L 587.12915135403 453.25 M 569.9696810975015 423.95166994822915 L 558.2477789257232 443.1570600633832 M 549.9925338211327 412.16554641735814 L 535.7877269624142 429.61471436618893 M 531.952239131487 397.042354641818 L 516.0663447521206 412.97622924178944 M 524.3669592663896 380.69293166021566 L 502.4321959244521 385.70453391230967 M 521.25 359.10519455646704 L 498.75 359.10519455646704 M 520.1524413359248 332.78911087759946 L 497.8475586640752 335.7458335556713 M 519.25 309.5035401941352 L 496.75 309.5035401941352 " stroke="#8B4513" stroke-width="7" fill="none" stroke-linecap="butt" />
    <path d="M 706.5 153 L 706.5 155 L 706.5 158 L 706.5 161 L 706.5 163 L 706.5 165 L 706.5 167 L 706.5 170 L 706.5 172 L 706.5 174 L 706.5 176 L 706.5 179.77050983124843 L 707.5 181.77050983124843 L 707.5 183 L 707.5 186.21708245126285 L 708.5 189.21708245126285 L 708.5 192.21708245126285 L 710.0534273799856 196.8773645912196 L 711.2917960675006 199.3541019662497 L 711.5 199.77050983124843 L 711.5 200 L 711.5 203 L 711.5 206.77050983124843 L 712.5 208.77050983124843 L 712.5 211 L 712.5 214 L 712.5 219 L 712.5 221 L 712.5 223 L 712.5 225 L 712.5 228.07670780786754 L 711.5 232.07670780786754 L 711.5 235 L 711.5 237 L 711.5 239 L 711.5 240.37928102276337 L 710.5 246.37928102276337 L 710.5 251 L 710.5 254 L 710.5 258 L 710.5 260 L 710.5 263 L 710.5 265 L 710.5 268 L 710.5 273 L 710.5 276 L 710.5 278.78291754873715 L 709.5 281.78291754873715 L 709.5 289 L 709.5 292 L 709.5 295 L 709.5 300 L 709.5 302 L 709.5 306 L 709.5 309 L 709.5 312 L 709.5 314 L 709.5 318 L 709.5 320.22949016875157 L 708.5 322.22949016875157 L 708.5 327 L 708.5 330 L 708.5 333 L 708.5 334.22949016875157 L 707.5 336.22949016875157 L 707.5 341 L 707.5 344.78291754873715 L 706.671018465568 347.26986215203334 L 705.5 355.46699141100896 L 705.5 358.78291754873715 L 704.954571150983 360.4192040957879 L 702.954571150983 365.4192040957879 L 702.0534273799856 368.1226354087804 L 700.0534273799856 372.1226354087804 L 698.954571150983 375.4192040957879 L 696.954571150983 380.4192040957879 L 696.0534273799856 383.1226354087804 L 695.2917960675006 384.6458980337503 L 693.2917960675006 388.6458980337503 L 692.0534273799856 391.1226354087804 L 691.0534273799856 394.1226354087804 L 690.8360918865498 394.557306395652 L 688.1715688696165 397.2218294125853 L 686.1715688696165 400.2218294125853 L 684.0735931288071 402.3198051533946 L 681.0410196624969 404.59423525312735 L 677.4098300562505 406.40983005625054 L 676.4098300562505 408.40983005625054 L 676.0410196624969 408.59423525312735 L 672.0410196624969 411.59423525312735 L 670.0410196624969 412.59423525312735 L 665.6665382639197 415.87509630206023 L 662.8397485283108 417.7596227924662 L 657.4895088326567 421.32644925623555 L 651.7852424881726 423.60815579402924 L 649.557306395652 425.8360918865498 L 647.1226354087804 427.0534273799856 L 644.6282917548738 427.88487526462114 L 642.0712633997617 428.73721804965845 L 637.3541244471213 429.68064584018657 L 633.1809828122275 430.72393124891 L 629.1809828122275 431.72393124891 L 625.3541244471213 432.68064584018657 L 621.2573536480542 433.5 L 618 433.5 L 614 433.5 L 608.0767078078676 433.5 L 604.0767078078676 434.5 L 597 434.5 L 594 434.5 L 590 434.5 L 585 434.5 L 583.2170824512629 434.5 L 581.8773645912196 434.0534273799856 L 578.3541019662497 432.2917960675006 L 573.8773645912196 430.0534273799856 L 571.3245521147171 429.2024898878181 L 568.7717396382146 427.5006149034831 L 565.442693604348 425.8360918865498 L 563.442693604348 423.8360918865498 L 558.3541019662497 421.2917960675006 L 556.3541019662497 420.2917960675006 L 553.8773645912196 419.0534273799856 L 552.0513613510659 418.44475963326767 L 550.7781705874147 417.1715688696165 L 547.7781705874147 415.1715688696165 L 545.442693604348 412.8360918865498 L 542.9589803375031 411.59423525312735 L 539.9264068711929 409.3198051533946 L 536.7781705874147 406.1715688696165 L 534.408326913196 404.591673086804 L 532.1355623673658 401.18252626805867 L 529.442693604348 399.8360918865498 L 529.1639081134502 399.557306395652 L 528.7082039324994 398.6458980337503 L 527.4993850965169 396.22826036178543 L 526.5 394.72918271701 L 526.5 392.72918271701 L 522.8284311303835 387.2218294125853 L 522.5 386.8933982822018 L 522.5 386.78291754873715 L 521.1151247353788 382.6282917548737 L 520.5 380.78291754873715 L 520.5 377.72918271701 L 518.5 374.72918271701 L 518.5 373.22949016875157 L 517.5 371.22949016875157 L 517.5 371 L 517.5 369 L 517.5 367 L 517.5 364 L 517.5 362 L 517.5 359 L 517.5 357 L 517.5 355 L 517.5 352 L 517.5 349 L 517.5 346 L 517.5 344 L 517.5 341 L 517.5 336.78291754873715 L 516.5 333.78291754873715 L 516.5 331 L 516.5 329 L 516.5 326 L 516.5 319.22949016875157 L 515.5 317.22949016875157 L 515.5 317 L 515.5 312 L 515.5 310 L 515.5 308 L 515.5 306 L 515.5 304 L 515.5 302 L 515.5 300 L 515.5 298 L 515.5 296 L 515.5 294 L 515.5 292 " stroke="#4a5568" stroke-width="2" fill="none" stroke-linecap="butt" stroke-linejoin="round" />
    <path d="M 721.5 153 L 721.5 155 L 721.5 158 L 721.5 161 L 721.5 163 L 721.5 165 L 721.5 167 L 721.5 170 L 721.5 172 L 721.5 174 L 721.5 176 L 721.5 176.22949016875157 L 722.5 178.22949016875157 L 722.5 183 L 722.5 183.78291754873715 L 723.5 186.78291754873715 L 723.5 189.78291754873715 L 723.9465726200144 191.1226354087804 L 724.7082039324994 192.6458980337503 L 726.5 196.22949016875157 L 726.5 200 L 726.5 203 L 726.5 203.22949016875157 L 727.5 205.22949016875157 L 727.5 211 L 727.5 214 L 727.5 219 L 727.5 221 L 727.5 223 L 727.5 225 L 727.5 229.92329219213246 L 726.5 233.92329219213246 L 726.5 235 L 726.5 237 L 726.5 239 L 726.5 241.62071897723663 L 725.5 247.62071897723663 L 725.5 251 L 725.5 254 L 725.5 258 L 725.5 260 L 725.5 263 L 725.5 265 L 725.5 268 L 725.5 273 L 725.5 276 L 725.5 281.21708245126285 L 724.5 284.21708245126285 L 724.5 289 L 724.5 292 L 724.5 295 L 724.5 300 L 724.5 302 L 724.5 306 L 724.5 309 L 724.5 312 L 724.5 314 L 724.5 318 L 724.5 323.77050983124843 L 723.5 325.77050983124843 L 723.5 327 L 723.5 330 L 723.5 333 L 723.5 337.77050983124843 L 722.5 339.77050983124843 L 722.5 341 L 722.5 347.21708245126285 L 721.328981534432 350.73013784796666 L 720.5 356.53300858899104 L 720.5 361.21708245126285 L 719.045428849017 365.5807959042121 L 717.045428849017 370.5807959042121 L 715.9465726200144 373.8773645912196 L 713.9465726200144 377.8773645912196 L 713.045428849017 380.5807959042121 L 711.045428849017 385.5807959042121 L 709.9465726200144 388.8773645912196 L 708.7082039324994 391.3541019662497 L 706.7082039324994 395.3541019662497 L 705.9465726200144 396.8773645912196 L 704.9465726200144 399.8773645912196 L 703.1639081134502 403.442693604348 L 699.8284311303835 406.7781705874147 L 697.8284311303835 409.7781705874147 L 693.9264068711929 413.6801948466054 L 688.9589803375031 417.40576474687265 L 688.5901699437495 417.59016994374946 L 687.5901699437495 419.59016994374946 L 683.9589803375031 421.40576474687265 L 679.9589803375031 424.40576474687265 L 677.9589803375031 425.40576474687265 L 674.3334617360803 428.12490369793977 L 671.1602514716892 430.2403772075338 L 664.5104911673433 434.67355074376445 L 660.2147575118274 436.39184420597076 L 658.442693604348 438.1639081134502 L 652.8773645912196 440.9465726200144 L 649.3717082451262 442.11512473537886 L 645.9287366002383 443.26278195034155 L 640.6458755528787 444.31935415981343 L 636.8190171877725 445.27606875109 L 632.8190171877725 446.27606875109 L 628.6458755528787 447.31935415981343 L 622.7426463519458 448.5 L 618 448.5 L 614 448.5 L 609.9232921921324 448.5 L 605.9232921921324 449.5 L 597 449.5 L 594 449.5 L 590 449.5 L 585 449.5 L 580.7829175487371 449.5 L 576.1226354087804 447.9465726200144 L 571.6458980337503 445.7082039324994 L 568.1226354087804 443.9465726200144 L 564.6754478852829 442.7975101121819 L 561.2282603617854 440.4993850965169 L 556.557306395652 438.1639081134502 L 554.557306395652 436.1639081134502 L 551.6458980337503 434.7082039324994 L 549.6458980337503 433.7082039324994 L 548.1226354087804 432.9465726200144 L 543.9486386489341 431.55524036673233 L 541.2218294125853 428.8284311303835 L 538.2218294125853 426.8284311303835 L 536.557306395652 425.1639081134502 L 535.0410196624969 424.40576474687265 L 530.0735931288071 420.6801948466054 L 527.2218294125853 417.8284311303835 L 523.591673086804 415.408326913196 L 521.8644376326342 412.81747373194133 L 520.557306395652 412.1639081134502 L 516.8360918865498 408.442693604348 L 515.2917960675006 405.3541019662497 L 514.5006149034831 403.77173963821457 L 511.5 399.27081728299 L 511.5 397.27081728299 L 511.1715688696165 396.7781705874147 L 507.5 393.1066017177982 L 507.5 389.21708245126285 L 506.88487526462114 387.3717082451263 L 505.5 383.21708245126285 L 505.5 382.27081728299 L 503.5 379.27081728299 L 503.5 376.77050983124843 L 502.5 374.77050983124843 L 502.5 371 L 502.5 369 L 502.5 367 L 502.5 364 L 502.5 362 L 502.5 359 L 502.5 357 L 502.5 355 L 502.5 352 L 502.5 349 L 502.5 346 L 502.5 344 L 502.5 341 L 502.5 339.21708245126285 L 501.5 336.21708245126285 L 501.5 331 L 501.5 329 L 501.5 326 L 501.5 322.77050983124843 L 500.5 320.77050983124843 L 500.5 317 L 500.5 312 L 500.5 310 L 500.5 308 L 500.5 306 L 500.5 304 L 500.5 302 L 500.5 300 L 500.5 298 L 500.5 296 L 500.5 294 L 500.5 292 " stroke="#4a5568" stroke-width="2" fill="none" stroke-linecap="butt" stroke-linejoin="round" />
  </g>
</svg>