<svg xmlns="http://www.w3.org/2000/svg" width="1334" height="864" viewBox="0 0 1334 864">
  <g fill="none">
    <path d="M 751.25 99 L 728.75 99 M 740.5751566431118 70.65879837661141 L 720.8368040211328 81.45914261975558 M 727.0728507707458 49.15583058955459 L 708.2346506629508 61.45917227783884 M 705.0711286335116 29.55272940497435 L 693.777775224164 49.013206500142736 M 675.4543996411306 23.75 L 675.4543996411306 46.25 M 646.959107712058 43.0889747594712 L 666.7421593522939 53.80722404747323 M 639.0630871388613 68.23558208601179 L 660.3717172551566 75.46000473193428 M 635.75 96.3722014559253 L 658.25 96.3722014559253 M 635.75 121.3722014559253 L 658.25 121.3722014559253 M 636.7514520530664 146.31687939272456 L 659.2485479469336 145.95538756412645 M 635.75 170.57551018058896 L 658.25 170.57551018058896 M 635.75 195.57551018058894 L 658.25 195.57551018058894 M 637.050948868488 222.92416255924698 L 658.949051131512 217.75472184693135 M 639.75 244.7788189052526 L 662.25 244.7788189052526 M 639.75 269.7788189052526 L 662.25 269.7788189052526 M 639.75 294.7788189052526 L 662.25 294.7788189052526 M 639.75 319.7788189052526 L 662.25 319.7788189052526 M 636.9840347030135 341.9354322435102 L 659.0159652969865 346.50095897132184 M 628.4473637698701 355.8302805607307 L 641.7340404364221 373.9883152329772 M 611.5334154074447 363.92673871048567 L 615.5060137582187 386.07326128951433 M 590.9971597891977 360.90199411813785 L 587.3110966068018 383.09800588186215 M 580.3502163147799 351.54956245465524 L 560.4280062227637 362.0068826204321 M 567.1751050057819 331.1944452646911 L 547.0504932082838 341.2567511634402 M 564.25 312.12270806379456 L 541.75 312.12270806379456 " stroke="#8B4513" stroke-width="7" fill="none" stroke-linecap="butt" />
    <path d="M 552 180.25 L 552 157.75 M 575.6812721248975 180.17244184551558 L 578.3187278751025 157.82755815448442 M 601.5278640450005 182.25 L 601.5278640450005 159.75 M 624.3721384179473 183.82946344901373 L 627.9762388856041 161.61999565217005 M 651.1295184073323 184.25 L 651.1295184073323 161.75 M 673.546327069723 187.55419299960565 L 677.1504275373798 165.34472520276196 M 697.8931527670078 190.66980156536724 L 701.4972532346645 168.46033376852355 M 724.6246231994966 191.25 L 724.6246231994966 168.75 " stroke="#8B4513" stroke-width="7" fill="none" stroke-linecap="butt" />
    <path d="M 747.5 99 L 747.5 95.78291754873716 L 745.9465726200144 91.12263540878043 L 744.7082039324994 88.64589803375031 L 743.7082039324994 86.64589803375031 L 742.7082039324994 84.64589803375031 L 740.9465726200144 81.12263540878043 L 740.1151247353788 78.62829175487371 L 738.797510112182 74.67544788528292 L 736.4993850965169 71.22826036178543 L 735.7082039324994 69.64589803375031 L 734.7082039324994 67.64589803375031 L 733.7082039324994 65.64589803375031 L 732.7082039324994 63.64589803375031 L 731.7082039324994 61.64589803375031 L 730.1639081134502 58.557306395652 L 728.1639081134502 56.557306395652 L 726.5901699437495 53.40983005625053 L 724.5901699437495 52.40983005625053 L 724.7082039324994 52.64589803375031 L 722.5901699437495 48.40983005625053 L 720.5901699437495 47.40983005625053 L 719.5901699437495 45.40983005625053 L 716.442693604348 43.83609188654979 L 715.3033008588991 42.69669914110089 L 712.7781705874147 40.17156886961651 L 710.8174737319414 38.86443763263425 L 709.5901699437495 36.40983005625053 L 705.7717396382146 34.500614903483076 L 702.7717396382146 32.500614903483076 L 698.7705098312484 30.5 L 696.7705098312484 30.5 L 696.3541019662497 30.29179606750063 L 692.7705098312484 28.5 L 689 28.5 L 688.7705098312484 28.5 L 686.7705098312484 27.5 L 683 27.5 L 681 27.5 L 679 27.5 L 677 27.5 L 675 27.5 L 672 27.5 L 668.2294901687516 27.5 L 664.6458980337503 29.29179606750063 L 661.557306395652 30.836091886549788 L 659.557306395652 32.83609188654979 L 656.4098300562505 34.40983005625053 L 654.2917960675006 38.64589803375031 L 653.2917960675006 40.64589803375031 L 652.8360918865498 41.557306395652 L 650.4447596332677 43.9486386489341 L 648.5 49.78291754873715 L 648.5 51.229490168751575 L 648.2917960675006 51.64589803375031 L 647.2917960675006 53.64589803375031 L 645.5 57.229490168751575 L 645.5 59.229490168751575 L 645.2917960675006 59.64589803375031 L 643.5 63.229490168751575 L 643.5 67 L 643.5 67.22949016875158 L 643.0534273799856 68.12263540878043 L 641.5 72.78291754873716 L 641.5 76 L 641.5 79.07670780786755 L 640.923608819558 81.38227252963561 L 639.5 84.22949016875158 L 639.5 88 L 639.5 90 L 639.5 92 L 639.5 95 L 639.5 98 L 639.5 100 L 639.5 104 L 639.5 108 L 639.5 111 L 639.5 113 L 639.5 118 L 639.5 121 L 639.5 125 L 639.5 127 L 639.5 129 L 639.5 131 L 639.5 133 L 639.5 135 L 639.5 138 L 639.5 141.77050983124843 L 640.5 143.77050983124843 L 640.5 144 L 640.5 146 L 640.5 149.77050983124843 L 641.5 151.77050983124843 L 641.5 152 L 641.5 154 L 641.5 154.78291754873715 L 640.5 157.78291754873715 L 640.5 160.78291754873715 L 639.5 163.78291754873715 L 639.5 167 L 639.5 169 L 639.5 172 L 639.5 174 L 639.5 176 L 639.5 178 L 639.5 181 L 639.5 183 L 639.5 185 L 639.5 187 L 639.5 189 L 639.5 194 L 639.5 196 L 639.5 198 L 639.5 201 L 639.5 203 L 639.5 205 L 639.5 209 L 639.5 211 L 639.5 213 L 639.5 217.77050983124843 L 640.5 219.77050983124843 L 640.5 223.77050983124843 L 641.5 225.77050983124843 L 641.5 230.21708245126285 L 642.5 233.21708245126285 L 642.5 236.21708245126285 L 643.5 239.21708245126285 L 643.5 242 L 643.5 245 L 643.5 247 L 643.5 249 L 643.5 251 L 643.5 254 L 643.5 256 L 643.5 259 L 643.5 263 L 643.5 266 L 643.5 268 L 643.5 271 L 643.5 273 L 643.5 276 L 643.5 279 L 643.5 281 L 643.5 283 L 643.5 286 L 643.5 288 L 643.5 290 L 643.5 293 L 643.5 296 L 643.5 301 L 643.5 304 L 643.5 307 L 643.5 310 L 643.5 313 L 643.5 317 L 643.5 320 L 643.5 323 L 643.5 325 L 643.5 327 L 643.5 329 L 643.5 329.22949016875157 L 643.0534273799856 330.1226354087804 L 641.5 334.78291754873715 L 641.5 338 L 641.5 338.78291754873715 L 640.5 341.78291754873715 L 640.5 343.22949016875157 L 640.2917960675006 343.6458980337503 L 639.0534273799856 346.1226354087804 L 637.8848752646212 349.6282917548737 L 637.4447596332677 350.9486386489341 L 635.8360918865498 352.557306395652 L 634.8360918865498 354.557306395652 L 633.6966991411009 355.6966991411009 L 631.6966991411009 357.6966991411009 L 630.557306395652 358.8360918865498 L 627.4098300562505 360.40983005625054 L 627.3647450843758 360.5 L 627.7291827170101 360.5 L 622.8397485283108 363.7596227924662 L 621.7291827170101 364.5 L 620.2294901687516 364.5 L 616.6458980337503 366.2917960675006 L 616.2294901687516 366.5 L 614.2294901687516 366.5 L 612.2294901687516 367.5 L 612 367.5 L 610 367.5 L 607 367.5 L 604 367.5 L 600.7705098312484 367.5 L 599.8773645912196 367.0534273799856 L 596.8773645912196 366.0534273799856 L 593.7705098312484 364.5 L 590.2170824512629 364.5 L 590.0513613510659 364.44475963326767 L 588.0513613510659 362.44475963326767 L 585.0513613510659 361.44475963326767 L 583.7781705874147 360.1715688696165 L 581.8174737319414 358.86443763263424 L 581.1639081134502 357.557306395652 L 577.1639081134502 353.557306395652 L 576.9465726200144 353.1226354087804 L 575.1327310142555 347.6811105915035 L 572.1355623673658 346.18252626805867 L 571.2403772075338 344.8397485283108 L 569.4993850965169 342.22826036178543 L 568.7082039324994 340.6458980337503 L 567.1639081134502 337.557306395652 L 565.1639081134502 335.557306395652 L 564.7082039324994 334.6458980337503 L 563.7082039324994 332.6458980337503 L 562.9465726200144 331.1226354087804 L 562.5 329.78291754873715 L 562.5 327.22949016875157 L 561.5 325.22949016875157 L 561.5 322.22949016875157 L 560.5 320.22949016875157 L 560.5 320 L 560.5 317 L 560.5 315 L 560.5 313 L 560.5 311 " stroke="#4a5568" stroke-width="2" fill="none" stroke-linecap="butt" stroke-linejoin="round" />
    <path d="M 732.5 99 L 732.5 98.21708245126284 L 732.0534273799856 96.87736459121957 L 731.2917960675006 95.35410196624969 L 730.2917960675006 93.35410196624969 L 729.2917960675006 91.35410196624969 L 727.0534273799856 86.87736459121957 L 725.8848752646212 83.37170824512629 L 725.202489887818 81.32455211471708 L 723.5006149034831 78.77173963821457 L 722.2917960675006 76.35410196624969 L 721.2917960675006 74.35410196624969 L 720.2917960675006 72.35410196624969 L 719.2917960675006 70.35410196624969 L 718.2917960675006 68.35410196624969 L 717.8360918865498 67.44269360434801 L 715.8360918865498 65.44269360434801 L 715.4098300562505 64.59016994374947 L 713.4098300562505 63.59016994374947 L 711.2917960675006 59.35410196624969 L 711.4098300562505 59.59016994374947 L 709.4098300562505 58.59016994374947 L 708.4098300562505 56.59016994374947 L 707.557306395652 56.16390811345021 L 704.6966991411009 53.30330085889911 L 703.2218294125853 51.82843113038349 L 699.1825262680586 49.13556236736575 L 698.4098300562505 47.59016994374947 L 698.2282603617854 47.499385096516924 L 695.2282603617854 45.499385096516924 L 695.2294901687516 45.5 L 693.2294901687516 45.5 L 689.6458980337503 43.70820393249937 L 689.2294901687516 43.5 L 689 43.5 L 685.2294901687516 43.5 L 683.2294901687516 42.5 L 683 42.5 L 681 42.5 L 679 42.5 L 677 42.5 L 675 42.5 L 672 42.5 L 671.7705098312484 42.5 L 671.3541019662497 42.70820393249937 L 670.442693604348 43.16390811345021 L 668.442693604348 45.16390811345021 L 667.5901699437495 45.59016994374947 L 667.7082039324994 45.35410196624969 L 666.7082039324994 47.35410196624969 L 665.1639081134502 50.442693604348 L 663.5552403667323 52.0513613510659 L 663.5 52.21708245126285 L 663.5 54.770509831248425 L 661.7082039324994 58.35410196624969 L 660.7082039324994 60.35410196624969 L 660.5 60.770509831248425 L 660.5 62.770509831248425 L 658.7082039324994 66.35410196624969 L 658.5 66.77050983124842 L 658.5 67 L 658.5 70.77050983124842 L 656.9465726200144 73.87736459121957 L 656.5 75.21708245126284 L 656.5 76 L 656.5 80.92329219213245 L 655.076391180442 86.61772747036439 L 654.5 87.77050983124842 L 654.5 88 L 654.5 90 L 654.5 92 L 654.5 95 L 654.5 98 L 654.5 100 L 654.5 104 L 654.5 108 L 654.5 111 L 654.5 113 L 654.5 118 L 654.5 121 L 654.5 125 L 654.5 127 L 654.5 129 L 654.5 131 L 654.5 133 L 654.5 135 L 654.5 138 L 654.5 138.22949016875157 L 655.5 140.22949016875157 L 655.5 144 L 655.5 146 L 655.5 146.22949016875157 L 656.5 148.22949016875157 L 656.5 152 L 656.5 154 L 656.5 157.21708245126285 L 655.5 160.21708245126285 L 655.5 163.21708245126285 L 654.5 166.21708245126285 L 654.5 167 L 654.5 169 L 654.5 172 L 654.5 174 L 654.5 176 L 654.5 178 L 654.5 181 L 654.5 183 L 654.5 185 L 654.5 187 L 654.5 189 L 654.5 194 L 654.5 196 L 654.5 198 L 654.5 201 L 654.5 203 L 654.5 205 L 654.5 209 L 654.5 211 L 654.5 213 L 654.5 214.22949016875157 L 655.5 216.22949016875157 L 655.5 220.22949016875157 L 656.5 222.22949016875157 L 656.5 227.78291754873715 L 657.5 230.78291754873715 L 657.5 233.78291754873715 L 658.5 236.78291754873715 L 658.5 242 L 658.5 245 L 658.5 247 L 658.5 249 L 658.5 251 L 658.5 254 L 658.5 256 L 658.5 259 L 658.5 263 L 658.5 266 L 658.5 268 L 658.5 271 L 658.5 273 L 658.5 276 L 658.5 279 L 658.5 281 L 658.5 283 L 658.5 286 L 658.5 288 L 658.5 290 L 658.5 293 L 658.5 296 L 658.5 301 L 658.5 304 L 658.5 307 L 658.5 310 L 658.5 313 L 658.5 317 L 658.5 320 L 658.5 323 L 658.5 325 L 658.5 327 L 658.5 329 L 658.5 332.77050983124843 L 656.9465726200144 335.8773645912196 L 656.5 337.21708245126285 L 656.5 338 L 656.5 341.21708245126285 L 655.5 344.21708245126285 L 655.5 346.77050983124843 L 653.7082039324994 350.3541019662497 L 652.9465726200144 351.8773645912196 L 652.1151247353788 354.3717082451263 L 650.5552403667323 359.0513613510659 L 648.1639081134502 361.442693604348 L 647.1639081134502 363.442693604348 L 644.3033008588991 366.3033008588991 L 642.3033008588991 368.3033008588991 L 639.442693604348 371.1639081134502 L 638.5901699437495 371.59016994374946 L 636.6352549156242 375.5 L 632.2708172829899 375.5 L 631.1602514716892 376.2403772075338 L 626.2708172829899 379.5 L 623.7705098312484 379.5 L 623.3541019662497 379.7082039324994 L 619.7705098312484 381.5 L 617.7705098312484 381.5 L 615.7705098312484 382.5 L 612 382.5 L 610 382.5 L 607 382.5 L 604 382.5 L 597.2294901687516 382.5 L 594.1226354087804 380.9465726200144 L 591.1226354087804 379.9465726200144 L 590.2294901687516 379.5 L 587.7829175487371 379.5 L 581.9486386489341 377.55524036673233 L 579.9486386489341 375.55524036673233 L 576.9486386489341 374.55524036673233 L 574.2218294125853 371.8284311303835 L 570.1825262680586 369.13556236736576 L 568.8360918865498 366.442693604348 L 564.8360918865498 362.442693604348 L 563.0534273799856 358.8773645912196 L 562.8672689857445 358.3188894084965 L 561.8644376326342 357.81747373194133 L 558.7596227924662 353.1602514716892 L 556.5006149034831 349.77173963821457 L 555.2917960675006 347.3541019662497 L 554.8360918865498 346.442693604348 L 552.8360918865498 344.442693604348 L 551.2917960675006 341.3541019662497 L 550.2917960675006 339.3541019662497 L 549.0534273799856 336.8773645912196 L 547.5 332.21708245126285 L 547.5 330.77050983124843 L 546.5 328.77050983124843 L 546.5 325.77050983124843 L 545.5 323.77050983124843 L 545.5 320 L 545.5 317 L 545.5 315 L 545.5 313 L 545.5 311 " stroke="#4a5568" stroke-width="2" fill="none" stroke-linecap="butt" stroke-linejoin="round" />
    <path d="M 552 176.5 L 554 176.5 L 556 176.5 L 558 176.5 L 564 176.5 L 566 176.5 L 569 176.5 L 571 176.5 L 574 176.5 L 576 176.5 L 576.2294901687516 176.5 L 576.6458980337503 176.70820393249937 L 580.2294901687516 178.5 L 584 178.5 L 586 178.5 L 588 178.5 L 590 178.5 L 593 178.5 L 595 178.5 L 597 178.5 L 599 178.5 L 601 178.5 L 603 178.5 L 605 178.5 L 607 178.5 L 609 178.5 L 612 178.5 L 614 178.5 L 616 178.5 L 618 178.5 L 618.2294901687516 178.5 L 620.2294901687516 179.5 L 622.7829175487371 179.5 L 625.7829175487371 180.5 L 629 180.5 L 632 180.5 L 634 180.5 L 637 180.5 L 639 180.5 L 641 180.5 L 646 180.5 L 648 180.5 L 650 180.5 L 652 180.5 L 654.2294901687516 180.5 L 656.2294901687516 181.5 L 660 181.5 L 660.2294901687516 181.5 L 662.2294901687516 182.5 L 666 182.5 L 668 182.5 L 668.2294901687516 182.5 L 670.2294901687516 183.5 L 672.7829175487371 183.5 L 675.7829175487371 184.5 L 679 184.5 L 682 184.5 L 682.2294901687516 184.5 L 684.2294901687516 185.5 L 688 185.5 L 689.2294901687516 185.5 L 691.2294901687516 186.5 L 695 186.5 L 696.7829175487371 186.5 L 699.7829175487371 187.5 L 703 187.5 L 705 187.5 L 707 187.5 L 709 187.5 L 711 187.5 L 714 187.5 L 716 187.5 L 718 187.5 L 721 187.5 L 723 187.5 L 725 187.5 L 728 187.5 L 730 187.5 L 732 187.5 L 734 187.5 " stroke="#4a5568" stroke-width="2" fill="none" stroke-linecap="butt" stroke-linejoin="round" />
    <path d="M 552 161.5 L 554 161.5 L 556 161.5 L 558 161.5 L 564 161.5 L 566 161.5 L 569 161.5 L 571 161.5 L 574 161.5 L 576 161.5 L 579.7705098312484 161.5 L 583.3541019662497 163.29179606750063 L 583.7705098312484 163.5 L 584 163.5 L 586 163.5 L 588 163.5 L 590 163.5 L 593 163.5 L 595 163.5 L 597 163.5 L 599 163.5 L 601 163.5 L 603 163.5 L 605 163.5 L 607 163.5 L 609 163.5 L 612 163.5 L 614 163.5 L 616 163.5 L 618 163.5 L 621.7705098312484 163.5 L 623.7705098312484 164.5 L 625.2170824512629 164.5 L 628.2170824512629 165.5 L 629 165.5 L 632 165.5 L 634 165.5 L 637 165.5 L 639 165.5 L 641 165.5 L 646 165.5 L 648 165.5 L 650 165.5 L 652 165.5 L 657.7705098312484 165.5 L 659.7705098312484 166.5 L 660 166.5 L 663.7705098312484 166.5 L 665.7705098312484 167.5 L 666 167.5 L 668 167.5 L 671.7705098312484 167.5 L 673.7705098312484 168.5 L 675.2170824512629 168.5 L 678.2170824512629 169.5 L 679 169.5 L 682 169.5 L 685.7705098312484 169.5 L 687.7705098312484 170.5 L 688 170.5 L 692.7705098312484 170.5 L 694.7705098312484 171.5 L 695 171.5 L 699.2170824512629 171.5 L 702.2170824512629 172.5 L 703 172.5 L 705 172.5 L 707 172.5 L 709 172.5 L 711 172.5 L 714 172.5 L 716 172.5 L 718 172.5 L 721 172.5 L 723 172.5 L 725 172.5 L 728 172.5 L 730 172.5 L 732 172.5 L 734 172.5 " stroke="#4a5568" stroke-width="2" fill="none" stroke-linecap="butt" stroke-linejoin="round" />
  </g>
</svg>