<svg xmlns="http://www.w3.org/2000/svg" width="1334" height="864" viewBox="0 0 1334 864">
  <g fill="none">
    <path d="M 749.0623058987491 106.96884705062547 L 728.9376941012509 117.03115294937453 M 734.1305824765365 85.33552548074127 L 715.5480103315086 98.02166013534884 M 711.8344502315072 68.62864280596064 L 700.8545959599037 88.26770592450963 M 695.332199574761 54.57591498949142 L 680.1104369051841 71.14540325048117 M 672.0776652171809 43.373199931488536 L 658.9216838122462 61.62614909793866 M 647.6847471412585 32.066208101631794 L 639.074369913044 52.85349758313574 M 622.5223029680146 25.019740174416413 L 617.3528622556989 46.91784243744034 M 595.9617930585404 21.757012826013668 L 595.1674646489292 44.242987173986336 M 570.7269065139031 20.75 L 570.7269065139031 43.25 M 544.7089482633626 22.81341249233254 L 547.4580716965158 45.14483251769786 M 519.2417085493248 27.119825370406957 L 524.5485865421972 48.98502708383202 M 495.48778385685597 33.97915440956982 L 500.93354897583043 55.810179174086976 M 468.54621043008586 46.95159127768993 L 483.82851079127073 63.465261241405656 M 451.912388458455 70.0274094030123 L 471.77766758998473 80.59247850010821 M 440.3209416518733 94.10758790244248 L 461.855512247877 100.62773124793216 M 434.50267575230464 119.3757208139922 L 456.7121435491483 122.97982128164897 M 432.78369989435566 146.82621820146187 L 455.21630010564434 145.0859746091768 M 438.93488417659 175.025531943299 L 459.0625465543052 164.96932951849138 M 449.13770216031276 197.93523868576935 L 468.7081239118943 186.83350042254116 M 467.5602611275627 217.98996660902853 L 483.82094801563136 202.43875887688787 M 488.61032471272915 234.31478999842156 L 501.7663061176638 216.06184083197147 M 514.4231553973254 247.90126508843127 L 518.7361971195553 225.81851908386233 M 541.3208718965094 249.25 L 541.3208718965094 226.75 M 565.9616982933919 251.25 L 565.9616982933919 228.75 M 591.9957514908477 247.04016681274874 L 588.391651023191 224.83069901590505 M 616.5585683404803 244.10473389842184 L 612.9544678728236 221.89526610157816 M 637.1707075639799 242.49300452899178 L 641.6205745034922 220.43742282683223 M 663.7539586753998 246.25 L 663.7539586753998 223.75 M 687.0902880358938 248.18672182078458 L 689.4733574049067 225.81327817921542 M 706.6523426294198 255.35151394225164 L 715.837858504852 234.81188643583897 M 722.3878223201582 267.5696055115683 L 738.7230773821543 252.09674404190048 M 733.0230708656674 285.18017356706815 L 753.548472121278 275.96291240682234 M 738.8017257541886 305.2986489456057 L 761.1982742458114 303.1435119053258 M 740.75 328.86190682234826 L 763.25 328.86190682234826 M 736.2329969074739 347.3806900510777 L 756.2152575274935 357.72280107898763 M 722.4333624742748 366.1134436166118 L 741.4045814640793 378.2106685066798 M 706.5549173273034 379.2182298619473 L 720.0705830474017 397.2064699132296 M 687.324219185782 389.78464184614387 L 696.1079163503215 410.4992903858044 M 666.328642675396 398.11836647283684 L 672.0391774246183 419.88163352716316 M 641.4962278943843 405.2056470050022 L 650.1066051225988 425.9929364865062 M 620.4847480542375 409.86946254461384 L 623.2338714873907 432.20088256997917 M 595.6761646339139 414.2701142531062 L 599.4125089705062 436.4577173457887 M 573.0311312570684 417.75 L 573.0311312570684 440.25 M 546.8027644191892 419.78341001410826 L 549.6570819869017 442.101628384369 M 523.2369994129842 419.75 L 523.2369994129842 442.25 M 501.674501166645 419.0861755586188 L 495.1599251490625 440.62243102030806 M 483.8516934176053 411.6613676153996 L 469.1096542370024 428.659081602803 M 470.6290164916096 395.2631096816072 L 451.4893733036887 407.0920597042877 M 454.43354104407706 375.8693638065312 L 435.77803316734696 388.4479975106049 M 438.72414814259986 359.303237333681 L 418.31456793052956 368.7741948125777 " stroke="#8B4513" stroke-width="7" fill="none" stroke-linecap="butt" />
    <path d="M 745.7082039324994 108.64589803375031 L 744.7082039324994 106.64589803375031 L 742.4993850965169 102.22826036178543 L 740.2403772075338 98.83974852831078 L 737.8284311303835 95.22182941258528 L 736.1639081134502 93.55730639565199 L 735.1639081134502 91.55730639565199 L 732.3033008588991 88.6966991411009 L 731.1639081134502 87.55730639565199 L 730.7082039324994 86.64589803375031 L 727.6352549156242 80.5 L 725.6352549156242 80.5 L 726.7082039324994 82.64589803375031 L 723.6352549156242 76.5 L 718.7705098312484 76.5 L 719.442693604348 76.8360918865498 L 716.1066017177982 73.5 L 713.2708172829899 73.5 L 711.3245521147171 72.20248988781807 L 709.0513613510659 71.44475963326768 L 708.3033008588991 70.6966991411009 L 705.442693604348 67.8360918865498 L 703.442693604348 66.8360918865498 L 701.7781705874147 65.17156886961651 L 699.8174737319414 63.86443763263425 L 698.5901699437495 61.40983005625053 L 694.3541019662497 59.29179606750063 L 694.5901699437495 59.40983005625053 L 693.5901699437495 57.40983005625053 L 689.3541019662497 55.29179606750063 L 687.3541019662497 54.29179606750063 L 684.6177274703643 52.923608819557984 L 680.6177274703643 51.923608819557984 L 679.3541019662497 51.29179606750063 L 677.3541019662497 50.29179606750063 L 676.442693604348 49.83609188654979 L 673.1066017177982 46.5 L 669.7705098312484 46.5 L 670.442693604348 46.83609188654979 L 668.442693604348 44.83609188654979 L 664.8773645912196 43.05342737998558 L 663.0513613510659 42.44475963326768 L 661.442693604348 40.83609188654979 L 656.7705098312484 38.5 L 654.7705098312484 38.5 L 654.3541019662497 38.29179606750063 L 650.7705098312484 36.5 L 648.7705098312484 36.5 L 647.8773645912196 36.05342737998558 L 644.8773645912196 35.05342737998558 L 641.7705098312484 33.5 L 639.2170824512629 33.5 L 637.8773645912196 33.05342737998558 L 632.7705098312484 30.5 L 629 30.5 L 629.2708172829899 30.5 L 626.2708172829899 28.5 L 622 28.5 L 621.7705098312484 28.5 L 617.7705098312484 26.5 L 614.2170824512629 26.5 L 611.2170824512629 25.5 L 608 25.5 L 605 25.5 L 603 25.5 L 601 25.5 L 598 25.5 L 596 25.5 L 595.2170824512629 25.5 L 592.2170824512629 24.5 L 588 24.5 L 586 24.5 L 582 24.5 L 579 24.5 L 575 24.5 L 572 24.5 L 570 24.5 L 568 24.5 L 565 24.5 L 563 24.5 L 560 24.5 L 557 24.5 L 553.2294901687516 24.5 L 551.2294901687516 25.5 L 549.0767078078676 25.5 L 545.0767078078676 26.5 L 544 26.5 L 539.2294901687516 26.5 L 537.2294901687516 27.5 L 537 27.5 L 533.2294901687516 27.5 L 530.1226354087804 29.05342737998558 L 528.7829175487371 29.5 L 525.7829175487371 29.5 L 522.7829175487371 30.5 L 520.2294901687516 30.5 L 517.3822725296357 31.923608819557984 L 513.3822725296357 32.923608819557984 L 512.2294901687516 33.5 L 509.22949016875157 33.5 L 507.22949016875157 34.5 L 505.78291754873715 34.5 L 501.901546771346 35.79379025913039 L 497.3822725296356 36.923608819557984 L 496.22949016875157 37.5 L 493.78291754873715 37.5 L 489.1226354087804 39.05342737998558 L 487.3822725296356 39.923608819557984 L 482.7116460960662 41.09126542795033 L 478.04101966249686 44.594235253127366 L 475.557306395652 45.83609188654979 L 473.2218294125853 48.17156886961651 L 469.591673086804 50.591673086804015 L 467.1715688696165 54.22182941258528 L 464.8360918865498 56.557306395652 L 463.8360918865498 58.557306395652 L 460.8360918865498 61.557306395652 L 459.2917960675006 64.64589803375031 L 458.5006149034831 66.22826036178543 L 456.5006149034831 69.22826036178543 L 455.2917960675006 71.64589803375031 L 454.8360918865498 72.55730639565199 L 452.44475963326767 74.94863864893411 L 451.0534273799856 79.12263540878043 L 450.5006149034831 80.22826036178543 L 448.2024898878181 83.67544788528292 L 447.0534273799856 87.12263540878043 L 446.2917960675006 88.64589803375031 L 444.5 92.22949016875158 L 444.5 93.72918271701003 L 442.5 96.72918271701003 L 442.5 100.22949016875158 L 442.2917960675006 100.64589803375031 L 441.0534273799856 103.12263540878043 L 439.5 107.78291754873716 L 439.5 111 L 439.5 111.78291754873716 L 438.5 114.78291754873716 L 438.5 118 L 438.5 118.78291754873716 L 437.5 121.78291754873716 L 437.5 124.07670780786755 L 436.5 128.07670780786754 L 436.5 132 L 436.5 134 L 436.5 139 L 436.5 141 L 436.5 143 L 436.5 145 L 436.5 148.21708245126285 L 437.5 151.21708245126285 L 437.5 152 L 437.5 156.21708245126285 L 438.5 159.21708245126285 L 438.5 162.77050983124843 L 440.0534273799856 165.8773645912196 L 440.5 167.21708245126285 L 440.5 169.77050983124843 L 442.2917960675006 173.3541019662497 L 443.0534273799856 174.8773645912196 L 444.0534273799856 177.8773645912196 L 444.5 178.77050983124843 L 444.5 183.1066017177982 L 447.8360918865498 186.442693604348 L 448.2917960675006 187.3541019662497 L 450.0534273799856 190.8773645912196 L 451.2024898878181 194.32455211471708 L 453.7596227924662 198.1602514716892 L 456.1715688696165 201.7781705874147 L 458.6966991411009 204.3033008588991 L 462.557306395652 208.16390811345022 L 463.40983005625054 208.5901699437495 L 463.5006149034831 208.77173963821457 L 466.6951228436422 213.56350154845327 L 471.268512865014 216.30753556127632 L 472.18252626805867 218.13556236736574 L 477.22826036178543 221.49938509651693 L 479.04101966249686 222.40576474687265 L 482.07359312880715 224.68019484660536 L 484.557306395652 227.16390811345022 L 486.557306395652 228.16390811345022 L 488.557306395652 230.16390811345022 L 490.557306395652 231.16390811345022 L 493.557306395652 234.16390811345022 L 496.6458980337503 235.70820393249937 L 497.557306395652 236.16390811345022 L 499.9486386489341 238.5552403667323 L 503.67544788528295 239.79751011218193 L 507.72918271701 242.5 L 510.22949016875157 242.5 L 511.1226354087804 242.94657262001442 L 515.7829175487371 244.5 L 519 244.5 L 519.2294901687516 244.5 L 521.2294901687516 245.5 L 526 245.5 L 529 245.5 L 531 245.5 L 534 245.5 L 536 245.5 L 539 245.5 L 541 245.5 L 544 245.5 L 546.0767078078676 245.5 L 548.3822725296357 246.07639118044202 L 551.2294901687516 247.5 L 556 247.5 L 558 247.5 L 561 247.5 L 563 247.5 L 566 247.5 L 570.7705098312484 247.5 L 572.7705098312484 246.5 L 575 246.5 L 578.7705098312484 246.5 L 581.6177274703643 245.07639118044202 L 583.9232921921324 244.5 L 586.2170824512629 244.5 L 589.2170824512629 243.5 L 591.2170824512629 243.5 L 594.2170824512629 242.5 L 596 242.5 L 598 242.5 L 602.9232921921324 242.5 L 606.9232921921324 241.5 L 610.2170824512629 241.5 L 613.2170824512629 240.5 L 616.2170824512629 240.5 L 619.2170824512629 239.5 L 621.9232921921324 239.5 L 625.9232921921324 238.5 L 627 238.5 L 632 238.5 L 634 238.5 L 636.7829175487371 238.5 L 639.186554074711 239.3012121753246 L 644.6545947417457 240.21255228649704 L 645.6458980337503 240.70820393249937 L 649.2294901687516 242.5 L 653 242.5 L 655 242.5 L 657 242.5 L 659 242.5 L 661 242.5 L 663 242.5 L 665 242.5 L 667 242.5 L 669 242.5 L 672 242.5 L 675 242.5 L 677.2294901687516 242.5 L 681.2294901687516 244.5 L 685 244.5 L 688.7829175487371 244.5 L 690.6282917548738 245.11512473537886 L 694.7829175487371 246.5 L 694.8933982822018 246.5 L 696.8933982822018 248.5 L 700.2294901687516 248.5 L 701.1226354087804 248.94657262001442 L 704.1226354087804 249.94657262001442 L 705.6458980337503 250.70820393249937 L 708.1226354087804 251.94657262001442 L 708.6811105915035 252.13273101425546 L 709.6811105915035 254.13273101425546 L 713.9486386489341 255.5552403667323 L 715.2218294125853 256.8284311303835 L 718.2218294125853 258.8284311303835 L 719.6966991411009 260.3033008588991 L 722.2218294125853 262.8284311303835 L 724.591673086804 264.408326913196 L 726.1715688696165 266.7781705874147 L 728.6966991411009 269.3033008588991 L 729.5 270.1066017177982 L 729.5 270.77050983124843 L 731.8360918865498 275.442693604348 L 733.8360918865498 277.442693604348 L 734.1522836089881 278.07507704922455 L 736.1522836089881 283.07507704922455 L 737.1522836089881 285.07507704922455 L 738.954571150983 289.5807959042121 L 740.0534273799856 292.8773645912196 L 741.2917960675006 295.3541019662497 L 741.5 295.77050983124843 L 741.5 298 L 741.5 301.21708245126285 L 742.5 304.21708245126285 L 742.5 306 L 742.5 309.92329219213246 L 743.923608819558 315.6177274703644 L 744.5 316.77050983124843 L 744.5 318 L 744.5 321 L 744.5 323 L 744.5 326 L 744.5 329 L 744.5 330.22949016875157 L 743.5 332.22949016875157 L 743.5 335.07670780786754 L 742.5 339.07670780786754 L 742.5 342 L 742.5 343.78291754873715 L 742.202489887818 344.67544788528295 L 740.5006149034831 347.22826036178543 L 739.2917960675006 349.6458980337503 L 738.2917960675006 351.6458980337503 L 737.5006149034831 353.22826036178543 L 736.8644376326342 354.18252626805867 L 733.8672689857445 355.6811105915035 L 732.6986267445988 359.1870373149408 L 730.1825262680586 360.86443763263424 L 728.5942352531274 364.04101966249686 L 725.5942352531274 368.04101966249686 L 725.1825262680586 368.86443763263424 L 723.2218294125853 370.1715688696165 L 720.1715688696165 373.2218294125853 L 718.591673086804 375.591673086804 L 716.6665382639197 376.87509630206023 L 712.809518948453 379.76786078866024 L 707.3495653111744 383.0438329710274 L 704.557306395652 385.8360918865498 L 701.2282603617854 387.5006149034831 L 698.9206676624956 389.03901003634303 L 695.3822725296357 389.923608819558 L 690.6458980337503 392.2917960675006 L 687.3822725296357 393.923608819558 L 682.1656284403132 395.2277698418886 L 680.8933982822018 396.5 L 680.2294901687516 396.5 L 674.6458980337503 399.2917960675006 L 674.2294901687516 399.5 L 671.7291827170101 399.5 L 668.7291827170101 401.5 L 666.2294901687516 401.5 L 664.2294901687516 402.5 L 661.2294901687516 402.5 L 659.2294901687516 403.5 L 657.2294901687516 403.5 L 655.2294901687516 404.5 L 652.7291827170101 404.5 L 649.7291827170101 406.5 L 648.7829175487371 406.5 L 644.1226354087804 408.0534273799856 L 642.1226354087804 409.0534273799856 L 640.7829175487371 409.5 L 640 409.5 L 636.2294901687516 409.5 L 633.1226354087804 411.0534273799856 L 631.7829175487371 411.5 L 629.2294901687516 411.5 L 627.2294901687516 412.5 L 625.7829175487371 412.5 L 622.7829175487371 413.5 L 621.0767078078676 413.5 L 617.0767078078676 414.5 L 614.7829175487371 414.5 L 611.7829175487371 415.5 L 610.0767078078676 415.5 L 606.0767078078676 416.5 L 602.2294901687516 416.5 L 600.2294901687516 417.5 L 598.0767078078676 417.5 L 593.1809828122275 418.72393124891 L 590.0767078078676 419.5 L 584.7829175487371 419.5 L 581.7829175487371 420.5 L 579.0767078078676 420.5 L 575.0767078078676 421.5 L 574 421.5 L 569 421.5 L 567 421.5 L 564 421.5 L 560 421.5 L 557.3792810227634 421.5 L 550.471561378076 422.6512866074479 L 547.0767078078676 423.5 L 542 423.5 L 538 423.5 L 534 423.5 L 530 423.5 L 526 423.5 L 523 423.5 L 521 423.5 L 519 423.5 L 515 423.5 L 512 423.5 L 509 423.5 L 507 423.5 L 504 423.5 L 503.21708245126285 423.5 L 501.098453228654 422.7937902591304 L 497.6177274703644 421.923608819558 L 496.3541019662497 421.2917960675006 L 493.8773645912196 420.0534273799856 L 489.21708245126285 418.5 L 489.1066017177982 418.5 L 487.8343715596868 417.2277698418886 L 485.16553530469446 416.5605607781405 L 484.3188894084965 414.86726898574454 L 481.3188894084965 413.86726898574454 L 481.1639081134502 413.557306395652 L 477.7781705874147 410.1715688696165 L 475.22918271701 408.47224362268 L 473.12490369793977 405.6665382639197 L 470.8284311303835 402.2218294125853 L 468.55524036673233 399.9486386489341 L 467.55524036673233 396.9486386489341 L 463.8284311303835 393.2218294125853 L 461.8284311303835 390.2218294125853 L 460.1639081134502 388.557306395652 L 459.1639081134502 386.557306395652 L 455.3033008588991 382.6966991411009 L 452.8284311303835 380.2218294125853 L 451.2403772075338 377.8397485283108 L 448.52775637732 373.77081728299 L 443.92640687119285 370.3198051533946 L 442.6801948466054 369.07359312880715 L 438.93769410125094 364.08359213500125 L 437.59016994374946 363.40983005625054 L 437.1639081134502 362.557306395652 L 435.1639081134502 360.557306395652 L 435.5 361.22949016875157 L 435.5 358.72918271701 L 433.5 355.72918271701 L 433.5 356 L 433.5 354 L 433.5 352 L 433.5 348.22949016875157 L 432.5 346.22949016875157 L 432.5 344.22949016875157 L 431.5 342.22949016875157 L 431.5 342 " stroke="#4a5568" stroke-width="2" fill="none" stroke-linecap="butt" stroke-linejoin="round" />
    <path d="M 732.2917960675006 115.35410196624969 L 731.2917960675006 113.35410196624969 L 729.5006149034831 109.77173963821457 L 727.7596227924662 107.16025147168922 L 726.1715688696165 104.77817058741472 L 723.8360918865498 102.44269360434801 L 722.8360918865498 100.44269360434801 L 721.6966991411009 99.3033008588991 L 718.8360918865498 96.44269360434801 L 717.2917960675006 93.35410196624969 L 718.3647450843758 95.5 L 716.3647450843758 95.5 L 713.2917960675006 89.35410196624969 L 714.3647450843758 91.5 L 715.2294901687516 91.5 L 710.557306395652 89.1639081134502 L 709.8933982822018 88.5 L 708.7291827170101 88.5 L 704.6754478852829 85.79751011218193 L 700.9486386489341 84.55524036673232 L 697.6966991411009 81.3033008588991 L 696.557306395652 80.1639081134502 L 694.557306395652 79.1639081134502 L 692.2218294125853 76.82843113038349 L 688.1825262680586 74.13556236736575 L 687.4098300562505 72.59016994374947 L 687.6458980337503 72.70820393249937 L 683.4098300562505 70.59016994374947 L 682.4098300562505 68.59016994374947 L 682.6458980337503 68.70820393249937 L 680.6458980337503 67.70820393249937 L 679.3822725296357 67.07639118044202 L 675.3822725296357 66.07639118044202 L 672.6458980337503 64.70820393249937 L 670.6458980337503 63.70820393249937 L 667.557306395652 62.16390811345021 L 666.8933982822018 61.5 L 666.2294901687516 61.5 L 661.557306395652 59.16390811345021 L 659.557306395652 57.16390811345021 L 659.1226354087804 56.94657262001442 L 654.9486386489341 55.55524036673232 L 652.557306395652 53.16390811345021 L 653.2294901687516 53.5 L 651.2294901687516 53.5 L 647.6458980337503 51.70820393249937 L 647.2294901687516 51.5 L 645.2294901687516 51.5 L 642.1226354087804 49.94657262001442 L 639.1226354087804 48.94657262001442 L 638.2294901687516 48.5 L 636.7829175487371 48.5 L 632.1226354087804 46.94657262001442 L 629.2294901687516 45.5 L 629 45.5 L 624.7291827170101 45.5 L 621.7291827170101 43.5 L 622 43.5 L 618.2294901687516 43.5 L 614.2294901687516 41.5 L 611.7829175487371 41.5 L 608.7829175487371 40.5 L 608 40.5 L 605 40.5 L 603 40.5 L 601 40.5 L 598 40.5 L 596 40.5 L 592.7829175487371 40.5 L 589.7829175487371 39.5 L 588 39.5 L 586 39.5 L 582 39.5 L 579 39.5 L 575 39.5 L 572 39.5 L 570 39.5 L 568 39.5 L 565 39.5 L 563 39.5 L 560 39.5 L 557 39.5 L 556.7705098312484 39.5 L 554.7705098312484 40.5 L 550.9232921921324 40.5 L 546.9232921921324 41.5 L 544 41.5 L 542.7705098312484 41.5 L 540.7705098312484 42.5 L 537 42.5 L 536.7705098312484 42.5 L 535.8773645912196 42.94657262001442 L 531.2170824512629 44.5 L 528.2170824512629 44.5 L 525.2170824512629 45.5 L 523.7705098312484 45.5 L 522.6177274703643 46.076391180442016 L 518.6177274703643 47.076391180442016 L 515.7705098312484 48.5 L 512.7705098312484 48.5 L 510.77050983124843 49.5 L 508.21708245126285 49.5 L 506.098453228654 50.20620974086961 L 502.6177274703644 51.076391180442016 L 499.77050983124843 52.5 L 496.21708245126285 52.5 L 494.8773645912196 52.94657262001442 L 492.6177274703644 54.076391180442016 L 489.2883539039338 54.90873457204967 L 485.95898033750314 57.405764746872634 L 484.442693604348 58.16390811345021 L 482.7781705874147 59.82843113038349 L 480.408326913196 61.408326913195985 L 478.8284311303835 63.77817058741472 L 477.1639081134502 65.44269360434801 L 476.1639081134502 67.44269360434801 L 473.1639081134502 70.44269360434801 L 472.7082039324994 71.35410196624969 L 471.4993850965169 73.77173963821457 L 469.4993850965169 76.77173963821457 L 468.7082039324994 78.35410196624969 L 467.1639081134502 81.44269360434801 L 465.55524036673233 83.05136135106589 L 464.9465726200144 84.87736459121957 L 463.4993850965169 87.77173963821457 L 461.7975101121819 90.32455211471708 L 460.9465726200144 92.87736459121957 L 459.7082039324994 95.35410196624969 L 459.5 95.77050983124842 L 459.5 98.27081728298997 L 457.5 101.27081728298997 L 457.5 103.77050983124842 L 455.7082039324994 107.35410196624969 L 454.9465726200144 108.87736459121957 L 454.5 110.21708245126284 L 454.5 111 L 454.5 114.21708245126284 L 453.5 117.21708245126284 L 453.5 118 L 453.5 121.21708245126284 L 452.5 124.21708245126284 L 452.5 125.92329219213245 L 451.5 129.92329219213246 L 451.5 132 L 451.5 134 L 451.5 139 L 451.5 141 L 451.5 143 L 451.5 145 L 451.5 145.78291754873715 L 452.5 148.78291754873715 L 452.5 152 L 452.5 153.78291754873715 L 453.5 156.78291754873715 L 453.5 159.22949016875157 L 453.9465726200144 160.1226354087804 L 455.5 164.78291754873715 L 455.5 166.22949016875157 L 455.7082039324994 166.6458980337503 L 456.9465726200144 169.1226354087804 L 457.9465726200144 172.1226354087804 L 459.5 175.22949016875157 L 459.5 176.8933982822018 L 460.1639081134502 177.557306395652 L 461.7082039324994 180.6458980337503 L 463.9465726200144 185.1226354087804 L 464.7975101121819 187.67544788528292 L 466.2403772075338 189.8397485283108 L 467.8284311303835 192.2218294125853 L 469.3033008588991 193.6966991411009 L 471.442693604348 195.83609188654978 L 474.59016994374946 197.4098300562505 L 476.4993850965169 201.22826036178543 L 477.3048771563578 202.43649845154673 L 482.731487134986 205.69246443872368 L 483.81747373194133 207.86443763263426 L 484.77173963821457 208.50061490348307 L 486.95898033750314 209.59423525312735 L 491.92640687119285 213.31980515339464 L 493.442693604348 214.83609188654978 L 495.442693604348 215.83609188654978 L 497.442693604348 217.83609188654978 L 499.442693604348 218.83609188654978 L 502.442693604348 221.83609188654978 L 503.3541019662497 222.29179606750063 L 506.442693604348 223.83609188654978 L 508.0513613510659 225.4447596332677 L 510.32455211471705 226.20248988781807 L 512.2708172829899 227.5 L 513.7705098312484 227.5 L 516.8773645912196 229.05342737998558 L 518.2170824512629 229.5 L 519 229.5 L 522.7705098312484 229.5 L 524.7705098312484 230.5 L 526 230.5 L 529 230.5 L 531 230.5 L 534 230.5 L 536 230.5 L 539 230.5 L 541 230.5 L 544 230.5 L 547.9232921921324 230.5 L 553.6177274703643 231.92360881955798 L 554.7705098312484 232.5 L 556 232.5 L 558 232.5 L 561 232.5 L 563 232.5 L 566 232.5 L 567.2294901687516 232.5 L 569.2294901687516 231.5 L 575 231.5 L 575.2294901687516 231.5 L 576.3822725296357 230.92360881955798 L 582.0767078078676 229.5 L 583.7829175487371 229.5 L 586.7829175487371 228.5 L 588.7829175487371 228.5 L 591.7829175487371 227.5 L 596 227.5 L 598 227.5 L 601.0767078078676 227.5 L 605.0767078078676 226.5 L 607.7829175487371 226.5 L 610.7829175487371 225.5 L 613.7829175487371 225.5 L 616.7829175487371 224.5 L 620.0767078078676 224.5 L 624.0767078078676 223.5 L 627 223.5 L 632 223.5 L 634 223.5 L 639.2170824512629 223.5 L 642.813445925289 224.6987878246754 L 649.3454052582543 225.78744771350296 L 652.3541019662497 227.29179606750063 L 652.7705098312484 227.5 L 653 227.5 L 655 227.5 L 657 227.5 L 659 227.5 L 661 227.5 L 663 227.5 L 665 227.5 L 667 227.5 L 669 227.5 L 672 227.5 L 675 227.5 L 680.7705098312484 227.5 L 684.7705098312484 229.5 L 685 229.5 L 691.2170824512629 229.5 L 695.3717082451262 230.88487526462114 L 697.2170824512629 231.5 L 701.1066017177982 231.5 L 703.1066017177982 233.5 L 703.7705098312484 233.5 L 706.8773645912196 235.05342737998558 L 709.8773645912196 236.05342737998558 L 712.3541019662497 237.29179606750063 L 713.8773645912196 238.05342737998558 L 719.3188894084965 239.86726898574454 L 720.3188894084965 241.86726898574454 L 722.0513613510659 242.4447596332677 L 724.7781705874147 245.1715688696165 L 727.7781705874147 247.17156886961652 L 730.3033008588991 249.6966991411009 L 731.7781705874147 251.1715688696165 L 735.408326913196 253.591673086804 L 737.8284311303835 257.2218294125853 L 739.3033008588991 258.6966991411009 L 744.5 263.8933982822018 L 744.5 267.22949016875157 L 744.1639081134502 266.557306395652 L 746.1639081134502 268.557306395652 L 747.8477163910119 271.92492295077545 L 749.8477163910119 276.92492295077545 L 750.8477163910119 278.92492295077545 L 753.045428849017 284.4192040957879 L 753.9465726200144 287.1226354087804 L 754.7082039324994 288.6458980337503 L 756.5 292.22949016875157 L 756.5 298 L 756.5 298.78291754873715 L 757.5 301.78291754873715 L 757.5 306 L 757.5 308.07670780786754 L 758.076391180442 310.3822725296356 L 759.5 313.22949016875157 L 759.5 318 L 759.5 321 L 759.5 323 L 759.5 326 L 759.5 329 L 759.5 333.77050983124843 L 758.5 335.77050983124843 L 758.5 336.92329219213246 L 757.5 340.92329219213246 L 757.5 342 L 757.5 346.21708245126285 L 755.797510112182 351.32455211471705 L 753.4993850965169 354.77173963821457 L 752.7082039324994 356.3541019662497 L 751.7082039324994 358.3541019662497 L 750.4993850965169 360.77173963821457 L 747.1355623673658 365.81747373194133 L 746.1327310142555 366.3188894084965 L 745.3013732554012 368.8129626850592 L 741.8174737319414 371.13556236736576 L 741.4057647468726 371.95898033750314 L 738.4057647468726 375.95898033750314 L 736.8174737319414 379.13556236736576 L 732.7781705874147 381.8284311303835 L 731.8284311303835 382.7781705874147 L 729.408326913196 386.408326913196 L 725.3334617360803 389.12490369793977 L 721.190481051547 392.23213921133976 L 716.6504346888256 394.9561670289726 L 713.442693604348 398.1639081134502 L 708.7717396382146 400.4993850965169 L 705.0793323375044 402.96098996365697 L 700.6177274703643 404.076391180442 L 697.3541019662497 405.7082039324994 L 692.6177274703643 408.076391180442 L 689.8343715596868 408.7722301581114 L 687.1066017177982 411.5 L 683.7705098312484 411.5 L 681.3541019662497 412.7082039324994 L 677.7705098312484 414.5 L 676.2708172829899 414.5 L 673.2708172829899 416.5 L 669.7705098312484 416.5 L 667.7705098312484 417.5 L 664.7705098312484 417.5 L 662.7705098312484 418.5 L 660.7705098312484 418.5 L 658.7705098312484 419.5 L 657.2708172829899 419.5 L 654.2708172829899 421.5 L 651.2170824512629 421.5 L 649.8773645912196 421.9465726200144 L 647.8773645912196 422.9465726200144 L 643.2170824512629 424.5 L 640 424.5 L 639.7705098312484 424.5 L 638.8773645912196 424.9465726200144 L 634.2170824512629 426.5 L 632.7705098312484 426.5 L 630.7705098312484 427.5 L 628.2170824512629 427.5 L 625.2170824512629 428.5 L 622.9232921921324 428.5 L 618.9232921921324 429.5 L 617.2170824512629 429.5 L 614.2170824512629 430.5 L 611.9232921921324 430.5 L 607.9232921921324 431.5 L 605.7705098312484 431.5 L 603.7705098312484 432.5 L 599.9232921921324 432.5 L 596.8190171877725 433.27606875109 L 591.9232921921324 434.5 L 587.2170824512629 434.5 L 584.2170824512629 435.5 L 580.9232921921324 435.5 L 576.9232921921324 436.5 L 574 436.5 L 569 436.5 L 567 436.5 L 564 436.5 L 560 436.5 L 558.6207189772366 436.5 L 553.528438621924 437.3487133925521 L 548.9232921921324 438.5 L 542 438.5 L 538 438.5 L 534 438.5 L 530 438.5 L 526 438.5 L 523 438.5 L 521 438.5 L 519 438.5 L 515 438.5 L 512 438.5 L 509 438.5 L 507 438.5 L 504 438.5 L 500.78291754873715 438.5 L 496.901546771346 437.2062097408696 L 492.3822725296356 436.076391180442 L 489.6458980337503 434.7082039324994 L 488.1226354087804 433.9465726200144 L 486.78291754873715 433.5 L 482.8933982822018 433.5 L 480.1656284403132 430.7722301581114 L 474.83446469530554 429.4394392218595 L 473.6811105915035 427.13273101425546 L 470.6811105915035 426.13273101425546 L 468.8360918865498 422.442693604348 L 468.2218294125853 421.8284311303835 L 464.77081728299 419.52775637732 L 460.87509630206023 414.3334617360803 L 459.1715688696165 411.7781705874147 L 455.44475963326767 408.0513613510659 L 454.44475963326767 405.0513613510659 L 452.1715688696165 402.7781705874147 L 450.1715688696165 399.7781705874147 L 447.8360918865498 397.442693604348 L 446.8360918865498 395.442693604348 L 444.6966991411009 393.3033008588991 L 441.1715688696165 389.7781705874147 L 438.7596227924662 386.1602514716892 L 437.47224362268 384.22918271701 L 434.07359312880715 381.6801948466054 L 431.3198051533946 378.92640687119285 L 429.06230589874906 375.91640786499875 L 426.40983005625054 374.59016994374946 L 424.8360918865498 371.442693604348 L 422.8360918865498 369.442693604348 L 420.5 364.77050983124843 L 420.5 363.27081728299 L 418.5 360.27081728299 L 418.5 356 L 418.5 354 L 418.5 352 L 418.5 351.77050983124843 L 417.5 349.77050983124843 L 417.5 347.77050983124843 L 416.5 345.77050983124843 L 416.5 342 " stroke="#4a5568" stroke-width="2" fill="none" stroke-linecap="butt" stroke-linejoin="round" />
  </g>
</svg>