<svg xmlns="http://www.w3.org/2000/svg" width="1334" height="864" viewBox="0 0 1334 864">
  <g fill="none">
    <path d="M 546.75 193 L 569.25 193 M 544.7903179717016 216.76302393132673 L 567.2096820282984 218.66620949710116 M 542.75 242.4924915750035 L 565.25 242.4924915750035 M 541.75 267.39347206141076 L 564.25 267.39347206141076 M 540.4859242641669 290.4259752784055 L 562.6953920610106 294.0300757460622 M 537.7580572644405 316.4210880308191 L 560.2419427355595 317.27249517290795 M 537.75 341.8467916018635 L 560.25 341.8467916018635 M 537.7901815548645 365.8968071666757 L 560.2098184451355 367.7967760370513 M 539.9188769635797 395.9828745905975 L 560.3276594888401 386.5101983142421 M 545.7380617825494 417.65314810964145 L 567.62449379866 412.43451863398656 M 564.8385338712928 445.42441084101483 L 573.8235166268244 424.79627265835757 M 592.8860905101023 451.25 L 592.8860905101023 428.75 M 620.7917985091976 441.56982159396046 L 608.962848486517 422.43017840603954 M 634.0872970195447 413.8390326986214 L 613.0082400282407 405.9698932058076 " stroke="#8B4513" stroke-width="7" fill="none" stroke-linecap="butt" />
    <path d="M 550.5 193 L 550.5 195 L 550.5 198 L 550.5 203.78291754873715 L 549.7937902591304 205.90154677134598 L 548.5 211.07670780786754 L 548.5 216 L 548.5 217.2573536480541 L 547.5 222.2573536480541 L 547.5 225.07670780786754 L 546.5 229.07670780786754 L 546.5 233 L 546.5 235 L 546.5 237 L 546.5 241 L 546.5 245 L 546.5 247 L 546.5 249 L 546.5 252 L 546.5 256 L 546.5 257.2573536480541 L 545.5 262.2573536480541 L 545.5 265 L 545.5 269 L 545.5 271 L 545.5 273 L 545.5 276 L 545.5 279 L 545.5 280.2573536480541 L 544.5 285.2573536480541 L 544.5 289.78291754873715 L 543.5 292.78291754873715 L 543.5 297 L 543.5 301 L 543.5 303 L 543.5 303.78291754873715 L 542.7937902591304 305.901546771346 L 541.5 311.07670780786754 L 541.5 319 L 541.5 326 L 541.5 332 L 541.5 334 L 541.5 336 L 541.5 339 L 541.5 344 L 541.5 346 L 541.5 350 L 541.5 353 L 541.5 358 L 541.5 360 L 541.5 367.2573536480541 L 540.5 372.2573536480541 L 540.5 377 L 540.5 379 L 540.5 381 L 540.5 384.77050983124843 L 541.5 386.77050983124843 L 541.5 390.77050983124843 L 543.2917960675006 394.3541019662497 L 543.5 394.77050983124843 L 543.5 397.21708245126285 L 544.8848752646212 401.3717082451263 L 545.8848752646212 404.3717082451263 L 546.8848752646212 407.3717082451263 L 547.5 409.21708245126285 L 547.5 412.77050983124843 L 549.0534273799856 415.8773645912196 L 549.5 417.21708245126285 L 549.5 419.77050983124843 L 551.2917960675006 423.3541019662497 L 552.2917960675006 425.3541019662497 L 553.2917960675006 427.3541019662497 L 554.0534273799856 428.8773645912196 L 555.4447596332677 433.0513613510659 L 557.8360918865498 435.442693604348 L 559.4098300562505 438.59016994374946 L 563.6458980337503 440.7082039324994 L 566.1226354087804 441.9465726200144 L 567.9486386489341 442.55524036673233 L 570.8933982822018 445.5 L 574.2294901687516 445.5 L 576.2294901687516 446.5 L 580 446.5 L 582.2294901687516 446.5 L 584.2294901687516 447.5 L 588 447.5 L 590 447.5 L 592 447.5 L 594 447.5 L 596 447.5 L 598 447.5 L 601.7705098312484 447.5 L 606.442693604348 445.1639081134502 L 607.1066017177982 444.5 L 607.7705098312484 444.5 L 611.3541019662497 442.7082039324994 L 613.3541019662497 441.7082039324994 L 617.5901699437495 439.59016994374946 L 617.6352549156242 439.5 L 619.6352549156242 439.5 L 622.7082039324994 433.3541019662497 L 622.5901699437495 433.59016994374946 L 624.5901699437495 432.59016994374946 L 626.7082039324994 428.3541019662497 L 628.5 424.77050983124843 L 628.5 422.77050983124843 L 629.5 420.77050983124843 L 629.5 417 L 629.5 416.77050983124843 L 630.5 414.77050983124843 L 630.5 412.77050983124843 L 630.7082039324994 412.3541019662497 L 632.5 408.77050983124843 L 632.5 405 " stroke="#4a5568" stroke-width="2" fill="none" stroke-linecap="butt" stroke-linejoin="round" />
    <path d="M 565.5 193 L 565.5 195 L 565.5 198 L 565.5 206.21708245126285 L 564.2062097408696 210.09845322865402 L 563.5 212.92329219213246 L 563.5 216 L 563.5 218.7426463519459 L 562.5 223.7426463519459 L 562.5 226.92329219213246 L 561.5 230.92329219213246 L 561.5 233 L 561.5 235 L 561.5 237 L 561.5 241 L 561.5 245 L 561.5 247 L 561.5 249 L 561.5 252 L 561.5 256 L 561.5 258.7426463519459 L 560.5 263.7426463519459 L 560.5 265 L 560.5 269 L 560.5 271 L 560.5 273 L 560.5 276 L 560.5 279 L 560.5 281.7426463519459 L 559.5 286.7426463519459 L 559.5 292.21708245126285 L 558.5 295.21708245126285 L 558.5 297 L 558.5 301 L 558.5 303 L 558.5 306.21708245126285 L 557.2062097408696 310.098453228654 L 556.5 312.92329219213246 L 556.5 319 L 556.5 326 L 556.5 332 L 556.5 334 L 556.5 336 L 556.5 339 L 556.5 344 L 556.5 346 L 556.5 350 L 556.5 353 L 556.5 358 L 556.5 360 L 556.5 368.7426463519459 L 555.5 373.7426463519459 L 555.5 377 L 555.5 379 L 555.5 381 L 555.5 381.22949016875157 L 556.5 383.22949016875157 L 556.5 387.22949016875157 L 556.7082039324994 387.6458980337503 L 558.5 391.22949016875157 L 558.5 394.78291754873715 L 559.1151247353788 396.6282917548737 L 560.1151247353788 399.6282917548737 L 561.1151247353788 402.6282917548737 L 562.5 406.78291754873715 L 562.5 409.22949016875157 L 562.9465726200144 410.1226354087804 L 564.5 414.78291754873715 L 564.5 416.22949016875157 L 564.7082039324994 416.6458980337503 L 565.7082039324994 418.6458980337503 L 566.7082039324994 420.6458980337503 L 567.9465726200144 423.1226354087804 L 568.5552403667323 424.9486386489341 L 570.1639081134502 426.557306395652 L 570.5901699437495 427.40983005625054 L 570.3541019662497 427.2917960675006 L 571.8773645912196 428.0534273799856 L 576.0513613510659 429.44475963326767 L 577.1066017177982 430.5 L 577.7705098312484 430.5 L 579.7705098312484 431.5 L 580 431.5 L 585.7705098312484 431.5 L 587.7705098312484 432.5 L 588 432.5 L 590 432.5 L 592 432.5 L 594 432.5 L 596 432.5 L 598 432.5 L 598.2294901687516 432.5 L 597.557306395652 432.8360918865498 L 600.8933982822018 429.5 L 604.2294901687516 429.5 L 604.6458980337503 429.2917960675006 L 606.6458980337503 428.2917960675006 L 606.4098300562505 428.40983005625054 L 608.3647450843758 424.5 L 610.3647450843758 424.5 L 609.2917960675006 426.6458980337503 L 611.4098300562505 422.40983005625054 L 613.4098300562505 421.40983005625054 L 613.2917960675006 421.6458980337503 L 613.5 421.22949016875157 L 613.5 419.22949016875157 L 614.5 417.22949016875157 L 614.5 417 L 614.5 413.22949016875157 L 615.5 411.22949016875157 L 615.5 409.22949016875157 L 617.2917960675006 405.6458980337503 L 617.5 405.22949016875157 L 617.5 405 " stroke="#4a5568" stroke-width="2" fill="none" stroke-linecap="butt" stroke-linejoin="round" />
  </g>
</svg>