<svg xmlns="http://www.w3.org/2000/svg" width="1334" height="864" viewBox="0 0 1334 864">
  <g fill="none">
    <path d="M 399.32731289693174 70.55756236768943 L 420.67268710306826 63.44243763231057 M 407.39127502425936 94.35581344667214 L 428.60872497574064 86.86783524448795 M 413.1834887570228 115.84365013322451 L 435.25418782865006 111.46937962379411 M 421.92558618122433 142.00326321597598 L 442.21922430053036 132.2863577475334 M 424.75 161.29142144786124 L 447.25 161.29142144786124 M 430.8959905118126 188.2588439661559 L 452.354795442127 181.49351389566306 M 438.08423094259086 211.6663143546031 L 459.6193116709151 205.14785609942064 M 443.53327887026785 234.99278686395985 L 465.48916213487655 230.07453615147324 M 449.21313851339363 260.21477412574365 L 470.5858211062759 253.1821047332648 M 456.6023140099925 283.68773664074615 L 478.01091461088936 276.7651778427813 M 465.17721177451773 308.2255221754476 L 485.8573357715025 299.360846689603 M 474.25559872784055 330.60300059575985 L 495.0461370694307 322.00047099878265 M 481.2368785356584 354.1023961299369 L 501.74948659287094 344.85669925565117 M 491.0605904165238 375.27364867539313 L 512.3166634829704 367.89602319059895 M 498.3764376973173 398.79925172863716 L 519.350899530544 390.65542272708547 M 511.4376450597477 425.0997278077402 L 527.5778412088226 409.4235015951154 M 532.2112311593343 443.6834979531034 L 542.2735370580832 423.5588861556053 M 564.0294761067779 443.94905113151196 L 558.8600353944622 422.05094886848804 M 586.761838211823 419.6187022756722 L 566.3197174368677 410.2181864269465 M 597.0405716122085 394.44700394535073 L 574.9594283877915 390.1257640882287 M 605.2876106675401 373.50824216582515 L 584.4584899420445 364.9995566150056 M 614.0871388245484 351.54382388139487 L 594.1859770761814 341.0465022675102 M 625.9073998890677 329.34096496873707 L 605.7827880915696 319.278659069988 M 636.6506499190345 306.0636637912917 L 615.5346800836166 298.2941195376228 M 648.2704700826743 286.35011717255776 L 628.9483050393904 274.8217201443451 M 658.086496410924 263.92217248680373 L 638.7083817146635 252.48807126202135 M 669.3936447407519 240.71165263057927 L 648.6063552592481 232.10127540236473 M 678.3884020142822 219.3773857051818 L 658.3776478036044 209.09051465904506 M 690.2674214423104 197.62092186225192 L 670.1428096448122 187.55861596350286 M 699.9297184773869 175.29628180929723 L 679.7859040775335 165.2724730808618 M 710.7565056759581 152.62889725746638 L 690.3090491006565 143.23999318930427 M 720.3254444147613 131.53666360093985 L 701.1858012268403 119.70771357825934 M 731.3012243975369 110.14495797522831 L 712.0418478116118 98.511969815623 M 742.5961460526345 86.6976846784596 L 721.8088565711306 78.08730745024506 M 751.1265248956402 66.5786917590843 L 732.8709570658023 53.4263443180308 " stroke="#8B4513" stroke-width="7" fill="none" stroke-linecap="butt" />
    <path d="M 402.88487526462114 69.37170824512629 L 403.8333407329218 72.21710465002826 L 405.8333407329218 79.21710465002825 L 407.9545711509831 85.58079590421211 L 410.15228360898806 91.07507704922455 L 410.5 91.77050983124842 L 410.5 96.63525491562422 L 412.5 97.63525491562422 L 412.5 96.92329219213245 L 413.7937902591304 102.09845322865402 L 415.0534273799856 105.87736459121957 L 416.0534273799856 107.87736459121957 L 416.5 109.21708245126284 L 416.5 110 L 416.5 114.21708245126284 L 417.88487526462114 118.37170824512629 L 418.73721804965845 120.92873660023828 L 419.84262115976753 126.45575215078345 L 421.0534273799856 128.8773645912196 L 421.5 130.21708245126285 L 421.5 132.77050983124843 L 423.2917960675006 136.3541019662497 L 425.2917960675006 140.3541019662497 L 425.5 140.77050983124843 L 425.5 142.77050983124843 L 427.0534273799856 145.8773645912196 L 428.0534273799856 148.8773645912196 L 428.5 149.77050983124843 L 428.5 152 L 428.5 155 L 428.5 158 L 428.5 160 L 428.5 164 L 428.5 166 L 428.5 169.77050983124843 L 430.2917960675006 173.3541019662497 L 431.2917960675006 175.3541019662497 L 431.5 175.77050983124843 L 431.5 179.27081728298995 L 433.5 182.27081728298995 L 433.5 184.21708245126285 L 435.0534273799856 188.8773645912196 L 435.5 189.77050983124843 L 435.5 192.77050983124843 L 437.2917960675006 196.3541019662497 L 437.923608819558 197.6177274703644 L 438.5 199.92329219213246 L 438.5 202.77050983124843 L 440.923608819558 207.6177274703644 L 441.7937902591304 211.09845322865402 L 443.5 216.21708245126285 L 443.5 220.21708245126285 L 444.88487526462114 224.37170824512629 L 445.5 226.21708245126285 L 445.5 227.92329219213246 L 446.7937902591304 233.09845322865402 L 447.5 235.21708245126285 L 447.5 238.21708245126285 L 448.88487526462114 242.37170824512629 L 449.88487526462114 245.37170824512629 L 450.5 247.21708245126285 L 450.5 248 L 450.5 250.92329219213246 L 451.7937902591304 256.098453228654 L 452.88487526462114 259.3717082451263 L 454.0534273799856 262.8773645912196 L 454.5 263.77050983124843 L 454.5 265.21708245126285 L 456.0534273799856 269.8773645912196 L 456.5 270.77050983124843 L 456.5 273.77050983124843 L 458.15228360898806 277.07507704922455 L 459.84738388974796 281.3128277511243 L 460.84738388974796 285.3128277511243 L 462.84738388974796 290.3128277511243 L 463.84738388974796 294.3128277511243 L 465.9545711509831 299.5807959042121 L 466.9545711509831 302.5807959042121 L 469.15228360898806 308.07507704922455 L 470.2917960675006 310.3541019662497 L 470.5 310.77050983124843 L 470.5 312.77050983124843 L 472.2917960675006 316.3541019662497 L 472.5 316.77050983124843 L 472.5 320.1066017177982 L 474.5 322.1066017177982 L 474.5 322.77050983124843 L 476.2917960675006 326.3541019662497 L 477.2917960675006 328.3541019662497 L 477.923608819558 329.6177274703644 L 478.923608819558 333.6177274703644 L 479.5 334.77050983124843 L 479.5 336.77050983124843 L 480.5 338.77050983124843 L 480.5 343.1066017177982 L 482.5 345.1066017177982 L 482.5 344 L 482.5 347.77050983124843 L 484.0534273799856 350.8773645912196 L 485.2024898878181 354.32455211471705 L 486.5 356.27081728299 L 486.5 356.92329219213246 L 488.2277698418886 363.8343715596868 L 490.8360918865498 366.442693604348 L 490.923608819558 366.6177274703644 L 492.0912654279503 371.2883539039338 L 494.5 374.5 L 494.5 375.77050983124843 L 496.5006149034831 379.77173963821457 L 498.5006149034831 382.77173963821457 L 498.5 382.77050983124843 L 498.5 384.77050983124843 L 499.5 386.77050983124843 L 499.5 388.77050983124843 L 500.5 390.77050983124843 L 500.5 391 L 500.5 394.77050983124843 L 502.0534273799856 397.8773645912196 L 503.0534273799856 400.8773645912196 L 504.2917960675006 403.3541019662497 L 505.2917960675006 405.3541019662497 L 506.2917960675006 407.3541019662497 L 507.2917960675006 409.3541019662497 L 508.0534273799856 410.8773645912196 L 509.0534273799856 413.8773645912196 L 510.2917960675006 416.3541019662497 L 511.5006149034831 418.77173963821457 L 514.8644376326342 423.81747373194133 L 517.557306395652 425.1639081134502 L 518.8360918865498 426.442693604348 L 519.8360918865498 428.442693604348 L 523.557306395652 432.1639081134502 L 524.4098300562505 432.59016994374946 L 524.2917960675006 432.3541019662497 L 526.4098300562505 436.59016994374946 L 530.6458980337503 438.7082039324994 L 532.6458980337503 439.7082039324994 L 534.6458980337503 440.7082039324994 L 538.2294901687516 442.5 L 542 442.5 L 544 442.5 L 546 442.5 L 548 442.5 L 550 442.5 L 552 442.5 L 554 442.5 L 558.7705098312484 442.5 L 562.3541019662497 440.7082039324994 L 562.7705098312484 440.5 L 564.7705098312484 440.5 L 568.3541019662497 438.7082039324994 L 572.5901699437495 436.59016994374946 L 574.7082039324994 432.3541019662497 L 575.7082039324994 430.3541019662497 L 576.1639081134502 429.442693604348 L 577.3033008588991 428.3033008588991 L 580.1639081134502 425.442693604348 L 581.9465726200144 421.8773645912196 L 582.9465726200144 418.8773645912196 L 583.7082039324994 417.3541019662497 L 584.7082039324994 415.3541019662497 L 586.5 411.77050983124843 L 586.5 409.21708245126285 L 586.5552403667323 409.0513613510659 L 588.5552403667323 407.0513613510659 L 589.9465726200144 402.8773645912196 L 591.9465726200144 398.8773645912196 L 593.5 394.21708245126285 L 593.5 392.27081728299 L 594.4993850965169 390.77173963821457 L 595.7082039324994 388.3541019662497 L 596.9465726200144 385.8773645912196 L 598.1151247353788 382.3717082451263 L 598.9465726200144 379.8773645912196 L 600.076391180442 377.6177274703644 L 601.076391180442 373.6177274703644 L 601.9465726200144 371.8773645912196 L 602.9465726200144 368.8773645912196 L 604.5 365.77050983124843 L 604.5 363.77050983124843 L 604.9465726200144 362.8773645912196 L 605.9465726200144 359.8773645912196 L 606.9465726200144 357.8773645912196 L 607.9465726200144 354.8773645912196 L 608.7082039324994 353.3541019662497 L 609.4993850965169 351.77173963821457 L 611.797510112182 348.32455211471705 L 612.797510112182 345.32455211471705 L 614.4993850965169 342.77173963821457 L 615.7082039324994 340.3541019662497 L 617.7082039324994 336.3541019662497 L 618.4993850965169 334.77173963821457 L 620.4993850965169 331.77173963821457 L 621.7082039324994 329.3541019662497 L 623.7082039324994 325.3541019662497 L 626.5 319.77050983124843 L 626.5 318.07737973711323 L 628.8547770356122 314.15275134442624 L 629.5552403667323 312.0513613510659 L 632.5 309.1066017177982 L 632.5 306.07737973711323 L 634.5793902824055 302.6117292664374 L 636.7082039324994 298.3541019662497 L 638.7082039324994 294.3541019662497 L 639.4993850965169 292.77173963821457 L 641.2403772075338 290.1602514716892 L 643.2403772075338 287.1602514716892 L 645.4993850965169 283.77173963821457 L 646.7082039324994 281.3541019662497 L 647.9465726200144 278.8773645912196 L 648.9465726200144 275.8773645912196 L 649.7082039324994 274.3541019662497 L 651.5 270.77050983124843 L 651.5 268.77050983124843 L 651.7082039324994 268.3541019662497 L 653.5 264.77050983124843 L 653.5 264.1066017177982 L 654.1639081134502 263.442693604348 L 655.9465726200144 259.8773645912196 L 656.797510112182 257.32455211471705 L 658.797510112182 254.32455211471708 L 659.9465726200144 250.8773645912196 L 660.1639081134502 250.442693604348 L 663.5 247.1066017177982 L 663.5 243.77050983124843 L 663.1639081134502 244.442693604348 L 666.5 241.1066017177982 L 666.5 239.1066017177982 L 668.5 237.1066017177982 L 668.5 234.07737973711326 L 671.5 229.07737973711326 L 671.5 225.77050983124843 L 672.5 223.77050983124843 L 672.5 221.77050983124843 L 672.4993850965169 221.77173963821457 L 674.4993850965169 218.77173963821457 L 675.9465726200144 215.8773645912196 L 676.5552403667323 214.0513613510659 L 678.1639081134502 212.442693604348 L 679.1639081134502 210.442693604348 L 681.5552403667323 208.0513613510659 L 682.9465726200144 203.8773645912196 L 683.7082039324994 202.3541019662497 L 685.7082039324994 198.3541019662497 L 686.7082039324994 196.3541019662497 L 687.7082039324994 194.3541019662497 L 688.7082039324994 192.3541019662497 L 689.4993850965169 190.77173963821457 L 692.5 186.27081728298995 L 692.5 184.1066017177982 L 694.5 182.1066017177982 L 694.5 178.77050983124843 L 694.9465726200144 177.8773645912196 L 695.9465726200144 174.8773645912196 L 697.4057647468726 171.95898033750316 L 700.7302494707577 167.52633403898972 L 702.797510112182 161.32455211471708 L 704.797510112182 158.32455211471708 L 706.1151247353788 154.37170824512629 L 706.9465726200144 151.8773645912196 L 707.7082039324994 150.3541019662497 L 708.7082039324994 148.3541019662497 L 709.7082039324994 146.3541019662497 L 710.7082039324994 144.3541019662497 L 711.9465726200144 141.8773645912196 L 713.1151247353788 138.37170824512629 L 713.797510112182 136.32455211471708 L 715.4993850965169 133.77173963821457 L 717.5 129.77050983124843 L 717.5 130.63525491562422 L 719.5 129.63525491562422 L 719.5 124.77050983124842 L 719.1639081134502 125.44269360434801 L 723.5 121.10660171779821 L 723.5 116.77050983124842 L 723.7082039324994 116.35410196624969 L 724.7082039324994 114.35410196624969 L 725.7082039324994 112.35410196624969 L 726.7082039324994 110.35410196624969 L 727.1639081134502 109.44269360434801 L 730.5 106.10660171779821 L 730.5 102.77050983124842 L 730.7082039324994 102.35410196624969 L 731.7082039324994 100.35410196624969 L 732.1639081134502 99.44269360434801 L 735.5 96.10660171779821 L 735.5 92.77050983124842 L 735.7082039324994 92.35410196624969 L 736.7082039324994 90.35410196624969 L 737.7082039324994 88.35410196624969 L 738.9465726200144 85.87736459121957 L 739.9465726200144 82.87736459121957 L 740.7082039324994 81.35410196624969 L 741.7082039324994 79.35410196624969 L 742.7082039324994 77.35410196624969 L 744.5 73.77050983124842 L 744.5 73.10660171779821 L 746.5 71.10660171779821 L 746.5 67.77050983124842 L 746.7082039324994 67.35410196624969 L 747.7082039324994 65.35410196624969 L 748.1639081134502 64.44269360434801 L 750.1639081134502 62.442693604348 L 751.7082039324994 59.35410196624969 L 752.7082039324994 57.35410196624969 " stroke="#4a5568" stroke-width="2" fill="none" stroke-linecap="butt" stroke-linejoin="round" />
    <path d="M 417.11512473537886 64.62829175487371 L 418.1666592670782 67.78289534997174 L 420.1666592670782 74.78289534997175 L 422.0454288490169 80.41920409578789 L 423.84771639101194 84.92492295077545 L 425.5 88.22949016875158 L 425.5 87.36474508437578 L 427.5 88.36474508437578 L 427.5 95.07670780786755 L 428.2062097408696 97.90154677134598 L 428.9465726200144 100.12263540878043 L 429.9465726200144 102.12263540878043 L 431.5 106.78291754873716 L 431.5 110 L 431.5 111.78291754873716 L 432.11512473537886 113.62829175487371 L 433.26278195034155 117.07126339976172 L 434.15737884023247 121.54424784921655 L 434.9465726200144 123.12263540878043 L 436.5 127.78291754873716 L 436.5 129.22949016875157 L 436.7082039324994 129.6458980337503 L 438.7082039324994 133.6458980337503 L 440.5 137.22949016875157 L 440.5 139.22949016875157 L 440.9465726200144 140.1226354087804 L 441.9465726200144 143.1226354087804 L 443.5 146.22949016875157 L 443.5 152 L 443.5 155 L 443.5 158 L 443.5 160 L 443.5 164 L 443.5 166 L 443.5 166.22949016875157 L 443.7082039324994 166.6458980337503 L 444.7082039324994 168.6458980337503 L 446.5 172.22949016875157 L 446.5 174.72918271701005 L 448.5 177.72918271701005 L 448.5 181.78291754873715 L 448.9465726200144 183.1226354087804 L 450.5 186.22949016875157 L 450.5 189.22949016875157 L 450.7082039324994 189.6458980337503 L 452.076391180442 192.3822725296356 L 453.5 198.07670780786754 L 453.5 199.22949016875157 L 455.076391180442 202.3822725296356 L 456.2062097408696 206.90154677134598 L 458.5 213.78291754873715 L 458.5 217.78291754873715 L 459.11512473537886 219.62829175487371 L 460.5 223.78291754873715 L 460.5 226.07670780786754 L 461.2062097408696 228.90154677134598 L 462.5 232.78291754873715 L 462.5 235.78291754873715 L 463.11512473537886 237.62829175487371 L 464.11512473537886 240.62829175487371 L 465.5 244.78291754873715 L 465.5 248 L 465.5 249.07670780786754 L 466.2062097408696 251.90154677134598 L 467.11512473537886 254.62829175487371 L 467.9465726200144 257.1226354087804 L 469.5 260.22949016875157 L 469.5 262.78291754873715 L 469.9465726200144 264.1226354087804 L 471.5 267.22949016875157 L 471.5 270.22949016875157 L 471.84771639101194 270.92492295077545 L 474.15261611025204 276.6871722488757 L 475.15261611025204 280.6871722488757 L 477.15261611025204 285.6871722488757 L 478.15261611025204 289.6871722488757 L 480.0454288490169 294.4192040957879 L 481.0454288490169 297.4192040957879 L 482.84771639101194 301.92492295077545 L 483.7082039324994 303.6458980337503 L 485.5 307.22949016875157 L 485.5 309.22949016875157 L 485.7082039324994 309.6458980337503 L 487.5 313.22949016875157 L 487.5 313.8933982822018 L 489.5 315.8933982822018 L 489.5 319.22949016875157 L 489.7082039324994 319.6458980337503 L 490.7082039324994 321.6458980337503 L 492.076391180442 324.3822725296356 L 493.076391180442 328.3822725296356 L 494.5 331.22949016875157 L 494.5 333.22949016875157 L 495.5 335.22949016875157 L 495.5 336.8933982822018 L 497.5 338.8933982822018 L 497.5 344 L 497.5 344.22949016875157 L 497.9465726200144 345.1226354087804 L 498.7975101121819 347.67544788528295 L 501.5 351.72918271701 L 501.5 355.07670780786754 L 501.7722301581114 356.1656284403132 L 503.1639081134502 357.557306395652 L 505.076391180442 361.3822725296356 L 505.9087345720497 364.7116460960662 L 509.5 369.5 L 509.5 372.22949016875157 L 509.4993850965169 372.22826036178543 L 511.4993850965169 375.22826036178543 L 513.5 379.22949016875157 L 513.5 381.22949016875157 L 514.5 383.22949016875157 L 514.5 385.22949016875157 L 515.5 387.22949016875157 L 515.5 391 L 515.5 391.22949016875157 L 515.9465726200144 392.1226354087804 L 516.9465726200144 395.1226354087804 L 517.7082039324994 396.6458980337503 L 518.7082039324994 398.6458980337503 L 519.7082039324994 400.6458980337503 L 520.7082039324994 402.6458980337503 L 521.9465726200144 405.1226354087804 L 522.9465726200144 408.1226354087804 L 523.7082039324994 409.6458980337503 L 524.4993850965169 411.22826036178543 L 525.1355623673658 412.18252626805867 L 526.442693604348 412.8360918865498 L 531.1639081134502 417.557306395652 L 532.1639081134502 419.557306395652 L 532.442693604348 419.8360918865498 L 535.5901699437495 421.40983005625054 L 537.7082039324994 425.6458980337503 L 537.5901699437495 425.40983005625054 L 537.3541019662497 425.2917960675006 L 539.3541019662497 426.2917960675006 L 541.3541019662497 427.2917960675006 L 541.7705098312484 427.5 L 542 427.5 L 544 427.5 L 546 427.5 L 548 427.5 L 550 427.5 L 552 427.5 L 554 427.5 L 555.2294901687516 427.5 L 555.6458980337503 427.2917960675006 L 559.2294901687516 425.5 L 561.2294901687516 425.5 L 561.6458980337503 425.2917960675006 L 561.4098300562505 425.40983005625054 L 561.2917960675006 425.6458980337503 L 562.2917960675006 423.6458980337503 L 563.8360918865498 420.557306395652 L 566.6966991411009 417.6966991411009 L 567.8360918865498 416.557306395652 L 568.0534273799856 416.1226354087804 L 569.0534273799856 413.1226354087804 L 570.2917960675006 410.6458980337503 L 571.2917960675006 408.6458980337503 L 571.5 408.22949016875157 L 571.5 406.78291754873715 L 573.4447596332677 400.9486386489341 L 575.4447596332677 398.9486386489341 L 576.0534273799856 397.1226354087804 L 578.0534273799856 393.1226354087804 L 578.5 391.78291754873715 L 578.5 387.72918271701 L 581.5006149034831 383.22826036178543 L 582.2917960675006 381.6458980337503 L 583.0534273799856 380.1226354087804 L 583.8848752646212 377.6282917548737 L 585.0534273799856 374.1226354087804 L 585.923608819558 372.3822725296356 L 586.923608819558 368.3822725296356 L 588.0534273799856 366.1226354087804 L 589.0534273799856 363.1226354087804 L 589.5 362.22949016875157 L 589.5 360.22949016875157 L 591.0534273799856 357.1226354087804 L 592.0534273799856 354.1226354087804 L 593.0534273799856 352.1226354087804 L 594.0534273799856 349.1226354087804 L 595.2917960675006 346.6458980337503 L 596.5006149034831 344.22826036178543 L 598.202489887818 341.67544788528295 L 599.202489887818 338.67544788528295 L 601.5006149034831 335.22826036178543 L 602.2917960675006 333.6458980337503 L 604.2917960675006 329.6458980337503 L 605.5006149034831 327.22826036178543 L 607.5006149034831 324.22826036178543 L 608.2917960675006 322.6458980337503 L 610.2917960675006 318.6458980337503 L 611.5 316.22949016875157 L 611.5 313.92262026288677 L 615.1452229643878 307.84724865557376 L 616.4447596332677 303.9486386489341 L 617.5 302.8933982822018 L 617.5 301.92262026288677 L 621.4206097175945 295.3882707335626 L 623.2917960675006 291.6458980337503 L 625.2917960675006 287.6458980337503 L 626.5006149034831 285.22826036178543 L 628.7596227924662 281.8397485283108 L 630.7596227924662 278.8397485283108 L 632.5006149034831 276.22826036178543 L 633.2917960675006 274.6458980337503 L 634.0534273799856 273.1226354087804 L 635.0534273799856 270.1226354087804 L 636.2917960675006 267.6458980337503 L 636.5 267.22949016875157 L 636.5 265.22949016875157 L 638.2917960675006 261.6458980337503 L 638.5 261.22949016875157 L 638.5 257.8933982822018 L 641.8360918865498 254.557306395652 L 642.0534273799856 254.1226354087804 L 643.202489887818 250.67544788528292 L 645.202489887818 247.67544788528292 L 646.0534273799856 245.1226354087804 L 647.8360918865498 241.557306395652 L 648.5 240.8933982822018 L 648.5 240.22949016875157 L 650.8360918865498 235.557306395652 L 651.5 234.8933982822018 L 651.5 232.8933982822018 L 653.5 230.8933982822018 L 653.5 229.92262026288674 L 656.5 224.92262026288674 L 656.5 222.22949016875157 L 657.5 220.22949016875157 L 657.5 218.22949016875157 L 659.5006149034831 214.22826036178543 L 661.5006149034831 211.22826036178543 L 662.0534273799856 210.1226354087804 L 663.4447596332677 205.9486386489341 L 665.8360918865498 203.557306395652 L 666.8360918865498 201.557306395652 L 668.4447596332677 199.9486386489341 L 669.0534273799856 198.1226354087804 L 670.2917960675006 195.6458980337503 L 672.2917960675006 191.6458980337503 L 673.2917960675006 189.6458980337503 L 674.2917960675006 187.6458980337503 L 675.2917960675006 185.6458980337503 L 676.5006149034831 183.22826036178543 L 677.5 181.72918271701005 L 677.5 177.8933982822018 L 679.5 175.8933982822018 L 679.5 175.22949016875157 L 681.0534273799856 172.1226354087804 L 682.0534273799856 169.1226354087804 L 684.5942352531274 164.04101966249684 L 687.2697505292423 160.47366596101028 L 689.202489887818 154.67544788528292 L 691.202489887818 151.67544788528292 L 691.8848752646212 149.62829175487371 L 693.0534273799856 146.1226354087804 L 694.2917960675006 143.6458980337503 L 695.2917960675006 141.6458980337503 L 696.2917960675006 139.6458980337503 L 697.2917960675006 137.6458980337503 L 698.0534273799856 136.1226354087804 L 698.8848752646212 133.62829175487371 L 700.202489887818 129.67544788528292 L 702.5006149034831 126.22826036178543 L 702.5 126.22949016875158 L 702.5 121.36474508437578 L 704.5 120.36474508437578 L 704.5 121.22949016875158 L 706.8360918865498 116.55730639565199 L 708.5 114.89339828220179 L 708.5 113.22949016875158 L 710.2917960675006 109.64589803375031 L 711.2917960675006 107.64589803375031 L 712.2917960675006 105.64589803375031 L 713.2917960675006 103.64589803375031 L 714.8360918865498 100.55730639565199 L 715.5 99.89339828220179 L 715.5 99.22949016875158 L 717.2917960675006 95.64589803375031 L 718.2917960675006 93.64589803375031 L 719.8360918865498 90.55730639565199 L 720.5 89.89339828220179 L 720.5 89.22949016875158 L 722.2917960675006 85.64589803375031 L 723.2917960675006 83.64589803375031 L 724.2917960675006 81.64589803375031 L 725.0534273799856 80.12263540878043 L 726.0534273799856 77.12263540878043 L 727.2917960675006 74.64589803375031 L 728.2917960675006 72.64589803375031 L 729.2917960675006 70.64589803375031 L 729.5 70.22949016875158 L 729.5 66.89339828220179 L 731.5 64.89339828220179 L 731.5 64.22949016875158 L 733.2917960675006 60.64589803375031 L 734.2917960675006 58.64589803375031 L 735.8360918865498 55.557306395652 L 737.8360918865498 53.557306395652 L 738.2917960675006 52.64589803375031 L 739.2917960675006 50.64589803375031 " stroke="#4a5568" stroke-width="2" fill="none" stroke-linecap="butt" stroke-linejoin="round" />
  </g>
</svg>