<svg xmlns="http://www.w3.org/2000/svg" width="1334" height="864" viewBox="0 0 1334 864">
  <g fill="none">
    <path d="M 519.75 26 L 542.25 26 M 517.75165866329 50.56178327663963 L 540.24834133671 50.948136342427176 M 515.8642298553456 73.83130371519194 L 538.1357701446544 77.02950526320136 M 514.75 100.30729886357898 L 537.25 100.30729886357898 M 513.75 125.1450212034106 L 536.25 125.1450212034106 M 508.9014778147206 147.06513639526588 L 531.0985221852794 150.7449762302914 M 507.02792333558455 171.7999780641525 L 529.2373911324282 175.40407853180923 M 506.75 198.5805009924419 L 529.25 198.5805009924419 M 509.3624484579174 226.65990088080977 L 530.7994257983055 219.8257218878592 M 510.7587108852222 248.4131898120137 L 533.2412891147778 247.52793496062455 M 513.7653182087112 272.92302614205954 L 536.2346817912888 271.7492714002428 M 513.1668186953775 294.1835399900632 L 535.0649209584014 299.3529807023788 M 512.75 321.74090719053396 L 535.25 321.74090719053396 M 517.2131073291953 349.1846044099576 L 538.8340724608597 342.9569349602076 M 520.7797606577061 371.34567592246333 L 543.2202393422939 369.71015875454475 M 527.834025746526 397.481049955865 L 549.3398450571557 390.86669165149823 M 535.7382472888695 419.9593171969206 L 557.6363495518934 414.78987648460503 M 547.9402044155908 444.0361735780542 L 568.0648162130889 433.97386767930516 M 568.6427314116785 466.58984395848574 L 579.9360848210262 447.1293668633174 M 595.4813020398725 476.9272740380031 L 599.1246134731372 454.72420484024934 M 621.4110237084702 481.25 L 621.4110237084702 458.75 M 646.4110237084702 481.25 L 646.4110237084702 458.75 M 672.4205523970022 480.1952499250158 L 670.2034559927527 457.8047500749842 M 698.8659636632611 474.1042516498676 L 691.9743440107408 452.68567143163193 M 723.6023301178471 463.4231535052459 L 712.403050869657 443.908386165586 M 746.6781781306802 448.23172444601704 L 730.7682755539829 432.32182186931976 M 763.6479640336374 429.89355861782155 L 747.0584386648784 414.6936359851468 M 777.1695625605039 402.74705353828244 L 755.0641154957962 398.55191229281775 " stroke="#8B4513" stroke-width="7" fill="none" stroke-linecap="butt" />
    <path d="M 380 164.25 L 380 141.75 M 403.19227393588864 167.16381406983615 L 405.9720260213298 144.83618593016385 M 427.94921804013256 169.17765805985775 L 430.4967347108509 146.82234194014225 M 453.03242082558177 170.0234437305571 L 455.2495172298312 147.63294388052552 M 477.35935636919845 172.72155782745688 L 480.3634864208795 150.4230107305587 M 502.86087400868297 174.21496790125272 L 504.6351287523667 151.78503209874728 M 528.5941710383611 176.25 L 528.5941710383611 153.75 M 553.5941710383611 176.25 L 553.5941710383611 153.75 M 578.5941710383611 176.25 L 578.5941710383611 153.75 M 603.5941710383611 176.25 L 603.5941710383611 153.75 M 628.3199557935477 176.24665754789004 L 628.8683862831745 153.75334245210996 M 653.4710654127434 177.25 L 653.4710654127434 154.75 " stroke="#8B4513" stroke-width="7" fill="none" stroke-linecap="butt" />
    <path d="M 523.5 26 L 523.5 28 L 523.5 33 L 523.5 35.78291754873715 L 522.6987878246754 38.186554074710955 L 521.5 45.37928102276335 L 521.5 52 L 521.5 55 L 521.5 58.78291754873715 L 520.5 61.78291754873715 L 520.5 67 L 520.5 69.78291754873716 L 519.5 72.78291754873716 L 519.5 76.07670780786755 L 518.5 80.07670780786755 L 518.5 86 L 518.5 88 L 518.5 92 L 518.5 96 L 518.5 99 L 518.5 103 L 518.5 105 L 518.5 108 L 518.5 111.78291754873716 L 517.5 114.78291754873716 L 517.5 121 L 517.5 123 L 517.5 125 L 517.5 128 L 517.5 130 L 517.5 132 L 517.5 135 L 517.5 135.22949016875157 L 517.5006149034831 135.22826036178543 L 515.202489887818 138.67544788528292 L 514.0534273799856 142.1226354087804 L 512.5 145.22949016875157 L 512.5 147.78291754873715 L 511.5 150.78291754873715 L 511.5 155 L 511.5 157 L 511.5 160 L 511.5 162 L 511.5 164 L 511.5 166 L 511.5 169 L 511.5 169.78291754873715 L 510.5 172.78291754873715 L 510.5 176 L 510.5 179 L 510.5 182 L 510.5 185 L 510.5 187 L 510.5 189 L 510.5 193 L 510.5 195 L 510.5 197 L 510.5 200 L 510.5 203 L 510.5 206 L 510.5 208 L 510.5 212.21708245126285 L 511.5 215.21708245126285 L 511.5 218 L 511.5 221.21708245126285 L 512.8848752646212 225.37170824512629 L 513.5 227.21708245126285 L 513.5 228 L 513.5 231.92329219213246 L 514.5 235.92329219213246 L 514.5 237 L 514.5 241 L 514.5 243 L 514.5 247 L 514.5 252.21708245126285 L 515.5 255.21708245126285 L 515.5 257 L 515.5 261.77050983124843 L 516.5 263.77050983124843 L 516.5 264 L 516.5 269.77050983124843 L 517.5 271.77050983124843 L 517.5 273 L 517.5 276 L 517.5 279 L 517.5 281 L 517.5 283 L 517.5 286.77050983124843 L 518.5 288.77050983124843 L 518.5 288.07670780786754 L 517.5 292.07670780786754 L 517.5 293.22949016875157 L 516.5 295.22949016875157 L 516.5 299 L 516.5 302 L 516.5 305 L 516.5 308 L 516.5 311 L 516.5 314 L 516.5 316 L 516.5 319 L 516.5 323 L 516.5 327 L 516.5 332.77050983124843 L 517.7475002484515 335.2655103281514 L 518.7475002484515 342.2655103281514 L 519.923608819558 344.6177274703644 L 520.7937902591304 348.098453228654 L 521.5 350.21708245126285 L 521.5 355.21708245126285 L 522.5 358.21708245126285 L 522.5 361.92329219213246 L 523.6806458401866 366.64587555287875 L 524.5 370.7426463519459 L 524.5 372 L 524.5 376.21708245126285 L 525.8848752646212 380.3717082451263 L 526.8848752646212 383.3717082451263 L 528.202489887818 387.32455211471705 L 530.039010036343 390.07933233750447 L 530.5 391.92329219213246 L 530.5 394.77050983124843 L 533.2917960675006 400.3541019662497 L 533.923608819558 401.6177274703644 L 534.923608819558 405.6177274703644 L 535.5 406.77050983124843 L 535.5 409.77050983124843 L 537.2917960675006 413.3541019662497 L 538.2917960675006 415.3541019662497 L 538.5 415.77050983124843 L 538.5 417.77050983124843 L 539.5 419.77050983124843 L 539.5 421.77050983124843 L 541.2917960675006 425.3541019662497 L 542.8360918865498 428.442693604348 L 544.4447596332677 430.0513613510659 L 545.202489887818 432.32455211471705 L 547.202489887818 435.32455211471705 L 548.4447596332677 439.0513613510659 L 550.8360918865498 441.442693604348 L 551.2917960675006 442.3541019662497 L 552.2917960675006 444.3541019662497 L 553.5006149034831 446.77173963821457 L 555.5006149034831 449.77173963821457 L 556.5006149034831 451.77173963821457 L 559.8644376326342 456.81747373194133 L 562.557306395652 458.1639081134502 L 564.557306395652 460.1639081134502 L 567.6458980337503 461.7082039324994 L 569.2282603617854 462.4993850965169 L 572.2282603617854 464.4993850965169 L 576.2294901687516 466.5 L 578.2294901687516 466.5 L 578.6458980337503 466.7082039324994 L 582.6458980337503 468.7082039324994 L 585.3822725296357 470.076391180442 L 589.3822725296357 471.076391180442 L 591.3822725296357 472.076391180442 L 597.0767078078676 473.5 L 598.7829175487371 473.5 L 600.1226354087804 473.9465726200144 L 601.6458980337503 474.7082039324994 L 605.2294901687516 476.5 L 610 476.5 L 610.2294901687516 476.5 L 612.2294901687516 477.5 L 617 477.5 L 621 477.5 L 624 477.5 L 626 477.5 L 629 477.5 L 634 477.5 L 636 477.5 L 639 477.5 L 642 477.5 L 645 477.5 L 647 477.5 L 650 477.5 L 654 477.5 L 657 477.5 L 661 477.5 L 664.7426463519458 477.5 L 669.7426463519458 476.5 L 672.7426463519458 476.5 L 679.4557521507835 475.15737884023247 L 680.7705098312484 474.5 L 683.9232921921324 474.5 L 689.6177274703643 473.076391180442 L 691.6177274703643 472.076391180442 L 694.8190171877725 471.27606875109 L 699.6177274703643 470.076391180442 L 701.6177274703643 469.076391180442 L 704.8190171877725 468.27606875109 L 710.0793323375044 466.96098996365697 L 713.3245521147171 464.7975101121819 L 715.8773645912196 463.9465726200144 L 719.442693604348 462.1639081134502 L 721.0513613510659 460.55524036673233 L 723.3245521147171 459.7975101121819 L 726.3245521147171 457.7975101121819 L 729.3245521147171 456.7975101121819 L 733.7781705874147 453.8284311303835 L 735.442693604348 452.1639081134502 L 736.7717396382146 451.4993850965169 L 740.7781705874147 448.8284311303835 L 743.3033008588991 446.3033008588991 L 746.3033008588991 443.3033008588991 L 748.7781705874147 440.8284311303835 L 752.408326913196 438.408326913196 L 754.8284311303835 434.7781705874147 L 757.1639081134502 432.442693604348 L 758.5901699437495 429.59016994374946 L 760.5901699437495 428.59016994374946 L 763.4993850965169 422.77173963821457 L 765.4993850965169 419.77173963821457 L 765.5901699437495 419.59016994374946 L 768.1327310142555 418.3188894084965 L 769.9465726200144 412.8773645912196 L 770.7082039324994 411.3541019662497 L 773.5 405.77050983124843 L 773.5 402.21708245126285 L 773.9465726200144 400.8773645912196 L 775.5 397.77050983124843 L 775.5 394.92329219213246 L 776.2062097408696 392.098453228654 L 776.9465726200144 389.8773645912196 L 778.5 386.77050983124843 L 778.5 383 L 778.5 381 " stroke="#4a5568" stroke-width="2" fill="none" stroke-linecap="butt" stroke-linejoin="round" />
    <path d="M 538.5 26 L 538.5 28 L 538.5 33 L 538.5 38.21708245126285 L 537.3012121753246 41.813445925289045 L 536.5 46.62071897723665 L 536.5 52 L 536.5 55 L 536.5 61.21708245126285 L 535.5 64.21708245126284 L 535.5 67 L 535.5 72.21708245126284 L 534.5 75.21708245126284 L 534.5 77.92329219213245 L 533.5 81.92329219213245 L 533.5 86 L 533.5 88 L 533.5 92 L 533.5 96 L 533.5 99 L 533.5 103 L 533.5 105 L 533.5 108 L 533.5 114.21708245126284 L 532.5 117.21708245126284 L 532.5 121 L 532.5 123 L 532.5 125 L 532.5 128 L 532.5 130 L 532.5 132 L 532.5 135 L 532.5 138.77050983124843 L 530.4993850965169 142.77173963821457 L 528.797510112182 145.32455211471708 L 527.9465726200144 147.8773645912196 L 527.5 148.77050983124843 L 527.5 150.21708245126285 L 526.5 153.21708245126285 L 526.5 155 L 526.5 157 L 526.5 160 L 526.5 162 L 526.5 164 L 526.5 166 L 526.5 169 L 526.5 172.21708245126285 L 525.5 175.21708245126285 L 525.5 176 L 525.5 179 L 525.5 182 L 525.5 185 L 525.5 187 L 525.5 189 L 525.5 193 L 525.5 195 L 525.5 197 L 525.5 200 L 525.5 203 L 525.5 206 L 525.5 208 L 525.5 209.78291754873715 L 526.5 212.78291754873715 L 526.5 218 L 526.5 218.78291754873715 L 527.1151247353788 220.62829175487371 L 528.5 224.78291754873715 L 528.5 228 L 528.5 230.07670780786754 L 529.5 234.07670780786754 L 529.5 237 L 529.5 241 L 529.5 243 L 529.5 247 L 529.5 249.78291754873715 L 530.5 252.78291754873715 L 530.5 257 L 530.5 258.22949016875157 L 531.5 260.22949016875157 L 531.5 264 L 531.5 266.22949016875157 L 532.5 268.22949016875157 L 532.5 273 L 532.5 276 L 532.5 279 L 532.5 281 L 532.5 283 L 532.5 283.22949016875157 L 533.5 285.22949016875157 L 533.5 289.92329219213246 L 532.5 293.92329219213246 L 532.5 296.77050983124843 L 531.5 298.77050983124843 L 531.5 299 L 531.5 302 L 531.5 305 L 531.5 308 L 531.5 311 L 531.5 314 L 531.5 316 L 531.5 319 L 531.5 323 L 531.5 327 L 531.5 329.22949016875157 L 532.2524997515485 330.7344896718486 L 533.2524997515485 337.7344896718486 L 534.076391180442 339.3822725296356 L 535.2062097408696 343.901546771346 L 536.5 347.78291754873715 L 536.5 352.78291754873715 L 537.5 355.78291754873715 L 537.5 360.07670780786754 L 538.3193541598134 363.35412444712125 L 539.5 369.2573536480541 L 539.5 372 L 539.5 373.78291754873715 L 540.1151247353788 375.6282917548737 L 541.1151247353788 378.6282917548737 L 541.797510112182 380.67544788528295 L 543.960989963657 383.92066766249553 L 545.5 390.07670780786754 L 545.5 391.22949016875157 L 546.7082039324994 393.6458980337503 L 548.076391180442 396.3822725296356 L 549.076391180442 400.3822725296356 L 550.5 403.22949016875157 L 550.5 406.22949016875157 L 550.7082039324994 406.6458980337503 L 551.7082039324994 408.6458980337503 L 553.5 412.22949016875157 L 553.5 414.22949016875157 L 554.5 416.22949016875157 L 554.5 418.22949016875157 L 554.7082039324994 418.6458980337503 L 555.1639081134502 419.557306395652 L 557.5552403667323 421.9486386489341 L 558.797510112182 425.67544788528295 L 560.797510112182 428.67544788528295 L 561.5552403667323 430.9486386489341 L 563.1639081134502 432.557306395652 L 564.7082039324994 435.6458980337503 L 565.7082039324994 437.6458980337503 L 566.4993850965169 439.22826036178543 L 568.4993850965169 442.22826036178543 L 569.4993850965169 444.22826036178543 L 570.1355623673658 445.18252626805867 L 571.442693604348 445.8360918865498 L 573.442693604348 447.8360918865498 L 574.3541019662497 448.2917960675006 L 576.7717396382146 449.5006149034831 L 579.7717396382146 451.5006149034831 L 579.7705098312484 451.5 L 581.7705098312484 451.5 L 585.3541019662497 453.2917960675006 L 589.3541019662497 455.2917960675006 L 590.6177274703643 455.923608819558 L 594.6177274703643 456.923608819558 L 596.6177274703643 457.923608819558 L 598.9232921921324 458.5 L 601.2170824512629 458.5 L 605.8773645912196 460.0534273799856 L 608.3541019662497 461.2917960675006 L 608.7705098312484 461.5 L 610 461.5 L 613.7705098312484 461.5 L 615.7705098312484 462.5 L 617 462.5 L 621 462.5 L 624 462.5 L 626 462.5 L 629 462.5 L 634 462.5 L 636 462.5 L 639 462.5 L 642 462.5 L 645 462.5 L 647 462.5 L 650 462.5 L 654 462.5 L 657 462.5 L 661 462.5 L 663.2573536480542 462.5 L 668.2573536480542 461.5 L 671.2573536480542 461.5 L 674.5442478492165 460.84262115976753 L 677.2294901687516 459.5 L 682.0767078078676 459.5 L 684.3822725296357 458.923608819558 L 686.3822725296357 457.923608819558 L 691.1809828122275 456.72393124891 L 694.3822725296357 455.923608819558 L 696.3822725296357 454.923608819558 L 701.1809828122275 453.72393124891 L 703.9206676624956 453.03901003634303 L 706.6754478852829 451.2024898878181 L 710.1226354087804 450.0534273799856 L 710.557306395652 449.8360918865498 L 712.9486386489341 447.44475963326767 L 716.6754478852829 446.2024898878181 L 719.6754478852829 444.2024898878181 L 722.6754478852829 443.2024898878181 L 724.2218294125853 442.1715688696165 L 726.557306395652 439.8360918865498 L 729.2282603617854 438.5006149034831 L 731.2218294125853 437.1715688696165 L 732.6966991411009 435.6966991411009 L 735.6966991411009 432.6966991411009 L 739.2218294125853 429.1715688696165 L 741.591673086804 427.591673086804 L 743.1715688696165 425.2218294125853 L 744.8360918865498 423.557306395652 L 747.4098300562505 418.40983005625054 L 749.4098300562505 417.40983005625054 L 750.5006149034831 415.22826036178543 L 752.5006149034831 412.22826036178543 L 754.4098300562505 408.40983005625054 L 755.8672689857445 407.6811105915035 L 756.0534273799856 407.1226354087804 L 757.2917960675006 404.6458980337503 L 758.5 402.22949016875157 L 758.5 399.78291754873715 L 760.0534273799856 395.1226354087804 L 760.5 394.22949016875157 L 760.5 393.07670780786754 L 761.7937902591304 387.901546771346 L 763.0534273799856 384.1226354087804 L 763.5 383.22949016875157 L 763.5 383 L 763.5 381 " stroke="#4a5568" stroke-width="2" fill="none" stroke-linecap="butt" stroke-linejoin="round" />
    <path d="M 380 160.5 L 381.2573536480541 160.5 L 386.2573536480541 161.5 L 391.37928102276334 161.5 L 395.6545947417457 162.21255228649704 L 398.22949016875157 163.5 L 403 163.5 L 404.22949016875157 163.5 L 406.22949016875157 164.5 L 411 164.5 L 413 164.5 L 416 164.5 L 418 164.5 L 421 164.5 L 423 164.5 L 424.07670780786754 164.5 L 428.07670780786754 165.5 L 432 165.5 L 437 165.5 L 443 165.5 L 449.2573536480541 165.5 L 454.2573536480541 166.5 L 459 166.5 L 465.07670780786754 166.5 L 468.47156137807593 167.3487133925521 L 474.6477167745079 168.37807262529077 L 480.2573536480541 169.5 L 486 169.5 L 491 169.5 L 493.46699141100896 169.5 L 500.46699141100896 170.5 L 504.37928102276334 170.5 L 510.37928102276334 171.5 L 515 171.5 L 518.466991411009 171.5 L 525.466991411009 172.5 L 528 172.5 L 534 172.5 L 538 172.5 L 542 172.5 L 549 172.5 L 553 172.5 L 559 172.5 L 564 172.5 L 567 172.5 L 572 172.5 L 574 172.5 L 579 172.5 L 581 172.5 L 586 172.5 L 590 172.5 L 593 172.5 L 598 172.5 L 601 172.5 L 606 172.5 L 609 172.5 L 616 172.5 L 620 172.5 L 622 172.5 L 628 172.5 L 630.0767078078676 172.5 L 634.0767078078676 173.5 L 639 173.5 L 641 173.5 L 644 173.5 L 646 173.5 L 648 173.5 L 651 173.5 L 654 173.5 L 656 173.5 L 659 173.5 L 662 173.5 L 664 173.5 L 667 173.5 L 669 173.5 " stroke="#4a5568" stroke-width="2" fill="none" stroke-linecap="butt" stroke-linejoin="round" />
    <path d="M 380 145.5 L 382.7426463519459 145.5 L 387.7426463519459 146.5 L 392.62071897723666 146.5 L 400.3454052582543 147.78744771350296 L 401.77050983124843 148.5 L 403 148.5 L 407.77050983124843 148.5 L 409.77050983124843 149.5 L 411 149.5 L 413 149.5 L 416 149.5 L 418 149.5 L 421 149.5 L 423 149.5 L 425.92329219213246 149.5 L 429.92329219213246 150.5 L 432 150.5 L 437 150.5 L 443 150.5 L 450.7426463519459 150.5 L 455.7426463519459 151.5 L 459 151.5 L 466.92329219213246 151.5 L 471.52843862192407 152.6512866074479 L 477.3522832254921 153.62192737470923 L 481.7426463519459 154.5 L 486 154.5 L 491 154.5 L 494.53300858899104 154.5 L 501.53300858899104 155.5 L 505.62071897723666 155.5 L 511.62071897723666 156.5 L 515 156.5 L 519.533008588991 156.5 L 526.533008588991 157.5 L 528 157.5 L 534 157.5 L 538 157.5 L 542 157.5 L 549 157.5 L 553 157.5 L 559 157.5 L 564 157.5 L 567 157.5 L 572 157.5 L 574 157.5 L 579 157.5 L 581 157.5 L 586 157.5 L 590 157.5 L 593 157.5 L 598 157.5 L 601 157.5 L 606 157.5 L 609 157.5 L 616 157.5 L 620 157.5 L 622 157.5 L 628 157.5 L 631.9232921921324 157.5 L 635.9232921921324 158.5 L 639 158.5 L 641 158.5 L 644 158.5 L 646 158.5 L 648 158.5 L 651 158.5 L 654 158.5 L 656 158.5 L 659 158.5 L 662 158.5 L 664 158.5 L 667 158.5 L 669 158.5 " stroke="#4a5568" stroke-width="2" fill="none" stroke-linecap="butt" stroke-linejoin="round" />
  </g>
</svg>