<svg xmlns="http://www.w3.org/2000/svg" width="1334" height="864" viewBox="0 0 1334 864">
  <g fill="none">
    <path d="M 387.75 117 L 410.25 117 M 385.72834083386704 139.6987255693049 L 407.9378086307107 143.30282603696165 M 380.81123458976464 161.89859120676246 L 402.2871934486614 168.60926860110752 M 377.75 189.95333574765885 L 400.25 189.95333574765885 M 377.75 214.95333574765885 L 400.25 214.95333574765885 M 376.75 239.79105808749046 L 399.25 239.79105808749046 M 376.75 264.79105808749046 L 399.25 264.79105808749046 M 376.75 289.79105808749046 L 399.25 289.79105808749046 M 377.75 314.6287804273221 L 400.25 314.6287804273221 M 378.7632230398062 340.0750530802394 L 401.2367769601938 338.98446874721924 M 376.75 364.05762495872966 L 399.25 364.05762495872966 M 376.75 389.05762495872966 L 399.25 389.05762495872966 M 376.7502602213227 414.13414235574845 L 399.2497397786773 413.98110756171087 M 377.75 438.8215569812299 L 400.25 438.8215569812299 M 377.8025245428399 464.9073946239263 L 400.1974754571601 462.7357193385335 M 402.94890649090127 493.24809490084914 L 403.3629649480835 470.75190509915086 M 430.2074523846726 472.5186572091279 L 408.9261373918881 465.21416323775077 M 432.18193625878064 445.44038215161896 L 409.81806374121936 442.9691059593917 M 434.2251613537452 420.3110806812524 L 411.7748386462548 418.8167546359931 M 435.2468661546076 394.5344640732631 L 412.7531338453924 395.06550719898195 M 434.25 370.0360536136223 L 411.75 370.0360536136223 M 432.25 345.5081895686219 L 409.75 345.5081895686219 M 429.2048017482038 320.1351719040249 L 406.7951982517962 322.1500344635549 M 429.25 296.1426031837899 L 406.75 296.1426031837899 M 429.25 271.1426031837899 L 406.75 271.1426031837899 M 429.25 246.1426031837899 L 406.75 246.1426031837899 M 427.2239708320646 218.96511904494741 L 405.32586856904067 224.13455975726305 M 427.1290269846963 201.89771077748006 L 407.00441518719816 191.835404878731 M 434.86667557297926 194.17508156390306 L 432.27433914410733 171.82491843609694 M 459.46311413110925 187.9646504711738 L 454.42766378581223 166.0353495288262 M 482.55307815178304 178.94905113151196 L 477.38363743946746 157.05094886848804 M 504.7322898181254 178.25 L 504.7322898181254 155.75 M 525.3348715428476 183.92043547700698 L 530.5928422529284 162.043421420881 M 545.7860064920911 191.48483984695036 L 554.3963837203056 170.69755036544643 M 560.5297891450713 200.35943526503664 L 577.955462744958 186.12581662499267 M 572.1092064497208 219.37417764631417 L 592.2338182472189 209.3118717475651 M 580.36240030648 241.60369137625477 L 601.2622260189358 233.2701875999928 M 583.75 261.32879487686 L 606.25 261.32879487686 M 587.050948868488 288.2053113005183 L 608.949051131512 283.0358705882027 M 590.75 309.32002786461464 L 613.25 309.32002786461464 M 590.1616088728542 332.39892145234336 L 612.3710766696979 336.0030219200001 M 589.75 359.1577502044463 L 612.25 359.1577502044463 M 592.9275623094467 385.5142217162542 L 615.0724376905533 381.5324514623026 M 595.7526773308293 408.0605563222209 L 618.2473226691707 407.5697089913376 M 612.8252706451879 435.5297359308802 L 625.9812520501225 417.2767867644301 M 647.25 418.43846934521 L 624.75 418.43846934521 M 647.25 393.43846934521 L 624.75 393.43846934521 M 644.1608634414902 367.65950854416434 L 621.8391365585098 370.4862573765915 M 643.25 344.3089509378776 L 620.75 344.3089509378776 M 641.25 319.7072965755458 L 618.75 319.7072965755458 M 641.25 294.7072965755458 L 618.75 294.7072965755458 M 639.25 270.1794325305452 L 616.75 270.1794325305452 M 638.25 245.41550050804494 L 615.75 245.41550050804494 M 639.2404978681993 221.11385376003173 L 616.7595021318007 220.18928321105759 M 646.8050822983752 203.53658159210207 L 626.9571013418996 192.93905112734828 M 656.7642592782474 188.40022276970336 L 642.6015377851222 170.91687869861187 M 673.4511691741811 177.64461234627123 L 666.1697605199136 156.35538765372877 M 697.1649678083721 170.53386554648705 L 688.5545905801577 149.74657606498312 M 716.7978009216704 167.25 L 716.7978009216704 144.75 M 738.7065632451887 169.09469293218527 L 743.8760039575044 147.19659066916134 M 758.0449435308326 174.48865867830628 L 769.8738935535132 155.34901549038537 M 775.3582291628035 185.8763977021597 L 792.1136453369771 170.8595395477306 M 786.218490159542 202.58500486125237 L 806.0873144002123 192.02660425825624 M 796.050948868488 221.33478930347187 L 817.949051131512 216.16534859115623 M 800.8952661015782 244.51935992830636 L 823.1047338984218 240.91525946064962 M 804.8701634416004 268.7267422538953 L 827.0796312384441 265.12264178623855 M 804.8102256252384 293.08313699616724 L 827.1897743747616 290.75809984211605 M 806.75 316.5222727814735 L 829.25 316.5222727814735 M 806.75 341.5222727814735 L 829.25 341.5222727814735 M 808.75 366.1239271438053 L 831.25 366.1239271438053 M 808.75 391.1239271438053 L 831.25 391.1239271438053 M 809.7790791545739 416.6962126661322 L 832.2209208454261 415.07950566647895 M 811.75 440.4895135286374 L 834.25 440.4895135286374 M 814.8513381004453 466.36169801828 L 837.1486618995547 463.3485018086591 M 815.75 489.6190319359698 L 838.25 489.6190319359698 " stroke="#8B4513" stroke-width="7" fill="none" stroke-linecap="butt" />
    <path d="M 391.5 117 L 391.5 119 L 391.5 121 L 391.5 121.22949016875158 L 390.5 123.22949016875158 L 390.5 127 L 390.5 129.22949016875157 L 389.5 131.22949016875157 L 389.5 136 L 389.5 139 L 389.5 139.78291754873715 L 388.5 142.78291754873715 L 388.5 146 L 388.5 148 L 388.5 150 L 388.5 152 L 388.5 154 L 388.5 154.22949016875157 L 388.42060971759446 154.38827073356262 L 384.9004200155502 160.25525357030307 L 383.68064584018657 166.35412444712128 L 382.72393124891 170.1809828122275 L 381.5 175.07670780786754 L 381.5 179 L 381.5 181 L 381.5 184 L 381.5 187 L 381.5 191 L 381.5 194 L 381.5 196 L 381.5 199 L 381.5 205 L 381.5 207 L 381.5 209 L 381.5 211 L 381.5 213 L 381.5 217 L 381.5 219 L 381.5 221 L 381.5 223 L 381.5 225 L 381.5 228 L 381.5 228.78291754873715 L 380.5 231.78291754873715 L 380.5 235 L 380.5 238 L 380.5 240 L 380.5 244 L 380.5 247 L 380.5 250 L 380.5 255 L 380.5 259 L 380.5 261 L 380.5 263 L 380.5 265 L 380.5 268 L 380.5 270 L 380.5 272 L 380.5 274 L 380.5 276 L 380.5 280 L 380.5 283 L 380.5 285 L 380.5 288 L 380.5 290 L 380.5 292 L 380.5 294 L 380.5 296 L 380.5 299 L 380.5 302 L 380.5 305.21708245126285 L 381.5 308.21708245126285 L 381.5 309 L 381.5 311 L 381.5 313 L 381.5 315 L 381.5 317 L 381.5 319 L 381.5 321 L 381.5 323 L 381.5 326 L 381.5 330 L 381.5 333.7426463519459 L 382.5 338.7426463519459 L 382.5 341 L 382.5 344 L 382.5 346 L 382.5 348 L 382.5 350 L 382.5 352 L 382.5 353.22949016875157 L 382.2917960675006 353.6458980337503 L 380.5 357.22949016875157 L 380.5 362 L 380.5 364 L 380.5 366 L 380.5 368 L 380.5 370 L 380.5 372 L 380.5 375 L 380.5 377 L 380.5 380 L 380.5 382 L 380.5 385 L 380.5 388 L 380.5 392 L 380.5 394 L 380.5 396 L 380.5 399 L 380.5 401 L 380.5 403 L 380.5 405 L 380.5 407 L 380.5 409 L 380.5 411 L 380.5 414 L 380.5 417.77050983124843 L 381.5 419.77050983124843 L 381.5 420 L 381.5 422 L 381.5 425 L 381.5 427 L 381.5 429 L 381.5 431 L 381.5 433 L 381.5 435 L 381.5 437 L 381.5 439 L 381.5 441 L 381.5 443 L 381.5 445 L 381.5 447 L 381.5 449 L 381.5 451 L 381.5 453 L 381.5 455 L 381.5 457 L 381.5 459 L 381.5 461 L 381.5 463 L 381.5 466.77050983124843 L 383.2917960675006 470.3541019662497 L 384.2917960675006 472.3541019662497 L 384.5 472.77050983124843 L 384.5 474.77050983124843 L 386.8360918865498 479.442693604348 L 390.557306395652 483.1639081134502 L 392.557306395652 484.1639081134502 L 393.6966991411009 485.3033008588991 L 397.8933982822018 489.5 L 403 489.5 L 403.22949016875157 489.5 L 405.22949016875157 490.5 L 410.77050983124843 490.5 L 414.3541019662497 488.7082039324994 L 420.5 485.6352549156242 L 420.5 483.6352549156242 L 420.59016994374946 483.59016994374946 L 422.7082039324994 479.3541019662497 L 423.7082039324994 477.3541019662497 L 424.7082039324994 475.3541019662497 L 425.7082039324994 473.3541019662497 L 427.5 469.77050983124843 L 427.5 467.77050983124843 L 428.5 465.77050983124843 L 428.5 462 L 428.5 460 L 428.5 458 L 428.5 456 L 428.5 454 L 428.5 452 L 428.5 450 L 428.5 448 L 428.5 446 L 428.5 444.92329219213246 L 429.5 440.92329219213246 L 429.5 437 L 429.5 435 L 429.5 433 L 429.5 431 L 429.5 429 L 429.5 427 L 429.5 425 L 429.5 424.77050983124843 L 430.5 422.77050983124843 L 430.5 419 L 430.5 417 L 430.5 416.77050983124843 L 431.5 414.77050983124843 L 431.5 411 L 431.5 409 L 431.5 407 L 431.5 405 L 431.5 403 L 431.5 401 L 431.5 398 L 431.5 395 L 431.5 391.22949016875157 L 430.5 389.22949016875157 L 430.5 388 L 430.5 385 L 430.5 383 L 430.5 381 L 430.5 379 L 430.5 377 L 430.5 375 L 430.5 372 L 430.5 370 L 430.5 366.22949016875157 L 429.5 364.22949016875157 L 429.5 364 L 429.5 362 L 429.5 360 L 429.5 358 L 429.5 356 L 429.5 354 L 429.5 350.22949016875157 L 428.5 348.22949016875157 L 428.5 348 L 428.5 346 L 428.5 343 L 428.5 338.78291754873715 L 427.5 335.78291754873715 L 427.5 333.22949016875157 L 426.5 331.22949016875157 L 426.5 331 L 426.5 329 L 426.5 327 L 426.5 323.22949016875157 L 425.5 321.22949016875157 L 425.5 320 L 425.5 318 L 425.5 316 L 425.5 314 L 425.5 312 L 425.5 310 L 425.5 308 L 425.5 305 L 425.5 303 L 425.5 301 L 425.5 298 L 425.5 296 L 425.5 294 L 425.5 292 L 425.5 290 L 425.5 287 L 425.5 285 L 425.5 282 L 425.5 280 L 425.5 278 L 425.5 276 L 425.5 273 L 425.5 271 L 425.5 268 L 425.5 266 L 425.5 264 L 425.5 262 L 425.5 260 L 425.5 258 L 425.5 256 L 425.5 254 L 425.5 252 L 425.5 250 L 425.5 248 L 425.5 246 L 425.5 244 L 425.5 242 L 425.5 240 L 425.5 238 L 425.5 236 L 425.5 234 L 425.5 232 L 425.5 228.22949016875157 L 424.5 226.22949016875157 L 424.5 225 L 424.5 221.22949016875157 L 423.5 219.22949016875157 L 423.5 219 L 423.5 217 L 423.5 215 L 423.5 213 L 423.5 211 L 423.5 209 L 423.5 207 L 423.5 205 L 423.5 203 L 423.5 201 L 423.5 200.77050983124843 L 423.7082039324994 200.3541019662497 L 424.7082039324994 198.3541019662497 L 424.59016994374946 198.5901699437495 L 428.5 196.63525491562422 L 428.5 191.77050983124843 L 429.5 189.77050983124843 L 429.5 190.63525491562422 L 427.3541019662497 191.70820393249937 L 427.77050983124843 191.5 L 428 191.5 L 431.21708245126285 191.5 L 434.21708245126285 190.5 L 435 190.5 L 438.21708245126285 190.5 L 442.8773645912196 188.94657262001442 L 445.3541019662497 187.70820393249937 L 445.77050983124843 187.5 L 447.21708245126285 187.5 L 450.21708245126285 186.5 L 454.1066017177982 186.5 L 456.1066017177982 184.5 L 455 184.5 L 458.77050983124843 184.5 L 462.3541019662497 182.70820393249937 L 464.3541019662497 181.70820393249937 L 466.3541019662497 180.70820393249937 L 466.77050983124843 180.5 L 468.77050983124843 180.5 L 471.8773645912196 178.94657262001442 L 474.8773645912196 177.94657262001442 L 476.8773645912196 176.94657262001442 L 479.8773645912196 175.94657262001442 L 480.77050983124843 175.5 L 482.77050983124843 175.5 L 484.77050983124843 174.5 L 485 174.5 L 487 174.5 L 489 174.5 L 491 174.5 L 493 174.5 L 495 174.5 L 497 174.5 L 499 174.5 L 501 174.5 L 503 174.5 L 505 174.5 L 508 174.5 L 510 174.5 L 512 174.5 L 514.2294901687516 174.5 L 513.557306395652 174.16390811345022 L 516.8933982822018 177.5 L 520.2294901687516 177.5 L 520.6458980337503 177.70820393249937 L 522.6458980337503 178.70820393249937 L 526.2294901687516 180.5 L 528.2294901687516 180.5 L 528.6458980337503 180.70820393249937 L 528.4098300562505 180.5901699437495 L 529.4098300562505 182.5901699437495 L 535.2294901687516 185.5 L 539 185.5 L 541 185.5 L 541.2294901687516 185.5 L 541.6458980337503 185.70820393249937 L 545.2294901687516 187.5 L 545.8933982822018 187.5 L 547.8933982822018 189.5 L 552.2294901687516 189.5 L 552.6458980337503 189.70820393249937 L 553.557306395652 190.16390811345022 L 556.8933982822018 193.5 L 558.8933982822018 193.5 L 560.8933982822018 195.5 L 558.5 195.5 L 558.5 193.1066017177982 L 562.6966991411009 197.3033008588991 L 563.8360918865498 198.442693604348 L 564.8360918865498 200.442693604348 L 566.8360918865498 202.442693604348 L 567.2917960675006 203.3541019662497 L 568.8360918865498 206.442693604348 L 570.8360918865498 208.442693604348 L 571.2917960675006 209.3541019662497 L 572.2917960675006 211.3541019662497 L 573.2917960675006 213.3541019662497 L 574.2917960675006 215.3541019662497 L 575.2917960675006 217.3541019662497 L 576.2917960675006 219.3541019662497 L 576.5 219.77050983124843 L 576.5 221.77050983124843 L 578.2917960675006 225.3541019662497 L 579.2917960675006 227.3541019662497 L 580.2917960675006 229.3541019662497 L 580.5 229.77050983124843 L 580.5 231.77050983124843 L 582.0534273799856 234.8773645912196 L 582.8848752646212 237.37170824512629 L 584.0534273799856 240.8773645912196 L 584.5 241.77050983124843 L 584.5 244.27081728298995 L 586.5 247.27081728298995 L 586.5 248.77050983124843 L 587.5 250.77050983124843 L 587.5 251 L 587.5 253 L 587.5 255 L 587.5 257 L 587.5 259 L 587.5 261 L 587.5 263 L 587.5 265 L 587.5 267 L 587.5 269 L 587.5 271 L 587.5 273 L 587.5 275 L 587.5 278.77050983124843 L 588.5 280.77050983124843 L 588.5 282.77050983124843 L 590.2917960675006 286.3541019662497 L 590.5 286.77050983124843 L 590.5 288.77050983124843 L 592.2917960675006 292.3541019662497 L 592.5 292.77050983124843 L 592.5 296.1066017177982 L 594.5 298.1066017177982 L 594.5 297 L 594.5 299 L 594.5 301 L 594.5 303 L 594.5 305 L 594.5 307 L 594.5 309 L 594.5 311 L 594.5 313 L 594.5 315 L 594.5 317 L 594.5 319 L 594.5 322 L 594.5 325 L 594.5 327 L 594.5 329 L 594.5 330.78291754873715 L 593.5 333.78291754873715 L 593.5 338 L 593.5 340 L 593.5 342 L 593.5 344 L 593.5 346 L 593.5 348 L 593.5 350 L 593.5 352 L 593.5 354 L 593.5 356 L 593.5 358 L 593.5 360 L 593.5 363.21708245126285 L 594.5 366.21708245126285 L 594.5 368 L 594.5 370 L 594.5 373.77050983124843 L 595.5 375.77050983124843 L 595.5 376 L 595.5 379.77050983124843 L 596.5 381.77050983124843 L 596.5 382 L 596.5 385.77050983124843 L 597.5 387.77050983124843 L 597.5 388 L 597.5 391.77050983124843 L 598.5 393.77050983124843 L 598.5 394 L 598.5 396 L 598.5 398 L 598.5 400 L 598.5 402 L 598.5 405.77050983124843 L 599.5 407.77050983124843 L 599.5 408 L 599.5 411.77050983124843 L 600.5 413.77050983124843 L 600.5 415.77050983124843 L 602.2917960675006 419.3541019662497 L 604.4098300562505 423.59016994374946 L 604.5 423.6352549156242 L 604.5 428.5 L 609.3647450843758 428.5 L 608.8360918865498 427.442693604348 L 612.557306395652 431.1639081134502 L 614.557306395652 432.1639081134502 L 616.557306395652 434.1639081134502 L 621.2294901687516 436.5 L 625 436.5 L 628.7705098312484 436.5 L 630.7705098312484 435.5 L 632.7705098312484 435.5 L 636.3541019662497 433.7082039324994 L 642.5 430.6352549156242 L 642.5 425.77050983124843 L 643.5 423.77050983124843 L 643.5 420 L 643.5 418 L 643.5 416 L 643.5 414 L 643.5 412 L 643.5 410 L 643.5 408 L 643.5 406 L 643.5 404 L 643.5 402 L 643.5 400 L 643.5 398 L 643.5 396 L 643.5 394 L 643.5 392 L 643.5 390 L 643.5 388 L 643.5 386 L 643.5 383 L 643.5 381 L 643.5 377.22949016875157 L 642.5 375.22949016875157 L 642.5 373.78291754873715 L 640.9465726200144 369.1226354087804 L 640.5 368.22949016875157 L 640.5 368 L 640.5 364.22949016875157 L 639.5 362.22949016875157 L 639.5 362 L 639.5 359 L 639.5 357 L 639.5 353 L 639.5 350 L 639.5 348 L 639.5 346 L 639.5 344 L 639.5 342 L 639.5 337.78291754873715 L 638.5 334.78291754873715 L 638.5 332.22949016875157 L 637.5 330.22949016875157 L 637.5 329 L 637.5 327 L 637.5 325 L 637.5 322 L 637.5 320 L 637.5 318 L 637.5 316 L 637.5 314 L 637.5 311 L 637.5 309 L 637.5 307 L 637.5 304 L 637.5 302 L 637.5 300 L 637.5 298 L 637.5 296 L 637.5 294 L 637.5 292 L 637.5 288.22949016875157 L 636.5 286.22949016875157 L 636.5 284.22949016875157 L 635.5 282.22949016875157 L 635.5 282 L 635.5 280 L 635.5 276 L 635.5 273 L 635.5 270 L 635.5 266 L 635.5 263 L 635.5 260 L 635.5 258 L 635.5 254.22949016875157 L 634.5 252.22949016875157 L 634.5 252 L 634.5 250 L 634.5 248 L 634.5 246 L 634.5 244 L 634.5 242 L 634.5 240 L 634.5 238 L 634.5 236 L 634.5 234 L 634.5 232 L 634.5 230.77050983124843 L 635.5 228.77050983124843 L 635.5 225 L 635.5 223 L 635.5 221 L 635.5 220.77050983124843 L 636.5 218.77050983124843 L 636.5 216.77050983124843 L 636.4993850965169 216.77173963821457 L 639.5 212.27081728298995 L 639.5 209.77050983124843 L 639.1639081134502 210.442693604348 L 641.1639081134502 208.442693604348 L 643.5 203.77050983124843 L 643.5 201.77050983124843 L 643.4993850965169 201.77173963821457 L 645.4993850965169 198.77173963821457 L 646.7082039324994 196.3541019662497 L 646.5901699437495 196.5901699437495 L 650.5 194.63525491562422 L 650.5 191.1066017177982 L 652.5 189.1066017177982 L 652.5 191.5 L 654.5 191.5 L 654.5 185.1066017177982 L 653.442693604348 186.16390811345022 L 656.5901699437495 184.5901699437495 L 657.5901699437495 182.5901699437495 L 657.3541019662497 182.70820393249937 L 659.3541019662497 181.70820393249937 L 661.3541019662497 180.70820393249937 L 665.5901699437495 178.5901699437495 L 665.6352549156242 178.5 L 664.7705098312484 178.5 L 668.3541019662497 176.70820393249937 L 671.442693604348 175.16390811345022 L 672.1066017177982 174.5 L 672.7705098312484 174.5 L 676.3541019662497 172.70820393249937 L 678.3541019662497 171.70820393249937 L 678.7705098312484 171.5 L 680.7705098312484 171.5 L 684.3541019662497 169.70820393249937 L 684.7705098312484 169.5 L 685 169.5 L 687 169.5 L 689 169.5 L 694.1066017177982 169.5 L 696.1066017177982 167.5 L 696.7705098312484 167.5 L 699.8773645912196 165.94657262001442 L 701.2170824512629 165.5 L 705.2708172829899 165.5 L 708.2708172829899 163.5 L 708 163.5 L 710 163.5 L 713 163.5 L 715 163.5 L 718 163.5 L 720 163.5 L 723 163.5 L 725 163.5 L 727 163.5 L 729 163.5 L 731 163.5 L 733 163.5 L 733.2294901687516 163.5 L 733.6458980337503 163.70820393249937 L 737.2294901687516 165.5 L 739.2294901687516 165.5 L 741.2294901687516 166.5 L 745 166.5 L 747 166.5 L 749 166.5 L 749.2294901687516 166.5 L 749.6458980337503 166.70820393249937 L 751.6458980337503 167.70820393249937 L 755.2294901687516 169.5 L 757.2294901687516 169.5 L 759.2294901687516 170.5 L 758.3647450843758 170.5 L 759.3647450843758 172.5 L 764.2294901687516 172.5 L 764.6458980337503 172.70820393249937 L 766.6458980337503 173.70820393249937 L 768.6458980337503 174.70820393249937 L 769.557306395652 175.16390811345022 L 771.557306395652 177.16390811345022 L 772.4098300562505 177.5901699437495 L 773.4098300562505 179.5901699437495 L 775.8644376326342 180.81747373194133 L 777.8644376326342 183.81747373194133 L 777.5 183.63525491562422 L 777.5 182.77050983124843 L 780.4098300562505 188.5901699437495 L 782.4098300562505 189.5901699437495 L 782.2917960675006 189.3541019662497 L 785.3647450843758 195.5 L 784.5 195.5 L 784.5 194.1066017177982 L 787.8360918865498 197.442693604348 L 789.2917960675006 200.3541019662497 L 790.8360918865498 203.442693604348 L 792.8360918865498 205.442693604348 L 793.2917960675006 206.3541019662497 L 794.8360918865498 209.442693604348 L 796.4447596332677 211.0513613510659 L 797.4447596332677 214.0513613510659 L 798.5 215.1066017177982 L 798.5 215.77050983124843 L 799.5 217.77050983124843 L 799.5 220.77050983124843 L 801.2917960675006 224.3541019662497 L 802.2917960675006 226.3541019662497 L 802.5 226.77050983124843 L 802.5 227 L 802.5 230.21708245126285 L 803.5 233.21708245126285 L 803.5 235 L 803.5 238.21708245126285 L 804.5 241.21708245126285 L 804.5 244.21708245126285 L 806.0534273799856 248.8773645912196 L 806.5 249.77050983124843 L 806.5 252.77050983124843 L 807.5 254.77050983124843 L 807.5 255 L 807.5 258 L 807.5 260 L 807.5 262 L 807.5 265.21708245126285 L 808.5 268.21708245126285 L 808.5 269 L 808.5 271 L 808.5 273 L 808.5 275 L 808.5 277 L 808.5 279 L 808.5 281 L 808.5 283 L 808.5 286 L 808.5 290 L 808.5 294.21708245126285 L 810.0534273799856 298.8773645912196 L 810.5 299.77050983124843 L 810.5 300 L 810.5 303 L 810.5 305 L 810.5 308 L 810.5 311 L 810.5 313 L 810.5 316 L 810.5 318 L 810.5 321 L 810.5 323 L 810.5 325 L 810.5 328 L 810.5 330 L 810.5 332 L 810.5 334 L 810.5 337 L 810.5 339 L 810.5 341 L 810.5 344 L 810.5 346 L 810.5 349 L 810.5 351 L 810.5 355.77050983124843 L 811.5 357.77050983124843 L 811.5 359.21708245126285 L 812.5 362.21708245126285 L 812.5 363 L 812.5 366 L 812.5 369 L 812.5 371 L 812.5 374 L 812.5 377 L 812.5 380 L 812.5 382 L 812.5 384 L 812.5 387 L 812.5 390 L 812.5 393 L 812.5 395 L 812.5 398.77050983124843 L 813.5 400.77050983124843 L 813.5 401 L 813.5 403 L 813.5 406 L 813.5 409 L 813.5 412 L 813.5 415 L 813.5 418.21708245126285 L 814.5 421.21708245126285 L 814.5 423 L 814.5 427.77050983124843 L 815.5 429.77050983124843 L 815.5 432 L 815.5 434 L 815.5 437 L 815.5 439 L 815.5 441 L 815.5 443 L 815.5 445 L 815.5 447 L 815.5 449 L 815.5 451 L 815.5 454.21708245126285 L 816.5 457.21708245126285 L 816.5 461.77050983124843 L 818.2917960675006 465.3541019662497 L 818.5 465.77050983124843 L 818.5 466 L 818.5 469.77050983124843 L 819.5 471.77050983124843 L 819.5 472 L 819.5 474 L 819.5 476 L 819.5 478 L 819.5 480 L 819.5 482 L 819.5 484 L 819.5 486 L 819.5 488 L 819.5 490 L 819.5 492 " stroke="#4a5568" stroke-width="2" fill="none" stroke-linecap="butt" stroke-linejoin="round" />
    <path d="M 406.5 117 L 406.5 119 L 406.5 121 L 406.5 124.77050983124842 L 405.5 126.77050983124842 L 405.5 127 L 405.5 132.77050983124843 L 404.5 134.77050983124843 L 404.5 136 L 404.5 139 L 404.5 142.21708245126285 L 403.5 145.21708245126285 L 403.5 146 L 403.5 148 L 403.5 150 L 403.5 152 L 403.5 154 L 403.5 157.77050983124843 L 401.57939028240554 161.61172926643738 L 399.0995799844498 165.74474642969693 L 398.31935415981343 169.64587555287872 L 397.27606875109 173.8190171877725 L 396.5 176.92329219213246 L 396.5 179 L 396.5 181 L 396.5 184 L 396.5 187 L 396.5 191 L 396.5 194 L 396.5 196 L 396.5 199 L 396.5 205 L 396.5 207 L 396.5 209 L 396.5 211 L 396.5 213 L 396.5 217 L 396.5 219 L 396.5 221 L 396.5 223 L 396.5 225 L 396.5 228 L 396.5 231.21708245126285 L 395.5 234.21708245126285 L 395.5 235 L 395.5 238 L 395.5 240 L 395.5 244 L 395.5 247 L 395.5 250 L 395.5 255 L 395.5 259 L 395.5 261 L 395.5 263 L 395.5 265 L 395.5 268 L 395.5 270 L 395.5 272 L 395.5 274 L 395.5 276 L 395.5 280 L 395.5 283 L 395.5 285 L 395.5 288 L 395.5 290 L 395.5 292 L 395.5 294 L 395.5 296 L 395.5 299 L 395.5 302 L 395.5 302.78291754873715 L 396.5 305.78291754873715 L 396.5 309 L 396.5 311 L 396.5 313 L 396.5 315 L 396.5 317 L 396.5 319 L 396.5 321 L 396.5 323 L 396.5 326 L 396.5 330 L 396.5 332.2573536480541 L 397.5 337.2573536480541 L 397.5 341 L 397.5 344 L 397.5 346 L 397.5 348 L 397.5 350 L 397.5 352 L 397.5 356.77050983124843 L 395.7082039324994 360.3541019662497 L 395.5 360.77050983124843 L 395.5 362 L 395.5 364 L 395.5 366 L 395.5 368 L 395.5 370 L 395.5 372 L 395.5 375 L 395.5 377 L 395.5 380 L 395.5 382 L 395.5 385 L 395.5 388 L 395.5 392 L 395.5 394 L 395.5 396 L 395.5 399 L 395.5 401 L 395.5 403 L 395.5 405 L 395.5 407 L 395.5 409 L 395.5 411 L 395.5 414 L 395.5 414.22949016875157 L 396.5 416.22949016875157 L 396.5 420 L 396.5 422 L 396.5 425 L 396.5 427 L 396.5 429 L 396.5 431 L 396.5 433 L 396.5 435 L 396.5 437 L 396.5 439 L 396.5 441 L 396.5 443 L 396.5 445 L 396.5 447 L 396.5 449 L 396.5 451 L 396.5 453 L 396.5 455 L 396.5 457 L 396.5 459 L 396.5 461 L 396.5 463 L 396.5 463.22949016875157 L 396.7082039324994 463.6458980337503 L 397.7082039324994 465.6458980337503 L 399.5 469.22949016875157 L 399.5 471.22949016875157 L 399.1639081134502 470.557306395652 L 399.442693604348 470.8360918865498 L 401.442693604348 471.8360918865498 L 404.3033008588991 474.6966991411009 L 404.1066017177982 474.5 L 403 474.5 L 406.77050983124843 474.5 L 408.77050983124843 475.5 L 407.22949016875157 475.5 L 407.6458980337503 475.2917960675006 L 405.5 476.3647450843758 L 405.5 474.3647450843758 L 409.40983005625054 472.40983005625054 L 409.2917960675006 472.6458980337503 L 410.2917960675006 470.6458980337503 L 411.2917960675006 468.6458980337503 L 412.2917960675006 466.6458980337503 L 412.5 466.22949016875157 L 412.5 464.22949016875157 L 413.5 462.22949016875157 L 413.5 462 L 413.5 460 L 413.5 458 L 413.5 456 L 413.5 454 L 413.5 452 L 413.5 450 L 413.5 448 L 413.5 446 L 413.5 443.07670780786754 L 414.5 439.07670780786754 L 414.5 437 L 414.5 435 L 414.5 433 L 414.5 431 L 414.5 429 L 414.5 427 L 414.5 425 L 414.5 421.22949016875157 L 415.5 419.22949016875157 L 415.5 419 L 415.5 417 L 415.5 413.22949016875157 L 416.5 411.22949016875157 L 416.5 411 L 416.5 409 L 416.5 407 L 416.5 405 L 416.5 403 L 416.5 401 L 416.5 398 L 416.5 395 L 416.5 394.77050983124843 L 415.5 392.77050983124843 L 415.5 388 L 415.5 385 L 415.5 383 L 415.5 381 L 415.5 379 L 415.5 377 L 415.5 375 L 415.5 372 L 415.5 370 L 415.5 369.77050983124843 L 414.5 367.77050983124843 L 414.5 364 L 414.5 362 L 414.5 360 L 414.5 358 L 414.5 356 L 414.5 354 L 414.5 353.77050983124843 L 413.5 351.77050983124843 L 413.5 348 L 413.5 346 L 413.5 343 L 413.5 341.21708245126285 L 412.5 338.21708245126285 L 412.5 336.77050983124843 L 411.5 334.77050983124843 L 411.5 331 L 411.5 329 L 411.5 327 L 411.5 326.77050983124843 L 410.5 324.77050983124843 L 410.5 320 L 410.5 318 L 410.5 316 L 410.5 314 L 410.5 312 L 410.5 310 L 410.5 308 L 410.5 305 L 410.5 303 L 410.5 301 L 410.5 298 L 410.5 296 L 410.5 294 L 410.5 292 L 410.5 290 L 410.5 287 L 410.5 285 L 410.5 282 L 410.5 280 L 410.5 278 L 410.5 276 L 410.5 273 L 410.5 271 L 410.5 268 L 410.5 266 L 410.5 264 L 410.5 262 L 410.5 260 L 410.5 258 L 410.5 256 L 410.5 254 L 410.5 252 L 410.5 250 L 410.5 248 L 410.5 246 L 410.5 244 L 410.5 242 L 410.5 240 L 410.5 238 L 410.5 236 L 410.5 234 L 410.5 232 L 410.5 231.77050983124843 L 409.5 229.77050983124843 L 409.5 225 L 409.5 224.77050983124843 L 408.5 222.77050983124843 L 408.5 219 L 408.5 217 L 408.5 215 L 408.5 213 L 408.5 211 L 408.5 209 L 408.5 207 L 408.5 205 L 408.5 203 L 408.5 201 L 408.5 197.22949016875157 L 410.2917960675006 193.6458980337503 L 411.2917960675006 191.6458980337503 L 413.40983005625054 187.4098300562505 L 413.5 187.36474508437578 L 413.5 188.22949016875157 L 414.5 186.22949016875157 L 414.5 181.36474508437578 L 420.6458980337503 178.29179606750063 L 424.22949016875157 176.5 L 428 176.5 L 428.78291754873715 176.5 L 431.78291754873715 175.5 L 435 175.5 L 435.78291754873715 175.5 L 437.1226354087804 175.05342737998558 L 438.6458980337503 174.29179606750063 L 442.22949016875157 172.5 L 444.78291754873715 172.5 L 447.78291754873715 171.5 L 447.8933982822018 171.5 L 449.8933982822018 169.5 L 455 169.5 L 455.22949016875157 169.5 L 455.6458980337503 169.29179606750063 L 457.6458980337503 168.29179606750063 L 459.6458980337503 167.29179606750063 L 463.22949016875157 165.5 L 465.22949016875157 165.5 L 466.1226354087804 165.05342737998558 L 469.1226354087804 164.05342737998558 L 471.1226354087804 163.05342737998558 L 474.1226354087804 162.05342737998558 L 477.22949016875157 160.5 L 479.22949016875157 160.5 L 481.22949016875157 159.5 L 485 159.5 L 487 159.5 L 489 159.5 L 491 159.5 L 493 159.5 L 495 159.5 L 497 159.5 L 499 159.5 L 501 159.5 L 503 159.5 L 505 159.5 L 508 159.5 L 510 159.5 L 512 159.5 L 517.7705098312484 159.5 L 522.442693604348 161.83609188654978 L 523.1066017177982 162.5 L 523.7705098312484 162.5 L 527.3541019662497 164.29179606750063 L 529.3541019662497 165.29179606750063 L 529.7705098312484 165.5 L 531.7705098312484 165.5 L 535.3541019662497 167.29179606750063 L 539.5901699437495 169.4098300562505 L 540.5901699437495 171.4098300562505 L 538.7705098312484 170.5 L 539 170.5 L 541 170.5 L 544.7705098312484 170.5 L 548.3541019662497 172.29179606750063 L 548.7705098312484 172.5 L 552.1066017177982 172.5 L 554.1066017177982 174.5 L 555.7705098312484 174.5 L 559.3541019662497 176.29179606750063 L 562.442693604348 177.83609188654978 L 563.1066017177982 178.5 L 565.1066017177982 178.5 L 567.1066017177982 180.5 L 573.5 180.5 L 573.5 186.8933982822018 L 573.3033008588991 186.6966991411009 L 576.1639081134502 189.557306395652 L 577.1639081134502 191.557306395652 L 579.1639081134502 193.557306395652 L 580.7082039324994 196.6458980337503 L 581.1639081134502 197.557306395652 L 583.1639081134502 199.557306395652 L 584.7082039324994 202.6458980337503 L 585.7082039324994 204.6458980337503 L 586.7082039324994 206.6458980337503 L 587.7082039324994 208.6458980337503 L 588.7082039324994 210.6458980337503 L 589.7082039324994 212.6458980337503 L 591.5 216.22949016875157 L 591.5 218.22949016875157 L 591.7082039324994 218.6458980337503 L 592.7082039324994 220.6458980337503 L 593.7082039324994 222.6458980337503 L 595.5 226.22949016875157 L 595.5 228.22949016875157 L 595.9465726200144 229.1226354087804 L 597.1151247353788 232.62829175487371 L 597.9465726200144 235.1226354087804 L 599.5 238.22949016875157 L 599.5 239.72918271701005 L 601.5 242.72918271701005 L 601.5 245.22949016875157 L 602.5 247.22949016875157 L 602.5 251 L 602.5 253 L 602.5 255 L 602.5 257 L 602.5 259 L 602.5 261 L 602.5 263 L 602.5 265 L 602.5 267 L 602.5 269 L 602.5 271 L 602.5 273 L 602.5 275 L 602.5 275.22949016875157 L 603.5 277.22949016875157 L 603.5 279.22949016875157 L 603.7082039324994 279.6458980337503 L 605.5 283.22949016875157 L 605.5 285.22949016875157 L 605.7082039324994 285.6458980337503 L 607.5 289.22949016875157 L 607.5 289.8933982822018 L 609.5 291.8933982822018 L 609.5 297 L 609.5 299 L 609.5 301 L 609.5 303 L 609.5 305 L 609.5 307 L 609.5 309 L 609.5 311 L 609.5 313 L 609.5 315 L 609.5 317 L 609.5 319 L 609.5 322 L 609.5 325 L 609.5 327 L 609.5 329 L 609.5 333.21708245126285 L 608.5 336.21708245126285 L 608.5 338 L 608.5 340 L 608.5 342 L 608.5 344 L 608.5 346 L 608.5 348 L 608.5 350 L 608.5 352 L 608.5 354 L 608.5 356 L 608.5 358 L 608.5 360 L 608.5 360.78291754873715 L 609.5 363.78291754873715 L 609.5 368 L 609.5 370 L 609.5 370.22949016875157 L 610.5 372.22949016875157 L 610.5 376 L 610.5 376.22949016875157 L 611.5 378.22949016875157 L 611.5 382 L 611.5 382.22949016875157 L 612.5 384.22949016875157 L 612.5 388 L 612.5 388.22949016875157 L 613.5 390.22949016875157 L 613.5 394 L 613.5 396 L 613.5 398 L 613.5 400 L 613.5 402 L 613.5 402.22949016875157 L 614.5 404.22949016875157 L 614.5 408 L 614.5 408.22949016875157 L 615.5 410.22949016875157 L 615.5 412.22949016875157 L 615.7082039324994 412.6458980337503 L 615.5901699437495 412.40983005625054 L 619.5 414.3647450843758 L 619.5 413.5 L 618.6352549156242 413.5 L 621.1639081134502 418.557306395652 L 621.442693604348 418.8360918865498 L 623.442693604348 419.8360918865498 L 625.442693604348 421.8360918865498 L 624.7705098312484 421.5 L 625 421.5 L 625.2294901687516 421.5 L 627.2294901687516 420.5 L 629.2294901687516 420.5 L 629.6458980337503 420.2917960675006 L 627.5 421.3647450843758 L 627.5 422.22949016875157 L 628.5 420.22949016875157 L 628.5 420 L 628.5 418 L 628.5 416 L 628.5 414 L 628.5 412 L 628.5 410 L 628.5 408 L 628.5 406 L 628.5 404 L 628.5 402 L 628.5 400 L 628.5 398 L 628.5 396 L 628.5 394 L 628.5 392 L 628.5 390 L 628.5 388 L 628.5 386 L 628.5 383 L 628.5 381 L 628.5 380.77050983124843 L 627.5 378.77050983124843 L 627.5 376.21708245126285 L 627.0534273799856 374.8773645912196 L 625.5 371.77050983124843 L 625.5 368 L 625.5 367.77050983124843 L 624.5 365.77050983124843 L 624.5 362 L 624.5 359 L 624.5 357 L 624.5 353 L 624.5 350 L 624.5 348 L 624.5 346 L 624.5 344 L 624.5 342 L 624.5 340.21708245126285 L 623.5 337.21708245126285 L 623.5 335.77050983124843 L 622.5 333.77050983124843 L 622.5 329 L 622.5 327 L 622.5 325 L 622.5 322 L 622.5 320 L 622.5 318 L 622.5 316 L 622.5 314 L 622.5 311 L 622.5 309 L 622.5 307 L 622.5 304 L 622.5 302 L 622.5 300 L 622.5 298 L 622.5 296 L 622.5 294 L 622.5 292 L 622.5 291.77050983124843 L 621.5 289.77050983124843 L 621.5 287.77050983124843 L 620.5 285.77050983124843 L 620.5 282 L 620.5 280 L 620.5 276 L 620.5 273 L 620.5 270 L 620.5 266 L 620.5 263 L 620.5 260 L 620.5 258 L 620.5 257.77050983124843 L 619.5 255.77050983124843 L 619.5 252 L 619.5 250 L 619.5 248 L 619.5 246 L 619.5 244 L 619.5 242 L 619.5 240 L 619.5 238 L 619.5 236 L 619.5 234 L 619.5 232 L 619.5 227.22949016875157 L 620.5 225.22949016875157 L 620.5 225 L 620.5 223 L 620.5 221 L 620.5 217.22949016875157 L 621.5 215.22949016875157 L 621.5 213.22949016875157 L 623.5006149034831 209.22826036178543 L 624.5 207.72918271701005 L 624.5 206.22949016875157 L 626.8360918865498 201.557306395652 L 628.8360918865498 199.557306395652 L 628.5 200.22949016875157 L 628.5 198.22949016875157 L 630.5006149034831 194.22826036178543 L 632.5006149034831 191.22826036178543 L 633.2917960675006 189.6458980337503 L 635.4098300562505 185.4098300562505 L 635.5 185.36474508437578 L 635.5 184.8933982822018 L 637.5 182.8933982822018 L 637.5 176.5 L 639.5 176.5 L 639.5 178.8933982822018 L 644.557306395652 173.83609188654978 L 645.4098300562505 173.4098300562505 L 646.4098300562505 171.4098300562505 L 650.6458980337503 169.29179606750063 L 652.6458980337503 168.29179606750063 L 654.6458980337503 167.29179606750063 L 654.4098300562505 167.4098300562505 L 656.3647450843758 163.5 L 661.2294901687516 163.5 L 661.6458980337503 163.29179606750063 L 662.557306395652 162.83609188654978 L 665.8933982822018 159.5 L 669.2294901687516 159.5 L 669.6458980337503 159.29179606750063 L 671.6458980337503 158.29179606750063 L 675.2294901687516 156.5 L 677.2294901687516 156.5 L 677.6458980337503 156.29179606750063 L 681.2294901687516 154.5 L 685 154.5 L 687 154.5 L 689 154.5 L 687.8933982822018 154.5 L 689.8933982822018 152.5 L 693.2294901687516 152.5 L 694.1226354087804 152.05342737998558 L 698.7829175487371 150.5 L 700.7291827170101 150.5 L 703.7291827170101 148.5 L 708 148.5 L 710 148.5 L 713 148.5 L 715 148.5 L 718 148.5 L 720 148.5 L 723 148.5 L 725 148.5 L 727 148.5 L 729 148.5 L 731 148.5 L 733 148.5 L 736.7705098312484 148.5 L 740.3541019662497 150.29179606750063 L 740.7705098312484 150.5 L 742.7705098312484 150.5 L 744.7705098312484 151.5 L 745 151.5 L 747 151.5 L 749 151.5 L 752.7705098312484 151.5 L 756.3541019662497 153.29179606750063 L 758.3541019662497 154.29179606750063 L 758.7705098312484 154.5 L 760.7705098312484 154.5 L 762.7705098312484 155.5 L 767.6352549156242 155.5 L 768.6352549156242 157.5 L 767.7705098312484 157.5 L 771.3541019662497 159.29179606750063 L 773.3541019662497 160.29179606750063 L 775.3541019662497 161.29179606750063 L 778.442693604348 162.83609188654978 L 780.442693604348 164.83609188654978 L 783.5901699437495 166.4098300562505 L 784.5901699437495 168.4098300562505 L 786.1355623673658 169.18252626805867 L 788.1355623673658 172.18252626805867 L 792.5 174.36474508437578 L 792.5 179.22949016875157 L 791.5901699437495 177.4098300562505 L 793.5901699437495 178.4098300562505 L 795.7082039324994 182.6458980337503 L 794.6352549156242 180.5 L 799.5 180.5 L 799.5 187.8933982822018 L 800.1639081134502 188.557306395652 L 802.7082039324994 193.6458980337503 L 803.1639081134502 194.557306395652 L 805.1639081134502 196.557306395652 L 806.7082039324994 199.6458980337503 L 807.1639081134502 200.557306395652 L 809.5552403667323 202.9486386489341 L 810.5552403667323 205.9486386489341 L 813.5 208.8933982822018 L 813.5 212.22949016875157 L 814.5 214.22949016875157 L 814.5 217.22949016875157 L 814.7082039324994 217.6458980337503 L 815.7082039324994 219.6458980337503 L 817.5 223.22949016875157 L 817.5 227 L 817.5 227.78291754873715 L 818.5 230.78291754873715 L 818.5 235 L 818.5 235.78291754873715 L 819.5 238.78291754873715 L 819.5 241.78291754873715 L 819.9465726200144 243.1226354087804 L 821.5 246.22949016875157 L 821.5 249.22949016875157 L 822.5 251.22949016875157 L 822.5 255 L 822.5 258 L 822.5 260 L 822.5 262 L 822.5 262.78291754873715 L 823.5 265.78291754873715 L 823.5 269 L 823.5 271 L 823.5 273 L 823.5 275 L 823.5 277 L 823.5 279 L 823.5 281 L 823.5 283 L 823.5 286 L 823.5 290 L 823.5 291.78291754873715 L 823.9465726200144 293.1226354087804 L 825.5 296.22949016875157 L 825.5 300 L 825.5 303 L 825.5 305 L 825.5 308 L 825.5 311 L 825.5 313 L 825.5 316 L 825.5 318 L 825.5 321 L 825.5 323 L 825.5 325 L 825.5 328 L 825.5 330 L 825.5 332 L 825.5 334 L 825.5 337 L 825.5 339 L 825.5 341 L 825.5 344 L 825.5 346 L 825.5 349 L 825.5 351 L 825.5 352.22949016875157 L 826.5 354.22949016875157 L 826.5 356.78291754873715 L 827.5 359.78291754873715 L 827.5 363 L 827.5 366 L 827.5 369 L 827.5 371 L 827.5 374 L 827.5 377 L 827.5 380 L 827.5 382 L 827.5 384 L 827.5 387 L 827.5 390 L 827.5 393 L 827.5 395 L 827.5 395.22949016875157 L 828.5 397.22949016875157 L 828.5 401 L 828.5 403 L 828.5 406 L 828.5 409 L 828.5 412 L 828.5 415 L 828.5 415.78291754873715 L 829.5 418.78291754873715 L 829.5 423 L 829.5 424.22949016875157 L 830.5 426.22949016875157 L 830.5 432 L 830.5 434 L 830.5 437 L 830.5 439 L 830.5 441 L 830.5 443 L 830.5 445 L 830.5 447 L 830.5 449 L 830.5 451 L 830.5 451.78291754873715 L 831.5 454.78291754873715 L 831.5 458.22949016875157 L 831.7082039324994 458.6458980337503 L 833.5 462.22949016875157 L 833.5 466 L 833.5 466.22949016875157 L 834.5 468.22949016875157 L 834.5 472 L 834.5 474 L 834.5 476 L 834.5 478 L 834.5 480 L 834.5 482 L 834.5 484 L 834.5 486 L 834.5 488 L 834.5 490 L 834.5 492 " stroke="#4a5568" stroke-width="2" fill="none" stroke-linecap="butt" stroke-linejoin="round" />
  </g>
</svg>