<svg xmlns="http://www.w3.org/2000/svg" width="1334" height="864" viewBox="0 0 1334 864">
  <g fill="none">
    <path d="M 490.75 31 L 513.25 31 M 488.75 55.60165436233183 L 511.25 55.60165436233183 M 485.7935755158884 78.84460842224395 L 508.2064244841116 80.82304243115497 M 483.75 104.43547978903129 L 506.25 104.43547978903129 M 483.75 129.4354797890313 L 506.25 129.4354797890313 M 482.75 154.33646027543853 L 505.25 154.33646027543853 M 482.75 179.33646027543853 L 505.25 179.33646027543853 M 482.75 204.33646027543853 L 505.25 204.33646027543853 M 482.75 229.33646027543853 L 505.25 229.33646027543853 M 482.7564805829572 254.71826011643068 L 505.2435194170428 253.95466043444637 M 481.75 278.09649538480653 L 504.25 278.09649538480653 M 481.75 303.09649538480653 L 504.25 303.09649538480653 M 481.75 328.09649538480653 L 504.25 328.09649538480653 M 481.75 353.09649538480653 L 504.25 353.09649538480653 M 481.75 378.09649538480653 L 504.25 378.09649538480653 M 482.7756468087088 406.4096210291298 L 504.205088478268 399.55184954482394 M 512.989945814639 423.25 L 512.989945814639 400.75 M 533.25 391.78275322010626 L 510.75 391.78275322010626 M 533.1356508550824 368.3826844791615 L 510.8643491449176 365.182821961051 M 536.25 342.4909571526056 L 513.75 342.4909571526056 M 533.2468928250374 317.93477163349667 L 510.75310717496257 318.4635505367131 M 533.25 293.19916108510483 L 510.75 293.19916108510483 M 533.25 268.19916108510483 L 510.75 268.19916108510483 M 531.7202560904791 251.1719792670466 L 515.0784506288196 236.02931401365475 M 548.8003030234922 245.96982931180642 L 543.8101748207973 224.03017068819358 M 570.7099973415275 243.25 L 570.7099973415275 220.75 M 592.5168316810746 244.47293659724969 L 598.4264706016118 222.7628889734219 M 609.9953002812625 254.91312007508995 L 623.1512816861972 236.66017090863986 M 623.1587937705157 269.4381781135068 L 642.872748453366 258.5933641103748 M 630.4148560142642 289.63839270031366 L 652.3695427940509 284.7148037246313 M 634.7602369035327 311.9373132085634 L 657.2397630964673 310.97767674553984 M 636.75 336.09832137393414 L 659.25 336.09832137393414 M 633.2029009858586 354.5786260340013 L 653.0606713430534 365.1578016370867 M 621.4366863614364 371.681027954906 L 636.381954722583 388.50033096107444 M 604.0179671888743 383.91595759744797 L 614.5044104003089 403.82285360796044 M 584.9372061663265 390.908560944801 L 588.7015014176621 413.091439055199 M 562.7636257019935 394.75 L 562.7636257019935 417.25 " stroke="#8B4513" stroke-width="7" fill="none" stroke-linecap="butt" />
    <path d="M 494.5 31 L 494.5 33 L 494.5 35 L 494.5 37 L 494.5 39 L 494.5 41.78291754873715 L 493.5 44.78291754873715 L 493.5 47.229490168751575 L 492.5 49.229490168751575 L 492.5 54 L 492.5 56 L 492.5 58 L 492.5 61 L 492.5 64 L 492.5 66 L 492.5 66.78291754873716 L 491.5 69.78291754873716 L 491.5 71.72918271701003 L 489.5 74.72918271701003 L 489.5 81 L 489.5 81.22949016875158 L 489.0534273799856 82.12263540878043 L 487.5 86.78291754873716 L 487.5 91 L 487.5 93 L 487.5 95 L 487.5 97 L 487.5 99 L 487.5 101 L 487.5 104 L 487.5 106 L 487.5 111 L 487.5 114 L 487.5 117 L 487.5 122 L 487.5 125 L 487.5 129 L 487.5 134 L 487.5 137 L 487.5 141 L 487.5 144 L 487.5 145.2573536480541 L 486.5 150.2573536480541 L 486.5 154 L 486.5 157 L 486.5 159 L 486.5 161 L 486.5 163 L 486.5 165 L 486.5 167 L 486.5 170 L 486.5 172 L 486.5 174 L 486.5 177 L 486.5 179 L 486.5 182 L 486.5 185 L 486.5 187 L 486.5 190 L 486.5 193 L 486.5 196 L 486.5 201 L 486.5 204 L 486.5 207 L 486.5 209 L 486.5 211 L 486.5 214 L 486.5 217 L 486.5 220 L 486.5 222 L 486.5 225 L 486.5 228 L 486.5 231 L 486.5 234 L 486.5 236 L 486.5 238 L 486.5 240 L 486.5 243 L 486.5 246 L 486.5 249 L 486.5 254 L 486.5 259.27081728299 L 487.3453351102176 260.53881994831636 L 487.5 260.22949016875157 L 487.5 264.78291754873715 L 487.0534273799856 266.1226354087804 L 485.5 269.22949016875157 L 485.5 273 L 485.5 275 L 485.5 279 L 485.5 282 L 485.5 284 L 485.5 288 L 485.5 291 L 485.5 293 L 485.5 297 L 485.5 300 L 485.5 303 L 485.5 305 L 485.5 307 L 485.5 309 L 485.5 311 L 485.5 314 L 485.5 318 L 485.5 320 L 485.5 322 L 485.5 324 L 485.5 326 L 485.5 328 L 485.5 330 L 485.5 333 L 485.5 336 L 485.5 339 L 485.5 342 L 485.5 344 L 485.5 348 L 485.5 351 L 485.5 353 L 485.5 355 L 485.5 357 L 485.5 359 L 485.5 361 L 485.5 363 L 485.5 365 L 485.5 368 L 485.5 370 L 485.5 372 L 485.5 375 L 485.5 377 L 485.5 379 L 485.5 382 L 485.5 385 L 485.5 388 L 485.5 390 L 485.5 392 L 485.5 396 L 485.5 398 L 485.5 400 L 485.5 403.77050983124843 L 487.0534273799856 406.8773645912196 L 488.0534273799856 409.8773645912196 L 491.3647450843758 416.5 L 493.3647450843758 416.5 L 493.40983005625054 416.59016994374946 L 499.22949016875157 419.5 L 503 419.5 L 505 419.5 L 507 419.5 L 509 419.5 L 511 419.5 L 513 419.5 L 516.7705098312484 419.5 L 522.5901699437495 416.59016994374946 L 524.1639081134502 413.442693604348 L 527.5 410.1066017177982 L 527.5 406.77050983124843 L 527.7082039324994 406.3541019662497 L 529.5 402.77050983124843 L 529.5 399 L 529.5 397 L 529.5 395 L 529.5 392 L 529.5 390 L 529.5 388 L 529.5 386 L 529.5 383 L 529.5 380 L 529.5 378 L 529.5 376 L 529.5 374 L 529.5 372 L 529.5 370 L 529.5 368 L 529.5 367.77050983124843 L 529.7082039324994 367.3541019662497 L 531.5 363.77050983124843 L 531.5 360 L 531.5 359.77050983124843 L 532.5 357.77050983124843 L 532.5 354 L 532.5 352 L 532.5 350 L 532.5 348 L 532.5 346 L 532.5 344 L 532.5 342 L 532.5 340 L 532.5 335.22949016875157 L 531.5 333.22949016875157 L 531.5 333 L 531.5 331 L 531.5 328 L 531.5 326 L 531.5 322.22949016875157 L 529.7082039324994 318.6458980337503 L 529.5 318.22949016875157 L 529.5 318 L 529.5 316 L 529.5 314 L 529.5 312 L 529.5 309 L 529.5 307 L 529.5 305 L 529.5 302 L 529.5 300 L 529.5 298 L 529.5 296 L 529.5 294 L 529.5 292 L 529.5 290 L 529.5 288 L 529.5 284 L 529.5 282 L 529.5 280 L 529.5 278 L 529.5 276 L 529.5 274 L 529.5 272 L 529.5 270 L 529.5 268 L 529.5 266 L 529.5 264 L 529.5 261 L 529.5 258 L 529.5 256 L 529.5 254 L 529.5 252 L 529.5 250 L 529.5 248 L 529.5 247.77050983124843 L 529.1639081134502 248.442693604348 L 528.1066017177982 249.5 L 528.2170824512629 249.5 L 532.3717082451262 248.11512473537886 L 535.8773645912196 246.94657262001442 L 536.7705098312484 246.5 L 538.2170824512629 246.5 L 542.8773645912196 244.94657262001442 L 545.3541019662497 243.70820393249937 L 547.3541019662497 242.70820393249937 L 547.7705098312484 242.5 L 550.9232921921324 242.5 L 554.9232921921324 241.5 L 557.7705098312484 241.5 L 559.7705098312484 240.5 L 561.7705098312484 240.5 L 563.7705098312484 239.5 L 565 239.5 L 569 239.5 L 571 239.5 L 574 239.5 L 576 239.5 L 578 239.5 L 580 239.5 L 583 239.5 L 585 239.5 L 586.7829175487371 239.5 L 589.7829175487371 240.5 L 592.0767078078676 240.5 L 594.3822725296357 241.07639118044202 L 594.557306395652 241.16390811345022 L 597.8933982822018 244.5 L 601.2294901687516 244.5 L 601.6458980337503 244.70820393249937 L 603.6458980337503 245.70820393249937 L 604.557306395652 246.16390811345022 L 606.557306395652 248.16390811345022 L 608.557306395652 249.16390811345022 L 610.557306395652 251.16390811345022 L 612.557306395652 252.16390811345022 L 613.6966991411009 253.3033008588991 L 616.557306395652 256.1639081134502 L 618.557306395652 257.1639081134502 L 618.8360918865498 257.442693604348 L 619.8360918865498 259.442693604348 L 622.6966991411009 262.3033008588991 L 623.8360918865498 263.442693604348 L 624.2917960675006 264.3541019662497 L 625.8360918865498 267.442693604348 L 626.5 268.1066017177982 L 626.5 268.77050983124843 L 629.0534273799856 273.8773645912196 L 631.0534273799856 279.8773645912196 L 632.8426211597675 283.45575215078344 L 633.7372180496585 287.92873660023827 L 634.5 290.21708245126285 L 634.5 291.7426463519459 L 635.5 296.7426463519459 L 635.5 298.92329219213246 L 636.7937902591304 304.098453228654 L 637.5 306.21708245126285 L 637.5 308.77050983124843 L 638.5 310.77050983124843 L 638.5 312 L 638.5 316.77050983124843 L 639.5 318.77050983124843 L 639.5 319.92329219213246 L 640.5 323.92329219213246 L 640.5 328 L 640.5 332 L 640.5 335 L 640.5 337 L 640.5 339 L 640.5 343 L 640.5 344.22949016875157 L 639.5 346.22949016875157 L 639.5 348.22949016875157 L 639.2917960675006 348.6458980337503 L 638.0534273799856 351.1226354087804 L 636.5 355.78291754873715 L 636.5 355.8933982822018 L 635.8360918865498 356.557306395652 L 634.2917960675006 359.6458980337503 L 633.2917960675006 361.6458980337503 L 632.2917960675006 363.6458980337503 L 630.8360918865498 366.557306395652 L 628.1715688696165 369.2218294125853 L 626.1715688696165 372.2218294125853 L 624.6966991411009 373.6966991411009 L 622.557306395652 375.8360918865498 L 619.4098300562505 377.40983005625054 L 619.3647450843758 377.5 L 618.8933982822018 377.5 L 615.557306395652 380.8360918865498 L 613.557306395652 381.8360918865498 L 611.9486386489341 383.44475963326767 L 608.9486386489341 384.44475963326767 L 606.557306395652 386.8360918865498 L 605.6458980337503 387.2917960675006 L 603.6458980337503 388.2917960675006 L 603.2294901687516 388.5 L 599.8933982822018 388.5 L 597.8933982822018 390.5 L 597.7829175487371 390.5 L 594.7829175487371 391.5 L 592.2294901687516 391.5 L 590.2294901687516 392.5 L 586.8933982822018 392.5 L 584.8933982822018 394.5 L 586 394.5 L 584 394.5 L 580.2294901687516 394.5 L 578.2294901687516 395.5 L 578 395.5 L 574.2294901687516 395.5 L 572.2294901687516 396.5 L 570.2294901687516 396.5 L 566.2294901687516 398.5 L 566 398.5 L 564 398.5 L 562 398.5 L 560 398.5 L 558 398.5 L 556 398.5 L 555.7705098312484 398.5 L 553.7705098312484 397.5 L 550 397.5 L 555.5 397.5 L 555.5 403 " stroke="#4a5568" stroke-width="2" fill="none" stroke-linecap="butt" stroke-linejoin="round" />
    <path d="M 509.5 31 L 509.5 33 L 509.5 35 L 509.5 37 L 509.5 39 L 509.5 44.21708245126285 L 508.5 47.21708245126285 L 508.5 50.770509831248425 L 507.5 52.770509831248425 L 507.5 54 L 507.5 56 L 507.5 58 L 507.5 61 L 507.5 64 L 507.5 66 L 507.5 69.21708245126284 L 506.5 72.21708245126284 L 506.5 76.27081728298997 L 504.5 79.27081728298997 L 504.5 81 L 504.5 84.77050983124842 L 502.9465726200144 87.87736459121957 L 502.5 89.21708245126284 L 502.5 91 L 502.5 93 L 502.5 95 L 502.5 97 L 502.5 99 L 502.5 101 L 502.5 104 L 502.5 106 L 502.5 111 L 502.5 114 L 502.5 117 L 502.5 122 L 502.5 125 L 502.5 129 L 502.5 134 L 502.5 137 L 502.5 141 L 502.5 144 L 502.5 146.7426463519459 L 501.5 151.7426463519459 L 501.5 154 L 501.5 157 L 501.5 159 L 501.5 161 L 501.5 163 L 501.5 165 L 501.5 167 L 501.5 170 L 501.5 172 L 501.5 174 L 501.5 177 L 501.5 179 L 501.5 182 L 501.5 185 L 501.5 187 L 501.5 190 L 501.5 193 L 501.5 196 L 501.5 201 L 501.5 204 L 501.5 207 L 501.5 209 L 501.5 211 L 501.5 214 L 501.5 217 L 501.5 220 L 501.5 222 L 501.5 225 L 501.5 228 L 501.5 231 L 501.5 234 L 501.5 236 L 501.5 238 L 501.5 240 L 501.5 243 L 501.5 246 L 501.5 249 L 501.5 254 L 501.5 254.72918271701005 L 504.6546648897824 259.46118005168364 L 502.5 263.77050983124843 L 502.5 267.21708245126285 L 500.9465726200144 271.8773645912196 L 500.5 272.77050983124843 L 500.5 273 L 500.5 275 L 500.5 279 L 500.5 282 L 500.5 284 L 500.5 288 L 500.5 291 L 500.5 293 L 500.5 297 L 500.5 300 L 500.5 303 L 500.5 305 L 500.5 307 L 500.5 309 L 500.5 311 L 500.5 314 L 500.5 318 L 500.5 320 L 500.5 322 L 500.5 324 L 500.5 326 L 500.5 328 L 500.5 330 L 500.5 333 L 500.5 336 L 500.5 339 L 500.5 342 L 500.5 344 L 500.5 348 L 500.5 351 L 500.5 353 L 500.5 355 L 500.5 357 L 500.5 359 L 500.5 361 L 500.5 363 L 500.5 365 L 500.5 368 L 500.5 370 L 500.5 372 L 500.5 375 L 500.5 377 L 500.5 379 L 500.5 382 L 500.5 385 L 500.5 388 L 500.5 390 L 500.5 392 L 500.5 396 L 500.5 398 L 500.5 400 L 500.5 400.22949016875157 L 500.9465726200144 401.1226354087804 L 501.9465726200144 404.1226354087804 L 500.6352549156242 401.5 L 502.6352549156242 401.5 L 504.59016994374946 405.40983005625054 L 502.77050983124843 404.5 L 503 404.5 L 505 404.5 L 507 404.5 L 509 404.5 L 511 404.5 L 513 404.5 L 513.2294901687516 404.5 L 511.40983005625054 405.40983005625054 L 511.8360918865498 404.557306395652 L 512.5 403.8933982822018 L 512.5 403.22949016875157 L 514.2917960675006 399.6458980337503 L 514.5 399.22949016875157 L 514.5 399 L 514.5 397 L 514.5 395 L 514.5 392 L 514.5 390 L 514.5 388 L 514.5 386 L 514.5 383 L 514.5 380 L 514.5 378 L 514.5 376 L 514.5 374 L 514.5 372 L 514.5 370 L 514.5 368 L 514.5 364.22949016875157 L 516.2917960675006 360.6458980337503 L 516.5 360.22949016875157 L 516.5 360 L 516.5 356.22949016875157 L 517.5 354.22949016875157 L 517.5 354 L 517.5 352 L 517.5 350 L 517.5 348 L 517.5 346 L 517.5 344 L 517.5 342 L 517.5 340 L 517.5 338.77050983124843 L 516.5 336.77050983124843 L 516.5 333 L 516.5 331 L 516.5 328 L 516.5 326 L 516.5 325.77050983124843 L 516.2917960675006 325.3541019662497 L 514.5 321.77050983124843 L 514.5 318 L 514.5 316 L 514.5 314 L 514.5 312 L 514.5 309 L 514.5 307 L 514.5 305 L 514.5 302 L 514.5 300 L 514.5 298 L 514.5 296 L 514.5 294 L 514.5 292 L 514.5 290 L 514.5 288 L 514.5 284 L 514.5 282 L 514.5 280 L 514.5 278 L 514.5 276 L 514.5 274 L 514.5 272 L 514.5 270 L 514.5 268 L 514.5 266 L 514.5 264 L 514.5 261 L 514.5 258 L 514.5 256 L 514.5 254 L 514.5 252 L 514.5 250 L 514.5 248 L 514.5 244.22949016875157 L 516.8360918865498 239.557306395652 L 521.8933982822018 234.5 L 525.7829175487371 234.5 L 527.6282917548738 233.88487526462114 L 530.1226354087804 233.05342737998558 L 533.2294901687516 231.5 L 535.7829175487371 231.5 L 537.1226354087804 231.05342737998558 L 538.6458980337503 230.29179606750063 L 540.6458980337503 229.29179606750063 L 544.2294901687516 227.5 L 549.0767078078676 227.5 L 553.0767078078676 226.5 L 554.2294901687516 226.5 L 556.2294901687516 225.5 L 558.2294901687516 225.5 L 560.2294901687516 224.5 L 565 224.5 L 569 224.5 L 571 224.5 L 574 224.5 L 576 224.5 L 578 224.5 L 580 224.5 L 583 224.5 L 585 224.5 L 589.2170824512629 224.5 L 592.2170824512629 225.5 L 593.9232921921324 225.5 L 599.6177274703643 226.92360881955798 L 603.442693604348 228.83609188654978 L 604.1066017177982 229.5 L 604.7705098312484 229.5 L 608.3541019662497 231.29179606750063 L 610.3541019662497 232.29179606750063 L 613.442693604348 233.83609188654978 L 615.442693604348 235.83609188654978 L 617.442693604348 236.83609188654978 L 619.442693604348 238.83609188654978 L 621.442693604348 239.83609188654978 L 624.3033008588991 242.6966991411009 L 625.442693604348 243.83609188654978 L 627.442693604348 244.83609188654978 L 631.1639081134502 248.557306395652 L 632.1639081134502 250.557306395652 L 633.3033008588991 251.6966991411009 L 636.1639081134502 254.557306395652 L 637.7082039324994 257.6458980337503 L 638.1639081134502 258.557306395652 L 641.5 261.8933982822018 L 641.5 265.22949016875157 L 642.9465726200144 268.1226354087804 L 644.9465726200144 274.1226354087804 L 647.1573788402325 278.54424784921656 L 648.2627819503415 284.07126339976173 L 649.5 287.78291754873715 L 649.5 290.2573536480541 L 650.5 295.2573536480541 L 650.5 297.07670780786754 L 651.2062097408696 299.901546771346 L 652.5 303.78291754873715 L 652.5 305.22949016875157 L 653.5 307.22949016875157 L 653.5 312 L 653.5 313.22949016875157 L 654.5 315.22949016875157 L 654.5 318.07670780786754 L 655.5 322.07670780786754 L 655.5 328 L 655.5 332 L 655.5 335 L 655.5 337 L 655.5 339 L 655.5 343 L 655.5 347.77050983124843 L 654.5 349.77050983124843 L 654.5 351.77050983124843 L 652.7082039324994 355.3541019662497 L 651.9465726200144 356.8773645912196 L 651.5 358.21708245126285 L 651.5 362.1066017177982 L 648.1639081134502 365.442693604348 L 647.7082039324994 366.3541019662497 L 646.7082039324994 368.3541019662497 L 645.7082039324994 370.3541019662497 L 643.1639081134502 375.442693604348 L 639.8284311303835 378.7781705874147 L 637.8284311303835 381.7781705874147 L 635.3033008588991 384.3033008588991 L 631.442693604348 388.1639081134502 L 630.5901699437495 388.59016994374946 L 628.6352549156242 392.5 L 625.1066017177982 392.5 L 624.442693604348 393.1639081134502 L 622.442693604348 394.1639081134502 L 620.0513613510659 396.55524036673233 L 617.0513613510659 397.55524036673233 L 615.442693604348 399.1639081134502 L 612.3541019662497 400.7082039324994 L 610.3541019662497 401.7082039324994 L 606.7705098312484 403.5 L 606.1066017177982 403.5 L 604.1066017177982 405.5 L 600.2170824512629 405.5 L 597.2170824512629 406.5 L 595.7705098312484 406.5 L 593.7705098312484 407.5 L 593.1066017177982 407.5 L 591.1066017177982 409.5 L 586 409.5 L 584 409.5 L 583.7705098312484 409.5 L 581.7705098312484 410.5 L 578 410.5 L 577.7705098312484 410.5 L 575.7705098312484 411.5 L 573.7705098312484 411.5 L 569.7705098312484 413.5 L 566 413.5 L 564 413.5 L 562 413.5 L 560 413.5 L 558 413.5 L 556 413.5 L 552.2294901687516 413.5 L 550.2294901687516 412.5 L 550 412.5 L 540.5 412.5 L 540.5 403 " stroke="#4a5568" stroke-width="2" fill="none" stroke-linecap="butt" stroke-linejoin="round" />
  </g>
</svg>