<svg xmlns="http://www.w3.org/2000/svg" width="1334" height="864" viewBox="0 0 1334 864">
  <g fill="none">
    <path d="M 670.9549512883486 65.04504871165133 L 655.0450487116514 80.95495128834867 M 653.2706900160629 50.71044016320826 L 635.0177408496127 63.86642156814298 M 623.5738832105943 34.75 L 623.5738832105943 57.25 M 599.4023103353405 32.75 L 599.4023103353405 55.25 M 574.6383783128402 33.75 L 574.6383783128402 56.25 M 547.0568055191359 39.97098190780234 L 554.8300533571644 61.085588654047584 M 523.1210766718559 51.88601930898978 L 534.4177754097027 71.34455465023092 M 504.41790759955677 75.21443197755939 L 523.9038216725854 86.46383875029836 M 496.2035680801645 100.8400520889333 L 517.8070686181345 107.12803781616961 M 489.9444456665218 125.7838901110802 L 512.0555543334782 129.94908800770474 M 487.75 152.26093778392848 L 510.25 152.26093778392848 M 493.1421631674447 178.8916484558161 L 514.8578368325552 173.0027166961143 M 509.398919787559 202.82119606317272 L 526.3926868275513 188.07460724438246 M 536.7156142118455 219.02839086912715 L 541.1595290795057 196.97160913087285 M 561.0451960845833 226.27064946297264 L 563.7943195177365 203.9392294376073 M 587.0735028347224 228.25 L 587.0735028347224 205.75 M 612.1385704921157 228.2498118295357 L 612.008435177329 205.7501881704643 M 640.4928096631616 217.9683883015841 L 628.78345890945 198.75534312580433 M 661.0003991046735 208.13802813929325 L 651.8881753050175 187.56578039080975 M 684.7207104549286 191.2540581850687 L 667.8529514990717 176.36350051226452 M 703.3771765125113 171.4014117218501 L 683.2525647150131 161.33910582310105 M 710.25 142.59937341662726 L 687.75 142.59937341662726 M 711.25 117.83544139412709 L 688.75 117.83544139412709 M 710.25 93.07150937162692 L 687.75 93.07150937162692 M 711.25 68.30757734912675 L 688.75 68.30757734912675 M 711.7336961886751 53.44054264846152 L 697.7366366750412 35.8242909196803 M 714.8183671476642 47.8799818696697 L 737.1816328523358 45.40322047174286 M 716.8931105301606 75.59194388501979 L 737.6804000116645 66.98156665680526 M 720.0978929303487 97.6786084798793 L 741.9959951933727 92.50916776756367 M 723.75 119.16069820346127 L 746.25 119.16069820346127 M 720.75 143.09620310121522 L 743.25 143.09620310121522 M 720.75 168.09620310121522 L 743.25 168.09620310121522 M 719.8354621066087 191.54987572119248 L 742.1645378933913 194.31797516090128 M 717.75 217.5747518379294 L 740.25 217.5747518379294 M 717.75 242.5747518379294 L 740.25 242.5747518379294 M 716.75 267.41247417776106 L 739.25 267.41247417776106 M 715.75 292.1764062002612 L 738.25 292.1764062002612 M 713.75 316.77806056259305 L 736.25 316.77806056259305 M 711.9989403189559 338.35289826193576 L 733.7274323936167 344.1943563129193 M 704.8850559187155 361.74706554338746 L 726.7831581817394 366.91650625570304 M 696.050948868488 384.3791149066082 L 717.949051131512 389.5485556189238 M 683.86800452037 400.4164451971544 L 702.0627642169502 413.6527860655252 M 667.2223449269698 408.43051074555564 L 675.8327221551842 429.2178002270596 M 646.3914417731057 420.0905017847557 L 653.5170900669646 441.4323652552267 M 623.2938697948084 425.1116537930049 L 628.4633105071241 447.00975605602883 M 602.0626361253455 426.77848269268793 L 600.4625744744133 449.22151730731207 M 579.7128293114525 422.1150033461354 L 574.5433885991368 444.0131056091593 M 560.7510469613549 413.87675666344546 L 548.4983876161168 432.7479606252904 M 541.9227647911323 400.15279380864155 L 528.2582664898703 418.028237472361 M 526.4534995477937 385.9809536036988 L 507.8694096235271 398.66486473894304 M 518.4894883444541 366.5995116748927 L 496.85817509409696 372.7911420793115 M 516.25 345.1766249901327 L 493.75 345.1766249901327 " stroke="#8B4513" stroke-width="7" fill="none" stroke-linecap="butt" />
    <path d="M 668.3033008588991 67.6966991411009 L 665.442693604348 64.8360918865498 L 663.442693604348 63.83609188654979 L 662.3033008588991 62.69669914110089 L 659.442693604348 59.83609188654979 L 657.442693604348 58.83609188654979 L 655.442693604348 56.83609188654979 L 652.3541019662497 55.29179606750063 L 651.442693604348 54.83609188654979 L 651.1639081134502 54.557306395652 L 650.1639081134502 52.557306395652 L 647.3033008588991 49.69669914110089 L 645.1639081134502 47.557306395652 L 643.5901699437495 44.40983005625053 L 639.3541019662497 42.29179606750063 L 637.3541019662497 41.29179606750063 L 633.7705098312484 39.5 L 630.7705098312484 39.5 L 628.7705098312484 38.5 L 625 38.5 L 623 38.5 L 621 38.5 L 622.1066017177982 38.5 L 620.1066017177982 36.5 L 615 36.5 L 613 36.5 L 611 36.5 L 609 36.5 L 607 36.5 L 605 36.5 L 603 36.5 L 601 36.5 L 599 36.5 L 597 36.5 L 595 36.5 L 593 36.5 L 591 36.5 L 589 36.5 L 587 36.5 L 583.2294901687516 36.5 L 581.2294901687516 37.5 L 581 37.5 L 579 37.5 L 577 37.5 L 574 37.5 L 572 37.5 L 570 37.5 L 568 37.5 L 564.2294901687516 37.5 L 562.2294901687516 38.5 L 560.2294901687516 38.5 L 556.6458980337503 40.29179606750063 L 554.6458980337503 41.29179606750063 L 552.6458980337503 42.29179606750063 L 552.2294901687516 42.5 L 550.2294901687516 42.5 L 546.6458980337503 44.29179606750063 L 544.6458980337503 45.29179606750063 L 542.6458980337503 46.29179606750063 L 541.1226354087804 47.05342737998558 L 538.1226354087804 48.05342737998558 L 536.1226354087804 49.05342737998558 L 533.1226354087804 50.05342737998558 L 530.6458980337503 51.29179606750063 L 527.557306395652 52.83609188654979 L 525.557306395652 54.83609188654979 L 524.6458980337503 55.29179606750063 L 520.4098300562505 57.40983005625053 L 518.8360918865498 60.557306395652 L 516.8360918865498 62.557306395652 L 515.2917960675006 65.64589803375031 L 515.4098300562505 65.40983005625053 L 513.4098300562505 66.40983005625053 L 511.2917960675006 70.64589803375031 L 510.2917960675006 72.64589803375031 L 509.2917960675006 74.64589803375031 L 508.8360918865498 75.55730639565199 L 505.5 78.89339828220179 L 505.5 83.07670780786755 L 505.2277698418886 84.1656284403132 L 502.5 86.89339828220179 L 502.5 91.78291754873716 L 501.73721804965845 94.07126339976172 L 500.7372180496585 99.07126339976172 L 499.7937902591304 101.90154677134598 L 498.923608819558 105.38227252963561 L 497.923608819558 107.38227252963561 L 496.7937902591304 111.90154677134598 L 495.5 115.78291754873716 L 495.5 118.22949016875158 L 493.5 122.22949016875158 L 493.5 126 L 493.5 126.72918271701003 L 491.5 129.72918271701005 L 491.5 135 L 491.5 137 L 491.5 139 L 491.5 141 L 491.5 143 L 491.5 145 L 491.5 148 L 491.5 152 L 491.5 154 L 491.5 156 L 491.5 158 L 491.5 162.77050983124843 L 492.5 164.77050983124843 L 492.5 165 L 492.5 169.77050983124843 L 494.2917960675006 173.3541019662497 L 495.5006149034831 175.77173963821457 L 496.5 177.27081728298995 L 496.5 178.77050983124843 L 498.5006149034831 182.77173963821457 L 501.1715688696165 186.7781705874147 L 503.6966991411009 189.3033008588991 L 504.8360918865498 190.442693604348 L 505.5006149034831 191.77173963821457 L 508.591673086804 196.408326913196 L 509.5 197.01387818866 L 509.5 199.63525491562422 L 514.557306395652 202.16390811345022 L 515.6966991411009 203.3033008588991 L 518.557306395652 206.16390811345022 L 520.557306395652 207.16390811345022 L 522.557306395652 209.16390811345022 L 525.6458980337503 210.70820393249937 L 527.6458980337503 211.70820393249937 L 530.1226354087804 212.94657262001442 L 533.1226354087804 213.94657262001442 L 536.2294901687516 215.5 L 538.7829175487371 215.5 L 540.1226354087804 215.94657262001442 L 543.6458980337503 217.70820393249937 L 546.1226354087804 218.94657262001442 L 550.7829175487371 220.5 L 552.2294901687516 220.5 L 554.2294901687516 221.5 L 556.2294901687516 221.5 L 558.2294901687516 222.5 L 561.0767078078676 222.5 L 565.0767078078676 223.5 L 569 223.5 L 571 223.5 L 571.2294901687516 223.5 L 573.2294901687516 224.5 L 579 224.5 L 581 224.5 L 583 224.5 L 585 224.5 L 589 224.5 L 591 224.5 L 593 224.5 L 595 224.5 L 597 224.5 L 600 224.5 L 602 224.5 L 605 224.5 L 608 224.5 L 610 224.5 L 612 224.5 L 616.7705098312484 224.5 L 618.7705098312484 223.5 L 622.1066017177982 223.5 L 625.0513613510659 220.5552403667323 L 626.8773645912196 219.94657262001442 L 629.3541019662497 218.70820393249937 L 631.7705098312484 217.5 L 633.7705098312484 217.5 L 638.442693604348 215.16390811345022 L 639.1066017177982 214.5 L 642.1066017177982 214.5 L 645.8343715596868 210.77223015811143 L 649.0793323375044 209.960989963657 L 652.3245521147171 207.79751011218193 L 654.8773645912196 206.94657262001442 L 657.3541019662497 205.70820393249937 L 658.8773645912196 204.94657262001442 L 663.0513613510659 203.5552403667323 L 665.7781705874147 200.8284311303835 L 667.3245521147171 199.79751011218193 L 669.8773645912196 198.94657262001442 L 673.442693604348 197.16390811345022 L 676.3033008588991 194.3033008588991 L 677.442693604348 193.16390811345022 L 680.5901699437495 191.5901699437495 L 681.8174737319414 189.13556236736574 L 684.8174737319414 187.13556236736574 L 686.1639081134502 184.442693604348 L 687.3033008588991 183.3033008588991 L 689.8284311303835 180.7781705874147 L 691.8284311303835 177.7781705874147 L 692.442693604348 177.16390811345022 L 693.3541019662497 176.70820393249937 L 697.5901699437495 174.5901699437495 L 699.7082039324994 170.3541019662497 L 700.7082039324994 168.3541019662497 L 702.076391180442 165.6177274703644 L 703.076391180442 161.6177274703644 L 704.5 158.77050983124843 L 704.5 156.77050983124843 L 705.5 154.77050983124843 L 705.5 152.77050983124843 L 706.5 150.77050983124843 L 706.5 147 L 706.5 145 L 706.5 141 L 706.5 139 L 706.5 137 L 706.5 136.77050983124843 L 707.5 134.77050983124843 L 707.5 131 L 707.5 129 L 707.5 127 L 707.5 123 L 707.5 120 L 707.5 118 L 707.5 116 L 707.5 114 L 707.5 112 L 707.5 110 L 707.5 106.22949016875158 L 706.5 104.22949016875158 L 706.5 104 L 706.5 102 L 706.5 100 L 706.5 98 L 706.5 96 L 706.5 94 L 706.5 92 L 706.5 90 L 706.5 88 L 706.5 86 L 706.5 84 L 706.5 82.77050983124842 L 707.5 80.77050983124842 L 707.5 77 L 707.5 75 L 707.5 72 L 707.5 70 L 707.5 68 L 707.5 66 L 707.5 64 L 707.5 62 L 707.5 60 L 707.5 58 L 707.5 56 L 707.5 55.21708245126285 L 707.9465726200144 53.877364591219575 L 708.7082039324994 52.35410196624969 L 709.7082039324994 50.35410196624969 L 709.5901699437495 50.59016994374947 L 709.3541019662497 50.70820393249937 L 711.3541019662497 49.70820393249937 L 711.7705098312484 49.5 L 712 49.5 L 714 49.5 L 716 49.5 L 718 49.5 L 721 49.5 L 718.3647450843758 49.5 L 718.4098300562505 49.59016994374947 L 718.5 49.63525491562421 L 718.5 47 L 718.5 49 L 718.5 51 L 718.5 53 L 718.5 55 L 718.5 57 L 718.5 59 L 718.5 61 L 718.5 63 L 718.5 65 L 718.5 68.77050983124842 L 719.5 70.77050983124842 L 719.5 74.10660171779821 L 721.5 76.10660171779821 L 721.5 76.77050983124842 L 722.5 78.77050983124842 L 722.5 79 L 722.5 81 L 722.5 83 L 722.5 85 L 722.5 87 L 722.5 89 L 722.5 92.77050983124842 L 723.5 94.77050983124842 L 723.5 96.77050983124842 L 724.5 98.77050983124842 L 724.5 100.77050983124842 L 726.2917960675006 104.35410196624969 L 726.5 104.77050983124842 L 726.5 106 L 726.5 109.77050983124842 L 727.5 111.77050983124842 L 727.5 112 L 727.5 114 L 727.5 116 L 727.5 118 L 727.5 120 L 727.5 122 L 727.5 122.22949016875158 L 726.5 124.22949016875158 L 726.5 128 L 726.5 126.89339828220179 L 724.5 128.8933982822018 L 724.5 134 L 724.5 136 L 724.5 138 L 724.5 140 L 724.5 142 L 724.5 144 L 724.5 146 L 724.5 148 L 724.5 150 L 724.5 153 L 724.5 155 L 724.5 157 L 724.5 159 L 724.5 161 L 724.5 163 L 724.5 165 L 724.5 168 L 724.5 170 L 724.5 172 L 724.5 174 L 724.5 176 L 724.5 178 L 724.5 180 L 724.5 182 L 724.5 184 L 724.5 185.78291754873715 L 723.5 188.78291754873715 L 723.5 192.07670780786754 L 722.923608819558 194.3822725296356 L 721.5 197.22949016875157 L 721.5 201 L 721.5 205 L 721.5 207 L 721.5 209 L 721.5 212 L 721.5 214 L 721.5 216 L 721.5 218 L 721.5 220 L 721.5 222 L 721.5 224 L 721.5 227 L 721.5 229 L 721.5 232 L 721.5 235 L 721.5 238 L 721.5 241 L 721.5 245 L 721.5 247 L 721.5 249 L 721.5 251 L 721.5 253 L 721.5 255 L 721.5 257 L 721.5 258.78291754873715 L 720.5 261.78291754873715 L 720.5 265 L 720.5 269 L 720.5 273 L 720.5 276 L 720.5 276.22949016875157 L 719.5 278.22949016875157 L 719.5 282 L 719.5 284 L 719.5 286 L 719.5 289 L 719.5 291 L 719.5 293 L 719.5 293.78291754873715 L 718.5 296.78291754873715 L 718.5 300 L 718.5 300.22949016875157 L 717.5 302.22949016875157 L 717.5 307 L 717.5 310 L 717.5 312 L 717.5 314 L 717.5 318 L 717.5 321 L 717.5 324 L 717.5 326 L 717.5 328 L 717.5 328.22949016875157 L 716.5 330.22949016875157 L 716.5 334 L 716.5 335.22949016875157 L 715.5 337.22949016875157 L 715.5 339.22949016875157 L 715.2917960675006 339.6458980337503 L 713.5 343.22949016875157 L 713.5 345.22949016875157 L 712.5 347.22949016875157 L 712.5 349.22949016875157 L 711.5 351.22949016875157 L 711.5 351.8933982822018 L 709.5 353.8933982822018 L 709.5 357.78291754873715 L 708.5 360.78291754873715 L 708.5 362.22949016875157 L 707.5 364.22949016875157 L 707.5 364.8933982822018 L 705.5 366.8933982822018 L 705.5 370.78291754873715 L 705.0534273799856 372.1226354087804 L 704.2917960675006 373.6458980337503 L 703.2917960675006 375.6458980337503 L 702.2917960675006 377.6458980337503 L 701.2917960675006 379.6458980337503 L 699.5 383.22949016875157 L 699.5 385.22949016875157 L 699.2917960675006 385.6458980337503 L 698.8360918865498 386.557306395652 L 697.1715688696165 388.2218294125853 L 694.5006149034831 392.22826036178543 L 693.2917960675006 394.6458980337503 L 692.8360918865498 395.557306395652 L 690.8360918865498 397.557306395652 L 690.4098300562505 398.40983005625054 L 688.4098300562505 399.40983005625054 L 686.8360918865498 402.557306395652 L 686.2218294125853 403.1715688696165 L 684.2282603617854 404.5006149034831 L 682.6458980337503 405.2917960675006 L 679.557306395652 406.8360918865498 L 677.557306395652 408.8360918865498 L 678.2294901687516 408.5 L 676.2294901687516 408.5 L 672.6458980337503 410.2917960675006 L 671.1226354087804 411.0534273799856 L 668.1226354087804 412.0534273799856 L 665.6458980337503 413.2917960675006 L 663.2282603617854 414.5006149034831 L 660.2282603617854 416.5006149034831 L 657.557306395652 417.8360918865498 L 655.9486386489341 419.44475963326767 L 653.4736659610103 420.2697505292423 L 649.7116460960663 423.0912654279503 L 646.901546771346 423.7937902591304 L 643.901546771346 424.7937902591304 L 639.3822725296357 425.923608819558 L 637.3822725296357 426.923608819558 L 635.0767078078676 427.5 L 630.2294901687516 427.5 L 628.2294901687516 428.5 L 624.2294901687516 428.5 L 622.2294901687516 429.5 L 619.7829175487371 429.5 L 616.7829175487371 430.5 L 616 430.5 L 613 430.5 L 610 430.5 L 605 430.5 L 603 430.5 L 600.9232921921324 430.5 L 596.9232921921324 429.5 L 594 429.5 L 592.2170824512629 429.5 L 590.098453228654 428.7937902591304 L 584.9232921921324 427.5 L 582.7705098312484 427.5 L 578.7705098312484 425.5 L 576.2170824512629 425.5 L 574.3717082451262 424.88487526462114 L 572.3245521147171 424.2024898878181 L 569.3245521147171 422.2024898878181 L 565.3717082451262 420.88487526462114 L 562.8773645912196 420.0534273799856 L 562.442693604348 419.8360918865498 L 560.442693604348 417.8360918865498 L 557.9589803375031 416.59423525312735 L 552.5 412.5 L 551.1066017177982 412.5 L 550.442693604348 411.8360918865498 L 549.5901699437495 411.40983005625054 L 548.5901699437495 409.40983005625054 L 545.442693604348 407.8360918865498 L 542.442693604348 404.8360918865498 L 540.442693604348 403.8360918865498 L 538.7781705874147 402.1715688696165 L 535.7781705874147 400.1715688696165 L 533.7781705874147 398.1715688696165 L 530.7781705874147 396.1715688696165 L 528.3033008588991 393.6966991411009 L 525.442693604348 390.8360918865498 L 524.5901699437495 390.40983005625054 L 524.7082039324994 390.6458980337503 L 523.1639081134502 387.557306395652 L 521.1639081134502 385.557306395652 L 520.7082039324994 384.6458980337503 L 519.7082039324994 382.6458980337503 L 519.076391180442 381.3822725296356 L 518.2062097408696 377.901546771346 L 517.5 375.78291754873715 L 517.5 373.22949016875157 L 515.076391180442 368.3822725296356 L 514.5 366.07670780786754 L 514.5 363.22949016875157 L 513.5 361.22949016875157 L 513.5 359.78291754873715 L 512.5 356.78291754873715 L 512.5 356 L 512.5 352 L 512.5 350 L 512.5 348 L 512.5 346 L 512.5 344 L 512.5 342 L 512.5 340 L 512.5 337 L 512.5 335.21708245126285 L 513.5 332.21708245126285 L 513.5 329 L 513.5 327 L 513.5 325 L 513.5 323 " stroke="#4a5568" stroke-width="2" fill="none" stroke-linecap="butt" stroke-linejoin="round" />
    <path d="M 657.6966991411009 78.3033008588991 L 656.557306395652 77.1639081134502 L 654.557306395652 76.1639081134502 L 651.6966991411009 73.3033008588991 L 650.557306395652 72.1639081134502 L 648.557306395652 71.1639081134502 L 646.557306395652 69.1639081134502 L 645.6458980337503 68.70820393249937 L 642.557306395652 67.1639081134502 L 638.8360918865498 63.442693604348 L 637.8360918865498 61.442693604348 L 636.6966991411009 60.30330085889911 L 632.8360918865498 56.442693604348 L 632.4098300562505 55.59016994374947 L 632.6458980337503 55.70820393249937 L 630.6458980337503 54.70820393249937 L 630.2294901687516 54.5 L 627.2294901687516 54.5 L 625.2294901687516 53.5 L 625 53.5 L 623 53.5 L 621 53.5 L 615.8933982822018 53.5 L 613.8933982822018 51.5 L 615 51.5 L 613 51.5 L 611 51.5 L 609 51.5 L 607 51.5 L 605 51.5 L 603 51.5 L 601 51.5 L 599 51.5 L 597 51.5 L 595 51.5 L 593 51.5 L 591 51.5 L 589 51.5 L 587 51.5 L 586.7705098312484 51.5 L 584.7705098312484 52.5 L 581 52.5 L 579 52.5 L 577 52.5 L 574 52.5 L 572 52.5 L 570 52.5 L 568 52.5 L 567.7705098312484 52.5 L 565.7705098312484 53.5 L 563.7705098312484 53.5 L 563.3541019662497 53.70820393249937 L 561.3541019662497 54.70820393249937 L 559.3541019662497 55.70820393249937 L 555.7705098312484 57.5 L 553.7705098312484 57.5 L 553.3541019662497 57.70820393249937 L 551.3541019662497 58.70820393249937 L 549.3541019662497 59.70820393249937 L 546.8773645912196 60.94657262001442 L 543.8773645912196 61.94657262001442 L 541.8773645912196 62.94657262001442 L 538.8773645912196 63.94657262001442 L 537.3541019662497 64.70820393249937 L 536.442693604348 65.1639081134502 L 534.442693604348 67.1639081134502 L 531.3541019662497 68.70820393249937 L 531.5901699437495 68.59016994374947 L 531.1639081134502 69.44269360434801 L 529.1639081134502 71.44269360434801 L 528.7082039324994 72.35410196624969 L 526.5901699437495 76.59016994374947 L 524.5901699437495 77.59016994374947 L 524.7082039324994 77.35410196624969 L 523.7082039324994 79.35410196624969 L 522.7082039324994 81.35410196624969 L 521.1639081134502 84.44269360434801 L 520.5 85.10660171779821 L 520.5 84.92329219213245 L 518.7722301581114 91.8343715596868 L 517.5 93.10660171779821 L 517.5 94.21708245126284 L 516.2627819503415 97.92873660023828 L 515.2627819503415 102.92873660023828 L 514.2062097408696 106.09845322865402 L 513.076391180442 110.61772747036439 L 512.076391180442 112.61772747036439 L 511.2062097408696 116.09845322865402 L 510.5 118.21708245126284 L 510.5 121.77050983124842 L 508.5 125.77050983124842 L 508.5 126 L 508.5 131.27081728298995 L 506.5 134.27081728298995 L 506.5 135 L 506.5 137 L 506.5 139 L 506.5 141 L 506.5 143 L 506.5 145 L 506.5 148 L 506.5 152 L 506.5 154 L 506.5 156 L 506.5 158 L 506.5 159.22949016875157 L 507.5 161.22949016875157 L 507.5 165 L 507.5 166.22949016875157 L 507.7082039324994 166.6458980337503 L 508.4993850965169 168.22826036178543 L 511.5 172.72918271701005 L 511.5 175.22949016875157 L 511.4993850965169 175.22826036178543 L 512.8284311303835 177.2218294125853 L 514.3033008588991 178.6966991411009 L 517.1639081134502 181.557306395652 L 518.4993850965169 184.22826036178543 L 519.408326913196 185.591673086804 L 524.5 188.98612181134 L 524.5 190.36474508437578 L 523.442693604348 189.83609188654978 L 526.3033008588991 192.6966991411009 L 527.442693604348 193.83609188654978 L 529.442693604348 194.83609188654978 L 531.442693604348 196.83609188654978 L 532.3541019662497 197.29179606750063 L 534.3541019662497 198.29179606750063 L 535.8773645912196 199.05342737998558 L 538.8773645912196 200.05342737998558 L 539.7705098312484 200.5 L 541.2170824512629 200.5 L 545.8773645912196 202.05342737998558 L 550.3541019662497 204.29179606750063 L 551.8773645912196 205.05342737998558 L 553.2170824512629 205.5 L 555.7705098312484 205.5 L 557.7705098312484 206.5 L 559.7705098312484 206.5 L 561.7705098312484 207.5 L 562.9232921921324 207.5 L 566.9232921921324 208.5 L 569 208.5 L 571 208.5 L 574.7705098312484 208.5 L 576.7705098312484 209.5 L 579 209.5 L 581 209.5 L 583 209.5 L 585 209.5 L 589 209.5 L 591 209.5 L 593 209.5 L 595 209.5 L 597 209.5 L 600 209.5 L 602 209.5 L 605 209.5 L 608 209.5 L 610 209.5 L 612 209.5 L 613.2294901687516 209.5 L 615.2294901687516 208.5 L 615.8933982822018 208.5 L 616.9486386489341 207.4447596332677 L 621.1226354087804 206.05342737998558 L 622.6458980337503 205.29179606750063 L 628.2294901687516 202.5 L 630.2294901687516 202.5 L 629.557306395652 202.83609188654978 L 632.8933982822018 199.5 L 635.8933982822018 199.5 L 638.1656284403132 197.22776984188857 L 642.9206676624956 196.039010036343 L 645.6754478852829 194.20248988781807 L 649.1226354087804 193.05342737998558 L 650.6458980337503 192.29179606750063 L 653.1226354087804 191.05342737998558 L 654.9486386489341 190.4447596332677 L 656.2218294125853 189.1715688696165 L 660.6754478852829 186.20248988781807 L 664.1226354087804 185.05342737998558 L 664.557306395652 184.83609188654978 L 665.6966991411009 183.6966991411009 L 668.557306395652 180.83609188654978 L 669.4098300562505 180.4098300562505 L 670.1825262680586 178.86443763263426 L 673.1825262680586 176.86443763263426 L 673.8360918865498 175.557306395652 L 676.6966991411009 172.6966991411009 L 678.1715688696165 171.2218294125853 L 680.1715688696165 168.2218294125853 L 683.557306395652 164.83609188654978 L 686.6458980337503 163.29179606750063 L 686.4098300562505 163.4098300562505 L 686.2917960675006 163.6458980337503 L 687.2917960675006 161.6458980337503 L 687.923608819558 160.3822725296356 L 688.923608819558 156.3822725296356 L 689.5 155.22949016875157 L 689.5 153.22949016875157 L 690.5 151.22949016875157 L 690.5 149.22949016875157 L 691.5 147.22949016875157 L 691.5 147 L 691.5 145 L 691.5 141 L 691.5 139 L 691.5 137 L 691.5 133.22949016875157 L 692.5 131.22949016875157 L 692.5 131 L 692.5 129 L 692.5 127 L 692.5 123 L 692.5 120 L 692.5 118 L 692.5 116 L 692.5 114 L 692.5 112 L 692.5 110 L 692.5 109.77050983124842 L 691.5 107.77050983124842 L 691.5 104 L 691.5 102 L 691.5 100 L 691.5 98 L 691.5 96 L 691.5 94 L 691.5 92 L 691.5 90 L 691.5 88 L 691.5 86 L 691.5 84 L 691.5 79.22949016875158 L 692.5 77.22949016875158 L 692.5 77 L 692.5 75 L 692.5 72 L 692.5 70 L 692.5 68 L 692.5 66 L 692.5 64 L 692.5 62 L 692.5 60 L 692.5 58 L 692.5 56 L 692.5 52.78291754873715 L 694.0534273799856 48.122635408780425 L 695.2917960675006 45.64589803375031 L 696.2917960675006 43.64589803375031 L 698.4098300562505 39.40983005625053 L 702.6458980337503 37.29179606750063 L 704.6458980337503 36.29179606750063 L 708.2294901687516 34.5 L 712 34.5 L 714 34.5 L 716 34.5 L 718 34.5 L 721 34.5 L 727.6352549156242 34.5 L 729.5901699437495 38.40983005625053 L 733.5 40.36474508437579 L 733.5 47 L 733.5 49 L 733.5 51 L 733.5 53 L 733.5 55 L 733.5 57 L 733.5 59 L 733.5 61 L 733.5 63 L 733.5 65 L 733.5 65.22949016875158 L 734.5 67.22949016875158 L 734.5 67.89339828220179 L 736.5 69.89339828220179 L 736.5 73.22949016875158 L 737.5 75.22949016875158 L 737.5 79 L 737.5 81 L 737.5 83 L 737.5 85 L 737.5 87 L 737.5 89 L 737.5 89.22949016875158 L 738.5 91.22949016875158 L 738.5 93.22949016875158 L 739.5 95.22949016875158 L 739.5 97.22949016875158 L 739.7082039324994 97.64589803375031 L 741.5 101.22949016875158 L 741.5 106 L 741.5 106.22949016875158 L 742.5 108.22949016875158 L 742.5 112 L 742.5 114 L 742.5 116 L 742.5 118 L 742.5 120 L 742.5 122 L 742.5 125.77050983124842 L 741.5 127.77050983124842 L 741.5 128 L 741.5 133.1066017177982 L 739.5 135.1066017177982 L 739.5 134 L 739.5 136 L 739.5 138 L 739.5 140 L 739.5 142 L 739.5 144 L 739.5 146 L 739.5 148 L 739.5 150 L 739.5 153 L 739.5 155 L 739.5 157 L 739.5 159 L 739.5 161 L 739.5 163 L 739.5 165 L 739.5 168 L 739.5 170 L 739.5 172 L 739.5 174 L 739.5 176 L 739.5 178 L 739.5 180 L 739.5 182 L 739.5 184 L 739.5 188.21708245126285 L 738.5 191.21708245126285 L 738.5 193.92329219213246 L 737.076391180442 199.6177274703644 L 736.5 200.77050983124843 L 736.5 201 L 736.5 205 L 736.5 207 L 736.5 209 L 736.5 212 L 736.5 214 L 736.5 216 L 736.5 218 L 736.5 220 L 736.5 222 L 736.5 224 L 736.5 227 L 736.5 229 L 736.5 232 L 736.5 235 L 736.5 238 L 736.5 241 L 736.5 245 L 736.5 247 L 736.5 249 L 736.5 251 L 736.5 253 L 736.5 255 L 736.5 257 L 736.5 261.21708245126285 L 735.5 264.21708245126285 L 735.5 265 L 735.5 269 L 735.5 273 L 735.5 276 L 735.5 279.77050983124843 L 734.5 281.77050983124843 L 734.5 282 L 734.5 284 L 734.5 286 L 734.5 289 L 734.5 291 L 734.5 293 L 734.5 296.21708245126285 L 733.5 299.21708245126285 L 733.5 300 L 733.5 303.77050983124843 L 732.5 305.77050983124843 L 732.5 307 L 732.5 310 L 732.5 312 L 732.5 314 L 732.5 318 L 732.5 321 L 732.5 324 L 732.5 326 L 732.5 328 L 732.5 331.77050983124843 L 731.5 333.77050983124843 L 731.5 334 L 731.5 338.77050983124843 L 730.5 340.77050983124843 L 730.5 342.77050983124843 L 728.7082039324994 346.3541019662497 L 728.5 346.77050983124843 L 728.5 348.77050983124843 L 727.5 350.77050983124843 L 727.5 352.77050983124843 L 726.5 354.77050983124843 L 726.5 358.1066017177982 L 724.5 360.1066017177982 L 724.5 360.21708245126285 L 723.5 363.21708245126285 L 723.5 365.77050983124843 L 722.5 367.77050983124843 L 722.5 371.1066017177982 L 720.5 373.1066017177982 L 720.5 373.21708245126285 L 718.9465726200144 377.8773645912196 L 717.7082039324994 380.3541019662497 L 716.7082039324994 382.3541019662497 L 715.7082039324994 384.3541019662497 L 714.7082039324994 386.3541019662497 L 714.5 386.77050983124843 L 714.5 388.77050983124843 L 712.7082039324994 392.3541019662497 L 711.1639081134502 395.442693604348 L 708.8284311303835 397.7781705874147 L 707.4993850965169 399.77173963821457 L 706.7082039324994 401.3541019662497 L 705.1639081134502 404.442693604348 L 703.1639081134502 406.442693604348 L 701.5901699437495 409.59016994374946 L 699.5901699437495 410.59016994374946 L 699.1639081134502 411.442693604348 L 695.7781705874147 414.8284311303835 L 691.7717396382146 417.4993850965169 L 689.3541019662497 418.7082039324994 L 688.442693604348 419.1639081134502 L 686.442693604348 421.1639081134502 L 681.7705098312484 423.5 L 679.7705098312484 423.5 L 679.3541019662497 423.7082039324994 L 676.8773645912196 424.9465726200144 L 673.8773645912196 425.9465726200144 L 672.3541019662497 426.7082039324994 L 670.7717396382146 427.4993850965169 L 667.7717396382146 429.4993850965169 L 666.442693604348 430.1639081134502 L 664.0513613510659 432.55524036673233 L 660.5263340389897 433.7302494707577 L 656.2883539039337 436.9087345720497 L 651.098453228654 438.2062097408696 L 648.098453228654 439.2062097408696 L 644.6177274703643 440.076391180442 L 642.6177274703643 441.076391180442 L 636.9232921921324 442.5 L 633.7705098312484 442.5 L 631.7705098312484 443.5 L 627.7705098312484 443.5 L 625.7705098312484 444.5 L 622.2170824512629 444.5 L 619.2170824512629 445.5 L 616 445.5 L 613 445.5 L 610 445.5 L 605 445.5 L 603 445.5 L 599.0767078078676 445.5 L 595.0767078078676 444.5 L 594 444.5 L 589.7829175487371 444.5 L 585.901546771346 443.2062097408696 L 583.0767078078676 442.5 L 579.2294901687516 442.5 L 575.2294901687516 440.5 L 573.7829175487371 440.5 L 569.6282917548738 439.11512473537886 L 565.6754478852829 437.7975101121819 L 562.6754478852829 435.7975101121819 L 560.6282917548738 435.11512473537886 L 557.1226354087804 433.9465726200144 L 553.557306395652 432.1639081134502 L 551.557306395652 430.1639081134502 L 550.0410196624969 429.40576474687265 L 547.5 427.5 L 544.8933982822018 427.5 L 541.557306395652 424.1639081134502 L 538.4098300562505 422.59016994374946 L 537.4098300562505 420.59016994374946 L 536.557306395652 420.1639081134502 L 533.557306395652 417.1639081134502 L 531.557306395652 416.1639081134502 L 529.2218294125853 413.8284311303835 L 526.2218294125853 411.8284311303835 L 524.2218294125853 409.8284311303835 L 521.2218294125853 407.8284311303835 L 517.6966991411009 404.3033008588991 L 516.557306395652 403.1639081134502 L 513.4098300562505 401.59016994374946 L 511.2917960675006 397.3541019662497 L 510.8360918865498 396.442693604348 L 508.8360918865498 394.442693604348 L 507.2917960675006 391.3541019662497 L 506.2917960675006 389.3541019662497 L 504.923608819558 386.6177274703644 L 503.7937902591304 382.098453228654 L 502.5 378.21708245126285 L 502.5 376.77050983124843 L 500.923608819558 373.6177274703644 L 499.5 367.92329219213246 L 499.5 366.77050983124843 L 498.5 364.77050983124843 L 498.5 362.21708245126285 L 497.5 359.21708245126285 L 497.5 356 L 497.5 352 L 497.5 350 L 497.5 348 L 497.5 346 L 497.5 344 L 497.5 342 L 497.5 340 L 497.5 337 L 497.5 332.78291754873715 L 498.5 329.78291754873715 L 498.5 329 L 498.5 327 L 498.5 325 L 498.5 323 " stroke="#4a5568" stroke-width="2" fill="none" stroke-linecap="butt" stroke-linejoin="round" />
  </g>
</svg>