<svg xmlns="http://www.w3.org/2000/svg" width="1334" height="864" viewBox="0 0 1334 864">
  <g fill="none">
    <path d="M 523.75 15 L 546.25 15 M 521.8316809530802 37.301371248160855 L 543.7831085205873 42.23947085716873 M 516.8952661015782 62.327568921596395 L 539.1047338984218 65.93166938925316 M 512.801199508429 87.26084227250418 L 535.198800491571 89.40501348767269 M 510.7877087740385 112.05341441353656 L 533.2122912259615 113.89409414040543 M 506.7251826747679 135.0259207985073 L 528.7097836011988 139.8141691322483 M 500.5806389252941 159.76214348450185 L 522.7734667252965 163.46732826254475 M 498.7944610491021 185.44947683006933 L 521.2055389508979 187.44787300691695 M 496.75 211.24280676257726 L 519.25 211.24280676257726 M 496.75 236.24280676257726 L 519.25 236.24280676257726 M 498.7663350968383 261.6950068185568 L 521.2336649031616 260.48294602227037 M 498.75 286.0889764204136 L 521.25 286.0889764204136 M 498.75 311.0889764204136 L 521.25 311.0889764204136 M 498.7645530895716 335.516933832012 L 521.2354469104284 336.6610190088152 M 497.75 361.02671867211507 L 520.25 361.02671867211507 M 497.75 386.02671867211507 L 520.25 386.02671867211507 M 501.46352131097444 414.586197986338 L 522.2611333654902 406.000784028359 M 514.5116525823115 436.17906991149573 L 534.6362643798096 426.11676401274667 M 538.7688066286044 456.4071283302428 L 547.3137887626658 435.5928716697572 M 564.3310111652196 462.99802907743623 L 569.0663491307158 441.00197092256377 M 588.5721112876416 469.5627877389119 L 592.1762117552984 447.3533199420682 M 615.2862157667676 470.25 L 615.2862157667676 447.75 M 642.632372088068 466.5227135397041 L 636.6656071795253 444.82829682649924 M 666.836848470383 458.9098388489688 L 659.236621049652 437.73233797768626 M 690.8494191534512 448.59507691506593 L 679.5560657441035 429.1345998198976 " stroke="#8B4513" stroke-width="7" fill="none" stroke-linecap="butt" />
    <path d="M 527.5 15 L 527.5 17.37928102276335 L 526.5 23.37928102276335 L 526.5 30 L 526.5 34.07670780786754 L 525.72393124891 37.180982812227505 L 524.5 42.07670780786754 L 524.5 46.94958791519806 L 522.7051771552374 53.23146787186725 L 521.7372180496585 58.07126339976172 L 520.5 61.78291754873715 L 520.5 65.78291754873716 L 519.5 68.78291754873716 L 519.5 72.22949016875158 L 518.0534273799856 75.12263540878043 L 516.5 79.78291754873716 L 516.5 86 L 516.5 88.07670780786755 L 515.923608819558 90.38227252963561 L 514.5 93.22949016875158 L 514.5 98 L 514.5 104 L 514.5 108 L 514.5 113.25735364805412 L 513.5 118.25735364805412 L 513.5 122.25735364805412 L 512.6806458401866 126.35412444712128 L 511.5 131.07670780786754 L 511.5 132.63999063670616 L 508.72178711581716 140.04855832786043 L 507.67187724302613 146.34801756460664 L 505.7051771552374 153.23146787186727 L 504.6456449323181 158.52912898646363 L 503.5 164.2573536480541 L 503.5 168.2573536480541 L 502.5 173.2573536480541 L 502.5 178 L 502.5 181 L 502.5 185 L 502.5 186.07670780786754 L 501.5 190.07670780786754 L 501.5 193 L 501.5 196.37928102276337 L 500.5 202.37928102276337 L 500.5 205 L 500.5 208 L 500.5 210 L 500.5 212 L 500.5 216 L 500.5 221 L 500.5 223 L 500.5 226 L 500.5 229 L 500.5 234 L 500.5 238 L 500.5 242.53300858899107 L 501.5 249.53300858899107 L 501.5 253.62071897723663 L 502.5 259.62071897723666 L 502.5 265 L 502.5 270 L 502.5 278 L 502.5 280 L 502.5 283 L 502.5 287 L 502.5 292 L 502.5 298 L 502.5 303 L 502.5 305 L 502.5 307 L 502.5 309 L 502.5 312 L 502.5 315 L 502.5 319 L 502.5 323 L 502.5 326 L 502.5 329 L 502.5 332 L 502.5 336.53306688776087 L 501.5 344.53306688776087 L 501.5 349 L 501.5 355 L 501.5 357 L 501.5 362 L 501.5 364 L 501.5 367 L 501.5 372 L 501.5 375 L 501.5 377 L 501.5 381 L 501.5 384 L 501.5 388 L 501.5 390 L 501.5 394 L 501.5 401 L 501.5 404.77050983124843 L 503.2917960675006 408.3541019662497 L 503.5 408.77050983124843 L 503.5 411.27081728299 L 506.5006149034831 415.77173963821457 L 507.2917960675006 417.3541019662497 L 508.8360918865498 420.442693604348 L 510.8360918865498 422.442693604348 L 510.5 421.77050983124843 L 510.5 425.1066017177982 L 513.8360918865498 428.442693604348 L 514.8360918865498 430.442693604348 L 516.8360918865498 432.442693604348 L 517.2917960675006 433.3541019662497 L 518.2917960675006 435.3541019662497 L 519.8360918865498 438.442693604348 L 521.8360918865498 440.442693604348 L 523.4098300562505 443.59016994374946 L 526.557306395652 445.1639081134502 L 529.557306395652 448.1639081134502 L 533.1226354087804 449.9465726200144 L 537.7829175487371 451.5 L 537.8933982822018 451.5 L 539.8933982822018 453.5 L 543.2294901687516 453.5 L 543.6458980337503 453.7082039324994 L 545.6458980337503 454.7082039324994 L 549.2294901687516 456.5 L 553 456.5 L 553.7829175487371 456.5 L 556.7829175487371 457.5 L 558.2294901687516 457.5 L 562.2294901687516 459.5 L 566.4605672353402 459.5 L 573.4605672353402 462.5 L 576.7829175487371 462.5 L 578.1226354087804 462.9465726200144 L 581.2294901687516 464.5 L 583.2294901687516 464.5 L 585.2294901687516 465.5 L 587.7829175487371 465.5 L 590.7829175487371 466.5 L 595 466.5 L 598 466.5 L 600 466.5 L 603 466.5 L 606 466.5 L 609 466.5 L 614 466.5 L 619 466.5 L 622 466.5 L 625 466.5 L 628.7705098312484 466.5 L 631.8773645912196 464.9465726200144 L 633.2170824512629 464.5 L 635.2170824512629 464.5 L 638.2170824512629 463.5 L 640.7705098312484 463.5 L 646.3541019662497 460.7082039324994 L 648.3541019662497 459.7082039324994 L 650.3541019662497 458.7082039324994 L 650.7705098312484 458.5 L 652.2170824512629 458.5 L 655.2170824512629 457.5 L 656 457.5 L 660.7705098312484 457.5 L 663.8773645912196 455.9465726200144 L 666.3717082451262 455.11512473537886 L 669.8773645912196 453.9465726200144 L 673.8773645912196 451.9465726200144 L 675.2170824512629 451.5 L 677.7705098312484 451.5 L 683.5901699437495 448.59016994374946 L 684.5901699437495 446.59016994374946 L 682.7705098312484 447.5 L 684.7705098312484 447.5 L 688.7717396382146 445.4993850965169 L 691.7717396382146 443.4993850965169 L 693.3541019662497 442.7082039324994 L 695.3541019662497 441.7082039324994 L 697.3541019662497 440.7082039324994 L 699.3541019662497 439.7082039324994 " stroke="#4a5568" stroke-width="2" fill="none" stroke-linecap="butt" stroke-linejoin="round" />
    <path d="M 542.5 15 L 542.5 18.62071897723665 L 541.5 24.62071897723665 L 541.5 30 L 541.5 35.92329219213246 L 540.27606875109 40.819017187772495 L 539.5 43.92329219213246 L 539.5 49.05041208480194 L 537.2948228447626 56.76853212813275 L 536.2627819503415 61.92873660023828 L 535.5 64.21708245126284 L 535.5 68.21708245126284 L 534.5 71.21708245126284 L 534.5 75.77050983124842 L 531.9465726200144 80.87736459121957 L 531.5 82.21708245126284 L 531.5 86 L 531.5 89.92329219213245 L 530.076391180442 95.61772747036439 L 529.5 96.77050983124842 L 529.5 98 L 529.5 104 L 529.5 108 L 529.5 114.74264635194588 L 528.5 119.74264635194588 L 528.5 123.74264635194588 L 527.3193541598134 129.64587555287872 L 526.5 132.92329219213246 L 526.5 135.36000936329384 L 523.2782128841828 143.95144167213957 L 522.3281227569739 149.65198243539336 L 520.2948228447626 156.76853212813273 L 519.3543550676819 161.47087101353637 L 518.5 165.7426463519459 L 518.5 169.7426463519459 L 517.5 174.7426463519459 L 517.5 178 L 517.5 181 L 517.5 185 L 517.5 187.92329219213246 L 516.5 191.92329219213246 L 516.5 193 L 516.5 197.62071897723663 L 515.5 203.62071897723663 L 515.5 205 L 515.5 208 L 515.5 210 L 515.5 212 L 515.5 216 L 515.5 221 L 515.5 223 L 515.5 226 L 515.5 229 L 515.5 234 L 515.5 238 L 515.5 241.46699141100893 L 516.5 248.46699141100893 L 516.5 252.37928102276337 L 517.5 258.37928102276334 L 517.5 265 L 517.5 270 L 517.5 278 L 517.5 280 L 517.5 283 L 517.5 287 L 517.5 292 L 517.5 298 L 517.5 303 L 517.5 305 L 517.5 307 L 517.5 309 L 517.5 312 L 517.5 315 L 517.5 319 L 517.5 323 L 517.5 326 L 517.5 329 L 517.5 332 L 517.5 337.46693311223913 L 516.5 345.46693311223913 L 516.5 349 L 516.5 355 L 516.5 357 L 516.5 362 L 516.5 364 L 516.5 367 L 516.5 372 L 516.5 375 L 516.5 377 L 516.5 381 L 516.5 384 L 516.5 388 L 516.5 390 L 516.5 394 L 516.5 401 L 516.5 401.22949016875157 L 516.7082039324994 401.6458980337503 L 518.5 405.22949016875157 L 518.5 406.72918271701 L 519.4993850965169 408.22826036178543 L 520.7082039324994 410.6458980337503 L 521.1639081134502 411.557306395652 L 523.1639081134502 413.557306395652 L 525.5 418.22949016875157 L 525.5 418.8933982822018 L 526.1639081134502 419.557306395652 L 527.1639081134502 421.557306395652 L 529.1639081134502 423.557306395652 L 530.7082039324994 426.6458980337503 L 531.7082039324994 428.6458980337503 L 532.1639081134502 429.557306395652 L 534.1639081134502 431.557306395652 L 534.5901699437495 432.40983005625054 L 535.442693604348 432.8360918865498 L 538.442693604348 435.8360918865498 L 538.8773645912196 436.0534273799856 L 540.2170824512629 436.5 L 544.1066017177982 436.5 L 546.1066017177982 438.5 L 546.7705098312484 438.5 L 550.3541019662497 440.2917960675006 L 552.3541019662497 441.2917960675006 L 552.7705098312484 441.5 L 553 441.5 L 556.2170824512629 441.5 L 559.2170824512629 442.5 L 561.7705098312484 442.5 L 565.7705098312484 444.5 L 569.5394327646598 444.5 L 576.5394327646598 447.5 L 579.2170824512629 447.5 L 583.8773645912196 449.0534273799856 L 584.7705098312484 449.5 L 586.7705098312484 449.5 L 588.7705098312484 450.5 L 590.2170824512629 450.5 L 593.2170824512629 451.5 L 595 451.5 L 598 451.5 L 600 451.5 L 603 451.5 L 606 451.5 L 609 451.5 L 614 451.5 L 619 451.5 L 622 451.5 L 625 451.5 L 625.2294901687516 451.5 L 626.1226354087804 451.0534273799856 L 630.7829175487371 449.5 L 632.7829175487371 449.5 L 635.7829175487371 448.5 L 637.2294901687516 448.5 L 639.6458980337503 447.2917960675006 L 641.6458980337503 446.2917960675006 L 643.6458980337503 445.2917960675006 L 647.2294901687516 443.5 L 649.7829175487371 443.5 L 652.7829175487371 442.5 L 656 442.5 L 657.2294901687516 442.5 L 658.1226354087804 442.0534273799856 L 661.6282917548738 440.88487526462114 L 664.1226354087804 440.0534273799856 L 668.1226354087804 438.0534273799856 L 672.7829175487371 436.5 L 674.2294901687516 436.5 L 672.4098300562505 437.40983005625054 L 673.4098300562505 435.40983005625054 L 679.2294901687516 432.5 L 681.2294901687516 432.5 L 681.2282603617854 432.5006149034831 L 684.2282603617854 430.5006149034831 L 686.6458980337503 429.2917960675006 L 688.6458980337503 428.2917960675006 L 690.6458980337503 427.2917960675006 L 692.6458980337503 426.2917960675006 " stroke="#4a5568" stroke-width="2" fill="none" stroke-linecap="butt" stroke-linejoin="round" />
  </g>
</svg>