<svg xmlns="http://www.w3.org/2000/svg" width="1334" height="864" viewBox="0 0 1334 864">
  <g fill="none">
    <path d="M 553 242.25 L 553 219.75 M 575.8196601125011 248.25 L 575.8196601125011 225.75 M 602.2387937523304 246.12012239367402 L 598.8297599010996 223.87987760632598 M 629.9452684379287 238.0584744894944 L 618.1864364852465 218.875673048918 M 650.0292929025816 217.67517238311086 L 631.7763437361314 204.51919097817614 M 662.2497822313047 188.81497334419112 L 639.7502177686953 188.9549697472794 M 651.3751705426893 159.6707052569968 L 633.122221376239 172.82668666193152 M 621.5744422548016 143.75477134907305 L 620.9192092019973 166.24522865092695 M 597.1173073210672 139.75 L 597.1173073210672 162.25 M 569.1893328815577 141.752407561633 L 575.5464091304082 163.3356784343784 M 544.7694352940966 154.96798467626704 L 556.9466110307337 173.88798444051267 M 523.1961825063112 170.96948181432143 L 539.1060850830085 186.87938439101876 M 512.9330522638353 196.9785944767862 L 533.118392092826 206.91851680989146 M 510.75 226.70641548322368 L 533.25 226.70641548322368 M 516.0491480001225 255.46984256384752 L 536.3951637558883 245.8630927041848 M 527.7136577961832 278.48080956051103 L 546.8500367318212 266.6465794954977 M 542.7124664374046 299.54758721363476 L 560.0883500124467 285.2532292362165 M 567.4752623344049 315.3108537904524 L 576.9860936507629 294.91982420213145 M 596.1802186057018 320.25 L 596.1802186057018 297.75 M 621.1802186057018 320.25 L 621.1802186057018 297.75 M 648.3236215414214 318.0796005388802 L 643.1541808291057 296.18149827585626 M 674.04807852249 306.81916404660643 L 661.9600361141049 287.8420928623303 M 695.758293210023 284.56189155052 L 674.9073542318896 276.1068135656547 " stroke="#8B4513" stroke-width="7" fill="none" stroke-linecap="butt" />
    <path d="M 553 238.5 L 553.2294901687516 238.5 L 553.6458980337503 238.70820393249937 L 555.6458980337503 239.70820393249937 L 555.4098300562505 239.5901699437495 L 557.3647450843758 243.5 L 564 243.5 L 564.2294901687516 243.5 L 566.2294901687516 244.5 L 570 244.5 L 573 244.5 L 575 244.5 L 578 244.5 L 580 244.5 L 582 244.5 L 585.2170824512629 244.5 L 588.2170824512629 243.5 L 589 243.5 L 591 243.5 L 594 243.5 L 596.9232921921324 243.5 L 600.9232921921324 242.5 L 603.7705098312484 242.5 L 605.7705098312484 241.5 L 606 241.5 L 609.7705098312484 241.5 L 611.7705098312484 240.5 L 613.2170824512629 240.5 L 617.8773645912196 238.94657262001442 L 618.7705098312484 238.5 L 620.7705098312484 238.5 L 624.3541019662497 236.70820393249937 L 626.3541019662497 235.70820393249937 L 629.442693604348 234.16390811345022 L 631.442693604348 232.16390811345022 L 634.1355623673658 230.81747373194133 L 636.1355623673658 227.81747373194133 L 636.3541019662497 227.70820393249937 L 640.5901699437495 225.5901699437495 L 642.7082039324994 221.3541019662497 L 643.1639081134502 220.442693604348 L 645.1639081134502 218.442693604348 L 646.1639081134502 216.442693604348 L 648.1639081134502 214.442693604348 L 649.1639081134502 212.442693604348 L 651.1639081134502 210.442693604348 L 652.7082039324994 207.3541019662497 L 653.9465726200144 204.8773645912196 L 654.9465726200144 201.8773645912196 L 655.9465726200144 199.8773645912196 L 656.9465726200144 196.8773645912196 L 658.5 193.77050983124843 L 658.5 189 L 658.5 184.78291754873715 L 657.5 181.78291754873715 L 657.5 178.22949016875157 L 655.7082039324994 174.6458980337503 L 654.9465726200144 173.1226354087804 L 653.797510112182 169.67544788528292 L 651.4993850965169 166.22826036178543 L 650.1639081134502 163.557306395652 L 647.1639081134502 160.557306395652 L 645.5901699437495 157.4098300562505 L 642.442693604348 155.83609188654978 L 640.442693604348 153.83609188654978 L 637.3541019662497 152.29179606750063 L 631.7705098312484 149.5 L 628.7705098312484 149.5 L 628.3541019662497 149.29179606750063 L 624.7705098312484 147.5 L 621 147.5 L 619.7705098312484 147.5 L 615.7705098312484 145.5 L 613.2170824512629 145.5 L 610.2170824512629 144.5 L 607 144.5 L 606.7705098312484 144.5 L 604.7705098312484 143.5 L 599 143.5 L 596 143.5 L 593 143.5 L 591 143.5 L 589 143.5 L 586 143.5 L 580.7829175487371 143.5 L 577.7829175487371 144.5 L 576 144.5 L 572.7829175487371 144.5 L 568.1226354087804 146.05342737998558 L 567.2294901687516 146.5 L 565.2294901687516 146.5 L 561.2282603617854 148.50061490348307 L 558.2282603617854 150.50061490348307 L 556.2282603617854 151.50061490348307 L 553.2282603617854 153.50061490348307 L 550.557306395652 154.83609188654978 L 548.2218294125853 157.1715688696165 L 546.2282603617854 158.50061490348307 L 543.557306395652 159.83609188654978 L 540.6966991411009 162.6966991411009 L 539.557306395652 163.83609188654978 L 538.6458980337503 164.29179606750063 L 536.6458980337503 165.29179606750063 L 533.557306395652 166.83609188654978 L 531.557306395652 168.83609188654978 L 528.4098300562505 170.4098300562505 L 527.4098300562505 172.4098300562505 L 525.4098300562505 173.4098300562505 L 523.2917960675006 177.6458980337503 L 522.2917960675006 179.6458980337503 L 521.2917960675006 181.6458980337503 L 519.5 185.22949016875157 L 519.5 187.22949016875157 L 519.2917960675006 187.6458980337503 L 518.2917960675006 189.6458980337503 L 516.5 193.22949016875157 L 516.5 198 L 516.5 198.22949016875157 L 516.2917960675006 198.6458980337503 L 514.5 202.22949016875157 L 514.5 206 L 514.5 208 L 514.5 210 L 514.5 212 L 514.5 214 L 514.5 216 L 514.5 218 L 514.5 220 L 514.5 222 L 514.5 225 L 514.5 227 L 514.5 229 L 514.5 232 L 514.5 236.77050983124843 L 515.5 238.77050983124843 L 515.5 240 L 515.5 243.21708245126285 L 516.5 246.21708245126285 L 516.5 249.27081728298995 L 519.202489887818 253.32455211471708 L 520.0534273799856 255.8773645912196 L 520.5 256.77050983124843 L 520.5 259.27081728299 L 523.202489887818 263.32455211471705 L 524.0534273799856 265.8773645912196 L 525.2917960675006 268.3541019662497 L 526.8360918865498 271.442693604348 L 529.1715688696165 273.7781705874147 L 530.5006149034831 275.77173963821457 L 531.8360918865498 278.442693604348 L 533.8360918865498 280.442693604348 L 534.8360918865498 282.442693604348 L 538.557306395652 286.1639081134502 L 539.4098300562505 286.59016994374946 L 539.0534273799856 285.8773645912196 L 540.4447596332677 290.0513613510659 L 542.8360918865498 292.442693604348 L 543.2917960675006 293.3541019662497 L 544.8360918865498 296.442693604348 L 548.557306395652 300.1639081134502 L 549.8644376326342 300.81747373194133 L 551.8644376326342 303.81747373194133 L 555.2282603617854 305.4993850965169 L 558.6754478852829 307.7975101121819 L 562.1226354087804 308.9465726200144 L 564.1226354087804 309.9465726200144 L 567.1226354087804 310.9465726200144 L 568.6458980337503 311.7082039324994 L 572.2294901687516 313.5 L 578 313.5 L 577.7291827170101 313.5 L 580.7291827170101 315.5 L 586 315.5 L 587.2294901687516 315.5 L 589.2294901687516 316.5 L 594 316.5 L 596 316.5 L 599 316.5 L 602 316.5 L 604 316.5 L 606 316.5 L 608 316.5 L 610 316.5 L 612 316.5 L 614 316.5 L 616 316.5 L 618 316.5 L 621 316.5 L 623 316.5 L 626 316.5 L 630 316.5 L 632 316.5 L 635 316.5 L 638.7705098312484 316.5 L 640.7705098312484 315.5 L 642 315.5 L 645.7705098312484 315.5 L 647.7705098312484 314.5 L 649.7705098312484 314.5 L 653.3541019662497 312.7082039324994 L 655.3541019662497 311.7082039324994 L 657.3541019662497 310.7082039324994 L 657.7705098312484 310.5 L 661.1066017177982 310.5 L 663.8343715596868 307.7722301581114 L 667.0793323375044 306.96098996365697 L 671.1602514716892 304.2403772075338 L 673.7717396382146 302.4993850965169 L 675.3541019662497 301.7082039324994 L 677.7717396382146 300.4993850965169 L 681.7781705874147 297.8284311303835 L 686.1639081134502 293.442693604348 L 687.7082039324994 290.3541019662497 L 688.1639081134502 289.442693604348 L 690.1639081134502 287.442693604348 L 691.7082039324994 284.3541019662497 L 693.5 280.77050983124843 L 693.5 278.77050983124843 L 694.5 276.77050983124843 L 694.5 277.6352549156242 L 695.1327310142555 277.3188894084965 L 697.5 270.21708245126285 L 697.5 267 L 697.5 265 L 697.5 263 " stroke="#4a5568" stroke-width="2" fill="none" stroke-linecap="butt" stroke-linejoin="round" />
    <path d="M 553 223.5 L 556.7705098312484 223.5 L 560.3541019662497 225.29179606750063 L 562.3541019662497 226.29179606750063 L 566.5901699437495 228.4098300562505 L 566.6352549156242 228.5 L 564 228.5 L 567.7705098312484 228.5 L 569.7705098312484 229.5 L 570 229.5 L 573 229.5 L 575 229.5 L 578 229.5 L 580 229.5 L 582 229.5 L 582.7829175487371 229.5 L 585.7829175487371 228.5 L 589 228.5 L 591 228.5 L 594 228.5 L 595.0767078078676 228.5 L 599.0767078078676 227.5 L 600.2294901687516 227.5 L 602.2294901687516 226.5 L 606 226.5 L 606.2294901687516 226.5 L 608.2294901687516 225.5 L 610.7829175487371 225.5 L 612.1226354087804 225.05342737998558 L 615.2294901687516 223.5 L 617.2294901687516 223.5 L 617.6458980337503 223.29179606750063 L 619.6458980337503 222.29179606750063 L 620.557306395652 221.83609188654978 L 622.557306395652 219.83609188654978 L 623.8644376326342 219.18252626805867 L 625.8644376326342 216.18252626805867 L 629.6458980337503 214.29179606750063 L 629.4098300562505 214.4098300562505 L 629.2917960675006 214.6458980337503 L 630.8360918865498 211.557306395652 L 632.8360918865498 209.557306395652 L 633.8360918865498 207.557306395652 L 635.8360918865498 205.557306395652 L 636.8360918865498 203.557306395652 L 638.8360918865498 201.557306395652 L 639.2917960675006 200.6458980337503 L 640.0534273799856 199.1226354087804 L 641.0534273799856 196.1226354087804 L 642.0534273799856 194.1226354087804 L 643.0534273799856 191.1226354087804 L 643.5 190.22949016875157 L 643.5 189 L 643.5 187.21708245126285 L 642.5 184.21708245126285 L 642.5 181.77050983124843 L 642.2917960675006 181.3541019662497 L 641.0534273799856 178.8773645912196 L 640.202489887818 176.32455211471708 L 638.5006149034831 173.77173963821457 L 637.8360918865498 172.442693604348 L 634.8360918865498 169.442693604348 L 634.4098300562505 168.5901699437495 L 633.557306395652 168.16390811345022 L 631.557306395652 166.16390811345022 L 630.6458980337503 165.70820393249937 L 628.2294901687516 164.5 L 625.2294901687516 164.5 L 621.6458980337503 162.70820393249937 L 621.2294901687516 162.5 L 621 162.5 L 616.2294901687516 162.5 L 612.2294901687516 160.5 L 610.7829175487371 160.5 L 607.7829175487371 159.5 L 607 159.5 L 603.2294901687516 159.5 L 601.2294901687516 158.5 L 599 158.5 L 596 158.5 L 593 158.5 L 591 158.5 L 589 158.5 L 586 158.5 L 583.2170824512629 158.5 L 580.2170824512629 159.5 L 576 159.5 L 575.2170824512629 159.5 L 573.8773645912196 159.94657262001442 L 570.7705098312484 161.5 L 568.7705098312484 161.5 L 568.7717396382146 161.49938509651693 L 565.7717396382146 163.49938509651693 L 563.7717396382146 164.49938509651693 L 560.7717396382146 166.49938509651693 L 559.442693604348 167.16390811345022 L 557.7781705874147 168.8284311303835 L 553.7717396382146 171.49938509651693 L 552.442693604348 172.16390811345022 L 551.3033008588991 173.3033008588991 L 548.442693604348 176.16390811345022 L 545.3541019662497 177.70820393249937 L 543.3541019662497 178.70820393249937 L 542.442693604348 179.16390811345022 L 540.442693604348 181.16390811345022 L 539.5901699437495 181.5901699437495 L 538.5901699437495 183.5901699437495 L 536.5901699437495 184.5901699437495 L 536.7082039324994 184.3541019662497 L 535.7082039324994 186.3541019662497 L 534.7082039324994 188.3541019662497 L 534.5 188.77050983124843 L 534.5 190.77050983124843 L 532.7082039324994 194.3541019662497 L 531.7082039324994 196.3541019662497 L 531.5 196.77050983124843 L 531.5 198 L 531.5 201.77050983124843 L 529.7082039324994 205.3541019662497 L 529.5 205.77050983124843 L 529.5 206 L 529.5 208 L 529.5 210 L 529.5 212 L 529.5 214 L 529.5 216 L 529.5 218 L 529.5 220 L 529.5 222 L 529.5 225 L 529.5 227 L 529.5 229 L 529.5 232 L 529.5 233.22949016875157 L 530.5 235.22949016875157 L 530.5 240 L 530.5 240.78291754873715 L 531.5 243.78291754873715 L 531.5 244.72918271701005 L 532.797510112182 246.67544788528292 L 533.9465726200144 250.1226354087804 L 535.5 253.22949016875157 L 535.5 254.72918271701005 L 536.797510112182 256.67544788528295 L 537.9465726200144 260.1226354087804 L 538.7082039324994 261.6458980337503 L 539.1639081134502 262.557306395652 L 540.8284311303835 264.2218294125853 L 543.4993850965169 268.22826036178543 L 544.1639081134502 269.557306395652 L 546.1639081134502 271.557306395652 L 547.1639081134502 273.557306395652 L 547.442693604348 273.8360918865498 L 550.5901699437495 275.40983005625054 L 552.9465726200144 280.1226354087804 L 553.5552403667323 281.9486386489341 L 555.1639081134502 283.557306395652 L 556.7082039324994 286.6458980337503 L 557.1639081134502 287.557306395652 L 557.442693604348 287.8360918865498 L 560.1355623673658 289.18252626805867 L 562.1355623673658 292.18252626805867 L 562.7717396382146 292.5006149034831 L 565.3245521147171 294.2024898878181 L 567.8773645912196 295.0534273799856 L 569.8773645912196 296.0534273799856 L 572.8773645912196 297.0534273799856 L 575.3541019662497 298.2917960675006 L 575.7705098312484 298.5 L 578 298.5 L 582.2708172829899 298.5 L 585.2708172829899 300.5 L 586 300.5 L 590.7705098312484 300.5 L 592.7705098312484 301.5 L 594 301.5 L 596 301.5 L 599 301.5 L 602 301.5 L 604 301.5 L 606 301.5 L 608 301.5 L 610 301.5 L 612 301.5 L 614 301.5 L 616 301.5 L 618 301.5 L 621 301.5 L 623 301.5 L 626 301.5 L 630 301.5 L 632 301.5 L 635 301.5 L 635.2294901687516 301.5 L 637.2294901687516 300.5 L 642 300.5 L 642.2294901687516 300.5 L 644.2294901687516 299.5 L 646.2294901687516 299.5 L 646.6458980337503 299.2917960675006 L 648.6458980337503 298.2917960675006 L 650.6458980337503 297.2917960675006 L 654.2294901687516 295.5 L 654.8933982822018 295.5 L 656.1656284403132 294.2277698418886 L 660.9206676624956 293.03901003634303 L 662.8397485283108 291.7596227924662 L 666.2282603617854 289.5006149034831 L 668.6458980337503 288.2917960675006 L 670.2282603617854 287.5006149034831 L 672.2218294125853 286.1715688696165 L 673.8360918865498 284.557306395652 L 674.2917960675006 283.6458980337503 L 675.8360918865498 280.557306395652 L 677.8360918865498 278.557306395652 L 678.2917960675006 277.6458980337503 L 678.5 277.22949016875157 L 678.5 275.22949016875157 L 679.5 273.22949016875157 L 679.5 268.3647450843758 L 682.8672689857445 266.6811105915035 L 682.5 267.78291754873715 L 682.5 267 L 682.5 265 L 682.5 263 " stroke="#4a5568" stroke-width="2" fill="none" stroke-linecap="butt" stroke-linejoin="round" />
  </g>
</svg>