<svg xmlns="http://www.w3.org/2000/svg" width="1334" height="864" viewBox="0 0 1334 864">
  <g fill="none">
    <path d="M 588 78.75 L 588 101.25 M 565.8004021840754 77.65878978244682 L 560.6309614717597 99.55689204547075 M 538.3591736031175 76.75 L 538.3591736031175 99.25 M 512.4610348028951 78.29083347398023 L 514.6781312071447 100.6813333240118 M 483.9959435173967 88.17642942625764 L 498.0370417426655 105.75760005361786 M 461.94391806624486 101.39562644891639 L 478.04259139150025 117.11449145777475 M 444.29492824416684 115.88865977210105 L 458.38909983792587 133.4273121458063 M 425.152099044301 138.0575800307338 L 445.939388525805 146.66795725894832 M 414.741271466216 159.92699013778466 L 435.0078449117471 169.70021891730758 M 406.05094886848804 185.4079838107962 L 427.94905113151196 190.57742452311183 M 399.75 211.76304897116879 L 422.25 211.76304897116879 M 396.0754844557389 234.6606604097371 L 418.4069044811042 237.40978384289042 M 393.88682209017725 259.41530987198365 L 416.2182421155426 262.16443330513704 M 393.75 285.78340459117277 L 416.25 285.78340459117277 M 396.8458860113102 313.4782056002355 L 418.39294837784223 306.9994631780692 M 401.752828660516 334.44228551444985 L 424.247171339484 333.9377585665503 M 409.194422015372 359.9982470045391 L 430.9676974104047 354.32599184701434 M 420.4430935225687 382.68911515952504 L 441.8431890589068 375.74030871268826 M 443.01171211473235 407.0837147011083 L 453.11309073454476 386.97868672353025 M 467.65186636763343 417.75589829325656 L 473.628305683811 396.06414471960454 M 490.3291392688193 426.0707504809836 L 497.11197456983496 404.6174722867473 M 510.7089826833583 434.1190744406945 L 522.1625517211241 414.7524599637878 M 537.058982106343 440.61900104242267 L 543.80218304428 419.153231987702 M 564.4429986454323 443.22955213100164 L 565.7989616790245 420.77044786899836 M 592.667885091505 441.6792591052751 L 587.1922709929834 419.85570187360287 M 617.2144434393708 435.6387221857719 L 610.9116998035468 414.039522601966 M 642.7411072143435 424.4358917905194 L 630.6852924929509 405.43833059431705 M 663.0563105062887 411.5463525865082 L 652.5305640928462 391.66021011392434 M 685.6644706828026 401.00987034974474 L 675.1212182739707 381.13300367907306 M 708.5831018994585 385.3243828743151 L 692.3982578421534 369.694257384073 M 724.9004914174329 367.9829779922442 L 709.9337550724213 351.18277551790163 M 741.6634334948842 345.5102334868954 L 722.6704022495362 333.4472834284215 M 754.9596347390637 323.6375004973942 L 735.3492341770028 312.6065354536858 M 765.2083008504658 296.0959304938205 L 742.7916991495342 294.1604801116619 M 765.25 270.1282053027412 L 742.75 270.1282053027412 M 763.2238043869837 244.56679574965904 L 740.7761956130163 246.10135116765503 M 758.7526348238322 220.4959481843657 L 736.2961137766364 221.8940406193831 M 754.1657100126827 195.46036899484088 L 731.8342899873173 198.2094924279942 M 744.9017024673311 168.65162493940483 L 724.6011860613809 178.35415211801893 M 731.0265676023569 144.74450801807924 L 714.1689713754226 159.64656993748 M 713.5998794951006 125.73398839678232 L 698.9165701725187 142.782461270837 M 695.5598419171431 106.22475431694146 L 684.30676528908 125.70854928617005 M 678.8157467910668 93.6383669115624 L 662.6449484180622 109.28302350669532 M 653.7122507529269 77.61471406687258 L 648.5428100406112 99.51281632989651 M 626.7327532619358 74.75 L 626.7327532619358 97.25 " stroke="#8B4513" stroke-width="7" fill="none" stroke-linecap="butt" />
    <path d="M 588 82.5 L 585 82.5 L 582 82.5 L 580.9232921921324 82.5 L 576.9232921921324 81.5 L 574 81.5 L 571 81.5 L 568 81.5 L 566 81.5 L 565.7705098312484 81.5 L 563.7705098312484 80.5 L 560 80.5 L 558 80.5 L 556 80.5 L 554 80.5 L 552 80.5 L 550 80.5 L 547 80.5 L 543 80.5 L 540 80.5 L 537 80.5 L 535 80.5 L 532 80.5 L 530 80.5 L 526.7829175487371 80.5 L 523.7829175487371 81.5 L 522 81.5 L 519 81.5 L 515.2573536480542 81.5 L 510.2573536480541 82.5 L 509 82.5 L 504.22949016875157 82.5 L 500.22949016875157 84.5 L 498.22949016875157 84.5 L 494.6458980337503 86.29179606750063 L 492.6458980337503 87.29179606750063 L 492.22949016875157 87.5 L 487.3647450843758 87.5 L 485.83446469530554 90.5605607781405 L 484.3822725296356 90.92360881955798 L 481.22826036178543 92.50061490348307 L 476.18252626805867 95.86443763263425 L 475.6811105915035 96.86726898574454 L 474.67544788528295 97.20248988781807 L 471.22826036178543 99.50061490348307 L 469.04101966249686 100.59423525312737 L 463.08359213500125 105.06230589874906 L 462.40983005625054 106.40983005625053 L 461.557306395652 106.8360918865498 L 459.9486386489341 108.44475963326768 L 456.9486386489341 109.44475963326768 L 454.557306395652 111.8360918865498 L 451.40983005625054 113.40983005625053 L 449.8360918865498 116.55730639565199 L 449.557306395652 116.8360918865498 L 447.557306395652 117.8360918865498 L 444.6966991411009 120.6966991411009 L 443.557306395652 121.8360918865498 L 440.40983005625054 123.40983005625053 L 438.8360918865498 126.55730639565199 L 436.8360918865498 128.557306395652 L 437.3647450843758 127.5 L 435.3647450843758 127.5 L 432.8360918865498 132.557306395652 L 430.8360918865498 134.557306395652 L 429.0534273799856 138.1226354087804 L 428.0534273799856 141.1226354087804 L 427.2917960675006 142.6458980337503 L 425.0534273799856 147.1226354087804 L 424.2024898878181 149.67544788528292 L 422.2024898878181 152.67544788528292 L 421.2024898878181 155.67544788528292 L 419.32644925623555 158.4895088326567 L 417.15228360898806 163.92492295077545 L 416.2917960675006 165.6458980337503 L 415.2917960675006 167.6458980337503 L 413.5 171.22949016875157 L 413.5 173.22949016875157 L 413.2917960675006 173.6458980337503 L 411.5 177.22949016875157 L 411.5 179.22949016875157 L 411.2917960675006 179.6458980337503 L 409.5 183.22949016875157 L 409.5 186.22949016875157 L 409.0534273799856 187.1226354087804 L 408.0534273799856 190.1226354087804 L 406.5 193.22949016875157 L 406.5 196.22949016875157 L 405.5 198.22949016875157 L 405.5 201.07670780786754 L 404.923608819558 203.3822725296356 L 403.5 206.22949016875157 L 403.5 210 L 403.5 212 L 403.5 214 L 403.5 217 L 403.5 217.78291754873715 L 402.5 220.78291754873715 L 402.5 223.22949016875157 L 401.5 225.22949016875157 L 401.5 227.22949016875157 L 400.5 229.22949016875157 L 400.5 232.07670780786754 L 399.5 236.07670780786754 L 399.5 240.2573536480541 L 398.5 245.2573536480541 L 398.5 249 L 398.5 251 L 398.5 254 L 398.5 256.07670780786754 L 397.5 260.07670780786754 L 397.5 263 L 397.5 266 L 397.5 269 L 397.5 273 L 397.5 276 L 397.5 278 L 397.5 280 L 397.5 282 L 397.5 284 L 397.5 287 L 397.5 289 L 397.5 292 L 397.5 295 L 397.5 298 L 397.5 300 L 397.5 303.77050983124843 L 398.5 305.77050983124843 L 398.5 307.21708245126285 L 400.0534273799856 311.8773645912196 L 400.5 312.77050983124843 L 400.5 314.21708245126285 L 401.5 317.21708245126285 L 401.5 318 L 401.5 321.77050983124843 L 403.0534273799856 324.8773645912196 L 403.5 326.21708245126285 L 403.5 328.21708245126285 L 405.0534273799856 332.8773645912196 L 405.5 333.77050983124843 L 405.5 334 L 405.5 337.77050983124843 L 406.5 339.77050983124843 L 406.5 341.77050983124843 L 408.2917960675006 345.3541019662497 L 408.5 345.77050983124843 L 408.5 347.77050983124843 L 409.5 349.77050983124843 L 409.5 354.1066017177982 L 412.8360918865498 357.442693604348 L 412.5 356.77050983124843 L 412.5 358.77050983124843 L 414.5006149034831 362.77173963821457 L 416.2024898878181 365.32455211471705 L 417.0534273799856 367.8773645912196 L 418.2917960675006 370.3541019662497 L 419.5006149034831 372.77173963821457 L 421.7596227924662 376.1602514716892 L 423.5006149034831 378.77173963821457 L 423.5 378.77050983124843 L 423.5 381.27081728299 L 426.7596227924662 386.1602514716892 L 428.5006149034831 388.77173963821457 L 429.8360918865498 391.442693604348 L 432.6966991411009 394.3033008588991 L 435.6966991411009 397.3033008588991 L 438.2218294125853 399.8284311303835 L 442.22826036178543 402.4993850965169 L 444.6458980337503 403.7082039324994 L 446.22826036178543 404.4993850965169 L 449.67544788528295 406.7975101121819 L 452.67544788528295 407.7975101121819 L 455.22826036178543 409.4993850965169 L 457.6458980337503 410.7082039324994 L 459.6458980337503 411.7082039324994 L 463.22949016875157 413.5 L 466.07670780786754 413.5 L 468.901546771346 414.2062097408696 L 471.6282917548737 415.11512473537886 L 473.67544788528295 415.7975101121819 L 477.72918271701 418.5 L 482.22949016875157 418.5 L 484.6458980337503 419.7082039324994 L 489.54424784921656 422.15737884023247 L 495.07126339976173 423.2627819503415 L 497.1226354087804 423.9465726200144 L 500.22826036178543 425.4993850965169 L 504.72918271701 428.5 L 508.5556319732456 428.5 L 510.78524248817257 429.39184420597076 L 513.1656284403132 431.7722301581114 L 518.901546771346 433.2062097408696 L 521.6282917548738 434.11512473537886 L 525.7829175487371 435.5 L 527.2294901687516 435.5 L 529.2294901687516 436.5 L 534 436.5 L 535.2573536480542 436.5 L 538.5442478492165 437.15737884023247 L 541.2294901687516 438.5 L 546 438.5 L 548 438.5 L 551 438.5 L 554 438.5 L 556.5330668877609 438.5 L 564.5330668877609 439.5 L 569 439.5 L 574 439.5 L 579 439.5 L 582 439.5 L 587.2170824512629 439.5 L 591.098453228654 438.2062097408696 L 593.9232921921324 437.5 L 598.2170824512629 437.5 L 602.3717082451262 436.11512473537886 L 608.098453228654 434.2062097408696 L 611.9402513334884 433.245760214661 L 619.2171046500282 431.1666592670782 L 623.1527513444263 429.8547770356122 L 627.744746429697 427.0995799844498 L 632.9257476820088 426.0633797339874 L 636.9076776405373 423.4087597616351 L 646.1931596127005 418.2501586659889 L 651.2912925694067 414.171652300624 L 655.8587181657065 411.43119694284405 L 660.6117292664374 408.57939028240554 L 662.3541019662497 407.7082039324994 L 665.8773645912196 405.9465726200144 L 668.8773645912196 404.9465726200144 L 673.3541019662497 402.7082039324994 L 675.3541019662497 401.7082039324994 L 678.8773645912196 399.9465726200144 L 682.3245521147171 398.7975101121819 L 685.7717396382146 396.4993850965169 L 690.442693604348 394.1639081134502 L 692.8343715596868 391.7722301581114 L 698.1655353046945 390.4394392218595 L 699.5901699437495 387.59016994374946 L 702.442693604348 386.1639081134502 L 705.3033008588991 383.3033008588991 L 707.6801948466053 380.92640687119285 L 710.2291827170101 377.5277563773199 L 713.2291827170101 375.52775637732 L 717.4057647468726 369.95898033750314 L 718.1639081134502 368.442693604348 L 718.7781705874147 367.8284311303835 L 721.7781705874147 365.8284311303835 L 724.8284311303835 362.7781705874147 L 727.0181425637666 359.4936034373401 L 732.0181425637666 353.4936034373401 L 736.3159931546335 347.0468275510398 L 744.3737891693693 333.952909027094 L 749.462367566978 325.81118359092017 L 754.6353230988396 316.4998636335692 L 755.7082039324994 314.3541019662497 L 756.7082039324994 312.3541019662497 L 757.7082039324994 310.3541019662497 L 759.5 306.77050983124843 L 759.5 304.21708245126285 L 760.1151247353788 302.3717082451263 L 761.5 298.21708245126285 L 761.5 293 L 761.5 287 L 761.5 283 L 761.5 277 L 761.5 274 L 761.5 269 L 761.5 259.37928102276334 L 760.3487133925521 252.47156137807593 L 759.5 249.07670780786754 L 759.5 247 L 759.5 243.07670780786754 L 758.5 239.07670780786754 L 758.5 234.22949016875157 L 757.5 232.22949016875157 L 757.5 230.22949016875157 L 755.5 226.22949016875157 L 755.5 224.53306688776087 L 754.5 216.53306688776087 L 754.5 211.5556319732456 L 752.2193113300766 205.8539102984371 L 751.3193541598134 201.35412444712128 L 750.5 198.07670780786754 L 750.5 195.07670780786754 L 748.960989963657 188.92066766249553 L 746.960989963657 185.92066766249553 L 746.27606875109 183.1809828122275 L 745.2062097408696 178.90154677134598 L 743.9465726200144 175.1226354087804 L 740.7082039324994 168.6458980337503 L 737.9465726200144 163.1226354087804 L 736.797510112182 159.67544788528292 L 734.4993850965169 156.22826036178543 L 732.7082039324994 152.6458980337503 L 730.5901699437495 148.4098300562505 L 728.5901699437495 147.4098300562505 L 727.7082039324994 145.6458980337503 L 725.5901699437495 141.4098300562505 L 720.442693604348 138.83609188654978 L 720.1639081134502 138.557306395652 L 719.4057647468726 137.04101966249684 L 715.2291827170101 131.47224362268005 L 711.7781705874147 129.17156886961652 L 709.3033008588991 126.6966991411009 L 707.3033008588991 124.6966991411009 L 705.5552403667323 122.94863864893411 L 704.5552403667323 119.94863864893411 L 701.3033008588991 116.6966991411009 L 700.1639081134502 115.55730639565199 L 698.8174737319414 112.86443763263425 L 693.7717396382146 109.50061490348307 L 691.3541019662497 108.29179606750063 L 690.442693604348 107.8360918865498 L 688.0513613510659 105.44475963326768 L 686.3188894084965 104.86726898574454 L 686.1639081134502 104.55730639565199 L 682.442693604348 100.8360918865498 L 681.5901699437495 100.40983005625053 L 680.5901699437495 98.40983005625053 L 676.3541019662497 96.29179606750063 L 676.5901699437495 96.40983005625053 L 675.8174737319414 94.86443763263425 L 670.7717396382146 91.50061490348307 L 670.5901699437495 91.40983005625053 L 669.8174737319414 89.86443763263425 L 666.8174737319414 87.86443763263425 L 664.6352549156242 83.5 L 659.7705098312484 83.5 L 659.3541019662497 83.29179606750063 L 655.7705098312484 81.5 L 653.7705098312484 81.5 L 651.7705098312484 80.5 L 649.7705098312484 80.5 L 647.7705098312484 79.5 L 644 79.5 L 642 79.5 L 641.7705098312484 79.5 L 639.7705098312484 78.5 L 636 78.5 L 634 78.5 L 632 78.5 L 630 78.5 L 628 78.5 L 626 78.5 L 624 78.5 " stroke="#4a5568" stroke-width="2" fill="none" stroke-linecap="butt" stroke-linejoin="round" />
    <path d="M 588 97.5 L 585 97.5 L 582 97.5 L 579.0767078078676 97.5 L 575.0767078078676 96.5 L 574 96.5 L 571 96.5 L 568 96.5 L 566 96.5 L 562.2294901687516 96.5 L 560.2294901687516 95.5 L 560 95.5 L 558 95.5 L 556 95.5 L 554 95.5 L 552 95.5 L 550 95.5 L 547 95.5 L 543 95.5 L 540 95.5 L 537 95.5 L 535 95.5 L 532 95.5 L 530 95.5 L 529.2170824512629 95.5 L 526.2170824512629 96.5 L 522 96.5 L 519 96.5 L 516.7426463519458 96.5 L 511.7426463519459 97.5 L 509 97.5 L 507.77050983124843 97.5 L 503.77050983124843 99.5 L 501.77050983124843 99.5 L 501.3541019662497 99.70820393249937 L 499.3541019662497 100.70820393249937 L 495.77050983124843 102.5 L 496.6352549156242 102.5 L 496.16553530469446 103.4394392218595 L 489.6177274703644 105.07639118044202 L 488.77173963821457 105.49938509651693 L 487.81747373194133 106.13556236736575 L 486.3188894084965 109.13273101425546 L 481.32455211471705 110.79751011218193 L 478.77173963821457 112.49938509651693 L 476.95898033750314 113.40576474687263 L 474.91640786499875 114.93769410125094 L 473.59016994374946 117.59016994374947 L 470.442693604348 119.1639081134502 L 468.0513613510659 121.55524036673232 L 465.0513613510659 122.55524036673232 L 463.442693604348 124.1639081134502 L 462.59016994374946 124.59016994374947 L 462.1639081134502 125.44269360434801 L 458.442693604348 129.16390811345022 L 456.442693604348 130.16390811345022 L 455.3033008588991 131.3033008588991 L 452.442693604348 134.16390811345022 L 451.59016994374946 134.5901699437495 L 451.1639081134502 135.442693604348 L 449.1639081134502 137.442693604348 L 446.6352549156242 142.5 L 444.6352549156242 142.5 L 445.1639081134502 141.442693604348 L 443.1639081134502 143.442693604348 L 442.9465726200144 143.8773645912196 L 441.9465726200144 146.8773645912196 L 440.7082039324994 149.3541019662497 L 438.9465726200144 152.8773645912196 L 437.7975101121819 156.32455211471708 L 435.7975101121819 159.32455211471708 L 434.7975101121819 162.32455211471708 L 432.67355074376445 165.5104911673433 L 430.84771639101194 170.07507704922455 L 429.7082039324994 172.3541019662497 L 428.7082039324994 174.3541019662497 L 428.5 174.77050983124843 L 428.5 176.77050983124843 L 426.7082039324994 180.3541019662497 L 426.5 180.77050983124843 L 426.5 182.77050983124843 L 424.7082039324994 186.3541019662497 L 424.5 186.77050983124843 L 424.5 189.77050983124843 L 422.9465726200144 192.8773645912196 L 421.9465726200144 195.8773645912196 L 421.5 196.77050983124843 L 421.5 199.77050983124843 L 420.5 201.77050983124843 L 420.5 202.92329219213246 L 419.076391180442 208.6177274703644 L 418.5 209.77050983124843 L 418.5 210 L 418.5 212 L 418.5 214 L 418.5 217 L 418.5 220.21708245126285 L 417.5 223.21708245126285 L 417.5 226.77050983124843 L 416.5 228.77050983124843 L 416.5 230.77050983124843 L 415.5 232.77050983124843 L 415.5 233.92329219213246 L 414.5 237.92329219213246 L 414.5 241.7426463519459 L 413.5 246.7426463519459 L 413.5 249 L 413.5 251 L 413.5 254 L 413.5 257.92329219213246 L 412.5 261.92329219213246 L 412.5 263 L 412.5 266 L 412.5 269 L 412.5 273 L 412.5 276 L 412.5 278 L 412.5 280 L 412.5 282 L 412.5 284 L 412.5 287 L 412.5 289 L 412.5 292 L 412.5 295 L 412.5 298 L 412.5 300 L 412.5 300.22949016875157 L 413.5 302.22949016875157 L 413.5 304.78291754873715 L 413.9465726200144 306.1226354087804 L 415.5 309.22949016875157 L 415.5 311.78291754873715 L 416.5 314.78291754873715 L 416.5 318 L 416.5 318.22949016875157 L 416.9465726200144 319.1226354087804 L 418.5 323.78291754873715 L 418.5 325.78291754873715 L 418.9465726200144 327.1226354087804 L 420.5 330.22949016875157 L 420.5 334 L 420.5 334.22949016875157 L 421.5 336.22949016875157 L 421.5 338.22949016875157 L 421.7082039324994 338.6458980337503 L 423.5 342.22949016875157 L 423.5 344.22949016875157 L 424.5 346.22949016875157 L 424.5 347.8933982822018 L 425.1639081134502 348.557306395652 L 427.5 353.22949016875157 L 427.5 355.22949016875157 L 427.4993850965169 355.22826036178543 L 429.7975101121819 358.67544788528295 L 430.9465726200144 362.1226354087804 L 431.7082039324994 363.6458980337503 L 432.4993850965169 365.22826036178543 L 434.2403772075338 367.8397485283108 L 436.4993850965169 371.22826036178543 L 438.5 375.22949016875157 L 438.5 376.72918271701 L 439.2403772075338 377.8397485283108 L 441.4993850965169 381.22826036178543 L 442.1639081134502 382.557306395652 L 443.3033008588991 383.6966991411009 L 446.3033008588991 386.6966991411009 L 447.7781705874147 388.1715688696165 L 449.77173963821457 389.5006149034831 L 451.3541019662497 390.2917960675006 L 453.77173963821457 391.5006149034831 L 456.32455211471705 393.2024898878181 L 459.32455211471705 394.2024898878181 L 462.77173963821457 396.5006149034831 L 464.3541019662497 397.2917960675006 L 466.3541019662497 398.2917960675006 L 466.77050983124843 398.5 L 467.92329219213246 398.5 L 473.098453228654 399.7937902591304 L 476.3717082451263 400.88487526462114 L 480.32455211471705 402.2024898878181 L 482.27081728299 403.5 L 485.77050983124843 403.5 L 491.3541019662497 406.2917960675006 L 494.45575215078344 407.84262115976753 L 498.92873660023827 408.7372180496585 L 502.8773645912196 410.0534273799856 L 507.77173963821457 412.5006149034831 L 509.27081728299 413.5 L 511.4443680267544 413.5 L 519.2147575118274 416.60815579402924 L 520.8343715596868 418.2277698418886 L 523.098453228654 418.7937902591304 L 526.3717082451262 419.88487526462114 L 528.2170824512629 420.5 L 530.7705098312484 420.5 L 532.7705098312484 421.5 L 534 421.5 L 536.7426463519458 421.5 L 543.4557521507835 422.84262115976753 L 544.7705098312484 423.5 L 546 423.5 L 548 423.5 L 551 423.5 L 554 423.5 L 557.4669331122391 423.5 L 565.4669331122391 424.5 L 569 424.5 L 574 424.5 L 579 424.5 L 582 424.5 L 584.7829175487371 424.5 L 586.901546771346 423.7937902591304 L 592.0767078078676 422.5 L 595.7829175487371 422.5 L 597.6282917548738 421.88487526462114 L 603.901546771346 419.7937902591304 L 608.0597486665116 418.754239785339 L 614.7828953499718 416.8333407329218 L 616.8472486555737 416.1452229643878 L 622.255253570303 412.9004200155502 L 627.0742523179912 411.9366202660126 L 629.0923223594627 410.5912402383649 L 637.8068403872995 405.7498413340111 L 642.7087074305933 401.828347699376 L 648.1412818342935 398.56880305715595 L 653.3882707335626 395.42060971759446 L 655.6458980337503 394.2917960675006 L 660.1226354087804 392.0534273799856 L 663.1226354087804 391.0534273799856 L 666.6458980337503 389.2917960675006 L 668.6458980337503 388.2917960675006 L 673.1226354087804 386.0534273799856 L 675.6754478852829 385.2024898878181 L 678.2282603617854 383.5006149034831 L 681.557306395652 381.8360918865498 L 685.1656284403132 378.2277698418886 L 687.8344646953055 377.5605607781405 L 688.4098300562505 376.40983005625054 L 693.557306395652 373.8360918865498 L 694.6966991411009 372.6966991411009 L 696.3198051533947 371.07359312880715 L 699.7708172829899 366.4722436226801 L 702.7708172829899 364.47224362268 L 704.5942352531274 362.04101966249686 L 705.8360918865498 359.557306395652 L 709.2218294125853 356.1715688696165 L 712.2218294125853 354.1715688696165 L 713.1715688696165 353.2218294125853 L 714.9818574362334 350.5063965626599 L 719.9818574362334 344.5063965626599 L 723.6840068453665 338.9531724489602 L 731.6262108306307 326.047090972906 L 736.537632433022 318.18881640907983 L 741.3646769011604 309.5001363664308 L 742.2917960675006 307.6458980337503 L 743.2917960675006 305.6458980337503 L 744.2917960675006 303.6458980337503 L 744.5 303.22949016875157 L 744.5 301.78291754873715 L 745.8848752646212 297.6282917548737 L 746.5 295.78291754873715 L 746.5 293 L 746.5 287 L 746.5 283 L 746.5 277 L 746.5 274 L 746.5 269 L 746.5 260.62071897723666 L 745.6512866074479 255.52843862192407 L 744.5 250.92329219213246 L 744.5 247 L 744.5 244.92329219213246 L 743.5 240.92329219213246 L 743.5 237.77050983124843 L 742.5 235.77050983124843 L 742.5 233.77050983124843 L 740.5 229.77050983124843 L 740.5 225.46693311223913 L 739.5 217.46693311223913 L 739.5 214.4443680267544 L 737.7806886699234 210.1460897015629 L 736.6806458401866 204.64587555287872 L 735.5 199.92329219213246 L 735.5 196.92329219213246 L 735.039010036343 195.07933233750447 L 733.039010036343 192.07933233750447 L 731.72393124891 186.8190171877725 L 730.7937902591304 183.09845322865402 L 730.0534273799856 180.8773645912196 L 727.2917960675006 175.3541019662497 L 724.0534273799856 168.8773645912196 L 723.202489887818 166.32455211471708 L 721.5006149034831 163.77173963821457 L 719.2917960675006 159.3541019662497 L 719.4098300562505 159.5901699437495 L 717.4098300562505 158.5901699437495 L 714.2917960675006 152.3541019662497 L 714.4098300562505 152.5901699437495 L 711.557306395652 151.16390811345022 L 707.8360918865498 147.442693604348 L 706.5942352531274 144.95898033750316 L 704.7708172829899 142.52775637731995 L 702.2218294125853 140.82843113038348 L 698.6966991411009 137.3033008588991 L 696.6966991411009 135.3033008588991 L 692.4447596332677 131.0513613510659 L 691.4447596332677 128.0513613510659 L 690.6966991411009 127.3033008588991 L 687.8360918865498 124.44269360434801 L 687.1825262680586 123.13556236736575 L 686.2282603617854 122.49938509651693 L 684.6458980337503 121.70820393249937 L 681.557306395652 120.1639081134502 L 679.9486386489341 118.55524036673232 L 675.6811105915035 117.13273101425546 L 673.8360918865498 113.44269360434801 L 673.557306395652 113.1639081134502 L 670.4098300562505 111.59016994374947 L 669.4098300562505 109.59016994374947 L 669.6458980337503 109.70820393249937 L 665.4098300562505 107.59016994374947 L 664.1825262680586 105.13556236736575 L 663.2282603617854 104.49938509651693 L 659.4098300562505 102.59016994374947 L 658.1825262680586 100.13556236736575 L 655.1825262680586 98.13556236736575 L 655.3647450843758 98.5 L 656.2294901687516 98.5 L 652.6458980337503 96.70820393249937 L 652.2294901687516 96.5 L 650.2294901687516 96.5 L 648.2294901687516 95.5 L 646.2294901687516 95.5 L 644.2294901687516 94.5 L 644 94.5 L 642 94.5 L 638.2294901687516 94.5 L 636.2294901687516 93.5 L 636 93.5 L 634 93.5 L 632 93.5 L 630 93.5 L 628 93.5 L 626 93.5 L 624 93.5 " stroke="#4a5568" stroke-width="2" fill="none" stroke-linecap="butt" stroke-linejoin="round" />
  </g>
</svg>