<svg xmlns="http://www.w3.org/2000/svg" width="1334" height="864" viewBox="0 0 1334 864">
  <g fill="none">
    <path d="M 605.0311529493745 14.937694101250946 L 594.9688470506255 35.06230589874905 M 576.6524758424986 6.75 L 576.6524758424986 29.25 M 552.1246117974981 4.75 L 552.1246117974981 27.25 M 527.1246117974981 4.75 L 527.1246117974981 27.25 M 499.50142345926105 7.882389971263159 L 505.7243623437284 29.504717127242095 M 477.7400347201744 13.854683061551452 L 480.8023282015585 36.145316938448545 M 451.67316248813296 25.567632572881813 L 463.50211251081345 44.70727576080271 M 429.4283548475461 44.09477532777447 L 448.56253135948657 55.932566051127594 M 415.8724772317134 64.21910862213873 L 434.9202588480702 76.19541921829399 M 403.16111279422773 85.27773355695605 L 422.03519522554666 97.52595842326953 M 396.75 115.03166499195717 L 419.25 115.03166499195717 M 399.189649091092 142.67382080656947 L 420.810350908908 136.44523726734585 M 412.8518768472784 168.49029122438304 L 430.482768768572 154.51167719939247 M 430.22591266961047 188.88056956994626 L 445.12359221679867 172.01910035432655 M 452.09469617043646 205.7860949202394 L 461.85279355221064 185.5122315615253 M 480.76805312477353 212.25 L 480.76805312477353 189.75 M 505.76805312477353 212.25 L 505.76805312477353 189.75 M 530.7680531247736 212.25 L 530.7680531247736 189.75 M 558.4404871326351 206.37723016667425 L 551.0289586081547 185.1329545863958 M 582.1979941234092 195.4136007507528 L 569.652847599544 176.73555752629395 M 604.2246854998465 178.60778877826715 L 586.8244873197438 164.34303840214255 M 618.7710168613052 158.99323623599946 L 600.8588987114143 145.3768481912811 M 632.8049353107205 132.88447029333622 L 610.7402459014414 128.47998607017786 M 638.5284186045988 109.89313511178601 L 616.7156929866833 104.37453011436754 M 639.25 82.1951645142343 L 616.75 82.1951645142343 M 640.25 57.35744217440265 L 617.75 57.35744217440265 M 643.2496622968669 33.15281379845898 L 620.7503377031331 32.97847841534529 M 649.6200668527258 32.024532066331965 L 654.1021167044871 9.975467933668037 M 644.75 44.15288784610698 L 667.25 44.15288784610698 M 644.75 69.15288784610698 L 667.25 69.15288784610698 M 649.75 93.04633827593932 L 672.25 93.04633827593932 M 649.75 118.04633827593932 L 672.25 118.04633827593932 M 649.75 143.04633827593932 L 672.25 143.04633827593932 M 651.75 167.76095499015332 L 674.25 167.76095499015332 M 654.2190073473895 194.92083731396067 L 676.1171096104134 189.75139660164504 M 655.1507404546924 219.86291150685597 L 676.9742308851103 214.38703117274932 M 658.75 241.19545029551966 L 681.25 241.19545029551966 M 657.7500215593371 266.01114799867736 L 680.2499784406629 266.0551972720253 M 655.75 290.67399903223384 L 678.25 290.67399903223384 M 655.75 315.67399903223384 L 678.25 315.67399903223384 M 657.75 340.27565339456567 L 680.25 340.27565339456567 M 657.75 365.27565339456567 L 680.25 365.27565339456567 M 657.75 390.2756533945658 L 680.25 390.2756533945658 M 657.75 415.2756533945658 L 680.25 415.2756533945658 M 657.7653818928111 440.8637486127251 L 680.2346181071889 439.68755817640647 M 660.1757181029637 467.9820011848646 L 681.8242818970363 461.8509583980322 M 688.9722078814495 486.25 L 688.9722078814495 463.75 M 717.1114546548417 470.3840513669567 L 698.0084158018128 458.4960781763886 M 730.086352987407 447.8339230625157 L 708.9869927799134 440.0193854028435 M 744.1011776008337 429.0700122809247 L 723.6343433140036 419.72342497456333 M 757.0869706402501 410.6984458218546 L 738.6951477994538 397.7373172987374 M 771.9164159178522 391.80789994636115 L 754.5162177377495 377.5431495702365 M 785.6881695273871 370.9608907198214 L 767.1699781609655 358.180961591826 M 798.1308028759528 349.67888641811084 L 779.4919905233247 337.07552678333406 M 812.2176574716996 330.48680781399287 L 793.9647083052494 317.3308264090582 " stroke="#8B4513" stroke-width="7" fill="none" stroke-linecap="butt" />
    <path d="M 603.3541019662497 18.29179606750063 L 599.7705098312484 16.5 L 597.7705098312484 16.5 L 597.3541019662497 16.29179606750063 L 595.3541019662497 15.29179606750063 L 593.3541019662497 14.29179606750063 L 589.7705098312484 12.5 L 587.7705098312484 12.5 L 585.7705098312484 11.5 L 583.7705098312484 11.5 L 581.7705098312484 10.5 L 577 10.5 L 575 10.5 L 574.7705098312484 10.5 L 572.7705098312484 9.5 L 569 9.5 L 567 9.5 L 564 9.5 L 563.7705098312484 9.5 L 561.7705098312484 8.5 L 558 8.5 L 556 8.5 L 554 8.5 L 552 8.5 L 550 8.5 L 548 8.5 L 546 8.5 L 543 8.5 L 539 8.5 L 536 8.5 L 533 8.5 L 531 8.5 L 528 8.5 L 526 8.5 L 524 8.5 L 521 8.5 L 519 8.5 L 516 8.5 L 514 8.5 L 510.78291754873715 8.5 L 507.78291754873715 9.499999999999998 L 505.78291754873715 9.5 L 501.1226354087804 11.053427379985578 L 500.22949016875157 11.5 L 495.8933982822018 11.5 L 493.8933982822018 13.5 L 494 13.5 L 489.22949016875157 13.5 L 486.1226354087804 15.053427379985578 L 483.1226354087804 16.05342737998558 L 481.3822725296356 16.923608819557984 L 479.07670780786754 17.5 L 476.78291754873715 17.5 L 472.1226354087804 19.05342737998558 L 469.6458980337503 20.29179606750063 L 467.6458980337503 21.29179606750063 L 465.22949016875157 22.5 L 460.3647450843758 22.5 L 458.83446469530554 25.560560778140502 L 456.1656284403132 26.227769841888588 L 453.9486386489341 28.444759633267683 L 450.9486386489341 29.444759633267683 L 447.6966991411009 32.69669914110089 L 446.557306395652 33.83609188654979 L 445.6458980337503 34.29179606750063 L 441.40983005625054 36.40983005625053 L 441.3647450843758 36.5 L 439.3647450843758 36.5 L 436.8360918865498 41.557306395652 L 435.6966991411009 42.69669914110089 L 432.44475963326767 45.9486386489341 L 431.69862674459876 48.187037314940845 L 429.591673086804 49.591673086804015 L 426.5006149034831 54.22826036178543 L 425.8360918865498 55.557306395652 L 423.44475963326767 57.9486386489341 L 422.44475963326767 60.9486386489341 L 420.8360918865498 62.557306395652 L 419.2917960675006 65.64589803375031 L 418.8360918865498 66.55730639565199 L 416.8360918865498 68.55730639565199 L 415.2917960675006 71.64589803375031 L 414.8360918865498 72.55730639565199 L 412.8360918865498 74.55730639565199 L 411.2917960675006 77.64589803375031 L 410.2917960675006 79.64589803375031 L 409.2917960675006 81.64589803375031 L 408.2917960675006 83.64589803375031 L 407.2917960675006 85.64589803375031 L 406.8360918865498 86.55730639565199 L 403.5 89.89339828220179 L 403.5 93.22949016875158 L 402.5 95.22949016875158 L 402.5 98.22949016875158 L 402.2917960675006 98.64589803375031 L 400.5 102.22949016875158 L 400.5 108 L 400.5 110 L 400.5 113 L 400.5 115 L 400.5 117 L 400.5 119 L 400.5 122 L 400.5 124 L 400.5 126 L 400.5 128 L 400.5 131.77050983124843 L 401.5 133.77050983124843 L 401.5 134 L 401.5 137.77050983124843 L 402.5 139.77050983124843 L 402.5 142.27081728298995 L 405.2024898878181 146.32455211471708 L 406.0534273799856 148.8773645912196 L 407.2917960675006 151.3541019662497 L 408.2917960675006 153.3541019662497 L 409.2917960675006 155.3541019662497 L 410.2917960675006 157.3541019662497 L 411.5006149034831 159.77173963821457 L 413.7596227924662 163.1602514716892 L 416.1715688696165 166.7781705874147 L 418.1715688696165 168.7781705874147 L 420.1715688696165 171.7781705874147 L 422.6966991411009 174.3033008588991 L 423.8360918865498 175.442693604348 L 424.5006149034831 176.77173963821457 L 427.1715688696165 180.7781705874147 L 429.6966991411009 183.3033008588991 L 432.2218294125853 185.8284311303835 L 434.18252626805867 187.13556236736574 L 434.8360918865498 188.442693604348 L 438.2218294125853 191.8284311303835 L 442.22826036178543 194.49938509651693 L 443.557306395652 195.16390811345022 L 445.557306395652 197.16390811345022 L 447.557306395652 198.16390811345022 L 449.557306395652 200.16390811345022 L 452.22826036178543 201.49938509651693 L 456.72918271701 204.5 L 459.22949016875157 204.5 L 459.6458980337503 204.70820393249937 L 462.1226354087804 205.94657262001442 L 465.6282917548737 207.11512473537886 L 469.78291754873715 208.5 L 474 208.5 L 476 208.5 L 478 208.5 L 482 208.5 L 485 208.5 L 488 208.5 L 491 208.5 L 494 208.5 L 496 208.5 L 499 208.5 L 501 208.5 L 504 208.5 L 506 208.5 L 509 208.5 L 512 208.5 L 514 208.5 L 516 208.5 L 519 208.5 L 521 208.5 L 524 208.5 L 526 208.5 L 529 208.5 L 531 208.5 L 534 208.5 L 536 208.5 L 539.9232921921324 208.5 L 545.6177274703643 207.07639118044202 L 547.8773645912196 205.94657262001442 L 549.2170824512629 205.5 L 551.7705098312484 205.5 L 555.3541019662497 203.70820393249937 L 556.8773645912196 202.94657262001442 L 558.2170824512629 202.5 L 560.7705098312484 202.5 L 566.5901699437495 199.5901699437495 L 567.1655353046945 198.4394392218595 L 566.9232921921324 198.5 L 572.6352549156242 198.5 L 573.6352549156242 196.5 L 572.7705098312484 196.5 L 576.3541019662497 194.70820393249937 L 579.442693604348 193.16390811345022 L 581.0513613510659 191.5552403667323 L 584.0513613510659 190.5552403667323 L 586.442693604348 188.16390811345022 L 587.3541019662497 187.70820393249937 L 589.7717396382146 186.49938509651693 L 592.7717396382146 184.49938509651693 L 595.442693604348 183.16390811345022 L 598.8284311303835 179.7781705874147 L 600.8284311303835 176.7781705874147 L 602.8284311303835 174.7781705874147 L 604.1355623673658 172.81747373194133 L 608.5 170.63525491562422 L 608.5 165.77050983124843 L 607.5901699437495 167.5901699437495 L 609.5901699437495 166.5901699437495 L 611.4993850965169 162.77173963821457 L 613.2403772075338 160.1602514716892 L 614.8284311303835 157.7781705874147 L 618.5552403667323 154.0513613510659 L 619.5552403667323 151.0513613510659 L 620.8284311303835 149.7781705874147 L 623.4993850965169 145.77173963821457 L 625.7082039324994 141.3541019662497 L 626.9465726200144 138.8773645912196 L 628.1151247353788 135.37170824512629 L 629.5 131.21708245126285 L 629.5 129.77050983124843 L 630.5 127.77050983124842 L 630.5 126.27081728298997 L 632.5 123.27081728298997 L 632.5 119.77050983124842 L 633.5 117.77050983124842 L 633.5 114 L 633.5 112.77050983124842 L 633.9465726200144 111.87736459121957 L 635.5 107.21708245126284 L 635.5 104 L 635.5 101 L 635.5 98 L 635.5 95 L 635.5 93 L 635.5 90 L 635.5 88 L 635.5 85 L 635.5 83 L 635.5 81 L 635.5 80.21708245126284 L 636.5 77.21708245126284 L 636.5 74 L 636.5 72 L 636.5 69 L 636.5 64 L 636.5 59 L 636.5 56 L 636.5 54 L 636.5 52 L 636.5 49 L 636.5 48.770509831248425 L 637.5 46.770509831248425 L 637.5 44.770509831248425 L 638.5 42.770509831248425 L 638.5 39 L 638.5 38.770509831248425 L 639.5 36.770509831248425 L 639.5 33 L 639.5 34.10660171779821 L 639.3033008588991 34.30330085889911 L 640.442693604348 33.16390811345021 L 641.3541019662497 32.70820393249937 L 643.3541019662497 31.70820393249937 L 645.3541019662497 30.70820393249937 L 647.3541019662497 29.70820393249937 L 647.7705098312484 29.5 L 649.7705098312484 29.5 L 651.7705098312484 28.5 L 650.2294901687516 28.5 L 648.4098300562505 27.590169943749476 L 648.2917960675006 27.354101966249686 L 648.5 27.77050983124842 L 648.5 28 L 648.5 30 L 648.5 33 L 648.5 35 L 648.5 37 L 648.5 39 L 648.5 41 L 648.5 43 L 648.5 45 L 648.5 47 L 648.5 49 L 648.5 51 L 648.5 53 L 648.5 55 L 648.5 57 L 648.5 59 L 648.5 61 L 648.5 63 L 648.5 65 L 648.5 67 L 648.5 69 L 648.5 71 L 648.5 74.77050983124842 L 649.5 76.77050983124842 L 649.5 78.77050983124842 L 650.5 80.77050983124842 L 650.5 82.77050983124842 L 652.2917960675006 86.35410196624969 L 652.5 86.77050983124842 L 652.5 88.21708245126284 L 653.5 91.21708245126284 L 653.5 92 L 653.5 94 L 653.5 96 L 653.5 98 L 653.5 100 L 653.5 102 L 653.5 104 L 653.5 107 L 653.5 109 L 653.5 112 L 653.5 115 L 653.5 117 L 653.5 119 L 653.5 121 L 653.5 123 L 653.5 125 L 653.5 127 L 653.5 129 L 653.5 131 L 653.5 134 L 653.5 136 L 653.5 139 L 653.5 142 L 653.5 145 L 653.5 148 L 653.5 152.92329219213246 L 654.7937902591304 158.09845322865402 L 655.5 160.21708245126285 L 655.5 161 L 655.5 164 L 655.5 168 L 655.5 171 L 655.5 173 L 655.5 178.4443680267544 L 657.5 183.44436802675438 L 657.5 185 L 657.5 187 L 657.5 190 L 657.5 193.77050983124843 L 658.5 195.77050983124843 L 658.5 201 L 658.5 203 L 658.5 205 L 658.5 209 L 658.5 211 L 658.5 213 L 658.5 215 L 658.5 218.77050983124843 L 660.2917960675006 222.3541019662497 L 661.2917960675006 224.3541019662497 L 661.5 224.77050983124843 L 661.5 227.77050983124843 L 662.5 229.77050983124843 L 662.5 231 L 662.5 233 L 662.5 235 L 662.5 237 L 662.5 239 L 662.5 242 L 662.5 244 L 662.5 246 L 662.5 249 L 662.5 253 L 662.5 257 L 662.5 258.78291754873715 L 661.5 261.78291754873715 L 661.5 266 L 661.5 268.22949016875157 L 660.5 270.22949016875157 L 660.5 274.07670780786754 L 659.5 278.07670780786754 L 659.5 281 L 659.5 283 L 659.5 286 L 659.5 291 L 659.5 293 L 659.5 296 L 659.5 298 L 659.5 301 L 659.5 303 L 659.5 306 L 659.5 309 L 659.5 312 L 659.5 315 L 659.5 317 L 659.5 322 L 659.5 325.77050983124843 L 660.5 327.77050983124843 L 660.5 330.21708245126285 L 661.5 333.21708245126285 L 661.5 335 L 661.5 337 L 661.5 339 L 661.5 341 L 661.5 343 L 661.5 345 L 661.5 347 L 661.5 350 L 661.5 352 L 661.5 354 L 661.5 357 L 661.5 359 L 661.5 362 L 661.5 364 L 661.5 366 L 661.5 368 L 661.5 371 L 661.5 373 L 661.5 375 L 661.5 378 L 661.5 381 L 661.5 384 L 661.5 386 L 661.5 388 L 661.5 391 L 661.5 394 L 661.5 396 L 661.5 400 L 661.5 403 L 661.5 406 L 661.5 409 L 661.5 411 L 661.5 413 L 661.5 415 L 661.5 417 L 661.5 420 L 661.5 423 L 661.5 425 L 661.5 428 L 661.5 430 L 661.5 432 L 661.5 434 L 661.5 437 L 661.5 439 L 661.5 442.92329219213246 L 662.5 446.92329219213246 L 662.5 448 L 662.5 451.77050983124843 L 663.5 453.77050983124843 L 663.5 454 L 663.5 456 L 663.5 458 L 663.5 460 L 663.5 462 L 663.5 464 L 663.5 470.6352549156242 L 665.5 471.6352549156242 L 665.5 469 L 665.5 475.6352549156242 L 673.2294901687516 479.5 L 672.3647450843758 479.5 L 673.3647450843758 481.5 L 678.2294901687516 481.5 L 680.2294901687516 482.5 L 684 482.5 L 686 482.5 L 688 482.5 L 690 482.5 L 692 482.5 L 694 482.5 L 696 482.5 L 702.6352549156242 482.5 L 704.5901699437495 478.59016994374946 L 702.7705098312484 479.5 L 707.6352549156242 479.5 L 709.5901699437495 475.59016994374946 L 713.5 473.6352549156242 L 713.5 468.77050983124843 L 713.1639081134502 469.442693604348 L 716.5 466.1066017177982 L 716.5 464.1066017177982 L 717.1639081134502 463.442693604348 L 718.7082039324994 460.3541019662497 L 719.1639081134502 459.442693604348 L 721.5552403667323 457.0513613510659 L 722.1327310142555 455.3188894084965 L 723.5901699437495 454.59016994374946 L 726.5 448.77050983124843 L 726.5 446.77050983124843 L 726.7082039324994 446.3541019662497 L 727.1639081134502 445.442693604348 L 729.1639081134502 443.442693604348 L 729.5901699437495 442.59016994374946 L 731.5901699437495 441.59016994374946 L 733.4993850965169 437.77173963821457 L 735.4993850965169 434.77173963821457 L 735.8174737319414 434.13556236736576 L 739.3013732554012 431.8129626850592 L 740.9465726200144 426.8773645912196 L 741.4993850965169 425.77173963821457 L 742.1355623673658 424.81747373194133 L 744.1355623673658 423.81747373194133 L 747.4993850965169 418.77173963821457 L 748.7082039324994 416.3541019662497 L 749.1639081134502 415.442693604348 L 750.8284311303835 413.7781705874147 L 753.4993850965169 409.77173963821457 L 754.1639081134502 408.442693604348 L 755.8284311303835 406.7781705874147 L 757.8284311303835 403.7781705874147 L 760.1639081134502 401.442693604348 L 761.4993850965169 398.77173963821457 L 762.8284311303835 396.7781705874147 L 764.8284311303835 394.7781705874147 L 766.8284311303835 391.7781705874147 L 768.8284311303835 389.7781705874147 L 770.8284311303835 386.7781705874147 L 773.1639081134502 384.442693604348 L 774.7082039324994 381.3541019662497 L 776.1639081134502 378.442693604348 L 779.5 375.1066017177982 L 779.5 374.6352549156242 L 780.1327310142555 374.3188894084965 L 781.5552403667323 370.0513613510659 L 783.1639081134502 368.442693604348 L 784.4993850965169 365.77173963821457 L 786.4993850965169 362.77173963821457 L 788.4057647468726 358.95898033750314 L 790.6801948466053 355.92640687119285 L 794.5 352.1066017177982 L 794.5 348.77050983124843 L 794.7082039324994 348.3541019662497 L 795.1639081134502 347.442693604348 L 795.442693604348 347.1639081134502 L 800.5 344.6352549156242 L 800.5 341.1066017177982 L 801.1639081134502 340.442693604348 L 802.4993850965169 337.77173963821457 L 804.4993850965169 334.77173963821457 L 805.1639081134502 333.442693604348 L 808.1639081134502 330.442693604348 L 809.1639081134502 328.442693604348 L 811.1639081134502 326.442693604348 L 811.8174737319414 325.13556236736576 L 814.8174737319414 323.13556236736576 L 816.7082039324994 319.3541019662497 L 816.5901699437495 319.59016994374946 L 820.5 317.6352549156242 L 820.5 315.6352549156242 L 820.5901699437495 315.59016994374946 L 822.7082039324994 311.3541019662497 " stroke="#4a5568" stroke-width="2" fill="none" stroke-linecap="butt" stroke-linejoin="round" />
    <path d="M 596.6458980337503 31.70820393249937 L 596.2294901687516 31.5 L 594.2294901687516 31.5 L 590.6458980337503 29.70820393249937 L 588.6458980337503 28.70820393249937 L 586.6458980337503 27.70820393249937 L 586.2294901687516 27.5 L 584.2294901687516 27.5 L 582.2294901687516 26.5 L 580.2294901687516 26.5 L 578.2294901687516 25.5 L 577 25.5 L 575 25.5 L 571.2294901687516 25.5 L 569.2294901687516 24.5 L 569 24.5 L 567 24.5 L 564 24.5 L 560.2294901687516 24.5 L 558.2294901687516 23.5 L 558 23.5 L 556 23.5 L 554 23.5 L 552 23.5 L 550 23.5 L 548 23.5 L 546 23.5 L 543 23.5 L 539 23.5 L 536 23.5 L 533 23.5 L 531 23.5 L 528 23.5 L 526 23.5 L 524 23.5 L 521 23.5 L 519 23.5 L 516 23.5 L 514 23.5 L 513.2170824512629 23.5 L 510.21708245126285 24.5 L 508.21708245126285 24.5 L 506.8773645912196 24.94657262001442 L 503.77050983124843 26.5 L 502.1066017177982 26.5 L 500.1066017177982 28.5 L 494 28.5 L 492.77050983124843 28.5 L 491.8773645912196 28.94657262001442 L 488.8773645912196 29.94657262001442 L 486.6177274703644 31.076391180442016 L 480.92329219213246 32.5 L 479.21708245126285 32.5 L 477.8773645912196 32.94657262001442 L 476.3541019662497 33.70820393249937 L 474.3541019662497 34.70820393249937 L 468.77050983124843 37.5 L 469.6352549156242 37.5 L 469.16553530469446 38.4394392218595 L 463.8343715596868 39.77223015811141 L 462.0513613510659 41.55524036673232 L 459.0513613510659 42.55524036673232 L 458.3033008588991 43.30330085889911 L 455.442693604348 46.16390811345021 L 452.3541019662497 47.70820393249937 L 452.59016994374946 47.59016994374947 L 450.6352549156242 51.5 L 448.6352549156242 51.5 L 449.1639081134502 50.442693604348 L 446.3033008588991 53.30330085889911 L 445.55524036673233 54.0513613510659 L 444.30137325540124 57.812962685059155 L 440.408326913196 60.408326913195985 L 439.4993850965169 61.77173963821457 L 438.1639081134502 64.44269360434801 L 436.55524036673233 66.05136135106589 L 435.55524036673233 69.05136135106589 L 433.1639081134502 71.44269360434801 L 432.7082039324994 72.35410196624969 L 431.1639081134502 75.44269360434801 L 429.1639081134502 77.44269360434801 L 428.7082039324994 78.35410196624969 L 427.1639081134502 81.44269360434801 L 425.1639081134502 83.44269360434801 L 424.7082039324994 84.35410196624969 L 423.7082039324994 86.35410196624969 L 422.7082039324994 88.35410196624969 L 421.7082039324994 90.35410196624969 L 420.7082039324994 92.35410196624969 L 419.1639081134502 95.44269360434801 L 418.5 96.10660171779821 L 418.5 96.77050983124842 L 417.5 98.77050983124842 L 417.5 101.77050983124842 L 415.7082039324994 105.35410196624969 L 415.5 105.77050983124842 L 415.5 108 L 415.5 110 L 415.5 113 L 415.5 115 L 415.5 117 L 415.5 119 L 415.5 122 L 415.5 124 L 415.5 126 L 415.5 128 L 415.5 128.22949016875157 L 416.5 130.22949016875157 L 416.5 134 L 416.5 134.22949016875157 L 417.5 136.22949016875157 L 417.5 137.72918271701005 L 418.7975101121819 139.67544788528292 L 419.9465726200144 143.1226354087804 L 420.7082039324994 144.6458980337503 L 421.7082039324994 146.6458980337503 L 422.7082039324994 148.6458980337503 L 423.7082039324994 150.6458980337503 L 424.4993850965169 152.22826036178543 L 426.2403772075338 154.8397485283108 L 427.8284311303835 157.2218294125853 L 429.8284311303835 159.2218294125853 L 431.8284311303835 162.2218294125853 L 433.3033008588991 163.6966991411009 L 436.1639081134502 166.557306395652 L 437.4993850965169 169.22826036178543 L 438.8284311303835 171.2218294125853 L 440.3033008588991 172.6966991411009 L 441.7781705874147 174.1715688696165 L 445.81747373194133 176.86443763263426 L 447.1639081134502 179.557306395652 L 447.7781705874147 180.1715688696165 L 449.77173963821457 181.50061490348307 L 452.442693604348 182.83609188654978 L 454.442693604348 184.83609188654978 L 456.442693604348 185.83609188654978 L 458.442693604348 187.83609188654978 L 459.77173963821457 188.50061490348307 L 461.27081728299 189.5 L 462.77050983124843 189.5 L 466.3541019662497 191.29179606750063 L 467.8773645912196 192.05342737998558 L 470.3717082451263 192.88487526462114 L 472.21708245126285 193.5 L 474 193.5 L 476 193.5 L 478 193.5 L 482 193.5 L 485 193.5 L 488 193.5 L 491 193.5 L 494 193.5 L 496 193.5 L 499 193.5 L 501 193.5 L 504 193.5 L 506 193.5 L 509 193.5 L 512 193.5 L 514 193.5 L 516 193.5 L 519 193.5 L 521 193.5 L 524 193.5 L 526 193.5 L 529 193.5 L 531 193.5 L 534 193.5 L 536 193.5 L 538.0767078078676 193.5 L 540.3822725296357 192.92360881955798 L 542.1226354087804 192.05342737998558 L 546.7829175487371 190.5 L 548.2294901687516 190.5 L 548.6458980337503 190.29179606750063 L 551.1226354087804 189.05342737998558 L 555.7829175487371 187.5 L 557.2294901687516 187.5 L 555.4098300562505 188.4098300562505 L 556.8344646953055 185.5605607781405 L 565.0767078078676 183.5 L 563.3647450843758 183.5 L 564.3647450843758 181.5 L 569.2294901687516 181.5 L 569.6458980337503 181.29179606750063 L 570.557306395652 180.83609188654978 L 572.9486386489341 178.4447596332677 L 575.9486386489341 177.4447596332677 L 577.557306395652 175.83609188654978 L 580.6458980337503 174.29179606750063 L 582.2282603617854 173.50061490348307 L 585.2282603617854 171.50061490348307 L 586.557306395652 170.83609188654978 L 587.1715688696165 170.2218294125853 L 589.1715688696165 167.2218294125853 L 591.1715688696165 165.2218294125853 L 593.8644376326342 161.18252626805867 L 593.5 161.36474508437578 L 593.5 162.22949016875157 L 596.4098300562505 156.4098300562505 L 598.4098300562505 155.4098300562505 L 598.5006149034831 155.22826036178543 L 600.7596227924662 151.8397485283108 L 603.1715688696165 148.2218294125853 L 605.4447596332677 145.9486386489341 L 606.4447596332677 142.9486386489341 L 609.1715688696165 140.2218294125853 L 610.5006149034831 138.22826036178543 L 612.2917960675006 134.6458980337503 L 613.0534273799856 133.1226354087804 L 613.8848752646212 130.62829175487371 L 614.5 128.78291754873715 L 614.5 126.22949016875158 L 615.5 124.22949016875158 L 615.5 121.72918271701003 L 617.5 118.72918271701003 L 617.5 116.22949016875158 L 618.5 114.22949016875158 L 618.5 114 L 618.5 109.22949016875158 L 620.0534273799856 106.12263540878043 L 620.5 104.78291754873716 L 620.5 104 L 620.5 101 L 620.5 98 L 620.5 95 L 620.5 93 L 620.5 90 L 620.5 88 L 620.5 85 L 620.5 83 L 620.5 81 L 620.5 77.78291754873716 L 621.5 74.78291754873716 L 621.5 74 L 621.5 72 L 621.5 69 L 621.5 64 L 621.5 59 L 621.5 56 L 621.5 54 L 621.5 52 L 621.5 49 L 621.5 45.229490168751575 L 622.5 43.229490168751575 L 622.5 41.229490168751575 L 623.5 39.229490168751575 L 623.5 39 L 623.5 35.229490168751575 L 624.5 33.229490168751575 L 624.5 33 L 624.5 27.893398282201787 L 628.6966991411009 23.696699141100893 L 631.557306395652 20.836091886549788 L 634.6458980337503 19.29179606750063 L 636.6458980337503 18.29179606750063 L 638.6458980337503 17.29179606750063 L 640.6458980337503 16.29179606750063 L 644.2294901687516 14.5 L 646.2294901687516 14.5 L 648.2294901687516 13.5 L 653.7705098312484 13.5 L 659.5901699437495 16.409830056250524 L 661.7082039324994 20.645898033750314 L 663.5 24.22949016875158 L 663.5 28 L 663.5 30 L 663.5 33 L 663.5 35 L 663.5 37 L 663.5 39 L 663.5 41 L 663.5 43 L 663.5 45 L 663.5 47 L 663.5 49 L 663.5 51 L 663.5 53 L 663.5 55 L 663.5 57 L 663.5 59 L 663.5 61 L 663.5 63 L 663.5 65 L 663.5 67 L 663.5 69 L 663.5 71 L 663.5 71.22949016875158 L 664.5 73.22949016875158 L 664.5 75.22949016875158 L 665.5 77.22949016875158 L 665.5 79.22949016875158 L 665.7082039324994 79.64589803375031 L 667.5 83.22949016875158 L 667.5 85.78291754873716 L 668.5 88.78291754873716 L 668.5 92 L 668.5 94 L 668.5 96 L 668.5 98 L 668.5 100 L 668.5 102 L 668.5 104 L 668.5 107 L 668.5 109 L 668.5 112 L 668.5 115 L 668.5 117 L 668.5 119 L 668.5 121 L 668.5 123 L 668.5 125 L 668.5 127 L 668.5 129 L 668.5 131 L 668.5 134 L 668.5 136 L 668.5 139 L 668.5 142 L 668.5 145 L 668.5 148 L 668.5 151.07670780786754 L 669.2062097408696 153.90154677134598 L 670.5 157.78291754873715 L 670.5 161 L 670.5 164 L 670.5 168 L 670.5 171 L 670.5 173 L 670.5 175.5556319732456 L 672.5 180.55563197324562 L 672.5 185 L 672.5 187 L 672.5 190 L 672.5 190.22949016875157 L 673.5 192.22949016875157 L 673.5 201 L 673.5 203 L 673.5 205 L 673.5 209 L 673.5 211 L 673.5 213 L 673.5 215 L 673.5 215.22949016875157 L 673.7082039324994 215.6458980337503 L 674.7082039324994 217.6458980337503 L 676.5 221.22949016875157 L 676.5 224.22949016875157 L 677.5 226.22949016875157 L 677.5 231 L 677.5 233 L 677.5 235 L 677.5 237 L 677.5 239 L 677.5 242 L 677.5 244 L 677.5 246 L 677.5 249 L 677.5 253 L 677.5 257 L 677.5 261.21708245126285 L 676.5 264.21708245126285 L 676.5 266 L 676.5 271.77050983124843 L 675.5 273.77050983124843 L 675.5 275.92329219213246 L 674.5 279.92329219213246 L 674.5 281 L 674.5 283 L 674.5 286 L 674.5 291 L 674.5 293 L 674.5 296 L 674.5 298 L 674.5 301 L 674.5 303 L 674.5 306 L 674.5 309 L 674.5 312 L 674.5 315 L 674.5 317 L 674.5 322 L 674.5 322.22949016875157 L 675.5 324.22949016875157 L 675.5 327.78291754873715 L 676.5 330.78291754873715 L 676.5 335 L 676.5 337 L 676.5 339 L 676.5 341 L 676.5 343 L 676.5 345 L 676.5 347 L 676.5 350 L 676.5 352 L 676.5 354 L 676.5 357 L 676.5 359 L 676.5 362 L 676.5 364 L 676.5 366 L 676.5 368 L 676.5 371 L 676.5 373 L 676.5 375 L 676.5 378 L 676.5 381 L 676.5 384 L 676.5 386 L 676.5 388 L 676.5 391 L 676.5 394 L 676.5 396 L 676.5 400 L 676.5 403 L 676.5 406 L 676.5 409 L 676.5 411 L 676.5 413 L 676.5 415 L 676.5 417 L 676.5 420 L 676.5 423 L 676.5 425 L 676.5 428 L 676.5 430 L 676.5 432 L 676.5 434 L 676.5 437 L 676.5 439 L 676.5 441.07670780786754 L 677.5 445.07670780786754 L 677.5 448 L 677.5 448.22949016875157 L 678.5 450.22949016875157 L 678.5 454 L 678.5 456 L 678.5 458 L 678.5 460 L 678.5 462 L 678.5 464 L 678.5 461.3647450843758 L 680.5 462.3647450843758 L 680.5 469 L 680.5 466.3647450843758 L 676.7705098312484 464.5 L 681.6352549156242 464.5 L 682.6352549156242 466.5 L 681.7705098312484 466.5 L 683.7705098312484 467.5 L 684 467.5 L 686 467.5 L 688 467.5 L 690 467.5 L 692 467.5 L 694 467.5 L 696 467.5 L 693.3647450843758 467.5 L 693.4098300562505 467.40983005625054 L 699.2294901687516 464.5 L 698.3647450843758 464.5 L 698.4098300562505 464.40983005625054 L 698.5 464.3647450843758 L 698.5 465.22949016875157 L 700.8360918865498 460.557306395652 L 701.5 459.8933982822018 L 701.5 457.8933982822018 L 704.8360918865498 454.557306395652 L 705.2917960675006 453.6458980337503 L 706.8360918865498 450.557306395652 L 708.4447596332677 448.9486386489341 L 709.8672689857445 444.6811105915035 L 712.4098300562505 443.40983005625054 L 711.5 445.22949016875157 L 711.5 443.22949016875157 L 713.2917960675006 439.6458980337503 L 714.8360918865498 436.557306395652 L 716.8360918865498 434.557306395652 L 718.4098300562505 431.40983005625054 L 720.4098300562505 430.40983005625054 L 720.5006149034831 430.22826036178543 L 722.5006149034831 427.22826036178543 L 724.1825262680586 423.86443763263424 L 726.6986267445988 422.1870373149408 L 727.0534273799856 421.1226354087804 L 728.5006149034831 418.22826036178543 L 731.8644376326342 413.18252626805867 L 733.8644376326342 412.18252626805867 L 734.5006149034831 411.22826036178543 L 735.2917960675006 409.6458980337503 L 736.8360918865498 406.557306395652 L 739.1715688696165 404.2218294125853 L 740.5006149034831 402.22826036178543 L 741.8360918865498 399.557306395652 L 744.1715688696165 397.2218294125853 L 746.1715688696165 394.2218294125853 L 747.8360918865498 392.557306395652 L 748.5006149034831 391.22826036178543 L 751.1715688696165 387.2218294125853 L 753.1715688696165 385.2218294125853 L 755.1715688696165 382.2218294125853 L 757.1715688696165 380.2218294125853 L 759.1715688696165 377.2218294125853 L 760.8360918865498 375.557306395652 L 761.2917960675006 374.6458980337503 L 763.8360918865498 369.557306395652 L 764.5 368.8933982822018 L 764.5 365.3647450843758 L 767.8672689857445 363.6811105915035 L 768.4447596332677 361.9486386489341 L 770.8360918865498 359.557306395652 L 771.5006149034831 358.22826036178543 L 773.5006149034831 355.22826036178543 L 775.5942352531274 351.04101966249686 L 779.3198051533947 346.07359312880715 L 779.5 345.8933982822018 L 779.5 345.22949016875157 L 781.2917960675006 341.6458980337503 L 782.8360918865498 338.557306395652 L 786.557306395652 334.8360918865498 L 785.5 335.3647450843758 L 785.5 334.8933982822018 L 788.8360918865498 331.557306395652 L 789.5006149034831 330.22826036178543 L 791.5006149034831 327.22826036178543 L 792.8360918865498 324.557306395652 L 795.8360918865498 321.557306395652 L 796.8360918865498 319.557306395652 L 798.8360918865498 317.557306395652 L 800.1825262680586 314.86443763263424 L 803.1825262680586 312.86443763263424 L 803.2917960675006 312.6458980337503 L 805.4098300562505 308.40983005625054 L 805.5 308.3647450843758 L 805.5 306.3647450843758 L 809.4098300562505 304.40983005625054 L 809.2917960675006 304.6458980337503 " stroke="#4a5568" stroke-width="2" fill="none" stroke-linecap="butt" stroke-linejoin="round" />
  </g>
</svg>