<svg xmlns="http://www.w3.org/2000/svg" width="1334" height="864" viewBox="0 0 1334 864">
  <g fill="none">
    <path d="M 534.75 19 L 557.25 19 M 531.8268153228548 42.239919848757985 L 554.1731846771452 44.86475825933318 M 530.75 68.42923342842792 L 553.25 68.42923342842792 M 528.1319771777272 91.25282754289354 L 550.3430315035404 94.84713773203616 M 527.75 118.02074451702423 L 550.25 118.02074451702423 M 527.75 143.02074451702424 L 550.25 143.02074451702424 M 527.75 168.02074451702424 L 550.25 168.02074451702424 M 526.6237950452352 191.0123629352007 L 548.8332628420789 194.61646340285745 M 525.75 217.6961891966875 L 548.25 217.6961891966875 M 522.75 242.2485282507331 L 545.25 242.2485282507331 M 521.75 267.12542262511545 L 544.25 267.12542262511545 M 521.75 292.12542262511545 L 544.25 292.12542262511545 M 521.75 317.12542262511545 L 544.25 317.12542262511545 M 521.75 342.12542262511545 L 544.25 342.12542262511545 M 518.75 366.4910090099475 L 541.25 366.4910090099475 M 518.75 391.4910090099475 L 541.25 391.4910090099475 M 514.9184984184184 413.6807277633456 L 537.0815015815816 417.560327071214 M 511.75 440.0252858366626 L 534.25 440.0252858366626 M 508.7863717180621 463.4131788371684 L 531.2136282819379 465.22098497115815 M 522.2602255930059 496.94905113151196 L 527.4296663053216 475.05094886848804 M 551.0132584403229 498.94905113151196 L 545.8438177280073 477.05094886848804 M 569.25 468.7518018033338 L 546.75 468.7518018033338 M 569.25 443.7518018033338 L 546.75 443.7518018033338 M 570.25 418.8749074289515 L 547.75 418.8749074289515 M 571.25 394.1109754064513 L 548.75 394.1109754064513 M 571.25 369.1109754064513 L 548.75 369.1109754064513 M 573.25 344.58311136145096 L 550.75 344.58311136145096 M 575.8517710046071 322.7792806099674 L 553.9536687415832 317.6098398976518 M 580.25 296.0880065692868 L 557.75 296.0880065692868 M 580.25 271.0880065692868 L 557.75 271.0880065692868 M 583.2906856016563 256.7870841316948 L 567.380783024959 240.87718155499752 M 598.5781343848993 238.33176819179806 L 582.668231808202 222.42186561510073 M 617.2800413027127 220.48540327814683 L 599.3754947682638 206.85906065087678 M 634.1320823403881 205.76375356160793 L 618.9051268289048 189.19903726909905 M 652.4959447412322 191.108189219681 L 638.8490089390376 173.21933394018416 M 669.1479753227126 173.25338540082168 L 655.2895989401053 155.52782746776938 M 689.4860235929181 157.42387898377925 L 673.5761210162208 141.5139764070819 M 707.1118273755804 142.40434495629484 L 693.1966995941426 124.72330373055645 M 725.924287792691 125.97367623233215 L 710.6425541296848 109.45948184529222 M 743.8207145779644 106.89640139708227 L 726.7754026320275 92.20942278792988 M 758.4520505586631 91.16516254702407 L 745.0845860791885 73.06651913405014 M 776.1212678351848 69.83697255056845 L 756.8405551103348 58.239381558392274 M 785.7583818611714 58.949051131511965 L 780.5889411488557 37.050948868488035 M 808.1564557932711 51.16318341295534 L 802.9870150809554 29.26508114993141 M 816.00318708244 57.71075390308823 L 834.2400511523006 44.532484331652384 M 813.8828532821698 69.53927062659692 L 833.3040328638191 80.90007093543643 M 798.4797881175168 75.22306346896207 L 806.8889995937859 96.09254267538654 M 778.228754442131 95.44629855022492 L 795.096513397988 110.33685622302909 M 762.5909352098032 113.27210546257544 L 778.5008377865005 129.18200803927274 M 743.9048194521814 131.39071526212615 L 762.1577686186316 144.54669666706087 M 729.1237500372149 146.96884471423175 L 745.3130386983655 162.59436655018783 M 713.9453321706551 160.94966380394214 L 724.124384208722 181.01547800636934 M 694.3853207125776 177.82049274930827 L 708.264129585777 195.53005695233716 M 672.8418728458668 191.45140044322042 L 688.751775422564 207.36130301991776 M 653.8156910676888 205.29849772043764 L 668.8262867971156 222.0595244147579 M 635.6197739248995 218.41775302193844 L 648.4743500399424 236.8842056564476 M 616.8582248184036 235.63846065827516 L 632.7681273951009 251.5483632349725 M 597.8162215535398 249.65946229070713 L 613.726124130237 265.56936486740443 M 584.8211613943431 278.2208182864799 L 607.1788386056569 275.694107041659 M 595.1101411932578 303.17542601321776 L 616.3425340812245 295.72992453574676 M 611.0845755166125 326.9821994301027 L 626.9644258183497 311.0423012373784 M 622.7994279475016 344.97040133164234 L 641.9025850857441 333.0826182182264 M 636.2934371300325 366.13556091453216 L 654.9261402297755 353.52317116489183 M 651.3381743411587 385.32420095127986 L 669.5597057415127 372.12473909005587 M 667.8933690620154 404.80327163871266 L 683.8032716387127 388.8933690620154 M 689.357338934071 421.7549443614328 L 699.0966244277228 401.47203731946405 M 706.149719056397 433.16429197783987 L 722.0596216330943 417.2543894011426 M 724.5554249198716 448.71013939245876 L 740.4653274965689 432.8002368157615 M 745.2963234243902 466.2260440856314 L 755.3586293231391 446.10143228813325 M 763.0274699935094 477.0153484122136 L 779.1308640271188 461.30131962904306 M 782.993192184125 496.7024942842929 L 789.9269115596629 475.2975057157071 " stroke="#8B4513" stroke-width="7" fill="none" stroke-linecap="butt" />
    <path d="M 538.5 19 L 538.5 21 L 538.5 24 L 538.5 25.076707807867546 L 537.5 29.076707807867546 L 537.5 32 L 537.5 33.78291754873715 L 536.5 36.78291754873715 L 536.5 38.78291754873715 L 535.5 41.78291754873715 L 535.5 45 L 535.5 48 L 535.5 51 L 535.5 54 L 535.5 56 L 535.5 58 L 535.5 60.07670780786754 L 534.5 64.07670780786755 L 534.5 68 L 534.5 70 L 534.5 72 L 534.5 73.07670780786755 L 533.5 77.07670780786755 L 533.5 80 L 533.5 82 L 533.5 84 L 533.5 85.78291754873716 L 532.7937902591304 87.90154677134598 L 531.5 93.07670780786755 L 531.5 97 L 531.5 101 L 531.5 103 L 531.5 105 L 531.5 107 L 531.5 110 L 531.5 112 L 531.5 116 L 531.5 119 L 531.5 122 L 531.5 127 L 531.5 129 L 531.5 133 L 531.5 136 L 531.5 140 L 531.5 147 L 531.5 151 L 531.5 156 L 531.5 161 L 531.5 164 L 531.5 171 L 531.5 173 L 531.5 177 L 531.5 179 L 531.5 181 L 531.5 183.78291754873715 L 530.5 186.78291754873715 L 530.5 190.78291754873715 L 529.5 193.78291754873715 L 529.5 197 L 529.5 200 L 529.5 202 L 529.5 205 L 529.5 209 L 529.5 212 L 529.5 214 L 529.5 216 L 529.5 218 L 529.5 220 L 529.5 222.07670780786754 L 528.5 226.07670780786754 L 528.5 228.78291754873715 L 527.8848752646212 230.62829175487371 L 526.5 234.78291754873715 L 526.5 239 L 526.5 241 L 526.5 244 L 526.5 247 L 526.5 249 L 526.5 253 L 526.5 255 L 526.5 256.07670780786754 L 525.5 260.07670780786754 L 525.5 264 L 525.5 269 L 525.5 272 L 525.5 278 L 525.5 280 L 525.5 283 L 525.5 288 L 525.5 291 L 525.5 297 L 525.5 301 L 525.5 306 L 525.5 310 L 525.5 315 L 525.5 320 L 525.5 322 L 525.5 324 L 525.5 326 L 525.5 329 L 525.5 332 L 525.5 336 L 525.5 338 L 525.5 341 L 525.5 345 L 525.5 345.78291754873715 L 524.5 348.78291754873715 L 524.5 352 L 524.5 352.22949016875157 L 524.2917960675006 352.6458980337503 L 522.5 356.22949016875157 L 522.5 360 L 522.5 363 L 522.5 366 L 522.5 368 L 522.5 370 L 522.5 372 L 522.5 374 L 522.5 377 L 522.5 381 L 522.5 383 L 522.5 385 L 522.5 387 L 522.5 389 L 522.5 392 L 522.5 394 L 522.5 394.22949016875157 L 521.5 396.22949016875157 L 521.5 401.22949016875157 L 521.0534273799856 402.1226354087804 L 519.5 406.78291754873715 L 519.5 410 L 519.5 410.22949016875157 L 518.5 412.22949016875157 L 518.5 416.07670780786754 L 517.5 420.07670780786754 L 517.5 421.22949016875157 L 516.5 423.22949016875157 L 516.5 428 L 516.5 428.22949016875157 L 515.5 430.22949016875157 L 515.5 434 L 515.5 436 L 515.5 438 L 515.5 440 L 515.5 442 L 515.5 442.22949016875157 L 514.5 444.22949016875157 L 514.5 448 L 514.5 450 L 514.5 453 L 514.5 455 L 514.5 455.22949016875157 L 513.5 457.22949016875157 L 513.5 459.22949016875157 L 512.5 461.22949016875157 L 512.5 465 L 512.5 467 L 512.5 469 L 512.5 471 L 512.5 473 L 512.5 475 L 512.5 477 L 512.5 480.77050983124843 L 513.5 482.77050983124843 L 513.5 483 L 513.5 489.6352549156242 L 521.2294901687516 493.5 L 523.2294901687516 493.5 L 523.6458980337503 493.7082039324994 L 525.6458980337503 494.7082039324994 L 527.6458980337503 495.7082039324994 L 531.2294901687516 497.5 L 535 497.5 L 537 497.5 L 539 497.5 L 541 497.5 L 544.7705098312484 497.5 L 548.3541019662497 495.7082039324994 L 548.7705098312484 495.5 L 550.7705098312484 495.5 L 556.5901699437495 492.59016994374946 L 556.6352549156242 492.5 L 558.6352549156242 492.5 L 561.7082039324994 486.3541019662497 L 561.5901699437495 486.59016994374946 L 565.5 484.6352549156242 L 565.5 478 L 565.5 476 L 565.5 474 L 565.5 472 L 565.5 470 L 565.5 468 L 565.5 466 L 565.5 464 L 565.5 462 L 565.5 460 L 565.5 458 L 565.5 456 L 565.5 454 L 565.5 452 L 565.5 450 L 565.5 448 L 565.5 445 L 565.5 443 L 565.5 441 L 565.5 438 L 565.5 436.92329219213246 L 566.5 432.92329219213246 L 566.5 430 L 566.5 427 L 566.5 425 L 566.5 423 L 566.5 421 L 566.5 419 L 566.5 416 L 566.5 414 L 566.5 412 L 566.5 410 L 566.5 408 L 566.5 404 L 566.5 402 L 566.5 401.77050983124843 L 567.5 399.77050983124843 L 567.5 395 L 567.5 393 L 567.5 391 L 567.5 389 L 567.5 387 L 567.5 384 L 567.5 382 L 567.5 380 L 567.5 378 L 567.5 376 L 567.5 374 L 567.5 372 L 567.5 369 L 567.5 367 L 567.5 365 L 567.5 363 L 567.5 361 L 567.5 359 L 567.5 358.77050983124843 L 568.5 356.77050983124843 L 568.5 353 L 568.5 351 L 568.5 350.77050983124843 L 569.5 348.77050983124843 L 569.5 345 L 569.5 343 L 569.5 342.77050983124843 L 570.5 340.77050983124843 L 570.5 337 L 570.5 335 L 570.5 333 L 570.5 331 L 570.5 330.21708245126285 L 571.5 327.21708245126285 L 571.5 324 L 571.5 323.77050983124843 L 572.5 321.77050983124843 L 572.5 317 L 572.5 316.77050983124843 L 573.5 314.77050983124843 L 573.5 311 L 573.5 310.21708245126285 L 573.9465726200144 308.8773645912196 L 575.5 305.77050983124843 L 575.5 303.77050983124843 L 576.5 301.77050983124843 L 576.5 298 L 576.5 296 L 576.5 294 L 576.5 292 L 576.5 290 L 576.5 288 L 576.5 286 L 576.5 284 L 576.5 282 L 576.5 280 L 576.5 278 L 576.5 276 L 576.5 274 L 576.5 272 L 576.5 270 L 576.5 268 L 576.5 266 L 576.5 264 L 576.5 263.77050983124843 L 577.5 261.77050983124843 L 577.5 261.1066017177982 L 579.5 259.1066017177982 L 579.5 254 L 579.5 256.6352549156242 L 579.5901699437495 256.59016994374946 L 580.5901699437495 254.5901699437495 L 582.5901699437495 253.5901699437495 L 584.7082039324994 249.3541019662497 L 585.1639081134502 248.442693604348 L 588.5 245.1066017177982 L 588.5 244.63525491562422 L 588.5901699437495 244.5901699437495 L 590.1639081134502 241.442693604348 L 591.3033008588991 240.3033008588991 L 593.3033008588991 238.3033008588991 L 595.3033008588991 236.3033008588991 L 597.3033008588991 234.3033008588991 L 598.442693604348 233.16390811345022 L 601.1355623673658 231.81747373194133 L 603.1355623673658 228.81747373194133 L 605.1355623673658 227.81747373194133 L 607.1355623673658 224.81747373194133 L 607.7717396382146 224.49938509651693 L 612.8174737319414 221.13556236736574 L 614.1639081134502 218.442693604348 L 615.3033008588991 217.3033008588991 L 617.3033008588991 215.3033008588991 L 618.442693604348 214.16390811345022 L 619.3541019662497 213.70820393249937 L 623.5901699437495 211.5901699437495 L 624.5901699437495 209.5901699437495 L 624.3541019662497 209.70820393249937 L 628.5901699437495 207.5901699437495 L 630.1639081134502 204.442693604348 L 631.3033008588991 203.3033008588991 L 632.442693604348 202.16390811345022 L 634.442693604348 201.16390811345022 L 637.3033008588991 198.3033008588991 L 638.442693604348 197.16390811345022 L 639.7717396382146 196.49938509651693 L 643.7781705874147 193.82843113038348 L 645.442693604348 192.16390811345022 L 648.5901699437495 190.5901699437495 L 649.5901699437495 188.5901699437495 L 650.442693604348 188.16390811345022 L 654.1639081134502 184.442693604348 L 654.5901699437495 183.5901699437495 L 656.5901699437495 182.5901699437495 L 658.1639081134502 179.442693604348 L 660.1639081134502 177.442693604348 L 660.5901699437495 176.5901699437495 L 661.442693604348 176.16390811345022 L 664.8284311303835 172.7781705874147 L 666.1355623673658 170.81747373194133 L 667.442693604348 170.16390811345022 L 670.3033008588991 167.3033008588991 L 671.0513613510659 166.5552403667323 L 675.3188894084965 165.13273101425546 L 676.5901699437495 162.5901699437495 L 676.3541019662497 162.70820393249937 L 678.7717396382146 161.49938509651693 L 682.7781705874147 158.82843113038348 L 685.3033008588991 156.3033008588991 L 687.3033008588991 154.3033008588991 L 688.442693604348 153.16390811345022 L 691.1355623673658 151.81747373194133 L 693.408326913196 148.408326913196 L 694.7717396382146 147.49938509651693 L 698.5901699437495 145.5901699437495 L 699.9164078649987 142.93769410125094 L 702.3334617360803 141.12490369793977 L 705.7781705874147 138.82843113038348 L 708.7781705874147 135.82843113038348 L 711.7781705874147 133.82843113038348 L 712.1066017177982 133.5 L 715.01387818866 133.5 L 719.4993850965169 126.77173963821457 L 719.5901699437495 126.59016994374947 L 720.442693604348 126.1639081134502 L 724.3033008588991 122.3033008588991 L 727.3033008588991 119.3033008588991 L 730.1639081134502 116.44269360434801 L 731.1639081134502 114.44269360434801 L 732.3033008588991 113.3033008588991 L 734.3033008588991 111.3033008588991 L 736.3033008588991 109.3033008588991 L 738.3033008588991 107.3033008588991 L 740.8284311303835 104.77817058741472 L 742.1355623673658 102.81747373194133 L 745.1327310142555 101.31888940849649 L 746.1327310142555 98.31888940849649 L 746.442693604348 98.1639081134502 L 751.1639081134502 93.44269360434801 L 751.5901699437495 92.59016994374947 L 753.1355623673658 91.81747373194133 L 755.1355623673658 88.81747373194133 L 756.442693604348 88.1639081134502 L 759.3033008588991 85.3033008588991 L 762.1639081134502 82.44269360434801 L 763.1639081134502 80.44269360434801 L 763.442693604348 80.1639081134502 L 766.5901699437495 78.59016994374947 L 768.7082039324994 74.35410196624969 L 767.6352549156242 76.5 L 772.5 76.5 L 772.5 68.77050983124842 L 772.7082039324994 68.35410196624969 L 773.1639081134502 67.44269360434801 L 776.5 64.10660171779821 L 776.5 60.770509831248425 L 776.1639081134502 61.442693604348 L 777.3033008588991 60.30330085889911 L 780.1639081134502 57.442693604348 L 779.6352549156242 58.5 L 778.7705098312484 58.5 L 782.3541019662497 56.70820393249937 L 784.3541019662497 55.70820393249937 L 784.7705098312484 55.5 L 786.7705098312484 55.5 L 790.3541019662497 53.70820393249937 L 792.3541019662497 52.70820393249937 L 794.3541019662497 51.70820393249937 L 798.5901699437495 49.59016994374947 L 798.6352549156242 49.5 L 797.7705098312484 49.5 L 799.7705098312484 48.5 L 800 48.5 L 802 48.5 L 805.7705098312484 48.5 L 807.7705098312484 47.5 L 808 47.5 L 810 47.5 L 810.7829175487371 47.5 L 812.1226354087804 47.94657262001442 L 812.557306395652 48.16390811345021 L 812.8360918865498 48.442693604348 L 814.4098300562505 51.59016994374947 L 814.5 51.63525491562421 L 814.5 53.63525491562421 L 819.557306395652 56.16390811345021 L 818.5 55.10660171779821 L 818.5 54 L 818.5 56 L 818.5 58 L 818.5 60 L 818.5 62 L 818.5 64 L 818.5 66 L 818.5 68 L 818.5 68.22949016875158 L 818.2917960675006 68.64589803375031 L 817.0534273799856 71.12263540878043 L 816.8672689857445 71.68111059150351 L 815.4098300562505 72.40983005625053 L 814.4098300562505 74.40983005625053 L 814.6458980337503 74.29179606750063 L 812.6458980337503 75.29179606750063 L 812.2294901687516 75.5 L 812 75.5 L 808.2294901687516 75.5 L 804.6458980337503 77.29179606750063 L 804.2294901687516 77.5 L 802.2294901687516 77.5 L 798.6458980337503 79.29179606750063 L 794.4098300562505 81.40983005625053 L 794.3647450843758 81.5 L 792.3647450843758 81.5 L 789.2917960675006 87.64589803375031 L 788.2917960675006 89.64589803375031 L 787.5006149034831 91.22826036178543 L 786.591673086804 92.59167308680402 L 783.1825262680586 94.86443763263425 L 782.1825262680586 96.86443763263425 L 779.1825262680586 98.86443763263425 L 777.2917960675006 102.64589803375031 L 777.4098300562505 102.40983005625053 L 776.557306395652 102.8360918865498 L 773.6966991411009 105.6966991411009 L 771.6966991411009 107.6966991411009 L 769.6966991411009 109.6966991411009 L 766.8360918865498 112.55730639565199 L 765.2917960675006 115.64589803375031 L 765.4098300562505 115.40983005625053 L 763.4098300562505 116.40983005625053 L 761.8360918865498 119.55730639565199 L 761.557306395652 119.8360918865498 L 759.557306395652 120.8360918865498 L 757.557306395652 122.8360918865498 L 755.557306395652 123.8360918865498 L 751.8360918865498 127.55730639565199 L 751.4098300562505 128.4098300562505 L 749.4098300562505 129.4098300562505 L 747.8360918865498 132.557306395652 L 745.8360918865498 134.557306395652 L 745.4098300562505 135.4098300562505 L 745.6458980337503 135.29179606750063 L 739.5 138.36474508437578 L 739.5 140.36474508437578 L 741.6458980337503 139.29179606750063 L 735.5 142.36474508437578 L 735.5 144.98612181134 L 734.1825262680586 145.86443763263426 L 732.8360918865498 148.557306395652 L 731.6966991411009 149.6966991411009 L 730.557306395652 150.83609188654978 L 728.557306395652 151.83609188654978 L 724.8360918865498 155.557306395652 L 724.4098300562505 156.4098300562505 L 723.557306395652 156.83609188654978 L 720.6966991411009 159.6966991411009 L 719.557306395652 160.83609188654978 L 716.4098300562505 162.4098300562505 L 715.4098300562505 164.4098300562505 L 715.6458980337503 164.29179606750063 L 711.4098300562505 166.4098300562505 L 709.8360918865498 169.557306395652 L 708.6966991411009 170.6966991411009 L 705.8360918865498 173.557306395652 L 704.8360918865498 175.557306395652 L 705.8933982822018 174.5 L 702.3647450843758 174.5 L 700.6811105915035 177.86726898574454 L 698.9486386489341 178.4447596332677 L 696.2218294125853 181.1715688696165 L 694.2282603617854 182.50061490348307 L 692.6458980337503 183.29179606750063 L 688.4098300562505 185.4098300562505 L 688.3647450843758 185.5 L 689.2294901687516 185.5 L 685.6458980337503 187.29179606750063 L 682.557306395652 188.83609188654978 L 680.557306395652 190.83609188654978 L 679.6458980337503 191.29179606750063 L 675.4098300562505 193.4098300562505 L 674.4098300562505 195.4098300562505 L 674.6458980337503 195.29179606750063 L 671.557306395652 196.83609188654978 L 670.8933982822018 197.5 L 668.8933982822018 197.5 L 665.557306395652 200.83609188654978 L 664.6458980337503 201.29179606750063 L 661.557306395652 202.83609188654978 L 658.6966991411009 205.6966991411009 L 656.6966991411009 207.6966991411009 L 655.557306395652 208.83609188654978 L 653.557306395652 209.83609188654978 L 650.6966991411009 212.6966991411009 L 649.557306395652 213.83609188654978 L 648.6458980337503 214.29179606750063 L 644.4098300562505 216.4098300562505 L 644.3647450843758 216.5 L 642.3647450843758 216.5 L 640.4098300562505 220.4098300562505 L 641.1226354087804 220.05342737998558 L 635.6811105915035 221.86726898574454 L 634.6811105915035 223.86726898574454 L 631.0707293871843 225.0707293871843 L 629.8672689857445 228.6811105915035 L 630.6458980337503 228.29179606750063 L 626.4098300562505 230.4098300562505 L 625.4098300562505 232.4098300562505 L 624.557306395652 232.83609188654978 L 620.8360918865498 236.557306395652 L 620.4098300562505 237.4098300562505 L 618.4098300562505 238.4098300562505 L 616.8360918865498 241.557306395652 L 616.557306395652 241.83609188654978 L 613.4098300562505 243.4098300562505 L 613.3647450843758 243.5 L 614.2294901687516 243.5 L 610.6458980337503 245.29179606750063 L 608.6458980337503 246.29179606750063 L 606.6458980337503 247.29179606750063 L 602.4098300562505 249.4098300562505 L 601.4098300562505 251.4098300562505 L 599.4098300562505 252.4098300562505 L 598.4098300562505 254.4098300562505 L 600.2294901687516 253.5 L 592.5 253.5 L 592.5 258.3647450843758 L 592.4098300562505 258.40983005625054 L 590.2917960675006 262.6458980337503 L 588.5 266.22949016875157 L 588.5 270 L 588.5 272 L 588.5 274 L 588.5 276 L 588.5 279.77050983124843 L 590.2917960675006 283.3541019662497 L 590.5 283.77050983124843 L 590.5 285.77050983124843 L 592.2917960675006 289.3541019662497 L 593.2917960675006 291.3541019662497 L 594.0534273799856 292.8773645912196 L 594.8848752646212 295.3717082451263 L 596.4447596332677 300.0513613510659 L 598.8360918865498 302.442693604348 L 598.5 301.77050983124843 L 598.5 306.6352549156242 L 602.4098300562505 308.59016994374946 L 602.2917960675006 308.3541019662497 L 604.4098300562505 312.59016994374946 L 606.4098300562505 313.59016994374946 L 606.2917960675006 313.3541019662497 L 607.2917960675006 315.3541019662497 L 609.4098300562505 319.59016994374946 L 611.4098300562505 320.59016994374946 L 611.2917960675006 320.3541019662497 L 613.4098300562505 324.59016994374946 L 616.557306395652 326.1639081134502 L 616.4447596332677 326.0513613510659 L 617.4447596332677 329.0513613510659 L 619.8360918865498 331.442693604348 L 620.2917960675006 332.3541019662497 L 621.2917960675006 334.3541019662497 L 622.8360918865498 337.442693604348 L 623.5 338.1066017177982 L 623.5 339.27081728299 L 627.1715688696165 344.7781705874147 L 628.8360918865498 346.442693604348 L 629.8360918865498 348.442693604348 L 631.8360918865498 350.442693604348 L 632.2917960675006 351.3541019662497 L 633.2917960675006 353.3541019662497 L 634.8360918865498 356.442693604348 L 636.8360918865498 358.442693604348 L 637.2917960675006 359.3541019662497 L 638.0534273799856 360.8773645912196 L 639.8672689857445 366.3188894084965 L 641.8672689857445 367.3188894084965 L 642.8672689857445 370.3188894084965 L 645.4098300562505 371.59016994374946 L 645.5006149034831 371.77173963821457 L 648.1715688696165 375.7781705874147 L 649.8360918865498 377.442693604348 L 650.5006149034831 378.77173963821457 L 653.8644376326342 383.81747373194133 L 653.5 383.6352549156242 L 653.5 385.6352549156242 L 658.557306395652 388.1639081134502 L 658.8360918865498 388.442693604348 L 659.8360918865498 390.442693604348 L 662.6966991411009 393.3033008588991 L 665.557306395652 396.1639081134502 L 665.8672689857445 396.3188894084965 L 666.4447596332677 398.0513613510659 L 669.6966991411009 401.3033008588991 L 671.6966991411009 403.3033008588991 L 674.557306395652 406.1639081134502 L 676.557306395652 407.1639081134502 L 678.557306395652 409.1639081134502 L 677.5 408.6352549156242 L 677.5 411.40569415042097 L 685.1226354087804 413.9465726200144 L 686.6458980337503 414.7082039324994 L 686.4098300562505 414.59016994374946 L 687.4098300562505 416.59016994374946 L 693.2294901687516 419.5 L 693.8933982822018 419.5 L 694.557306395652 420.1639081134502 L 696.557306395652 421.1639081134502 L 698.557306395652 423.1639081134502 L 699.4098300562505 423.59016994374946 L 699.8360918865498 424.442693604348 L 703.557306395652 428.1639081134502 L 706.6458980337503 429.7082039324994 L 708.6458980337503 430.7082039324994 L 708.4098300562505 430.59016994374946 L 709.4098300562505 432.59016994374946 L 712.557306395652 434.1639081134502 L 714.557306395652 436.1639081134502 L 717.6458980337503 437.7082039324994 L 717.4098300562505 437.59016994374946 L 718.4098300562505 439.59016994374946 L 722.6458980337503 441.7082039324994 L 723.557306395652 442.1639081134502 L 723.8360918865498 442.442693604348 L 725.4098300562505 445.59016994374946 L 727.4098300562505 446.59016994374946 L 728.4098300562505 448.59016994374946 L 732.6458980337503 450.7082039324994 L 730.5 449.6352549156242 L 730.5 451.6352549156242 L 734.8644376326342 453.81747373194133 L 736.8644376326342 456.81747373194133 L 740.6458980337503 458.7082039324994 L 741.557306395652 459.1639081134502 L 743.557306395652 461.1639081134502 L 746.6458980337503 462.7082039324994 L 748.6458980337503 463.7082039324994 L 750.6458980337503 464.7082039324994 L 754.6458980337503 466.7082039324994 L 756.6458980337503 467.7082039324994 L 758.6458980337503 468.7082039324994 L 760.6458980337503 469.7082039324994 L 760.4098300562505 469.59016994374946 L 760.8360918865498 470.442693604348 L 764.557306395652 474.1639081134502 L 765.4098300562505 474.59016994374946 L 765.8360918865498 475.442693604348 L 769.557306395652 479.1639081134502 L 768.5 478.6352549156242 L 768.5 480.6352549156242 L 774.6458980337503 483.7082039324994 L 772.5 482.6352549156242 L 772.5 481.77050983124843 L 774.2917960675006 485.3541019662497 L 776.4098300562505 489.59016994374946 L 780.6458980337503 491.7082039324994 L 784.2294901687516 493.5 L 783.3647450843758 493.5 L 784.3647450843758 495.5 L 791 495.5 " stroke="#4a5568" stroke-width="2" fill="none" stroke-linecap="butt" stroke-linejoin="round" />
    <path d="M 553.5 19 L 553.5 21 L 553.5 24 L 553.5 26.923292192132454 L 552.5 30.923292192132454 L 552.5 32 L 552.5 36.21708245126285 L 551.5 39.21708245126285 L 551.5 41.21708245126285 L 550.5 44.21708245126285 L 550.5 45 L 550.5 48 L 550.5 51 L 550.5 54 L 550.5 56 L 550.5 58 L 550.5 61.92329219213246 L 549.5 65.92329219213245 L 549.5 68 L 549.5 70 L 549.5 72 L 549.5 74.92329219213245 L 548.5 78.92329219213245 L 548.5 80 L 548.5 82 L 548.5 84 L 548.5 88.21708245126284 L 547.2062097408696 92.09845322865402 L 546.5 94.92329219213245 L 546.5 97 L 546.5 101 L 546.5 103 L 546.5 105 L 546.5 107 L 546.5 110 L 546.5 112 L 546.5 116 L 546.5 119 L 546.5 122 L 546.5 127 L 546.5 129 L 546.5 133 L 546.5 136 L 546.5 140 L 546.5 147 L 546.5 151 L 546.5 156 L 546.5 161 L 546.5 164 L 546.5 171 L 546.5 173 L 546.5 177 L 546.5 179 L 546.5 181 L 546.5 186.21708245126285 L 545.5 189.21708245126285 L 545.5 193.21708245126285 L 544.5 196.21708245126285 L 544.5 197 L 544.5 200 L 544.5 202 L 544.5 205 L 544.5 209 L 544.5 212 L 544.5 214 L 544.5 216 L 544.5 218 L 544.5 220 L 544.5 223.92329219213246 L 543.5 227.92329219213246 L 543.5 231.21708245126285 L 542.1151247353788 235.37170824512629 L 541.5 237.21708245126285 L 541.5 239 L 541.5 241 L 541.5 244 L 541.5 247 L 541.5 249 L 541.5 253 L 541.5 255 L 541.5 257.92329219213246 L 540.5 261.92329219213246 L 540.5 264 L 540.5 269 L 540.5 272 L 540.5 278 L 540.5 280 L 540.5 283 L 540.5 288 L 540.5 291 L 540.5 297 L 540.5 301 L 540.5 306 L 540.5 310 L 540.5 315 L 540.5 320 L 540.5 322 L 540.5 324 L 540.5 326 L 540.5 329 L 540.5 332 L 540.5 336 L 540.5 338 L 540.5 341 L 540.5 345 L 540.5 348.21708245126285 L 539.5 351.21708245126285 L 539.5 352 L 539.5 355.77050983124843 L 537.7082039324994 359.3541019662497 L 537.5 359.77050983124843 L 537.5 360 L 537.5 363 L 537.5 366 L 537.5 368 L 537.5 370 L 537.5 372 L 537.5 374 L 537.5 377 L 537.5 381 L 537.5 383 L 537.5 385 L 537.5 387 L 537.5 389 L 537.5 392 L 537.5 394 L 537.5 397.77050983124843 L 536.5 399.77050983124843 L 536.5 404.77050983124843 L 534.9465726200144 407.8773645912196 L 534.5 409.21708245126285 L 534.5 410 L 534.5 413.77050983124843 L 533.5 415.77050983124843 L 533.5 417.92329219213246 L 532.5 421.92329219213246 L 532.5 424.77050983124843 L 531.5 426.77050983124843 L 531.5 428 L 531.5 431.77050983124843 L 530.5 433.77050983124843 L 530.5 434 L 530.5 436 L 530.5 438 L 530.5 440 L 530.5 442 L 530.5 445.77050983124843 L 529.5 447.77050983124843 L 529.5 448 L 529.5 450 L 529.5 453 L 529.5 455 L 529.5 458.77050983124843 L 528.5 460.77050983124843 L 528.5 462.77050983124843 L 527.5 464.77050983124843 L 527.5 465 L 527.5 467 L 527.5 469 L 527.5 471 L 527.5 473 L 527.5 475 L 527.5 477 L 527.5 477.22949016875157 L 528.5 479.22949016875157 L 528.5 483 L 528.5 480.3647450843758 L 524.7705098312484 478.5 L 526.7705098312484 478.5 L 530.3541019662497 480.2917960675006 L 532.3541019662497 481.2917960675006 L 534.3541019662497 482.2917960675006 L 534.7705098312484 482.5 L 535 482.5 L 537 482.5 L 539 482.5 L 541 482.5 L 541.2294901687516 482.5 L 541.6458980337503 482.2917960675006 L 545.2294901687516 480.5 L 547.2294901687516 480.5 L 545.4098300562505 481.40983005625054 L 547.3647450843758 477.5 L 549.3647450843758 477.5 L 548.2917960675006 479.6458980337503 L 550.4098300562505 475.40983005625054 L 550.5 475.3647450843758 L 550.5 478 L 550.5 476 L 550.5 474 L 550.5 472 L 550.5 470 L 550.5 468 L 550.5 466 L 550.5 464 L 550.5 462 L 550.5 460 L 550.5 458 L 550.5 456 L 550.5 454 L 550.5 452 L 550.5 450 L 550.5 448 L 550.5 445 L 550.5 443 L 550.5 441 L 550.5 438 L 550.5 435.07670780786754 L 551.5 431.07670780786754 L 551.5 430 L 551.5 427 L 551.5 425 L 551.5 423 L 551.5 421 L 551.5 419 L 551.5 416 L 551.5 414 L 551.5 412 L 551.5 410 L 551.5 408 L 551.5 404 L 551.5 402 L 551.5 398.22949016875157 L 552.5 396.22949016875157 L 552.5 395 L 552.5 393 L 552.5 391 L 552.5 389 L 552.5 387 L 552.5 384 L 552.5 382 L 552.5 380 L 552.5 378 L 552.5 376 L 552.5 374 L 552.5 372 L 552.5 369 L 552.5 367 L 552.5 365 L 552.5 363 L 552.5 361 L 552.5 359 L 552.5 355.22949016875157 L 553.5 353.22949016875157 L 553.5 353 L 553.5 351 L 553.5 347.22949016875157 L 554.5 345.22949016875157 L 554.5 345 L 554.5 343 L 554.5 339.22949016875157 L 555.5 337.22949016875157 L 555.5 337 L 555.5 335 L 555.5 333 L 555.5 331 L 555.5 327.78291754873715 L 556.5 324.78291754873715 L 556.5 324 L 556.5 320.22949016875157 L 557.5 318.22949016875157 L 557.5 317 L 557.5 313.22949016875157 L 558.5 311.22949016875157 L 558.5 311 L 558.5 307.78291754873715 L 560.0534273799856 303.1226354087804 L 560.5 302.22949016875157 L 560.5 300.22949016875157 L 561.5 298.22949016875157 L 561.5 298 L 561.5 296 L 561.5 294 L 561.5 292 L 561.5 290 L 561.5 288 L 561.5 286 L 561.5 284 L 561.5 282 L 561.5 280 L 561.5 278 L 561.5 276 L 561.5 274 L 561.5 272 L 561.5 270 L 561.5 268 L 561.5 266 L 561.5 264 L 561.5 260.22949016875157 L 562.5 258.22949016875157 L 562.5 254.8933982822018 L 564.5 252.8933982822018 L 564.5 254 L 564.5 247.36474508437578 L 568.4098300562505 245.4098300562505 L 569.4098300562505 243.4098300562505 L 571.4098300562505 242.4098300562505 L 571.2917960675006 242.6458980337503 L 572.8360918865498 239.557306395652 L 573.5 238.8933982822018 L 573.5 235.36474508437578 L 577.4098300562505 233.4098300562505 L 577.8360918865498 232.557306395652 L 580.6966991411009 229.6966991411009 L 582.6966991411009 227.6966991411009 L 584.6966991411009 225.6966991411009 L 586.6966991411009 223.6966991411009 L 589.557306395652 220.83609188654978 L 590.8644376326342 220.18252626805867 L 592.8644376326342 217.18252626805867 L 594.8644376326342 216.18252626805867 L 596.8644376326342 213.18252626805867 L 600.2282603617854 211.50061490348307 L 601.1825262680586 210.86443763263426 L 601.8360918865498 209.557306395652 L 604.6966991411009 206.6966991411009 L 606.6966991411009 204.6966991411009 L 609.557306395652 201.83609188654978 L 612.6458980337503 200.29179606750063 L 612.4098300562505 200.4098300562505 L 613.4098300562505 198.4098300562505 L 617.6458980337503 196.29179606750063 L 617.4098300562505 196.4098300562505 L 617.8360918865498 195.557306395652 L 620.6966991411009 192.6966991411009 L 623.557306395652 189.83609188654978 L 625.557306395652 188.83609188654978 L 626.6966991411009 187.6966991411009 L 629.557306395652 184.83609188654978 L 632.2282603617854 183.50061490348307 L 634.2218294125853 182.17156886961652 L 636.557306395652 179.83609188654978 L 637.4098300562505 179.4098300562505 L 638.4098300562505 177.4098300562505 L 641.557306395652 175.83609188654978 L 641.8360918865498 175.557306395652 L 643.4098300562505 172.4098300562505 L 645.4098300562505 171.4098300562505 L 645.8360918865498 170.557306395652 L 647.8360918865498 168.557306395652 L 649.4098300562505 165.4098300562505 L 652.557306395652 163.83609188654978 L 653.1715688696165 163.2218294125853 L 655.8644376326342 159.18252626805867 L 658.557306395652 157.83609188654978 L 659.6966991411009 156.6966991411009 L 662.9486386489341 153.4447596332677 L 664.6811105915035 152.86726898574454 L 665.4098300562505 151.4098300562505 L 669.6458980337503 149.29179606750063 L 671.2282603617854 148.50061490348307 L 673.2218294125853 147.17156886961652 L 674.6966991411009 145.6966991411009 L 676.6966991411009 143.6966991411009 L 679.557306395652 140.83609188654978 L 680.8644376326342 140.18252626805867 L 682.591673086804 137.591673086804 L 687.2282603617854 134.50061490348307 L 687.4098300562505 134.4098300562505 L 688.0835921350013 133.06230589874906 L 693.6665382639197 128.87509630206023 L 696.2218294125853 127.17156886961651 L 699.2218294125853 124.17156886961651 L 702.2218294125853 122.17156886961651 L 705.8933982822018 118.5 L 706.98612181134 118.5 L 706.5006149034831 119.22826036178543 L 708.4098300562505 115.40983005625053 L 711.557306395652 113.8360918865498 L 713.6966991411009 111.6966991411009 L 716.6966991411009 108.6966991411009 L 717.8360918865498 107.55730639565199 L 718.8360918865498 105.55730639565199 L 721.6966991411009 102.6966991411009 L 723.6966991411009 100.6966991411009 L 725.6966991411009 98.6966991411009 L 727.6966991411009 96.6966991411009 L 729.1715688696165 95.22182941258528 L 731.8644376326342 91.18252626805867 L 732.8672689857445 90.68111059150351 L 733.8672689857445 87.68111059150351 L 737.557306395652 85.8360918865498 L 738.8360918865498 84.55730639565199 L 740.4098300562505 81.40983005625053 L 742.8644376326342 80.18252626805867 L 744.8644376326342 77.18252626805867 L 747.557306395652 75.8360918865498 L 748.6966991411009 74.6966991411009 L 749.8360918865498 73.55730639565199 L 750.8360918865498 71.55730639565199 L 754.557306395652 67.8360918865498 L 755.4098300562505 67.40983005625053 L 755.2917960675006 67.64589803375031 L 758.3647450843758 61.5 L 757.5 61.5 L 757.5 65.22949016875158 L 759.2917960675006 61.64589803375031 L 760.8360918865498 58.557306395652 L 761.5 57.89339828220179 L 761.5 57.229490168751575 L 763.8360918865498 52.557306395652 L 766.6966991411009 49.69669914110089 L 767.8360918865498 48.557306395652 L 770.3647450843758 43.5 L 775.2294901687516 43.5 L 775.6458980337503 43.29179606750063 L 777.6458980337503 42.29179606750063 L 781.2294901687516 40.5 L 783.2294901687516 40.5 L 783.6458980337503 40.29179606750063 L 785.6458980337503 39.29179606750063 L 787.6458980337503 38.29179606750063 L 787.4098300562505 38.40983005625053 L 789.3647450843758 34.5 L 794.2294901687516 34.5 L 796.2294901687516 33.5 L 800 33.5 L 802 33.5 L 802.2294901687516 33.5 L 804.2294901687516 32.5 L 808 32.5 L 810 32.5 L 813.2170824512629 32.5 L 817.8773645912196 34.05342737998558 L 821.442693604348 35.83609188654979 L 825.1639081134502 39.557306395652 L 825.5901699437495 40.40983005625053 L 829.5 42.36474508437579 L 829.5 44.36474508437579 L 828.442693604348 43.83609188654979 L 833.5 48.89339828220179 L 833.5 54 L 833.5 56 L 833.5 58 L 833.5 60 L 833.5 62 L 833.5 64 L 833.5 66 L 833.5 68 L 833.5 71.77050983124842 L 831.7082039324994 75.35410196624969 L 830.9465726200144 76.87736459121957 L 829.1327310142555 82.31888940849649 L 826.5901699437495 83.59016994374947 L 825.5901699437495 85.59016994374947 L 821.3541019662497 87.70820393249937 L 819.3541019662497 88.70820393249937 L 815.7705098312484 90.5 L 812 90.5 L 811.7705098312484 90.5 L 811.3541019662497 90.70820393249937 L 807.7705098312484 92.5 L 805.7705098312484 92.5 L 805.3541019662497 92.70820393249937 L 805.5901699437495 92.59016994374947 L 803.6352549156242 96.5 L 801.6352549156242 96.5 L 802.7082039324994 94.35410196624969 L 801.7082039324994 96.35410196624969 L 800.4993850965169 98.77173963821457 L 797.408326913196 103.40832691319598 L 794.8174737319414 105.13556236736575 L 793.8174737319414 107.13556236736575 L 790.8174737319414 109.13556236736575 L 790.7082039324994 109.35410196624969 L 788.5901699437495 113.59016994374947 L 785.442693604348 115.1639081134502 L 784.3033008588991 116.3033008588991 L 782.3033008588991 118.3033008588991 L 780.3033008588991 120.3033008588991 L 779.1639081134502 121.44269360434801 L 778.7082039324994 122.35410196624969 L 776.5901699437495 126.59016994374947 L 774.5901699437495 127.59016994374947 L 774.1639081134502 128.442693604348 L 770.442693604348 132.16390811345022 L 768.442693604348 133.16390811345022 L 766.442693604348 135.16390811345022 L 764.442693604348 136.16390811345022 L 764.1639081134502 136.442693604348 L 762.5901699437495 139.5901699437495 L 760.5901699437495 140.5901699437495 L 760.1639081134502 141.442693604348 L 758.1639081134502 143.442693604348 L 756.5901699437495 146.5901699437495 L 752.3541019662497 148.70820393249937 L 754.5 147.63525491562422 L 754.5 149.63525491562422 L 748.3541019662497 152.70820393249937 L 750.5 151.63525491562422 L 750.5 153.01387818866 L 745.8174737319414 156.13556236736574 L 745.1639081134502 157.442693604348 L 742.3033008588991 160.3033008588991 L 739.442693604348 163.16390811345022 L 737.442693604348 164.16390811345022 L 737.1639081134502 164.442693604348 L 735.5901699437495 167.5901699437495 L 732.442693604348 169.16390811345022 L 731.3033008588991 170.3033008588991 L 728.442693604348 173.16390811345022 L 727.5901699437495 173.5901699437495 L 726.5901699437495 175.5901699437495 L 722.3541019662497 177.70820393249937 L 722.5901699437495 177.5901699437495 L 722.1639081134502 178.442693604348 L 719.3033008588991 181.3033008588991 L 718.1639081134502 182.442693604348 L 717.1639081134502 184.442693604348 L 712.1066017177982 189.5 L 711.6352549156242 189.5 L 711.3188894084965 190.13273101425546 L 707.0513613510659 191.5552403667323 L 705.7781705874147 192.8284311303835 L 701.7717396382146 195.49938509651693 L 699.3541019662497 196.70820393249937 L 699.5901699437495 196.5901699437495 L 697.6352549156242 200.5 L 692.7705098312484 200.5 L 692.3541019662497 200.70820393249937 L 691.442693604348 201.16390811345022 L 689.442693604348 203.16390811345022 L 686.3541019662497 204.70820393249937 L 686.5901699437495 204.5901699437495 L 685.5901699437495 206.5901699437495 L 681.3541019662497 208.70820393249937 L 680.442693604348 209.16390811345022 L 677.1066017177982 212.5 L 675.1066017177982 212.5 L 674.442693604348 213.16390811345022 L 671.3541019662497 214.70820393249937 L 670.442693604348 215.16390811345022 L 669.3033008588991 216.3033008588991 L 667.3033008588991 218.3033008588991 L 664.442693604348 221.16390811345022 L 662.442693604348 222.16390811345022 L 661.3033008588991 223.3033008588991 L 658.442693604348 226.16390811345022 L 655.3541019662497 227.70820393249937 L 655.5901699437495 227.5901699437495 L 653.6352549156242 231.5 L 651.6352549156242 231.5 L 651.5901699437495 231.5901699437495 L 646.8773645912196 233.94657262001442 L 646.3188894084965 234.13273101425546 L 645.3188894084965 236.13273101425546 L 642.9292706128157 236.9292706128157 L 642.1327310142555 239.3188894084965 L 637.3541019662497 241.70820393249937 L 637.5901699437495 241.5901699437495 L 636.5901699437495 243.5901699437495 L 633.442693604348 245.16390811345022 L 633.1639081134502 245.442693604348 L 631.5901699437495 248.5901699437495 L 629.5901699437495 249.5901699437495 L 629.1639081134502 250.442693604348 L 625.442693604348 254.16390811345022 L 624.5901699437495 254.5901699437495 L 622.6352549156242 258.5 L 617.7705098312484 258.5 L 617.3541019662497 258.7082039324994 L 615.3541019662497 259.7082039324994 L 613.3541019662497 260.7082039324994 L 613.5901699437495 260.59016994374946 L 612.5901699437495 262.59016994374946 L 610.5901699437495 263.59016994374946 L 609.5901699437495 265.59016994374946 L 603.7705098312484 268.5 L 607.5 268.5 L 607.5 267.6352549156242 L 603.5901699437495 269.59016994374946 L 603.7082039324994 269.3541019662497 L 603.5 269.77050983124843 L 603.5 270 L 603.5 272 L 603.5 274 L 603.5 276 L 603.5 276.22949016875157 L 603.7082039324994 276.6458980337503 L 605.5 280.22949016875157 L 605.5 282.22949016875157 L 605.7082039324994 282.6458980337503 L 606.7082039324994 284.6458980337503 L 607.9465726200144 287.1226354087804 L 609.1151247353788 290.6282917548737 L 609.5552403667323 291.9486386489341 L 611.1639081134502 293.557306395652 L 613.5 298.22949016875157 L 613.5 297.3647450843758 L 613.5901699437495 297.40983005625054 L 615.7082039324994 301.6458980337503 L 615.5901699437495 301.40983005625054 L 617.5901699437495 302.40983005625054 L 619.7082039324994 306.6458980337503 L 620.7082039324994 308.6458980337503 L 620.5901699437495 308.40983005625054 L 622.5901699437495 309.40983005625054 L 624.7082039324994 313.6458980337503 L 624.5901699437495 313.40983005625054 L 625.442693604348 313.8360918865498 L 629.5552403667323 317.9486386489341 L 630.5552403667323 320.9486386489341 L 632.1639081134502 322.557306395652 L 633.7082039324994 325.6458980337503 L 634.7082039324994 327.6458980337503 L 635.1639081134502 328.557306395652 L 638.5 331.8933982822018 L 638.5 334.72918271701 L 638.8284311303835 335.2218294125853 L 641.1639081134502 337.557306395652 L 642.1639081134502 339.557306395652 L 644.1639081134502 341.557306395652 L 645.7082039324994 344.6458980337503 L 646.7082039324994 346.6458980337503 L 647.1639081134502 347.557306395652 L 649.1639081134502 349.557306395652 L 650.7082039324994 352.6458980337503 L 651.9465726200144 355.1226354087804 L 652.1327310142555 355.6811105915035 L 654.1327310142555 356.6811105915035 L 655.1327310142555 359.6811105915035 L 656.5901699437495 360.40983005625054 L 658.4993850965169 364.22826036178543 L 659.8284311303835 366.2218294125853 L 662.1639081134502 368.557306395652 L 663.4993850965169 371.22826036178543 L 664.1355623673658 372.18252626805867 L 668.5 374.3647450843758 L 668.5 376.3647450843758 L 667.442693604348 375.8360918865498 L 671.1639081134502 379.557306395652 L 672.1639081134502 381.557306395652 L 673.3033008588991 382.6966991411009 L 674.442693604348 383.8360918865498 L 678.1327310142555 385.6811105915035 L 679.5552403667323 389.9486386489341 L 680.3033008588991 390.6966991411009 L 682.3033008588991 392.6966991411009 L 683.442693604348 393.8360918865498 L 685.442693604348 394.8360918865498 L 687.442693604348 396.8360918865498 L 692.5 399.3647450843758 L 692.5 400.59430584957903 L 690.8773645912196 400.0534273799856 L 693.3541019662497 401.2917960675006 L 697.5901699437495 403.40983005625054 L 698.5901699437495 405.40983005625054 L 696.7705098312484 404.5 L 700.1066017177982 404.5 L 703.442693604348 407.8360918865498 L 705.442693604348 408.8360918865498 L 707.442693604348 410.8360918865498 L 710.5901699437495 412.40983005625054 L 712.1639081134502 415.557306395652 L 712.442693604348 415.8360918865498 L 713.3541019662497 416.2917960675006 L 715.3541019662497 417.2917960675006 L 719.5901699437495 419.40983005625054 L 720.5901699437495 421.40983005625054 L 721.442693604348 421.8360918865498 L 723.442693604348 423.8360918865498 L 724.3541019662497 424.2917960675006 L 728.5901699437495 426.40983005625054 L 729.5901699437495 428.40983005625054 L 729.3541019662497 428.2917960675006 L 732.442693604348 429.8360918865498 L 736.1639081134502 433.557306395652 L 736.5901699437495 434.40983005625054 L 738.5901699437495 435.40983005625054 L 739.5901699437495 437.40983005625054 L 739.3541019662497 437.2917960675006 L 745.5 440.3647450843758 L 745.5 442.3647450843758 L 745.1355623673658 442.18252626805867 L 747.1355623673658 445.18252626805867 L 747.3541019662497 445.2917960675006 L 750.442693604348 446.8360918865498 L 752.442693604348 448.8360918865498 L 753.3541019662497 449.2917960675006 L 755.3541019662497 450.2917960675006 L 757.3541019662497 451.2917960675006 L 761.3541019662497 453.2917960675006 L 763.3541019662497 454.2917960675006 L 765.3541019662497 455.2917960675006 L 767.3541019662497 456.2917960675006 L 771.5901699437495 458.40983005625054 L 773.1639081134502 461.557306395652 L 773.442693604348 461.8360918865498 L 776.5901699437495 463.40983005625054 L 778.1639081134502 466.557306395652 L 778.442693604348 466.8360918865498 L 783.5 469.3647450843758 L 783.5 471.3647450843758 L 781.3541019662497 470.2917960675006 L 787.5 473.3647450843758 L 787.5 478.22949016875157 L 787.7082039324994 478.6458980337503 L 787.5901699437495 478.40983005625054 L 787.3541019662497 478.2917960675006 L 787.7705098312484 478.5 L 792.6352549156242 478.5 L 793.6352549156242 480.5 L 791 480.5 " stroke="#4a5568" stroke-width="2" fill="none" stroke-linecap="butt" stroke-linejoin="round" />
  </g>
</svg>