<svg xmlns="http://www.w3.org/2000/svg" width="1334" height="864" viewBox="0 0 1334 864">
  <g fill="none">
    <path d="M 523.0311529493745 80.93769410125094 L 512.9688470506255 101.06230589874906 M 493.8704815926678 75.75 L 493.8704815926678 98.25 M 469.3426175476673 73.75 L 469.3426175476673 96.25 M 444.3426175476673 73.75 L 444.3426175476673 96.25 M 417.4595122913104 79.55637814263474 L 423.7561353814216 101.15736278827248 M 394.38325624570217 87.02261306365698 L 399.8997949106319 108.83586135817596 M 372.0254125080516 108.9191368121036 L 390.43972410627197 121.84829488073461 M 359.07942810580613 131.6853790415151 L 379.20403990330425 141.74768494026415 M 349.84471646543113 158.12905892504662 L 372.15528353456887 161.04257862697173 M 346.75 184.10353954727407 L 369.25 184.10353954727407 M 347.8870116881681 210.69168777273683 L 370.1129883118319 207.19083600147457 M 358.6620591558548 235.58456467090926 L 379.3379408441452 226.7099989681935 M 380.6781238634594 255.9259820251133 L 392.4278900697599 236.73762633481826 M 405.9348914501521 266.83665601979146 L 412.93153139758806 245.4521515961219 M 433.7729160124905 271.25 L 433.7729160124905 248.75 M 460.8141734753418 268.33432457192 L 455.64473276302624 246.43622230889605 M 486.2635582257287 259.94594418634136 L 476.3025928170402 239.77098029227423 M 507.56223624778886 250.12285508460366 L 499.6810095481478 229.0483143847719 M 529.7485201704305 227.51515525966732 L 510.40625898239546 216.02050728185463 M 540.1307351048858 205.67330513169114 L 521.5137478743338 193.03772890986957 M 551.5840909707612 180.8414087970586 L 530.4932473988464 173.00391446372612 M 557.1605235583394 154.2885577655258 L 534.8394764416606 151.45644625377196 M 561.2453942870981 128.78690200642097 L 538.7546057129019 128.1431401631795 M 561.25 103.46502108480024 L 538.75 103.46502108480024 M 563.6832924700823 88.31488784596657 L 548.7928141376628 71.44705885016084 M 566.8010747051108 91.24154940874345 L 587.1989252948892 81.745355891493 M 564.75 111.2573846726184 L 587.25 111.2573846726184 M 562.75 135.78524871761874 L 585.25 135.78524871761874 M 562.9407911537961 157.2526394632106 L 584.3568610414678 164.1520561462614 M 560.75 185.31311276261908 L 583.25 185.31311276261908 M 560.75 210.31311276261908 L 583.25 210.31311276261908 M 565.929108201917 237.77708095542283 L 587.2418900527523 230.56491555391545 M 577.6837890574145 261.29115618652395 L 596.8822040219313 249.55783343249482 M 607.8958609795754 277.25 L 607.8958609795754 254.75 " stroke="#8B4513" stroke-width="7" fill="none" stroke-linecap="butt" />
    <path d="M 521.3541019662497 84.29179606750063 L 517.7705098312484 82.5 L 514 82.5 L 513.7705098312484 82.5 L 511.77050983124843 81.5 L 509.77050983124843 81.5 L 507.77050983124843 80.5 L 504.21708245126285 80.5 L 501.21708245126285 79.5 L 498 79.5 L 494 79.5 L 492 79.5 L 491.77050983124843 79.5 L 489.77050983124843 78.5 L 485.77050983124843 78.5 L 483.77050983124843 77.5 L 480 77.5 L 477 77.5 L 473 77.5 L 470 77.5 L 468 77.5 L 466 77.5 L 463 77.5 L 460 77.5 L 457 77.5 L 455 77.5 L 451 77.5 L 448 77.5 L 446 77.5 L 443 77.5 L 440 77.5 L 434.22949016875157 77.5 L 432.22949016875157 78.5 L 428.78291754873715 78.5 L 423.67544788528295 80.20248988781807 L 420.48950883265667 82.32644925623558 L 417.5556319732456 83.5 L 414.07670780786754 83.5 L 409.1809828122275 84.72393124891 L 404.3822725296356 85.92360881955798 L 401.6458980337503 87.29179606750063 L 399.6458980337503 88.29179606750063 L 397.6458980337503 89.29179606750063 L 395.6458980337503 90.29179606750063 L 395.22949016875157 90.5 L 391.8933982822018 90.5 L 387.6966991411009 94.6966991411009 L 384.6966991411009 97.6966991411009 L 382.6966991411009 99.6966991411009 L 378.8360918865498 103.55730639565199 L 377.5006149034831 106.22826036178543 L 374.5 110.72918271701003 L 374.5 110.36474508437578 L 373.86726898574454 110.68111059150351 L 372.2024898878181 115.67544788528292 L 370.5006149034831 118.22826036178543 L 369.2917960675006 120.64589803375031 L 368.8360918865498 121.55730639565199 L 366.44475963326767 123.94863864893411 L 365.0534273799856 128.1226354087804 L 363.2917960675006 131.6458980337503 L 362.2917960675006 133.6458980337503 L 360.5 137.22949016875157 L 360.5 137.8933982822018 L 358.5 139.8933982822018 L 358.5 143.22949016875157 L 358.0534273799856 144.1226354087804 L 357.0534273799856 147.1226354087804 L 355.5 150.22949016875157 L 355.5 152.22949016875157 L 355.0534273799856 153.1226354087804 L 353.5 157.78291754873715 L 353.5 162 L 353.5 162.22949016875157 L 352.5 164.22949016875157 L 352.5 168 L 352.5 169.07670780786754 L 351.72393124891 172.1809828122275 L 350.5 177.07670780786754 L 350.5 182 L 350.5 184 L 350.5 187 L 350.5 190 L 350.5 193 L 350.5 196 L 350.5 199 L 350.5 203.21708245126285 L 351.5 206.21708245126285 L 351.5 207 L 351.5 210.21708245126285 L 352.88487526462114 214.37170824512629 L 353.9545711509831 217.58079590421212 L 355.5 221.44436802675438 L 355.5 225.27081728298995 L 358.5006149034831 229.77173963821457 L 359.8360918865498 232.442693604348 L 361.5 234.1066017177982 L 361.5 237.63525491562422 L 364.86726898574454 239.3188894084965 L 366.59430584957903 244.5 L 370.8933982822018 244.5 L 371.2218294125853 244.8284311303835 L 374.2218294125853 246.82843113038348 L 376.557306395652 249.16390811345022 L 379.22826036178543 250.49938509651693 L 381.9882448041197 252.33937472473974 L 387.84724865557376 255.8547770356122 L 391.6282917548737 257.11512473537886 L 394.1226354087804 257.9465726200144 L 397.6458980337503 259.7082039324994 L 400.1226354087804 260.9465726200144 L 403.6282917548737 262.11512473537886 L 406.6282917548737 263.11512473537886 L 409.901546771346 264.2062097408696 L 413.3822725296356 265.076391180442 L 416.22949016875157 266.5 L 419.78291754873715 266.5 L 422.78291754873715 267.5 L 427 267.5 L 431 267.5 L 433 267.5 L 437 267.5 L 441 267.5 L 443 267.5 L 445 267.5 L 448.21708245126285 267.5 L 451.21708245126285 266.5 L 452 266.5 L 456.77050983124843 266.5 L 460.77050983124843 264.5 L 461.92329219213246 264.5 L 467.6177274703644 263.076391180442 L 468.77050983124843 262.5 L 473.1066017177982 262.5 L 476.442693604348 259.1639081134502 L 475.77050983124843 259.5 L 477.21708245126285 259.5 L 481.8773645912196 257.9465726200144 L 484.3541019662497 256.7082039324994 L 487.8773645912196 254.94657262001442 L 490.8773645912196 253.94657262001442 L 494.8773645912196 251.94657262001442 L 497.8773645912196 250.94657262001442 L 503.442693604348 248.16390811345022 L 504.1066017177982 247.5 L 505.27081728299 247.5 L 510.3334617360803 244.12490369793977 L 514.3334617360803 241.12490369793977 L 518.8174737319414 238.13556236736574 L 520.1639081134502 235.442693604348 L 522.1639081134502 233.442693604348 L 523.9465726200144 229.8773645912196 L 524.5552403667323 228.0513613510659 L 526.5552403667323 226.0513613510659 L 528.1151247353788 221.37170824512629 L 528.797510112182 219.32455211471708 L 530.797510112182 216.32455211471708 L 531.797510112182 213.32455211471708 L 533.4993850965169 210.77173963821457 L 534.7082039324994 208.3541019662497 L 535.7082039324994 206.3541019662497 L 536.7082039324994 204.3541019662497 L 537.1639081134502 203.442693604348 L 539.1639081134502 201.442693604348 L 540.7082039324994 198.3541019662497 L 541.9465726200144 195.8773645912196 L 542.797510112182 193.32455211471708 L 544.797510112182 190.32455211471708 L 546.1151247353788 186.37170824512629 L 547.2062097408696 183.09845322865402 L 548.076391180442 179.6177274703644 L 548.9465726200144 177.8773645912196 L 550.5 173.21708245126285 L 550.5 171.21708245126285 L 551.5 168.21708245126285 L 551.5 165.77050983124843 L 551.9465726200144 164.8773645912196 L 553.5 160.21708245126285 L 553.5 156 L 553.5 153.21708245126285 L 554.328981534432 150.7301378479667 L 555.5 142.53300858899107 L 555.5 139.77050983124843 L 556.5 137.77050983124843 L 556.5 134.92329219213246 L 557.5 130.92329219213246 L 557.5 128 L 557.5 126 L 557.5 124 L 557.5 122 L 557.5 120 L 557.5 118 L 557.5 114 L 557.5 112 L 557.5 110 L 557.5 106 L 557.5 104 L 557.5 102 L 557.5 100 L 557.5 99.21708245126284 L 558.5 96.21708245126284 L 558.5 94.21708245126284 L 558.9465726200144 92.87736459121957 L 559.7082039324994 91.35410196624969 L 561.5 87.77050983124842 L 561.5 85.77050983124842 L 561.7082039324994 85.35410196624969 L 561.5901699437495 85.59016994374947 L 559.7705098312484 86.5 L 560 86.5 L 562 86.5 L 564 86.5 L 566 86.5 L 565.8933982822018 86.5 L 567.8933982822018 88.5 L 568.3647450843758 88.5 L 567.2917960675006 86.35410196624969 L 569.4098300562505 90.59016994374947 L 569.5 90.63525491562422 L 569.5 88 L 569.5 90 L 569.5 92 L 569.5 95 L 569.5 97 L 569.5 100 L 569.5 100.22949016875158 L 568.5 102.22949016875158 L 568.5 106 L 568.5 108 L 568.5 111 L 568.5 113 L 568.5 115 L 568.5 117 L 568.5 119 L 568.5 121 L 568.5 123 L 568.5 123.22949016875158 L 567.5 125.22949016875158 L 567.5 128.22949016875157 L 566.5 130.22949016875157 L 566.5 134 L 566.5 136 L 566.5 138 L 566.5 140 L 566.5 142 L 566.5 144 L 566.5 146 L 566.5 148 L 566.5 150 L 566.5 152 L 566.5 154 L 566.5 156 L 566.5 158 L 566.5 158.22949016875157 L 566.2917960675006 158.6458980337503 L 564.5 162.22949016875157 L 564.5 166 L 564.5 168 L 564.5 170 L 564.5 172 L 564.5 174 L 564.5 176 L 564.5 178 L 564.5 180 L 564.5 182 L 564.5 184 L 564.5 186 L 564.5 189 L 564.5 193 L 564.5 196 L 564.5 200 L 564.5 202 L 564.5 204 L 564.5 207 L 564.5 209 L 564.5 211 L 564.5 213 L 564.5 215 L 564.5 217 L 564.5 221.21708245126285 L 565.5 224.21708245126285 L 565.5 227.27081728298995 L 567.5 230.27081728298995 L 567.5 232.77050983124843 L 569.2917960675006 236.3541019662497 L 569.5 236.77050983124843 L 569.5 240.1066017177982 L 571.5 242.1066017177982 L 571.5 245.1066017177982 L 573.5 247.1066017177982 L 573.5 248.27081728298995 L 576.5006149034831 252.77173963821457 L 577.8360918865498 255.442693604348 L 579.8360918865498 257.442693604348 L 580.5006149034831 258.77173963821457 L 583.1715688696165 262.7781705874147 L 584.8360918865498 264.442693604348 L 586.4098300562505 267.59016994374946 L 590.6458980337503 269.7082039324994 L 592.6458980337503 270.7082039324994 L 594.6458980337503 271.7082039324994 L 598.2294901687516 273.5 L 602 273.5 L 604 273.5 L 606 273.5 L 608 273.5 L 610 273.5 L 612 273.5 L 614 273.5 L 616 273.5 L 618 273.5 L 620 273.5 " stroke="#4a5568" stroke-width="2" fill="none" stroke-linecap="butt" stroke-linejoin="round" />
    <path d="M 514.6458980337503 97.70820393249937 L 514.2294901687516 97.5 L 514 97.5 L 510.22949016875157 97.5 L 508.22949016875157 96.5 L 506.22949016875157 96.5 L 504.22949016875157 95.5 L 501.78291754873715 95.5 L 498.78291754873715 94.5 L 498 94.5 L 494 94.5 L 492 94.5 L 488.22949016875157 94.5 L 486.22949016875157 93.5 L 482.22949016875157 93.5 L 480.22949016875157 92.5 L 480 92.5 L 477 92.5 L 473 92.5 L 470 92.5 L 468 92.5 L 466 92.5 L 463 92.5 L 460 92.5 L 457 92.5 L 455 92.5 L 451 92.5 L 448 92.5 L 446 92.5 L 443 92.5 L 440 92.5 L 437.77050983124843 92.5 L 435.77050983124843 93.5 L 431.21708245126285 93.5 L 430.32455211471705 93.79751011218193 L 427.51049116734333 95.67355074376442 L 420.4443680267544 98.5 L 415.92329219213246 98.5 L 412.8190171877725 99.27606875109 L 409.6177274703644 100.07639118044202 L 408.3541019662497 100.70820393249937 L 406.3541019662497 101.70820393249937 L 404.3541019662497 102.70820393249937 L 402.3541019662497 103.70820393249937 L 398.77050983124843 105.5 L 398.1066017177982 105.5 L 398.3033008588991 105.3033008588991 L 395.3033008588991 108.3033008588991 L 393.3033008588991 110.3033008588991 L 391.1639081134502 112.44269360434801 L 390.4993850965169 113.77173963821457 L 389.5 115.27081728298997 L 389.5 119.63525491562422 L 386.13273101425546 121.31888940849649 L 385.7975101121819 122.32455211471708 L 383.4993850965169 125.77173963821457 L 382.7082039324994 127.35410196624969 L 381.1639081134502 130.442693604348 L 379.55524036673233 132.0513613510659 L 378.9465726200144 133.8773645912196 L 376.7082039324994 138.3541019662497 L 375.7082039324994 140.3541019662497 L 375.5 140.77050983124843 L 375.5 144.1066017177982 L 373.5 146.1066017177982 L 373.5 146.77050983124843 L 371.9465726200144 149.8773645912196 L 370.9465726200144 152.8773645912196 L 370.5 153.77050983124843 L 370.5 155.77050983124843 L 368.9465726200144 158.8773645912196 L 368.5 160.21708245126285 L 368.5 162 L 368.5 165.77050983124843 L 367.5 167.77050983124843 L 367.5 168 L 367.5 170.92329219213246 L 366.27606875109 175.8190171877725 L 365.5 178.92329219213246 L 365.5 182 L 365.5 184 L 365.5 187 L 365.5 190 L 365.5 193 L 365.5 196 L 365.5 199 L 365.5 200.78291754873715 L 366.5 203.78291754873715 L 366.5 207 L 366.5 207.78291754873715 L 367.11512473537886 209.62829175487371 L 368.0454288490169 212.41920409578788 L 370.5 218.55563197324562 L 370.5 220.72918271701005 L 371.4993850965169 222.22826036178543 L 372.1639081134502 223.557306395652 L 376.5 227.8933982822018 L 376.5 228.36474508437578 L 377.13273101425546 228.6811105915035 L 377.40569415042097 229.5 L 377.1066017177982 229.5 L 380.7781705874147 233.1715688696165 L 383.7781705874147 235.17156886961652 L 385.442693604348 236.83609188654978 L 386.77173963821457 237.50061490348307 L 390.0117551958803 239.66062527526026 L 394.15275134442624 242.1452229643878 L 396.3717082451263 242.88487526462114 L 399.8773645912196 244.05342737998558 L 404.3541019662497 246.29179606750063 L 405.8773645912196 247.05342737998558 L 408.3717082451263 247.88487526462114 L 411.3717082451263 248.88487526462114 L 414.098453228654 249.7937902591304 L 418.6177274703644 250.92360881955798 L 419.77050983124843 251.5 L 422.21708245126285 251.5 L 425.21708245126285 252.5 L 427 252.5 L 431 252.5 L 433 252.5 L 437 252.5 L 441 252.5 L 443 252.5 L 445 252.5 L 445.78291754873715 252.5 L 448.78291754873715 251.5 L 452 251.5 L 453.22949016875157 251.5 L 457.22949016875157 249.5 L 460.07670780786754 249.5 L 462.3822725296356 248.92360881955798 L 465.22949016875157 247.5 L 466.8933982822018 247.5 L 467.557306395652 246.83609188654978 L 472.22949016875157 244.5 L 474.78291754873715 244.5 L 476.1226354087804 244.05342737998558 L 477.6458980337503 243.29179606750063 L 482.1226354087804 241.05342737998558 L 485.1226354087804 240.05342737998558 L 489.1226354087804 238.05342737998558 L 492.1226354087804 237.05342737998558 L 494.557306395652 235.83609188654978 L 497.8933982822018 232.5 L 500.72918271701 232.5 L 501.6665382639197 231.87509630206023 L 505.6665382639197 228.87509630206023 L 507.18252626805867 227.86443763263426 L 507.8360918865498 226.557306395652 L 509.8360918865498 224.557306395652 L 510.0534273799856 224.1226354087804 L 511.44475963326767 219.9486386489341 L 513.4447596332677 217.9486386489341 L 513.8848752646212 216.62829175487371 L 515.202489887818 212.67544788528292 L 517.202489887818 209.67544788528292 L 518.202489887818 206.67544788528292 L 520.5006149034831 203.22826036178543 L 521.2917960675006 201.6458980337503 L 522.2917960675006 199.6458980337503 L 523.2917960675006 197.6458980337503 L 524.8360918865498 194.557306395652 L 526.8360918865498 192.557306395652 L 527.2917960675006 191.6458980337503 L 528.0534273799856 190.1226354087804 L 529.202489887818 186.67544788528292 L 531.202489887818 183.67544788528292 L 531.8848752646212 181.62829175487371 L 532.7937902591304 178.90154677134598 L 533.923608819558 174.3822725296356 L 535.0534273799856 172.1226354087804 L 535.5 170.78291754873715 L 535.5 168.78291754873715 L 536.5 165.78291754873715 L 536.5 162.22949016875157 L 538.0534273799856 159.1226354087804 L 538.5 157.78291754873715 L 538.5 156 L 538.5 150.78291754873715 L 539.671018465568 147.2698621520333 L 540.5 141.46699141100893 L 540.5 136.22949016875157 L 541.5 134.22949016875157 L 541.5 133.07670780786754 L 542.5 129.07670780786754 L 542.5 128 L 542.5 126 L 542.5 124 L 542.5 122 L 542.5 120 L 542.5 118 L 542.5 114 L 542.5 112 L 542.5 110 L 542.5 106 L 542.5 104 L 542.5 102 L 542.5 100 L 542.5 96.78291754873716 L 543.5 93.78291754873716 L 543.5 91.78291754873716 L 545.0534273799856 87.12263540878043 L 546.2917960675006 84.64589803375031 L 546.5 84.22949016875158 L 546.5 82.22949016875158 L 548.2917960675006 78.64589803375031 L 550.4098300562505 74.40983005625053 L 556.2294901687516 71.5 L 560 71.5 L 562 71.5 L 564 71.5 L 566 71.5 L 572.1066017177982 71.5 L 574.1066017177982 73.5 L 577.6352549156242 73.5 L 580.7082039324994 79.64589803375031 L 580.5901699437495 79.40983005625053 L 584.5 81.36474508437578 L 584.5 88 L 584.5 90 L 584.5 92 L 584.5 95 L 584.5 97 L 584.5 100 L 584.5 103.77050983124842 L 583.5 105.77050983124842 L 583.5 106 L 583.5 108 L 583.5 111 L 583.5 113 L 583.5 115 L 583.5 117 L 583.5 119 L 583.5 121 L 583.5 123 L 583.5 126.77050983124842 L 582.5 128.77050983124843 L 582.5 131.77050983124843 L 581.5 133.77050983124843 L 581.5 134 L 581.5 136 L 581.5 138 L 581.5 140 L 581.5 142 L 581.5 144 L 581.5 146 L 581.5 148 L 581.5 150 L 581.5 152 L 581.5 154 L 581.5 156 L 581.5 158 L 581.5 161.77050983124843 L 579.7082039324994 165.3541019662497 L 579.5 165.77050983124843 L 579.5 166 L 579.5 168 L 579.5 170 L 579.5 172 L 579.5 174 L 579.5 176 L 579.5 178 L 579.5 180 L 579.5 182 L 579.5 184 L 579.5 186 L 579.5 189 L 579.5 193 L 579.5 196 L 579.5 200 L 579.5 202 L 579.5 204 L 579.5 207 L 579.5 209 L 579.5 211 L 579.5 213 L 579.5 215 L 579.5 217 L 579.5 218.78291754873715 L 580.5 221.78291754873715 L 580.5 222.72918271701005 L 582.5 225.72918271701005 L 582.5 229.22949016875157 L 582.7082039324994 229.6458980337503 L 584.5 233.22949016875157 L 584.5 233.8933982822018 L 586.5 235.8933982822018 L 586.5 238.8933982822018 L 588.5 240.8933982822018 L 588.5 243.72918271701005 L 589.4993850965169 245.22826036178543 L 590.1639081134502 246.557306395652 L 592.1639081134502 248.557306395652 L 593.4993850965169 251.22826036178543 L 594.8284311303835 253.2218294125853 L 597.1639081134502 255.557306395652 L 597.5901699437495 256.40983005625054 L 597.3541019662497 256.2917960675006 L 599.3541019662497 257.2917960675006 L 601.3541019662497 258.2917960675006 L 601.7705098312484 258.5 L 602 258.5 L 604 258.5 L 606 258.5 L 608 258.5 L 610 258.5 L 612 258.5 L 614 258.5 L 616 258.5 L 618 258.5 L 620 258.5 " stroke="#4a5568" stroke-width="2" fill="none" stroke-linecap="butt" stroke-linejoin="round" />
  </g>
</svg>