<svg xmlns="http://www.w3.org/2000/svg" width="1334" height="864" viewBox="0 0 1334 864">
  <g fill="none">
    <path d="M 416.75 53 L 439.25 53 M 416.75 78 L 439.25 78 M 416.75 103 L 439.25 103 M 417.9554509411546 130.01708971284023 L 440.0445490588454 125.73669903592446 M 422.0166551686159 154.24678121521873 L 444.1702959241219 150.3140720629948 M 428.05094886848804 178.61148875787637 L 449.94905113151196 173.44204804556074 M 435.48263463619423 203.90522686472747 L 456.17726125718434 195.07446081540837 M 448.2712747753267 229.1791528970243 L 463.925354423396 213.01747630169845 M 466.80976026725943 246.55710507335246 L 480.2885964094909 228.54125160339785 M 488.4209647162569 261.28836473156474 L 498.48327061500595 241.16375293406665 M 513.2164990091069 270.8725526366923 L 520.1712014058903 249.47437246705698 M 541.1836098864471 275.25 L 541.1836098864471 252.75 M 568.9939818925685 271.3998436028328 L 562.4787697542998 249.86378057373307 M 593.4859271269863 264.00006523645897 L 584.8755498987719 243.21277575495503 M 618.471924201218 250.43350794183203 L 602.9436237895687 234.1509440673811 M 634.7972639756023 231.03521030251136 L 617.3970657954995 216.77045992638676 M 648.8465160453894 206.34051900852515 L 627.829013216861 198.30842246697406 M 655.1657100126827 179.84895223677077 L 632.8342899873173 177.09982880361744 M 657.25 153.69651565940455 L 634.75 153.69651565940455 M 662.25 129.6554845949093 L 639.75 129.6554845949093 M 665.25 105.28989821007724 L 642.75 105.28989821007724 M 664.0426853840072 82.67575676105972 L 641.9573146159928 78.37617561409442 M 665.5713727495354 62.91006659523134 L 646.4286272504646 51.08613768992211 M 669.2384940377632 50.25 L 669.2384940377632 27.75 M 676.75 49.68867085229988 L 699.25 49.68867085229988 M 676.7940393493116 73.69421326385203 L 699.2059606506884 75.68312844074772 M 675.75 99.58965133870709 L 698.25 99.58965133870709 M 678.7500392553416 123.98495713879053 L 701.2499607446584 123.92551830828764 M 677.8342899873173 147.45757038134477 L 700.1657100126827 150.2066938144981 M 674.75 173.3498528691863 L 697.25 173.3498528691863 M 673.1719328765078 197.05553779025763 L 695.5624327265393 199.27263419450708 M 669.75 222.64089474947082 L 692.25 222.64089474947082 M 667.9264210006664 246.2830971694644 L 690.316920850698 248.50019357371386 M 664.80789757178 270.94265165618197 L 687.19210242822 273.22242641368064 M 659.9438451781289 294.1074195428333 L 682.0561548218711 298.26623694917123 M 655.603603011485 317.0079243269222 L 677.1530206827371 323.47882828463355 M 651.050948868488 341.7380390788912 L 672.949051131512 346.90747979120675 M 647.3288976970587 365.859381986701 L 669.2269999600826 371.0288226990166 M 641.934591886461 386.9752530618141 L 662.0993250966815 396.9569129719007 M 631.5958225647693 404.50522632080606 L 646.9045589207063 420.99439219371834 M 613.3353438297395 423.9311292564323 L 631.4313124575242 437.3022144563041 M 600.0111745549365 442.1127970250811 L 615.9210771316338 458.02269960177836 M 580.584495266868 453.7223892249366 L 593.6601452745389 472.03297023365644 M 561.9785284806217 463.70069805268054 L 569.2625128738553 484.9890416087003 M 540.1048689683013 468.52196422394417 L 543.3564146648788 490.7857790494198 M 515.8471359319169 471.0136132481759 L 518.0642323361665 493.40411309820746 M 497.32018029278055 469.59266501586757 L 488.08669951525604 490.11077488815073 M 476.7690542960901 458.8716041231889 L 464.7160463293852 477.87094618954876 M 457.3826143815692 448.47897703000115 L 441.9254285837099 464.829065935278 M 437.11863832491076 431.5585031014823 L 424.5293340678388 450.2068118270174 M 422.1416580875155 417.43719280182313 L 403.8887089210654 430.5931742067578 M 415.2359470147511 401.07365696292845 L 392.7640529852489 402.197925047873 M 415.25 376.63579100540073 L 392.75 376.63579100540073 M 411.25 352.4324822807371 L 388.75 352.4324822807371 M 411.65006636675344 330.18268988567485 L 389.7519641037295 325.01324917335927 " stroke="#8B4513" stroke-width="7" fill="none" stroke-linecap="butt" />
    <path d="M 420.5 53 L 420.5 55 L 420.5 57 L 420.5 59 L 420.5 62 L 420.5 64 L 420.5 66 L 420.5 68 L 420.5 70 L 420.5 72 L 420.5 74 L 420.5 76 L 420.5 78 L 420.5 80 L 420.5 83 L 420.5 86 L 420.5 89 L 420.5 92 L 420.5 94 L 420.5 96 L 420.5 100 L 420.5 102 L 420.5 105 L 420.5 108 L 420.5 110 L 420.5 114 L 420.5 116 L 420.5 118 L 420.5 120 L 420.5 122.92329219213245 L 421.5 126.92329219213245 L 421.5 130.77050983124843 L 422.5 132.77050983124843 L 422.5 135.7426463519459 L 423.68064584018657 141.64587555287872 L 424.5 144.92329219213246 L 424.5 146.92329219213246 L 425.5 150.92329219213246 L 425.5 153.21708245126285 L 426.88487526462114 157.37170824512629 L 427.5 159.21708245126285 L 427.5 162.77050983124843 L 428.5 164.77050983124843 L 428.5 167.77050983124843 L 429.5 169.77050983124843 L 429.5 171.77050983124843 L 430.5 173.77050983124843 L 430.5 175.77050983124843 L 431.5 177.77050983124843 L 431.5 181.77050983124843 L 433.2917960675006 185.3541019662497 L 433.5 185.77050983124843 L 433.5 187.21708245126285 L 434.5 190.21708245126285 L 434.5 192.21708245126285 L 436.2024898878181 197.32455211471708 L 438.2024898878181 200.32455211471708 L 439.0534273799856 202.8773645912196 L 440.2917960675006 205.3541019662497 L 440.5 205.77050983124843 L 440.5 206.92329219213246 L 442.5605607781405 215.16553530469446 L 443.5 215.63525491562422 L 443.5 215.27081728298995 L 446.5006149034831 219.77173963821457 L 448.8360918865498 224.442693604348 L 452.557306395652 228.16390811345022 L 453.40983005625054 228.5901699437495 L 454.40983005625054 230.5901699437495 L 456.86443763263424 231.81747373194133 L 457.87509630206023 233.33346173608032 L 462.06230589874906 238.91640786499875 L 463.40983005625054 239.5901699437495 L 464.6811105915035 242.13273101425546 L 468.9486386489341 243.5552403667323 L 469.1715688696165 243.7781705874147 L 472.98612181134 249.5 L 477.22949016875157 249.5 L 476.557306395652 249.16390811345022 L 478.557306395652 251.16390811345022 L 482.557306395652 253.16390811345022 L 484.557306395652 255.16390811345022 L 487.6458980337503 256.7082039324994 L 491.6458980337503 258.7082039324994 L 494.1226354087804 259.9465726200144 L 497.1226354087804 260.9465726200144 L 499.1226354087804 261.9465726200144 L 502.1226354087804 262.9465726200144 L 504.1226354087804 263.9465726200144 L 507.901546771346 265.2062097408696 L 511.3822725296356 266.076391180442 L 513.3822725296357 267.076391180442 L 519.0767078078676 268.5 L 522.0767078078676 268.5 L 526.0767078078676 269.5 L 529 269.5 L 529.7829175487371 269.5 L 531.901546771346 270.2062097408696 L 537.0767078078676 271.5 L 541 271.5 L 543 271.5 L 545 271.5 L 548.7426463519458 271.5 L 553.7426463519458 270.5 L 555 270.5 L 558.2170824512629 270.5 L 561.9287366002383 269.26278195034155 L 567.4557521507835 268.15737884023247 L 568.7705098312484 267.5 L 572.7705098312484 267.5 L 577.8773645912196 264.9465726200144 L 579.2170824512629 264.5 L 581.7705098312484 264.5 L 585.7705098312484 262.5 L 587.7705098312484 262.5 L 590.8773645912196 260.9465726200144 L 593.8773645912196 259.9465726200144 L 595.8773645912196 258.9465726200144 L 598.8773645912196 257.9465726200144 L 601.3541019662497 256.7082039324994 L 602.8773645912196 255.94657262001442 L 608.3188894084965 254.13273101425546 L 609.3188894084965 252.13273101425546 L 609.8773645912196 251.94657262001442 L 613.442693604348 250.16390811345022 L 616.3033008588991 247.3033008588991 L 619.3033008588991 244.3033008588991 L 624.5 239.1066017177982 L 624.5 238.63525491562422 L 624.5901699437495 238.5901699437495 L 626.7082039324994 234.3541019662497 L 626.5901699437495 234.5901699437495 L 628.1355623673658 233.81747373194133 L 630.8284311303835 229.7781705874147 L 633.8284311303835 226.7781705874147 L 636.4993850965169 222.77173963821457 L 637.7082039324994 220.3541019662497 L 638.4993850965169 218.77173963821457 L 640.4993850965169 215.77173963821457 L 642.7082039324994 211.3541019662497 L 643.9465726200144 208.8773645912196 L 644.9465726200144 205.8773645912196 L 647.5 200.77050983124843 L 647.5 197.77050983124843 L 648.5 195.77050983124843 L 648.5 192 L 648.5 191.77050983124843 L 648.9465726200144 190.8773645912196 L 650.5 186.21708245126285 L 650.5 183.92329219213246 L 651.5 179.92329219213246 L 651.5 175.92329219213246 L 652.5 171.92329219213246 L 652.5 169 L 652.5 166.7426463519459 L 653.5 161.7426463519459 L 653.5 159 L 653.5 157 L 653.5 155 L 653.5 153 L 653.5 152.21708245126285 L 654.1151247353788 150.37170824512629 L 654.9465726200144 147.8773645912196 L 655.7082039324994 146.3541019662497 L 657.5 142.77050983124843 L 657.5 139 L 657.5 137 L 657.5 136.21708245126285 L 658.5 133.21708245126285 L 658.5 130 L 658.5 128 L 658.5 126 L 658.5 124 L 658.5 123.77050983124842 L 658.9465726200144 122.87736459121957 L 660.5 118.21708245126284 L 660.5 115 L 660.5 113.77050983124842 L 661.5 111.77050983124842 L 661.5 107 L 661.5 105 L 661.5 100.22949016875158 L 660.5 98.22949016875158 L 660.5 97 L 660.5 94 L 660.5 92 L 660.5 90 L 660.5 88 L 660.5 85 L 660.5 83 L 660.5 81.77050983124842 L 661.5 79.77050983124842 L 661.5 76 L 661.5 74 L 661.5 72 L 661.5 70 L 661.5 68 L 661.5 66 L 661.5 64 L 661.5 62 L 661.5 60 L 661.5 62.63525491562421 L 663.5 61.63525491562421 L 663.5 56.770509831248425 L 664.5 54.770509831248425 L 664.5 52.770509831248425 L 664.7082039324994 52.35410196624969 L 665.9465726200144 49.877364591219575 L 666.1327310142555 49.31888940849649 L 666.442693604348 49.16390811345021 L 669.3033008588991 46.30330085889911 L 669.1066017177982 46.5 L 668 46.5 L 670 46.5 L 673 46.5 L 675 46.5 L 677 46.5 L 677.2294901687516 46.5 L 677.6458980337503 46.70820393249937 L 679.6458980337503 47.70820393249937 L 679.8644376326342 47.817473731941334 L 680.5006149034831 48.77173963821457 L 680.5 48.770509831248425 L 680.5 49 L 680.5 51 L 680.5 53 L 680.5 55 L 680.5 57 L 680.5 59 L 680.5 61 L 680.5 63 L 680.5 65 L 680.5 67 L 680.5 70 L 680.5 72 L 680.5 74.25735364805412 L 679.5 79.25735364805412 L 679.5 82 L 679.5 84 L 679.5 86 L 679.5 88 L 679.5 91 L 679.5 93 L 679.5 96 L 679.5 100 L 679.5 103 L 679.5 105 L 679.5 108 L 679.5 112.21708245126284 L 680.5 115.21708245126284 L 680.5 117.77050983124842 L 682.2917960675006 121.35410196624969 L 682.5 121.77050983124842 L 682.5 124 L 682.5 126 L 682.5 128 L 682.5 131 L 682.5 134 L 682.5 139 L 682.5 141 L 682.5 142.07670780786754 L 681.5 146.07670780786754 L 681.5 148.07670780786754 L 680.5 152.07670780786754 L 680.5 154.22949016875157 L 679.5 156.22949016875157 L 679.5 160.07670780786754 L 678.5 164.07670780786754 L 678.5 167 L 678.5 170 L 678.5 174 L 678.5 176 L 678.5 177.07670780786754 L 677.5 181.07670780786754 L 677.5 184 L 677.5 186 L 677.5 188 L 677.5 191 L 677.5 194.2573536480541 L 676.5 199.2573536480541 L 676.5 202 L 676.5 204 L 676.5 205.78291754873715 L 675.5 208.78291754873715 L 675.5 212 L 675.5 212.78291754873715 L 674.8848752646212 214.62829175487371 L 673.5 218.78291754873715 L 673.5 222 L 673.5 224 L 673.5 227 L 673.5 229 L 673.5 232 L 673.5 236 L 673.5 236.78291754873715 L 672.5 239.78291754873715 L 672.5 242.2573536480541 L 671.5 247.2573536480541 L 671.5 252.2573536480541 L 670.6456449323181 256.5291289864636 L 669.5 262.2573536480541 L 669.5 266.2573536480541 L 668.5 271.2573536480541 L 668.5 274.22949016875157 L 666.8426211597675 277.54424784921656 L 665.7372180496585 283.07126339976173 L 664.8848752646212 285.6282917548737 L 663.5 289.78291754873715 L 663.5 293 L 663.5 295.22949016875157 L 663.0534273799856 296.1226354087804 L 661.5 300.78291754873715 L 661.5 305 L 661.5 305.22949016875157 L 660.5 307.22949016875157 L 660.5 314 L 660.5 314.78291754873715 L 660.0534273799856 316.1226354087804 L 658.5 319.22949016875157 L 658.5 322.07670780786754 L 657.923608819558 324.3822725296356 L 656.5 327.22949016875157 L 656.5 332 L 656.5 332.22949016875157 L 655.5 334.22949016875157 L 655.5 338 L 655.5 339.22949016875157 L 654.5 341.22949016875157 L 654.5 343.22949016875157 L 654.2917960675006 343.6458980337503 L 652.5 347.22949016875157 L 652.5 351 L 652.5 353 L 652.5 353.22949016875157 L 651.5 355.22949016875157 L 651.5 359 L 651.5 362 L 651.5 365 L 651.5 365.22949016875157 L 650.5 367.22949016875157 L 650.5 370.22949016875157 L 649.5 372.22949016875157 L 649.5 375.22949016875157 L 649.2917960675006 375.6458980337503 L 647.5 379.22949016875157 L 647.5 381.22949016875157 L 647.2917960675006 381.6458980337503 L 645.5 385.22949016875157 L 645.5 388.22949016875157 L 645.2917960675006 388.6458980337503 L 643.5 392.22949016875157 L 643.5 394.22949016875157 L 643.2917960675006 394.6458980337503 L 642.2917960675006 396.6458980337503 L 641.2917960675006 398.6458980337503 L 640.8360918865498 399.557306395652 L 639.6966991411009 400.6966991411009 L 636.8360918865498 403.557306395652 L 635.8360918865498 405.557306395652 L 634.6966991411009 406.6966991411009 L 633.2218294125853 408.1715688696165 L 630.2218294125853 410.1715688696165 L 626.8360918865498 413.557306395652 L 625.8360918865498 415.557306395652 L 625.557306395652 415.8360918865498 L 622.8644376326342 417.18252626805867 L 619.7596227924662 421.8397485283108 L 618.1715688696165 424.2218294125853 L 615.8360918865498 426.557306395652 L 615.4098300562505 427.40983005625054 L 612.8672689857445 428.6811105915035 L 611.4447596332677 432.9486386489341 L 610.1715688696165 434.2218294125853 L 607.7596227924662 437.8397485283108 L 605.5006149034831 441.22826036178543 L 604.2917960675006 443.6458980337503 L 604.4098300562505 443.40983005625054 L 602.4098300562505 444.40983005625054 L 601.4098300562505 446.40983005625054 L 601.2282603617854 446.5006149034831 L 598.2282603617854 448.5006149034831 L 596.6458980337503 449.2917960675006 L 594.6458980337503 450.2917960675006 L 592.6458980337503 451.2917960675006 L 589.1226354087804 453.0534273799856 L 584.9486386489341 454.44475963326767 L 582.557306395652 456.8360918865498 L 580.557306395652 457.8360918865498 L 577.6966991411009 460.6966991411009 L 576.9486386489341 461.44475963326767 L 575.1226354087804 462.0534273799856 L 571.557306395652 463.8360918865498 L 570.1656284403132 465.2277698418886 L 567.901546771346 465.7937902591304 L 564.901546771346 466.7937902591304 L 559.9206676624956 468.03901003634303 L 557.7291827170101 469.5 L 554.2294901687516 469.5 L 551.3822725296357 470.923608819558 L 549.0767078078676 471.5 L 544.2573536480542 471.5 L 538.733259240667 472.6048188814774 L 532.466991411009 473.5 L 529.2573536480542 473.5 L 524.2573536480542 474.5 L 521 474.5 L 517.2573536480542 474.5 L 512.2573536480542 475.5 L 510 475.5 L 507 475.5 L 505 475.5 L 503.21708245126285 475.5 L 500.21708245126285 474.5 L 498.77050983124843 474.5 L 498.3541019662497 474.2917960675006 L 493.8773645912196 472.0534273799856 L 490.5807959042121 470.9545711509831 L 486.07507704922455 469.15228360898806 L 484.77173963821457 468.5006149034831 L 481.77173963821457 466.5006149034831 L 480.442693604348 465.8360918865498 L 478.442693604348 463.8360918865498 L 475.3541019662497 462.2917960675006 L 474.442693604348 461.8360918865498 L 471.0513613510659 458.44475963326767 L 467.32455211471705 457.2024898878181 L 464.77173963821457 455.5006149034831 L 462.77173963821457 454.5006149034831 L 458.27081728299 451.5 L 454 451.5 L 455.1066017177982 451.5 L 455.3033008588991 451.6966991411009 L 452.442693604348 448.8360918865498 L 450.442693604348 447.8360918865498 L 449.3033008588991 446.6966991411009 L 446.442693604348 443.8360918865498 L 445.59016994374946 443.40983005625054 L 444.59016994374946 441.40983005625054 L 441.442693604348 439.8360918865498 L 438.7781705874147 437.1715688696165 L 435.1602514716892 434.7596227924662 L 432.7781705874147 433.1715688696165 L 431.8284311303835 432.2218294125853 L 429.13556236736576 428.18252626805867 L 426.442693604348 426.8360918865498 L 424.442693604348 424.8360918865498 L 422.442693604348 423.8360918865498 L 422.1639081134502 423.557306395652 L 421.1639081134502 421.557306395652 L 419.1639081134502 419.557306395652 L 418.1639081134502 417.557306395652 L 416.1639081134502 415.557306395652 L 415.4993850965169 414.22826036178543 L 413.4993850965169 411.22826036178543 L 413.5 411.22949016875157 L 413.5 408.22949016875157 L 412.5 406.22949016875157 L 412.5 404.22949016875157 L 411.5 402.22949016875157 L 411.5 401 L 411.5 397 L 411.5 395 L 411.5 389 L 411.5 385 L 411.5 382 L 411.5 379 L 411.5 376 L 411.5 373 L 411.5 369.78291754873715 L 409.9465726200144 365.1226354087804 L 409.5 364.22949016875157 L 409.5 361.78291754873715 L 407.9465726200144 357.1226354087804 L 407.5 356.22949016875157 L 407.5 356 L 407.5 354 L 407.5 352 L 407.5 350 L 407.5 347 L 407.5 345 L 407.5 343 L 407.5 341 L 407.5 339 L 407.5 337 L 407.5 335 L 407.5 333 L 407.5 331 L 407.5 330.77050983124843 L 408.5 328.77050983124843 L 408.5 325 L 408.5 323 L 408.5 321 L 408.5 319 " stroke="#4a5568" stroke-width="2" fill="none" stroke-linecap="butt" stroke-linejoin="round" />
    <path d="M 435.5 53 L 435.5 55 L 435.5 57 L 435.5 59 L 435.5 62 L 435.5 64 L 435.5 66 L 435.5 68 L 435.5 70 L 435.5 72 L 435.5 74 L 435.5 76 L 435.5 78 L 435.5 80 L 435.5 83 L 435.5 86 L 435.5 89 L 435.5 92 L 435.5 94 L 435.5 96 L 435.5 100 L 435.5 102 L 435.5 105 L 435.5 108 L 435.5 110 L 435.5 114 L 435.5 116 L 435.5 118 L 435.5 120 L 435.5 121.07670780786755 L 436.5 125.07670780786755 L 436.5 127.22949016875158 L 437.5 129.22949016875157 L 437.5 134.2573536480541 L 438.31935415981343 138.35412444712128 L 439.5 143.07670780786754 L 439.5 145.07670780786754 L 440.5 149.07670780786754 L 440.5 150.78291754873715 L 441.11512473537886 152.62829175487371 L 442.5 156.78291754873715 L 442.5 159.22949016875157 L 443.5 161.22949016875157 L 443.5 164.22949016875157 L 444.5 166.22949016875157 L 444.5 168.22949016875157 L 445.5 170.22949016875157 L 445.5 172.22949016875157 L 446.5 174.22949016875157 L 446.5 178.22949016875157 L 446.7082039324994 178.6458980337503 L 448.5 182.22949016875157 L 448.5 184.78291754873715 L 449.5 187.78291754873715 L 449.5 189.78291754873715 L 449.7975101121819 190.67544788528292 L 451.7975101121819 193.67544788528292 L 452.9465726200144 197.1226354087804 L 453.7082039324994 198.6458980337503 L 455.5 202.22949016875157 L 455.5 205.07670780786754 L 455.4394392218595 204.83446469530554 L 458.5 206.36474508437578 L 458.5 210.72918271701005 L 459.4993850965169 212.22826036178543 L 461.1639081134502 215.557306395652 L 461.442693604348 215.83609188654978 L 464.59016994374946 217.4098300562505 L 465.59016994374946 219.4098300562505 L 467.13556236736576 220.18252626805867 L 470.12490369793977 224.66653826391968 L 471.93769410125094 227.08359213500125 L 474.59016994374946 228.4098300562505 L 475.3188894084965 229.86726898574454 L 477.0513613510659 230.4447596332677 L 480.8284311303835 234.2218294125853 L 481.01387818866 234.5 L 480.77050983124843 234.5 L 485.442693604348 236.83609188654978 L 487.442693604348 238.83609188654978 L 491.442693604348 240.83609188654978 L 493.442693604348 242.83609188654978 L 494.3541019662497 243.29179606750063 L 498.3541019662497 245.29179606750063 L 499.8773645912196 246.05342737998558 L 502.8773645912196 247.05342737998558 L 504.8773645912196 248.05342737998558 L 507.8773645912196 249.05342737998558 L 509.8773645912196 250.05342737998558 L 512.098453228654 250.7937902591304 L 516.6177274703643 251.92360881955798 L 518.6177274703643 252.92360881955798 L 520.9232921921324 253.5 L 523.9232921921324 253.5 L 527.9232921921324 254.5 L 529 254.5 L 532.2170824512629 254.5 L 536.098453228654 255.7937902591304 L 538.9232921921324 256.5 L 541 256.5 L 543 256.5 L 545 256.5 L 547.2573536480542 256.5 L 552.2573536480542 255.5 L 555 255.5 L 555.7829175487371 255.5 L 558.0712633997617 254.73721804965848 L 562.5442478492165 253.8426211597675 L 565.2294901687516 252.5 L 569.2294901687516 252.5 L 572.1226354087804 251.05342737998558 L 576.7829175487371 249.5 L 578.2294901687516 249.5 L 582.2294901687516 247.5 L 584.2294901687516 247.5 L 585.1226354087804 247.05342737998558 L 588.1226354087804 246.05342737998558 L 590.1226354087804 245.05342737998558 L 593.1226354087804 244.05342737998558 L 594.6458980337503 243.29179606750063 L 597.1226354087804 242.05342737998558 L 597.6811105915035 241.86726898574454 L 598.6811105915035 239.86726898574454 L 604.1226354087804 238.05342737998558 L 604.557306395652 237.83609188654978 L 605.6966991411009 236.6966991411009 L 608.6966991411009 233.6966991411009 L 609.5 232.8933982822018 L 609.5 229.36474508437578 L 613.4098300562505 227.4098300562505 L 613.2917960675006 227.6458980337503 L 615.4098300562505 223.4098300562505 L 617.8644376326342 222.18252626805867 L 619.1715688696165 220.2218294125853 L 622.1715688696165 217.2218294125853 L 623.5006149034831 215.22826036178543 L 624.2917960675006 213.6458980337503 L 625.5006149034831 211.22826036178543 L 627.5006149034831 208.22826036178543 L 629.2917960675006 204.6458980337503 L 630.0534273799856 203.1226354087804 L 631.0534273799856 200.1226354087804 L 632.5 197.22949016875157 L 632.5 194.22949016875157 L 633.5 192.22949016875157 L 633.5 192 L 633.5 188.22949016875157 L 635.0534273799856 185.1226354087804 L 635.5 183.78291754873715 L 635.5 182.07670780786754 L 636.5 178.07670780786754 L 636.5 174.07670780786754 L 637.5 170.07670780786754 L 637.5 169 L 637.5 165.2573536480541 L 638.5 160.2573536480541 L 638.5 159 L 638.5 157 L 638.5 155 L 638.5 153 L 638.5 149.78291754873715 L 639.8848752646212 145.62829175487371 L 641.0534273799856 142.1226354087804 L 642.2917960675006 139.6458980337503 L 642.5 139.22949016875157 L 642.5 139 L 642.5 137 L 642.5 133.78291754873715 L 643.5 130.78291754873715 L 643.5 130 L 643.5 128 L 643.5 126 L 643.5 124 L 643.5 120.22949016875158 L 645.0534273799856 117.12263540878043 L 645.5 115.78291754873716 L 645.5 115 L 645.5 110.22949016875158 L 646.5 108.22949016875158 L 646.5 107 L 646.5 105 L 646.5 103.77050983124842 L 645.5 101.77050983124842 L 645.5 97 L 645.5 94 L 645.5 92 L 645.5 90 L 645.5 88 L 645.5 85 L 645.5 83 L 645.5 78.22949016875158 L 646.5 76.22949016875158 L 646.5 76 L 646.5 74 L 646.5 72 L 646.5 70 L 646.5 68 L 646.5 66 L 646.5 64 L 646.5 62 L 646.5 60 L 646.5 53.36474508437579 L 648.5 52.36474508437579 L 648.5 53.229490168751575 L 649.5 51.229490168751575 L 649.5 49.229490168751575 L 651.2917960675006 45.64589803375031 L 652.0534273799856 44.122635408780425 L 653.8672689857445 38.68111059150351 L 657.557306395652 36.83609188654979 L 658.6966991411009 35.69669914110089 L 662.8933982822018 31.5 L 668 31.5 L 670 31.5 L 673 31.5 L 675 31.5 L 677 31.5 L 680.7705098312484 31.5 L 684.3541019662497 33.29179606750063 L 686.3541019662497 34.29179606750063 L 690.1355623673658 36.182526268058666 L 693.4993850965169 41.22826036178543 L 695.5 45.229490168751575 L 695.5 49 L 695.5 51 L 695.5 53 L 695.5 55 L 695.5 57 L 695.5 59 L 695.5 61 L 695.5 63 L 695.5 65 L 695.5 67 L 695.5 70 L 695.5 72 L 695.5 75.74264635194588 L 694.5 80.74264635194588 L 694.5 82 L 694.5 84 L 694.5 86 L 694.5 88 L 694.5 91 L 694.5 93 L 694.5 96 L 694.5 100 L 694.5 103 L 694.5 105 L 694.5 108 L 694.5 109.78291754873716 L 695.5 112.78291754873716 L 695.5 114.22949016875158 L 695.7082039324994 114.64589803375031 L 697.5 118.22949016875158 L 697.5 124 L 697.5 126 L 697.5 128 L 697.5 131 L 697.5 134 L 697.5 139 L 697.5 141 L 697.5 143.92329219213246 L 696.5 147.92329219213246 L 696.5 149.92329219213246 L 695.5 153.92329219213246 L 695.5 157.77050983124843 L 694.5 159.77050983124843 L 694.5 161.92329219213246 L 693.5 165.92329219213246 L 693.5 167 L 693.5 170 L 693.5 174 L 693.5 176 L 693.5 178.92329219213246 L 692.5 182.92329219213246 L 692.5 184 L 692.5 186 L 692.5 188 L 692.5 191 L 692.5 195.7426463519459 L 691.5 200.7426463519459 L 691.5 202 L 691.5 204 L 691.5 208.21708245126285 L 690.5 211.21708245126285 L 690.5 212 L 690.5 215.21708245126285 L 689.1151247353788 219.37170824512629 L 688.5 221.21708245126285 L 688.5 222 L 688.5 224 L 688.5 227 L 688.5 229 L 688.5 232 L 688.5 236 L 688.5 239.21708245126285 L 687.5 242.21708245126285 L 687.5 243.7426463519459 L 686.5 248.7426463519459 L 686.5 253.7426463519459 L 685.3543550676819 259.4708710135364 L 684.5 263.7426463519459 L 684.5 267.7426463519459 L 683.5 272.7426463519459 L 683.5 277.77050983124843 L 681.1573788402325 282.45575215078344 L 680.2627819503415 286.92873660023827 L 679.1151247353788 290.3717082451263 L 678.5 292.21708245126285 L 678.5 293 L 678.5 298.77050983124843 L 676.9465726200144 301.8773645912196 L 676.5 303.21708245126285 L 676.5 305 L 676.5 308.77050983124843 L 675.5 310.77050983124843 L 675.5 314 L 675.5 317.21708245126285 L 673.9465726200144 321.8773645912196 L 673.5 322.77050983124843 L 673.5 323.92329219213246 L 672.076391180442 329.6177274703644 L 671.5 330.77050983124843 L 671.5 332 L 671.5 335.77050983124843 L 670.5 337.77050983124843 L 670.5 338 L 670.5 342.77050983124843 L 669.5 344.77050983124843 L 669.5 346.77050983124843 L 667.7082039324994 350.3541019662497 L 667.5 350.77050983124843 L 667.5 351 L 667.5 353 L 667.5 356.77050983124843 L 666.5 358.77050983124843 L 666.5 359 L 666.5 362 L 666.5 365 L 666.5 368.77050983124843 L 665.5 370.77050983124843 L 665.5 373.77050983124843 L 664.5 375.77050983124843 L 664.5 378.77050983124843 L 662.7082039324994 382.3541019662497 L 662.5 382.77050983124843 L 662.5 384.77050983124843 L 660.7082039324994 388.3541019662497 L 660.5 388.77050983124843 L 660.5 391.77050983124843 L 658.7082039324994 395.3541019662497 L 658.5 395.77050983124843 L 658.5 397.77050983124843 L 656.7082039324994 401.3541019662497 L 655.7082039324994 403.3541019662497 L 654.7082039324994 405.3541019662497 L 653.1639081134502 408.442693604348 L 650.3033008588991 411.3033008588991 L 649.1639081134502 412.442693604348 L 648.1639081134502 414.442693604348 L 645.3033008588991 417.3033008588991 L 642.7781705874147 419.8284311303835 L 639.7781705874147 421.8284311303835 L 639.1639081134502 422.442693604348 L 638.1639081134502 424.442693604348 L 634.442693604348 428.1639081134502 L 633.1355623673658 428.81747373194133 L 632.2403772075338 430.1602514716892 L 629.8284311303835 433.7781705874147 L 628.1639081134502 435.442693604348 L 626.5901699437495 438.59016994374946 L 625.1327310142555 439.3188894084965 L 624.5552403667323 441.0513613510659 L 621.8284311303835 443.7781705874147 L 620.2403772075338 446.1602514716892 L 618.4993850965169 448.77173963821457 L 617.7082039324994 450.3541019662497 L 615.5901699437495 454.59016994374946 L 613.5901699437495 455.59016994374946 L 612.5901699437495 457.59016994374946 L 608.7717396382146 459.4993850965169 L 605.7717396382146 461.4993850965169 L 603.3541019662497 462.7082039324994 L 601.3541019662497 463.7082039324994 L 599.3541019662497 464.7082039324994 L 594.8773645912196 466.9465726200144 L 593.0513613510659 467.55524036673233 L 591.442693604348 469.1639081134502 L 589.442693604348 470.1639081134502 L 588.3033008588991 471.3033008588991 L 585.0513613510659 474.55524036673233 L 580.8773645912196 475.9465726200144 L 580.442693604348 476.1639081134502 L 577.8343715596868 478.7722301581114 L 572.098453228654 480.2062097408696 L 569.098453228654 481.2062097408696 L 566.0793323375044 481.96098996365697 L 562.2708172829899 484.5 L 557.7705098312484 484.5 L 556.6177274703643 485.076391180442 L 550.9232921921324 486.5 L 545.7426463519458 486.5 L 541.266740759333 487.3951811185226 L 533.533008588991 488.5 L 530.7426463519458 488.5 L 525.7426463519458 489.5 L 521 489.5 L 518.7426463519458 489.5 L 513.7426463519458 490.5 L 510 490.5 L 507 490.5 L 505 490.5 L 500.78291754873715 490.5 L 497.78291754873715 489.5 L 495.22949016875157 489.5 L 491.6458980337503 487.7082039324994 L 488.1226354087804 485.9465726200144 L 485.4192040957879 485.0454288490169 L 479.92492295077545 482.84771639101194 L 477.22826036178543 481.4993850965169 L 474.22826036178543 479.4993850965169 L 471.557306395652 478.1639081134502 L 469.557306395652 476.1639081134502 L 468.6458980337503 475.7082039324994 L 465.557306395652 474.1639081134502 L 462.9486386489341 471.55524036673233 L 460.67544788528295 470.7975101121819 L 457.22826036178543 468.4993850965169 L 455.22826036178543 467.4993850965169 L 453.72918271701 466.5 L 454 466.5 L 448.8933982822018 466.5 L 444.6966991411009 462.3033008588991 L 443.557306395652 461.1639081134502 L 441.557306395652 460.1639081134502 L 438.6966991411009 457.3033008588991 L 437.557306395652 456.1639081134502 L 434.40983005625054 454.59016994374946 L 433.40983005625054 452.59016994374946 L 432.557306395652 452.1639081134502 L 429.2218294125853 448.8284311303835 L 426.8397485283108 447.2403772075338 L 423.2218294125853 444.8284311303835 L 420.1715688696165 441.7781705874147 L 418.86443763263424 439.81747373194133 L 417.557306395652 439.1639081134502 L 415.557306395652 437.1639081134502 L 413.557306395652 436.1639081134502 L 409.8360918865498 432.442693604348 L 408.8360918865498 430.442693604348 L 406.8360918865498 428.442693604348 L 405.8360918865498 426.442693604348 L 403.8360918865498 424.442693604348 L 402.5006149034831 421.77173963821457 L 400.5006149034831 418.77173963821457 L 398.5 414.77050983124843 L 398.5 411.77050983124843 L 397.5 409.77050983124843 L 397.5 407.77050983124843 L 396.5 405.77050983124843 L 396.5 401 L 396.5 397 L 396.5 395 L 396.5 389 L 396.5 385 L 396.5 382 L 396.5 379 L 396.5 376 L 396.5 373 L 396.5 372.21708245126285 L 396.0534273799856 370.8773645912196 L 394.5 367.77050983124843 L 394.5 364.21708245126285 L 394.0534273799856 362.8773645912196 L 392.5 359.77050983124843 L 392.5 356 L 392.5 354 L 392.5 352 L 392.5 350 L 392.5 347 L 392.5 345 L 392.5 343 L 392.5 341 L 392.5 339 L 392.5 337 L 392.5 335 L 392.5 333 L 392.5 331 L 392.5 327.22949016875157 L 393.5 325.22949016875157 L 393.5 325 L 393.5 323 L 393.5 321 L 393.5 319 " stroke="#4a5568" stroke-width="2" fill="none" stroke-linecap="butt" stroke-linejoin="round" />
  </g>
</svg>