<svg xmlns="http://www.w3.org/2000/svg" width="1334" height="864" viewBox="0 0 1334 864">
  <g fill="none">
    <path d="M 559.75 40 L 582.25 40 M 557.7940367854601 63.199725435147506 L 580.0511046335616 66.49713817925476 M 553.8483584836938 86.5050880680017 L 575.5946005808989 92.28011660903474 M 547.4468899433223 111.89351274615335 L 569.6875286790171 115.29997551981019 M 543.9834052656678 135.06344873820814 L 565.6523311891925 141.12213253263064 M 542.0438655996821 160.37155316232807 L 563.9561344003179 165.48061139341988 M 535.8192475759588 184.35242755613203 L 557.77645739904 189.26475254387273 M 533.75 211.61135040678536 L 556.25 211.61135040678536 M 533.75 236.61135040678536 L 556.25 236.61135040678536 M 533.75 261.6113504067854 L 556.25 261.6113504067854 M 533.75 286.6113504067854 L 556.25 286.6113504067854 M 533.75 311.6113504067854 L 556.25 311.6113504067854 M 533.75 336.6113504067854 L 556.25 336.6113504067854 M 533.7791759552063 362.4210464953147 L 556.2208240447937 360.80165431825606 M 535.75 386.25217680366796 L 558.25 386.25217680366796 M 537.7507911225473 410.98724642539895 L 560.2492088774527 410.72041590660064 M 546.8372360330305 440.50541193497867 L 565.0901851994807 427.349430530044 M 587.0144138296998 437.4539949597821 L 565.1163115666759 432.28455424746653 M 590.1659658504052 411.9345304186573 L 567.8340341495948 409.18956657365976 M 591.9337633801994 388.615295858783 L 570.0356611171754 383.4458551464674 M 595.525760157578 363.5389714563597 L 573.3162923607343 359.934870988703 M 596.25 336.83087572649447 L 573.75 336.83087572649447 M 594.25 312.3030116814941 L 571.75 312.3030116814941 M 592.25 287.7751476364938 L 569.75 287.7751476364938 M 591.25 263.0112156139936 L 568.75 263.0112156139936 M 590.2140281629179 249.9573053163506 L 579.228245154572 230.32155802490436 M 610.1235253132774 241.34264538404048 L 603.530838500178 219.8301727092319 M 631.1363158990359 236.23634529118607 L 630.02808397883 213.76365470881393 M 655.582199938933 236.25 L 655.582199938933 213.75 M 673.9630300045031 242.4482477623839 L 683.2649897589189 221.96109215875677 M 688.6622156763091 253.76272129254372 L 706.9462385248725 240.6499600092284 M 695.2929253029199 273.2138342905342 L 717.0456749357213 267.46336618674815 M 697.75 294.81794327756313 L 720.25 294.81794327756313 M 697.75 319.81794327756313 L 720.25 319.81794327756313 M 697.75 344.81794327756313 L 720.25 344.81794327756313 M 696.75 369.6948376519455 L 719.25 369.6948376519455 M 695.7068518627345 392.7631924827024 L 717.9163196595782 396.3672929503591 M 694.75 419.43354047818434 L 717.25 419.43354047818434 " stroke="#8B4513" stroke-width="7" fill="none" stroke-linecap="butt" />
    <path d="M 563.5 40 L 563.5 42 L 563.5 44.75027716220319 L 562.5546256073383 58.9308930521296 L 560.5681776498542 67.86990886080801 L 559.5764166063988 79.77104138227243 L 558.7937902591304 82.90154677134598 L 557.7372180496585 86.07126339976172 L 556.7372180496585 91.07126339976172 L 555.7937902591304 93.90154677134598 L 554.754239785339 98.05974866651164 L 552.754239785339 105.05974866651164 L 551.6512866074479 109.47156137807593 L 550.5 116.37928102276335 L 550.5 118.37928102276335 L 549.6512866074479 123.47156137807593 L 548.5 128.07670780786754 L 548.5 132 L 548.5 133.22949016875157 L 547.787447713503 134.65459474174568 L 546.5 142.37928102276337 L 546.5 145.2573536480541 L 545.5 150.2573536480541 L 545.5 155 L 545.5 157 L 545.5 161.22949016875157 L 544.8426211597675 162.54424784921656 L 543.8426211597675 167.54424784921656 L 541.5 172.22949016875157 L 541.5 177.78291754873715 L 540.7937902591304 179.90154677134598 L 539.72393124891 184.1809828122275 L 538.5 189.07670780786754 L 538.5 193.2573536480541 L 537.5 198.2573536480541 L 537.5 201 L 537.5 203 L 537.5 205 L 537.5 208 L 537.5 212 L 537.5 215 L 537.5 218 L 537.5 223 L 537.5 226 L 537.5 229 L 537.5 232 L 537.5 237 L 537.5 242 L 537.5 249 L 537.5 254 L 537.5 258 L 537.5 262 L 537.5 264 L 537.5 267 L 537.5 270 L 537.5 275 L 537.5 277 L 537.5 281 L 537.5 283 L 537.5 285 L 537.5 288 L 537.5 290 L 537.5 292 L 537.5 294 L 537.5 296 L 537.5 299 L 537.5 302 L 537.5 307 L 537.5 310 L 537.5 314 L 537.5 317 L 537.5 320 L 537.5 325 L 537.5 331 L 537.5 333 L 537.5 338 L 537.5 341 L 537.5 343 L 537.5 347 L 537.5 349 L 537.5 351 L 537.5 354 L 537.5 356 L 537.5 358 L 537.5 361 L 537.5 364.77050983124843 L 538.5 366.77050983124843 L 538.5 368 L 538.5 370 L 538.5 372 L 538.5 374 L 538.5 376 L 538.5 378.92329219213246 L 539.5 382.92329219213246 L 539.5 384 L 539.5 387 L 539.5 393.77050983124843 L 540.5 395.77050983124843 L 540.5 397 L 540.5 400 L 540.5 402 L 540.5 404 L 540.5 407.21708245126285 L 541.5 410.21708245126285 L 541.5 411 L 541.5 413 L 541.5 415 L 541.5 417 L 541.5 420.21708245126285 L 543.0534273799856 424.8773645912196 L 543.5 425.77050983124843 L 543.5 427.77050983124843 L 545.2917960675006 431.3541019662497 L 546.8360918865498 434.442693604348 L 548.8360918865498 436.442693604348 L 549.8360918865498 438.442693604348 L 553.557306395652 442.1639081134502 L 556.6458980337503 443.7082039324994 L 560.2294901687516 445.5 L 562.2294901687516 445.5 L 564.2294901687516 446.5 L 568 446.5 L 571 446.5 L 573 446.5 L 579.6352549156242 446.5 L 583.5 438.77050983124843 L 583.5 436.77050983124843 L 584.5 434.77050983124843 L 584.5 430 L 584.5 427 L 584.5 425 L 584.5 423 L 584.5 422.77050983124843 L 585.5 420.77050983124843 L 585.5 417 L 585.5 415.77050983124843 L 586.5 413.77050983124843 L 586.5 409 L 586.5 406 L 586.5 404 L 586.5 402 L 586.5 401.77050983124843 L 587.5 399.77050983124843 L 587.5 396 L 587.5 394 L 587.5 392 L 587.5 390 L 587.5 389.77050983124843 L 588.5 387.77050983124843 L 588.5 385.21708245126285 L 589.5 382.21708245126285 L 589.5 379 L 589.5 377 L 589.5 375 L 589.5 373 L 589.5 372.77050983124843 L 590.5 370.77050983124843 L 590.5 368.77050983124843 L 591.5 366.77050983124843 L 591.5 364.21708245126285 L 592.5 361.21708245126285 L 592.5 357 L 592.5 353 L 592.5 350 L 592.5 348 L 592.5 346 L 592.5 344 L 592.5 342 L 592.5 340 L 592.5 338 L 592.5 336 L 592.5 332.22949016875157 L 591.5 330.22949016875157 L 591.5 330 L 591.5 328 L 591.5 325 L 591.5 323 L 591.5 321 L 591.5 319 L 591.5 315.22949016875157 L 590.5 313.22949016875157 L 590.5 313 L 590.5 311 L 590.5 307.22949016875157 L 589.5 305.22949016875157 L 589.5 305 L 589.5 303 L 589.5 299.22949016875157 L 588.5 297.22949016875157 L 588.5 297 L 588.5 295 L 588.5 293 L 588.5 291 L 588.5 289 L 588.5 286 L 588.5 284 L 588.5 282 L 588.5 280 L 588.5 278 L 588.5 276 L 588.5 273 L 588.5 269.22949016875157 L 587.5 267.22949016875157 L 587.5 267 L 587.5 265 L 587.5 263 L 587.5 261 L 587.5 259 L 587.5 257 L 587.5 255 L 587.5 253 L 587.5 251 L 587.5 249 L 587.5 247 L 587.5 248.1066017177982 L 588.1639081134502 247.442693604348 L 588.5901699437495 246.5901699437495 L 588.3541019662497 246.70820393249937 L 591.442693604348 245.16390811345022 L 594.3033008588991 242.3033008588991 L 595.442693604348 241.16390811345022 L 595.8773645912196 240.94657262001442 L 598.8773645912196 239.94657262001442 L 599.7705098312484 239.5 L 601.7705098312484 239.5 L 603.7705098312484 238.5 L 604 238.5 L 607.7705098312484 238.5 L 610.8773645912196 236.94657262001442 L 612.2170824512629 236.5 L 614.7705098312484 236.5 L 616.7705098312484 235.5 L 617 235.5 L 619 235.5 L 622.7705098312484 235.5 L 624.7705098312484 234.5 L 626.7705098312484 234.5 L 630.3541019662497 232.70820393249937 L 630.7705098312484 232.5 L 631 232.5 L 633 232.5 L 637 232.5 L 639 232.5 L 642 232.5 L 645 232.5 L 648 232.5 L 651 232.5 L 653 232.5 L 655 232.5 L 657 232.5 L 660 232.5 L 661.7829175487371 232.5 L 663.1226354087804 232.94657262001442 L 666.2294901687516 234.5 L 668.2294901687516 234.5 L 667.557306395652 234.16390811345022 L 669.557306395652 236.16390811345022 L 672.6458980337503 237.70820393249937 L 675.1226354087804 238.94657262001442 L 676.9486386489341 239.5552403667323 L 678.557306395652 241.16390811345022 L 681.6458980337503 242.70820393249937 L 682.557306395652 243.16390811345022 L 684.557306395652 245.16390811345022 L 687.6458980337503 246.70820393249937 L 687.8644376326342 246.81747373194133 L 689.1715688696165 248.7781705874147 L 691.1715688696165 250.7781705874147 L 692.5006149034831 252.77173963821457 L 692.923608819558 253.6177274703644 L 693.923608819558 257.6177274703644 L 695.2917960675006 260.3541019662497 L 696.2917960675006 262.3541019662497 L 696.5 262.77050983124843 L 696.5 264.21708245126285 L 698.0534273799856 268.8773645912196 L 698.5 269.77050983124843 L 698.5 271.77050983124843 L 700.0534273799856 274.8773645912196 L 700.5 276.21708245126285 L 700.5 279.21708245126285 L 701.5 282.21708245126285 L 701.5 284 L 701.5 287 L 701.5 289 L 701.5 291 L 701.5 295 L 701.5 298 L 701.5 300 L 701.5 303 L 701.5 305 L 701.5 308 L 701.5 310 L 701.5 313 L 701.5 315 L 701.5 317 L 701.5 319 L 701.5 321 L 701.5 323 L 701.5 326 L 701.5 330 L 701.5 333 L 701.5 335 L 701.5 339 L 701.5 343 L 701.5 347 L 701.5 350 L 701.5 353 L 701.5 355 L 701.5 357 L 701.5 359.07670780786754 L 700.5 363.07670780786754 L 700.5 369 L 700.5 371 L 700.5 373 L 700.5 375 L 700.5 378.2573536480541 L 699.5 383.2573536480541 L 699.5 386 L 699.5 388 L 699.5 390 L 699.5 392.78291754873715 L 698.5 395.78291754873715 L 698.5 400 L 698.5 402 L 698.5 404 L 698.5 406 L 698.5 410 L 698.5 412 L 698.5 414 L 698.5 416 L 698.5 418 L 698.5 420 L 698.5 422 L 698.5 424 L 698.5 426 L 698.5 428 L 698.5 430 L 698.5 432 L 698.5 434 L 698.5 436 " stroke="#4a5568" stroke-width="2" fill="none" stroke-linecap="butt" stroke-linejoin="round" />
    <path d="M 578.5 40 L 578.5 42 L 578.5 45.24972283779681 L 577.4453743926617 61.0691069478704 L 575.4318223501458 70.13009113919199 L 574.4235833936012 82.22895861772757 L 573.2062097408696 87.09845322865402 L 572.2627819503415 89.92873660023828 L 571.2627819503415 94.92873660023828 L 570.2062097408696 98.09845322865402 L 569.245760214661 101.94025133348836 L 567.245760214661 108.94025133348836 L 566.3487133925521 112.52843862192407 L 565.5 117.62071897723665 L 565.5 119.62071897723665 L 564.3487133925521 126.52843862192407 L 563.5 129.92329219213246 L 563.5 132 L 563.5 136.77050983124843 L 562.212552286497 139.34540525825432 L 561.5 143.62071897723663 L 561.5 146.7426463519459 L 560.5 151.7426463519459 L 560.5 155 L 560.5 157 L 560.5 164.77050983124843 L 559.1573788402325 167.45575215078344 L 558.1573788402325 172.45575215078344 L 556.5 175.77050983124843 L 556.5 180.21708245126285 L 555.2062097408696 184.09845322865402 L 554.27606875109 187.8190171877725 L 553.5 190.92329219213246 L 553.5 194.7426463519459 L 552.5 199.7426463519459 L 552.5 201 L 552.5 203 L 552.5 205 L 552.5 208 L 552.5 212 L 552.5 215 L 552.5 218 L 552.5 223 L 552.5 226 L 552.5 229 L 552.5 232 L 552.5 237 L 552.5 242 L 552.5 249 L 552.5 254 L 552.5 258 L 552.5 262 L 552.5 264 L 552.5 267 L 552.5 270 L 552.5 275 L 552.5 277 L 552.5 281 L 552.5 283 L 552.5 285 L 552.5 288 L 552.5 290 L 552.5 292 L 552.5 294 L 552.5 296 L 552.5 299 L 552.5 302 L 552.5 307 L 552.5 310 L 552.5 314 L 552.5 317 L 552.5 320 L 552.5 325 L 552.5 331 L 552.5 333 L 552.5 338 L 552.5 341 L 552.5 343 L 552.5 347 L 552.5 349 L 552.5 351 L 552.5 354 L 552.5 356 L 552.5 358 L 552.5 361 L 552.5 361.22949016875157 L 553.5 363.22949016875157 L 553.5 368 L 553.5 370 L 553.5 372 L 553.5 374 L 553.5 376 L 553.5 377.07670780786754 L 554.5 381.07670780786754 L 554.5 384 L 554.5 387 L 554.5 390.22949016875157 L 555.5 392.22949016875157 L 555.5 397 L 555.5 400 L 555.5 402 L 555.5 404 L 555.5 404.78291754873715 L 556.5 407.78291754873715 L 556.5 411 L 556.5 413 L 556.5 415 L 556.5 417 L 556.5 417.78291754873715 L 556.9465726200144 419.1226354087804 L 558.5 422.22949016875157 L 558.5 424.22949016875157 L 558.7082039324994 424.6458980337503 L 559.1639081134502 425.557306395652 L 561.1639081134502 427.557306395652 L 562.1639081134502 429.557306395652 L 562.442693604348 429.8360918865498 L 563.3541019662497 430.2917960675006 L 563.7705098312484 430.5 L 565.7705098312484 430.5 L 567.7705098312484 431.5 L 568 431.5 L 571 431.5 L 573 431.5 L 570.3647450843758 431.5 L 568.5 435.22949016875157 L 568.5 433.22949016875157 L 569.5 431.22949016875157 L 569.5 430 L 569.5 427 L 569.5 425 L 569.5 423 L 569.5 419.22949016875157 L 570.5 417.22949016875157 L 570.5 417 L 570.5 412.22949016875157 L 571.5 410.22949016875157 L 571.5 409 L 571.5 406 L 571.5 404 L 571.5 402 L 571.5 398.22949016875157 L 572.5 396.22949016875157 L 572.5 396 L 572.5 394 L 572.5 392 L 572.5 390 L 572.5 386.22949016875157 L 573.5 384.22949016875157 L 573.5 382.78291754873715 L 574.5 379.78291754873715 L 574.5 379 L 574.5 377 L 574.5 375 L 574.5 373 L 574.5 369.22949016875157 L 575.5 367.22949016875157 L 575.5 365.22949016875157 L 576.5 363.22949016875157 L 576.5 361.78291754873715 L 577.5 358.78291754873715 L 577.5 357 L 577.5 353 L 577.5 350 L 577.5 348 L 577.5 346 L 577.5 344 L 577.5 342 L 577.5 340 L 577.5 338 L 577.5 336 L 577.5 335.77050983124843 L 576.5 333.77050983124843 L 576.5 330 L 576.5 328 L 576.5 325 L 576.5 323 L 576.5 321 L 576.5 319 L 576.5 318.77050983124843 L 575.5 316.77050983124843 L 575.5 313 L 575.5 311 L 575.5 310.77050983124843 L 574.5 308.77050983124843 L 574.5 305 L 574.5 303 L 574.5 302.77050983124843 L 573.5 300.77050983124843 L 573.5 297 L 573.5 295 L 573.5 293 L 573.5 291 L 573.5 289 L 573.5 286 L 573.5 284 L 573.5 282 L 573.5 280 L 573.5 278 L 573.5 276 L 573.5 273 L 573.5 272.77050983124843 L 572.5 270.77050983124843 L 572.5 267 L 572.5 265 L 572.5 263 L 572.5 261 L 572.5 259 L 572.5 257 L 572.5 255 L 572.5 253 L 572.5 251 L 572.5 249 L 572.5 247 L 572.5 241.8933982822018 L 575.8360918865498 238.557306395652 L 577.4098300562505 235.4098300562505 L 581.6458980337503 233.29179606750063 L 582.557306395652 232.83609188654978 L 583.6966991411009 231.6966991411009 L 586.557306395652 228.83609188654978 L 590.1226354087804 227.05342737998558 L 593.1226354087804 226.05342737998558 L 596.2294901687516 224.5 L 598.2294901687516 224.5 L 600.2294901687516 223.5 L 604 223.5 L 604.2294901687516 223.5 L 605.1226354087804 223.05342737998558 L 609.7829175487371 221.5 L 611.2294901687516 221.5 L 613.2294901687516 220.5 L 617 220.5 L 619 220.5 L 619.2294901687516 220.5 L 621.2294901687516 219.5 L 623.2294901687516 219.5 L 623.6458980337503 219.29179606750063 L 627.2294901687516 217.5 L 631 217.5 L 633 217.5 L 637 217.5 L 639 217.5 L 642 217.5 L 645 217.5 L 648 217.5 L 651 217.5 L 653 217.5 L 655 217.5 L 657 217.5 L 660 217.5 L 664.2170824512629 217.5 L 668.8773645912196 219.05342737998558 L 669.7705098312484 219.5 L 671.7705098312484 219.5 L 676.442693604348 221.83609188654978 L 678.442693604348 223.83609188654978 L 679.3541019662497 224.29179606750063 L 680.8773645912196 225.05342737998558 L 685.0513613510659 226.4447596332677 L 687.442693604348 228.83609188654978 L 688.3541019662497 229.29179606750063 L 691.442693604348 230.83609188654978 L 693.442693604348 232.83609188654978 L 694.3541019662497 233.29179606750063 L 698.1355623673658 235.18252626805867 L 700.8284311303835 239.2218294125853 L 702.8284311303835 241.2218294125853 L 705.4993850965169 245.22826036178543 L 707.076391180442 248.3822725296356 L 708.076391180442 252.3822725296356 L 708.7082039324994 253.6458980337503 L 709.7082039324994 255.6458980337503 L 711.5 259.22949016875157 L 711.5 261.78291754873715 L 711.9465726200144 263.1226354087804 L 713.5 266.22949016875157 L 713.5 268.22949016875157 L 713.9465726200144 269.1226354087804 L 715.5 273.78291754873715 L 715.5 276.78291754873715 L 716.5 279.78291754873715 L 716.5 284 L 716.5 287 L 716.5 289 L 716.5 291 L 716.5 295 L 716.5 298 L 716.5 300 L 716.5 303 L 716.5 305 L 716.5 308 L 716.5 310 L 716.5 313 L 716.5 315 L 716.5 317 L 716.5 319 L 716.5 321 L 716.5 323 L 716.5 326 L 716.5 330 L 716.5 333 L 716.5 335 L 716.5 339 L 716.5 343 L 716.5 347 L 716.5 350 L 716.5 353 L 716.5 355 L 716.5 357 L 716.5 360.92329219213246 L 715.5 364.92329219213246 L 715.5 369 L 715.5 371 L 715.5 373 L 715.5 375 L 715.5 379.7426463519459 L 714.5 384.7426463519459 L 714.5 386 L 714.5 388 L 714.5 390 L 714.5 395.21708245126285 L 713.5 398.21708245126285 L 713.5 400 L 713.5 402 L 713.5 404 L 713.5 406 L 713.5 410 L 713.5 412 L 713.5 414 L 713.5 416 L 713.5 418 L 713.5 420 L 713.5 422 L 713.5 424 L 713.5 426 L 713.5 428 L 713.5 430 L 713.5 432 L 713.5 434 L 713.5 436 " stroke="#4a5568" stroke-width="2" fill="none" stroke-linecap="butt" stroke-linejoin="round" />
  </g>
</svg>