<svg xmlns="http://www.w3.org/2000/svg" width="1334" height="864" viewBox="0 0 1334 864">
  <g fill="none">
    <path d="M 496.75 26 L 519.25 26 M 496.75 51 L 519.25 51 M 496.75 76 L 519.25 76 M 491.10313549477905 97.31090639126018 L 513.001237757803 102.48034710357581 M 488.75 124.41117120109736 L 511.25 124.41117120109736 M 488.75 149.41117120109737 L 511.25 149.41117120109737 M 488.75 174.41117120109737 L 511.25 174.41117120109737 M 488.75 199.41117120109737 L 511.25 199.41117120109737 M 488.9709098388405 225.4152105535408 L 511.37915865193554 223.38533737266798 M 487.1321375314094 245.1884808151429 L 508.96976213198343 250.6077198580715 M 483.75 272.2516590977167 L 506.25 272.2516590977167 M 485.75 296.77952314271715 L 508.25 296.77952314271715 M 487.8561243060311 323.098999287033 L 510.1438756939689 320.0157967199804 M 492.23184593612433 347.54552021116353 L 514.5150211668517 344.4294166126458 M 493.7558498309499 371.1489313268783 L 516.24415016905 370.42343294410676 M 494.75 395.6630765098749 L 517.25 395.6630765098749 M 494.75 420.6630765098749 L 517.25 420.6630765098749 M 494.75 445.6630765098749 L 517.25 445.6630765098749 M 498.2921533239502 474.74007139477294 L 518.4167651214483 464.6777654960239 M 532.9818466158987 489.713055055226 L 526.1136732390258 468.286944944774 M 546.25 456.1670167146565 L 523.75 456.1670167146565 M 543.154609815884 430.3475775185582 L 520.9451420190403 433.9516779862149 M 543.25 407.15772149957104 L 520.75 407.15772149957104 M 544.6673703146009 385.1480819899798 L 522.769268051577 379.9786412776642 M 547.8716206732162 360.8966119102686 L 526.1227859950026 355.13135474863805 M 549.1972332900444 332.08820586537536 L 526.8027667099556 334.2648699628603 M 547.25 308.6486738691175 L 524.75 308.6486738691175 M 543.4914195833965 282.9282765662785 L 521.1599995580311 285.6773999994319 M 541.25 259.7021085664451 L 518.75 259.7021085664451 M 542.25 234.86438622661342 L 519.75 234.86438622661342 M 543.25 210.02666388678176 L 520.75 210.02666388678176 M 544.25 185.2627318642816 L 521.75 185.2627318642816 M 546.25 160.5481151500676 L 523.75 160.5481151500676 M 550.0510188976436 138.3383770839262 L 527.9489811023564 134.12531106311732 M 552.5363308410336 117.08310306480536 L 532.4117190435355 107.0207971660563 M 564.9782577808382 105.08549162908938 L 554.4602687694871 85.19524509574796 M 584.9974471399327 99.10473389842184 L 581.3933466722759 76.89526610157816 M 610.5030285083618 93.3562465602697 L 603.7029213383183 71.90843682417024 M 632.8757108049113 89.13086858207082 L 629.609970699717 66.86913141792918 M 657.1456783950805 83.99019117800445 L 653.5415779274238 61.78072338116077 M 680.2303578991026 80.24083577797269 L 679.3223688845234 57.75916422202731 M 700.8710604036445 81.81556136017961 L 707.9861851390234 60.470187154043046 M 721.3236269330908 89.1000389494056 L 734.2648259684332 70.69418750135644 M 740.2885440365264 101.77755187689004 L 756.0313506239559 85.70229011383344 M 755.1324396094055 118.43053144896012 L 772.8484003533868 104.55988853243605 " stroke="#8B4513" stroke-width="7" fill="none" stroke-linecap="butt" />
    <path d="M 500.5 26 L 500.5 28 L 500.5 31 L 500.5 34 L 500.5 37 L 500.5 39 L 500.5 43 L 500.5 45 L 500.5 47 L 500.5 50 L 500.5 53 L 500.5 55 L 500.5 57 L 500.5 60 L 500.5 62 L 500.5 64 L 500.5 66 L 500.5 69 L 500.5 71 L 500.5 74 L 500.5 77 L 500.5 77.22949016875158 L 499.923608819558 78.38227252963561 L 498.5 84.07670780786755 L 498.5 85.78291754873716 L 498.0534273799856 87.12263540878043 L 496.923608819558 89.38227252963561 L 495.5 95.07670780786755 L 495.5 96.22949016875158 L 493.5 100.22949016875158 L 493.5 106 L 493.5 108 L 493.5 110 L 493.5 112 L 493.5 114 L 493.5 114.22949016875158 L 492.5 116.22949016875158 L 492.5 120 L 492.5 122 L 492.5 124 L 492.5 126 L 492.5 128 L 492.5 131 L 492.5 136 L 492.5 138 L 492.5 142 L 492.5 144 L 492.5 146 L 492.5 151 L 492.5 154 L 492.5 158 L 492.5 161 L 492.5 164 L 492.5 166 L 492.5 169 L 492.5 173 L 492.5 175 L 492.5 178 L 492.5 182 L 492.5 184 L 492.5 188 L 492.5 190 L 492.5 194 L 492.5 196 L 492.5 200 L 492.5 204 L 492.5 208 L 492.5 212 L 492.5 214 L 492.5 219 L 492.5 223.46693311223913 L 493.65002986780473 232.66717205467708 L 494.5 235.21708245126285 L 494.5 237 L 494.5 236.8933982822018 L 492.5 238.8933982822018 L 492.5 242.22949016875157 L 492.2917960675006 242.6458980337503 L 490.5 246.22949016875157 L 490.5 248.78291754873715 L 489.5 251.78291754873715 L 489.5 257 L 489.5 258.22949016875157 L 489.2917960675006 258.6458980337503 L 487.5 262.22949016875157 L 487.5 266 L 487.5 268 L 487.5 270 L 487.5 272 L 487.5 275 L 487.5 277 L 487.5 280 L 487.5 282 L 487.5 285.77050983124843 L 488.5 287.77050983124843 L 488.5 290.77050983124843 L 489.5 292.77050983124843 L 489.5 293 L 489.5 295 L 489.5 298 L 489.5 300 L 489.5 302.92329219213246 L 490.5 306.92329219213246 L 490.5 309.7426463519459 L 491.5 314.7426463519459 L 491.5 317 L 491.5 319 L 491.5 323.21708245126285 L 492.5 326.21708245126285 L 492.5 329.21708245126285 L 493.73721804965845 332.92873660023827 L 494.5 336.7426463519459 L 494.5 339.92329219213246 L 495.61408976997336 344.3796512720258 L 496.5 351.46693311223913 L 496.5 355.21708245126285 L 497.5 358.21708245126285 L 497.5 360 L 497.5 362 L 497.5 366 L 497.5 368 L 497.5 370 L 497.5 373.92329219213246 L 498.5 377.92329219213246 L 498.5 379 L 498.5 382 L 498.5 385 L 498.5 387 L 498.5 390 L 498.5 392 L 498.5 394 L 498.5 396 L 498.5 399 L 498.5 402 L 498.5 404 L 498.5 406 L 498.5 408 L 498.5 410 L 498.5 413 L 498.5 415 L 498.5 417 L 498.5 419 L 498.5 421 L 498.5 423 L 498.5 425 L 498.5 427 L 498.5 430 L 498.5 432 L 498.5 435 L 498.5 437 L 498.5 440 L 498.5 442 L 498.5 444 L 498.5 446 L 498.5 448 L 498.5 448.78291754873715 L 497.5 451.78291754873715 L 497.5 455 L 497.5 457 L 497.5 459 L 497.5 462.77050983124843 L 499.2917960675006 466.3541019662497 L 499.5 466.77050983124843 L 499.5 468.77050983124843 L 501.2917960675006 472.3541019662497 L 502.2917960675006 474.3541019662497 L 504.40983005625054 478.59016994374946 L 508.6458980337503 480.7082039324994 L 509.557306395652 481.1639081134502 L 511.557306395652 483.1639081134502 L 514.6458980337503 484.7082039324994 L 518.2294901687516 486.5 L 522 486.5 L 524 486.5 L 526 486.5 L 528 486.5 L 533.1066017177982 486.5 L 539.1639081134502 480.442693604348 L 540.7082039324994 477.3541019662497 L 542.5 473.77050983124843 L 542.5 470 L 542.5 466 L 542.5 464 L 542.5 461 L 542.5 458 L 542.5 455 L 542.5 453 L 542.5 451 L 542.5 449 L 542.5 447 L 542.5 445 L 542.5 443 L 542.5 437.8933982822018 L 540.5 435.8933982822018 L 540.5 437 L 540.5 433.78291754873715 L 539.5 430.78291754873715 L 539.5 429 L 539.5 427 L 539.5 425 L 539.5 423 L 539.5 420 L 539.5 418 L 539.5 416 L 539.5 413 L 539.5 411 L 539.5 408 L 539.5 405 L 539.5 402 L 539.5 401.77050983124843 L 540.5 399.77050983124843 L 540.5 396 L 540.5 394 L 540.5 392 L 540.5 390 L 540.5 388 L 540.5 386 L 540.5 385.77050983124843 L 541.5 383.77050983124843 L 541.5 379 L 541.5 377 L 541.5 375.92329219213246 L 542.5 371.92329219213246 L 542.5 370.21708245126285 L 543.5 367.21708245126285 L 543.5 363.7426463519459 L 544.2627819503415 359.92873660023827 L 545.5 356.21708245126285 L 545.5 353 L 545.5 351 L 545.5 349 L 545.5 346 L 545.5 343 L 545.5 341 L 545.5 339 L 545.5 337 L 545.5 334 L 545.5 330.22949016875157 L 544.5 328.22949016875157 L 544.5 326.22949016875157 L 543.5 324.22949016875157 L 543.5 323 L 543.5 320 L 543.5 318 L 543.5 316 L 543.5 313 L 543.5 309 L 543.5 307 L 543.5 303.22949016875157 L 542.5 301.22949016875157 L 542.5 300.2573536480541 L 541.1573788402325 293.54424784921656 L 540.5 292.22949016875157 L 540.5 292 L 540.5 290 L 540.5 286.07670780786754 L 539.5 282.07670780786754 L 539.5 279.22949016875157 L 538.076391180442 276.3822725296356 L 537.5 274.07670780786754 L 537.5 272 L 537.5 269 L 537.5 267 L 537.5 265 L 537.5 263 L 537.5 261 L 537.5 259 L 537.5 257.21708245126285 L 538.5 254.21708245126285 L 538.5 250 L 538.5 247 L 538.5 245 L 538.5 242 L 538.5 239 L 538.5 237 L 538.5 235 L 538.5 233 L 538.5 231 L 538.5 229 L 538.5 227 L 538.5 225 L 538.5 223 L 538.5 222.21708245126285 L 539.5 219.21708245126285 L 539.5 215 L 539.5 213 L 539.5 211 L 539.5 209 L 539.5 207 L 539.5 205 L 539.5 204.77050983124843 L 540.5 202.77050983124843 L 540.5 198 L 540.5 196 L 540.5 194 L 540.5 192 L 540.5 190 L 540.5 188 L 540.5 186 L 540.5 184 L 540.5 181 L 540.5 178 L 540.5 176 L 540.5 175.21708245126285 L 541.2062097408696 173.09845322865402 L 542.5 167.92329219213246 L 542.5 165 L 542.5 163 L 542.5 159 L 542.5 157 L 542.5 156.77050983124843 L 543.076391180442 155.6177274703644 L 544.2062097408696 151.09845322865402 L 545.5 147.21708245126285 L 545.5 144 L 545.5 142 L 545.5 141.21708245126285 L 546.5 138.21708245126285 L 546.5 136.77050983124843 L 547.5 134.77050983124843 L 547.5 131 L 547.5 129 L 547.5 127 L 547.5 125 L 547.5 124.77050983124842 L 548.5 122.77050983124842 L 548.5 119 L 548.5 117 L 548.5 116.77050983124842 L 548.7082039324994 116.35410196624969 L 549.7082039324994 114.35410196624969 L 550.7082039324994 112.35410196624969 L 551.1639081134502 111.44269360434801 L 551.442693604348 111.1639081134502 L 554.5901699437495 109.59016994374947 L 555.5901699437495 107.59016994374947 L 556.442693604348 107.1639081134502 L 558.442693604348 105.1639081134502 L 560.442693604348 104.1639081134502 L 562.442693604348 102.1639081134502 L 563.3541019662497 101.70820393249937 L 565.7717396382146 100.49938509651693 L 568.3245521147171 98.79751011218193 L 569.2170824512629 98.5 L 571.2170824512629 98.5 L 575.3717082451262 97.11512473537886 L 577.2170824512629 96.5 L 579.2170824512629 96.5 L 582.2170824512629 95.5 L 585.2170824512629 95.5 L 589.8773645912196 93.94657262001442 L 590.7705098312484 93.5 L 592.7705098312484 93.5 L 595.8773645912196 91.94657262001442 L 597.2170824512629 91.5 L 599 91.5 L 601 91.5 L 605.7705098312484 91.5 L 608.8773645912196 89.94657262001442 L 610.2170824512629 89.5 L 613.7705098312484 89.5 L 616.8773645912196 87.94657262001442 L 618.2170824512629 87.5 L 621.7705098312484 87.5 L 624.6177274703643 86.07639118044202 L 626.9232921921324 85.5 L 630 85.5 L 633.7705098312484 85.5 L 636.8773645912196 83.94657262001442 L 638.2170824512629 83.5 L 640.7705098312484 83.5 L 643.6177274703643 82.07639118044202 L 645.9232921921324 81.5 L 649.9232921921324 81.5 L 653.9232921921324 80.5 L 656.2170824512629 80.5 L 659.2170824512629 79.5 L 661.2170824512629 79.5 L 664.2170824512629 78.5 L 667 78.5 L 671.2170824512629 78.5 L 674.9287366002383 77.26278195034152 L 678.7426463519458 76.5 L 681 76.5 L 684 76.5 L 686 76.5 L 688 76.5 L 691 76.5 L 692.7829175487371 76.5 L 695.7829175487371 77.5 L 699 77.5 L 699.7829175487371 77.5 L 701.6282917548738 78.11512473537886 L 704.6282917548738 79.11512473537886 L 707.6282917548738 80.11512473537886 L 710.6282917548738 81.11512473537886 L 713.1226354087804 81.94657262001442 L 715.1226354087804 82.94657262001442 L 718.6282917548738 84.11512473537886 L 721.1226354087804 84.94657262001442 L 723.557306395652 86.1639081134502 L 725.557306395652 88.1639081134502 L 728.6458980337503 89.70820393249937 L 732.2282603617854 91.49938509651693 L 735.2282603617854 93.49938509651693 L 736.557306395652 94.1639081134502 L 738.557306395652 96.1639081134502 L 741.8644376326342 97.81747373194133 L 743.47224362268 100.22918271701005 L 748.0735931288071 103.68019484660536 L 747.5 103.10660171779821 L 747.5 106.63525491562422 L 751.8644376326342 108.81747373194133 L 752.5006149034831 109.77173963821457 L 754.4098300562505 113.59016994374947 L 756.4098300562505 114.59016994374947 L 757.4098300562505 116.59016994374947 L 757.5 116.63525491562422 L 757.5 114 " stroke="#4a5568" stroke-width="2" fill="none" stroke-linecap="butt" stroke-linejoin="round" />
    <path d="M 515.5 26 L 515.5 28 L 515.5 31 L 515.5 34 L 515.5 37 L 515.5 39 L 515.5 43 L 515.5 45 L 515.5 47 L 515.5 50 L 515.5 53 L 515.5 55 L 515.5 57 L 515.5 60 L 515.5 62 L 515.5 64 L 515.5 66 L 515.5 69 L 515.5 71 L 515.5 74 L 515.5 77 L 515.5 80.77050983124842 L 514.076391180442 83.61772747036439 L 513.5 85.92329219213245 L 513.5 88.21708245126284 L 511.9465726200144 92.87736459121957 L 511.076391180442 94.61772747036439 L 510.5 96.92329219213245 L 510.5 99.77050983124842 L 508.5 103.77050983124842 L 508.5 106 L 508.5 108 L 508.5 110 L 508.5 112 L 508.5 114 L 508.5 117.77050983124842 L 507.5 119.77050983124842 L 507.5 120 L 507.5 122 L 507.5 124 L 507.5 126 L 507.5 128 L 507.5 131 L 507.5 136 L 507.5 138 L 507.5 142 L 507.5 144 L 507.5 146 L 507.5 151 L 507.5 154 L 507.5 158 L 507.5 161 L 507.5 164 L 507.5 166 L 507.5 169 L 507.5 173 L 507.5 175 L 507.5 178 L 507.5 182 L 507.5 184 L 507.5 188 L 507.5 190 L 507.5 194 L 507.5 196 L 507.5 200 L 507.5 204 L 507.5 208 L 507.5 212 L 507.5 214 L 507.5 219 L 507.5 222.53306688776087 L 508.34997013219527 229.33282794532292 L 509.5 232.78291754873715 L 509.5 237 L 509.5 243.1066017177982 L 507.5 245.1066017177982 L 507.5 245.77050983124843 L 505.7082039324994 249.3541019662497 L 505.5 249.77050983124843 L 505.5 251.21708245126285 L 504.5 254.21708245126285 L 504.5 257 L 504.5 261.77050983124843 L 502.7082039324994 265.3541019662497 L 502.5 265.77050983124843 L 502.5 266 L 502.5 268 L 502.5 270 L 502.5 272 L 502.5 275 L 502.5 277 L 502.5 280 L 502.5 282 L 502.5 282.22949016875157 L 503.5 284.22949016875157 L 503.5 287.22949016875157 L 504.5 289.22949016875157 L 504.5 293 L 504.5 295 L 504.5 298 L 504.5 300 L 504.5 301.07670780786754 L 505.5 305.07670780786754 L 505.5 308.2573536480541 L 506.5 313.2573536480541 L 506.5 317 L 506.5 319 L 506.5 320.78291754873715 L 507.5 323.78291754873715 L 507.5 326.78291754873715 L 508.26278195034155 329.07126339976173 L 509.5 335.2573536480541 L 509.5 338.07670780786754 L 510.38591023002664 341.6203487279742 L 511.5 350.53306688776087 L 511.5 352.78291754873715 L 512.5 355.78291754873715 L 512.5 360 L 512.5 362 L 512.5 366 L 512.5 368 L 512.5 370 L 512.5 372.07670780786754 L 513.5 376.07670780786754 L 513.5 379 L 513.5 382 L 513.5 385 L 513.5 387 L 513.5 390 L 513.5 392 L 513.5 394 L 513.5 396 L 513.5 399 L 513.5 402 L 513.5 404 L 513.5 406 L 513.5 408 L 513.5 410 L 513.5 413 L 513.5 415 L 513.5 417 L 513.5 419 L 513.5 421 L 513.5 423 L 513.5 425 L 513.5 427 L 513.5 430 L 513.5 432 L 513.5 435 L 513.5 437 L 513.5 440 L 513.5 442 L 513.5 444 L 513.5 446 L 513.5 448 L 513.5 451.21708245126285 L 512.5 454.21708245126285 L 512.5 455 L 512.5 457 L 512.5 459 L 512.5 459.22949016875157 L 512.7082039324994 459.6458980337503 L 514.5 463.22949016875157 L 514.5 465.22949016875157 L 514.7082039324994 465.6458980337503 L 515.7082039324994 467.6458980337503 L 515.5901699437495 467.40983005625054 L 515.3541019662497 467.2917960675006 L 518.442693604348 468.8360918865498 L 520.442693604348 470.8360918865498 L 521.3541019662497 471.2917960675006 L 521.7705098312484 471.5 L 522 471.5 L 524 471.5 L 526 471.5 L 528 471.5 L 526.8933982822018 471.5 L 526.8360918865498 471.557306395652 L 527.2917960675006 470.6458980337503 L 527.5 470.22949016875157 L 527.5 470 L 527.5 466 L 527.5 464 L 527.5 461 L 527.5 458 L 527.5 455 L 527.5 453 L 527.5 451 L 527.5 449 L 527.5 447 L 527.5 445 L 527.5 443 L 527.5 444.1066017177982 L 525.5 442.1066017177982 L 525.5 437 L 525.5 436.21708245126285 L 524.5 433.21708245126285 L 524.5 429 L 524.5 427 L 524.5 425 L 524.5 423 L 524.5 420 L 524.5 418 L 524.5 416 L 524.5 413 L 524.5 411 L 524.5 408 L 524.5 405 L 524.5 402 L 524.5 398.22949016875157 L 525.5 396.22949016875157 L 525.5 396 L 525.5 394 L 525.5 392 L 525.5 390 L 525.5 388 L 525.5 386 L 525.5 382.22949016875157 L 526.5 380.22949016875157 L 526.5 379 L 526.5 377 L 526.5 374.07670780786754 L 527.5 370.07670780786754 L 527.5 367.78291754873715 L 528.5 364.78291754873715 L 528.5 362.2573536480541 L 529.7372180496585 356.07126339976173 L 530.5 353.78291754873715 L 530.5 353 L 530.5 351 L 530.5 349 L 530.5 346 L 530.5 343 L 530.5 341 L 530.5 339 L 530.5 337 L 530.5 334 L 530.5 333.77050983124843 L 529.5 331.77050983124843 L 529.5 329.77050983124843 L 528.5 327.77050983124843 L 528.5 323 L 528.5 320 L 528.5 318 L 528.5 316 L 528.5 313 L 528.5 309 L 528.5 307 L 528.5 306.77050983124843 L 527.5 304.77050983124843 L 527.5 301.7426463519459 L 526.8426211597675 298.45575215078344 L 525.5 295.77050983124843 L 525.5 292 L 525.5 290 L 525.5 287.92329219213246 L 524.5 283.92329219213246 L 524.5 282.77050983124843 L 523.923608819558 281.6177274703644 L 522.5 275.92329219213246 L 522.5 272 L 522.5 269 L 522.5 267 L 522.5 265 L 522.5 263 L 522.5 261 L 522.5 259 L 522.5 254.78291754873715 L 523.5 251.78291754873715 L 523.5 250 L 523.5 247 L 523.5 245 L 523.5 242 L 523.5 239 L 523.5 237 L 523.5 235 L 523.5 233 L 523.5 231 L 523.5 229 L 523.5 227 L 523.5 225 L 523.5 223 L 523.5 219.78291754873715 L 524.5 216.78291754873715 L 524.5 215 L 524.5 213 L 524.5 211 L 524.5 209 L 524.5 207 L 524.5 205 L 524.5 201.22949016875157 L 525.5 199.22949016875157 L 525.5 198 L 525.5 196 L 525.5 194 L 525.5 192 L 525.5 190 L 525.5 188 L 525.5 186 L 525.5 184 L 525.5 181 L 525.5 178 L 525.5 176 L 525.5 172.78291754873715 L 526.7937902591304 168.90154677134598 L 527.5 166.07670780786754 L 527.5 165 L 527.5 163 L 527.5 159 L 527.5 157 L 527.5 153.22949016875157 L 528.923608819558 150.3822725296356 L 529.7937902591304 146.90154677134598 L 530.5 144.78291754873715 L 530.5 144 L 530.5 142 L 530.5 138.78291754873715 L 531.5 135.78291754873715 L 531.5 133.22949016875157 L 532.5 131.22949016875157 L 532.5 131 L 532.5 129 L 532.5 127 L 532.5 125 L 532.5 121.22949016875158 L 533.5 119.22949016875158 L 533.5 119 L 533.5 117 L 533.5 113.22949016875158 L 535.2917960675006 109.64589803375031 L 536.2917960675006 107.64589803375031 L 537.2917960675006 105.64589803375031 L 538.8360918865498 102.55730639565199 L 542.557306395652 98.8360918865498 L 543.4098300562505 98.40983005625053 L 544.4098300562505 96.40983005625053 L 547.557306395652 94.8360918865498 L 549.557306395652 92.8360918865498 L 551.557306395652 91.8360918865498 L 553.557306395652 89.8360918865498 L 556.6458980337503 88.29179606750063 L 558.2282603617854 87.50061490348307 L 561.6754478852829 85.20248988781807 L 566.7829175487371 83.5 L 568.7829175487371 83.5 L 570.6282917548738 82.88487526462114 L 574.7829175487371 81.5 L 576.7829175487371 81.5 L 579.7829175487371 80.5 L 582.7829175487371 80.5 L 584.1226354087804 80.05342737998558 L 587.2294901687516 78.5 L 589.2294901687516 78.5 L 590.1226354087804 78.05342737998558 L 594.7829175487371 76.5 L 599 76.5 L 601 76.5 L 602.2294901687516 76.5 L 603.1226354087804 76.05342737998558 L 607.7829175487371 74.5 L 610.2294901687516 74.5 L 611.1226354087804 74.05342737998558 L 615.7829175487371 72.5 L 618.2294901687516 72.5 L 619.3822725296357 71.92360881955798 L 625.0767078078676 70.5 L 630 70.5 L 630.2294901687516 70.5 L 631.1226354087804 70.05342737998558 L 635.7829175487371 68.5 L 637.2294901687516 68.5 L 638.3822725296357 67.92360881955798 L 644.0767078078676 66.5 L 648.0767078078676 66.5 L 652.0767078078676 65.5 L 653.7829175487371 65.5 L 656.7829175487371 64.5 L 658.7829175487371 64.5 L 661.7829175487371 63.5 L 667 63.5 L 668.7829175487371 63.5 L 671.0712633997617 62.73721804965848 L 677.2573536480542 61.5 L 681 61.5 L 684 61.5 L 686 61.5 L 688 61.5 L 691 61.5 L 695.2170824512629 61.5 L 698.2170824512629 62.5 L 699 62.5 L 702.2170824512629 62.5 L 706.3717082451262 63.884875264621144 L 709.3717082451262 64.88487526462114 L 712.3717082451262 65.88487526462114 L 715.3717082451262 66.88487526462114 L 718.8773645912196 68.05342737998558 L 720.8773645912196 69.05342737998558 L 723.3717082451262 69.88487526462114 L 726.8773645912196 71.05342737998558 L 732.442693604348 73.8360918865498 L 734.442693604348 75.8360918865498 L 735.3541019662497 76.29179606750063 L 739.7717396382146 78.50061490348307 L 742.7717396382146 80.50061490348307 L 745.442693604348 81.8360918865498 L 747.442693604348 83.8360918865498 L 752.1355623673658 86.18252626805867 L 754.52775637732 89.77081728298995 L 757.9264068711929 92.31980515339464 L 762.5 96.89339828220179 L 762.5 97.36474508437578 L 762.1355623673658 97.18252626805867 L 765.4993850965169 102.22826036178543 L 765.5901699437495 102.40983005625053 L 767.5901699437495 103.40983005625053 L 768.5901699437495 105.40983005625053 L 772.5 107.36474508437578 L 772.5 114 " stroke="#4a5568" stroke-width="2" fill="none" stroke-linecap="butt" stroke-linejoin="round" />
  </g>
</svg>