<svg xmlns="http://www.w3.org/2000/svg" width="1334" height="864" viewBox="0 0 1334 864">
  <g fill="none">
    <path d="M 438.75 131 L 461.25 131 M 438.75 156 L 461.25 156 M 438.75 181 L 461.25 181 M 438.75 206 L 461.25 206 M 440.78558376870427 231.56951883276835 L 463.21441623129573 229.7813705265581 M 444.85326166870345 256.36489959167454 L 467.14673833129655 253.3233706514179 M 449.9841118589503 281.4510463370823 L 471.88221412197424 276.2816056247667 M 457.2482365089796 306.5111761370978 L 478.32411387488327 298.6335246306279 M 466.84958785861653 329.8546722350955 L 487.02045216200594 319.88540780614943 M 478.95258615274247 352.03594160164363 L 498.60874921391496 341.08672913167123 M 493.11983229860215 374.8173225380635 L 510.2255234646827 360.2007111068638 M 514.9912649010473 392.5139618601741 L 527.2397632178852 373.640056885781 M 537.9581203432871 404.08484938590965 L 548.7853264020358 384.3612186612841 M 564.1692713048079 415.4285077446339 L 567.7733717724647 393.21903994779024 M 590.5112373518773 418.24964754949974 L 590.6893385819101 395.75035245050026 M 616.6499345326334 417.1912048608803 L 614.3526023739684 394.8087951391197 M 644.1216185128416 409.2801448451292 L 634.6561060243076 388.8680387967714 M 667.0445903594667 397.9156540456521 L 655.6295731209058 378.52629146089043 M 689.0545448062068 383.4186526779551 L 674.7897944300822 366.01845449785225 M 707.226525748826 363.748460883348 L 690.0566829272042 349.207260881945 M 721.3907385220342 340.3638077135259 L 700.9840891025764 330.8865370372528 M 729.3578825380703 314.76705754304106 L 707.4597802750463 309.5976168307255 M 730.25 287.3218931610985 L 707.75 287.3218931610985 M 730.25 262.3218931610985 L 707.75 262.3218931610985 M 729.2057629842458 236.44831631927423 L 706.7942370157542 238.44168125415808 M 728.2088885786527 211.64638267994238 L 705.7911114213473 213.56817021382662 M 727.25 187.73038207250215 L 704.75 187.73038207250215 M 732.3079017079543 166.57010895560208 L 710.5293617867738 160.91810056021316 M 733.25 138.83844783764152 L 710.75 138.83844783764152 M 734.7092946922022 118.67080818538592 L 713.9073379095756 110.09592661105854 M 743.2023683664768 116.19391080924552 L 745.446347684257 93.80608919075448 M 740.75 126.14401813786776 L 763.25 126.14401813786776 M 740.75 151.14401813786776 L 763.25 151.14401813786776 M 740.75 176.14401813786776 L 763.25 176.14401813786776 M 740.940808635582 202.93867783583985 L 763.1502764324257 199.33457736818312 M 741.75 225.98174047769942 L 764.25 225.98174047769942 M 740.755065588801 250.40810756150992 L 763.244934411199 251.08323743888926 M 740.343235986643 273.85404011097705 L 762.5527037834867 277.4581405786338 M 739.75 300.58339484003125 L 762.25 300.58339484003125 M 745.23895265538 328.2912144684013 L 766.5235134302493 320.99618378848646 M 757.1525373021839 353.3785590737762 L 775.0250588475972 339.7102390011143 M 767.4823293581875 372.12042346324756 L 787.6069411556856 362.0581175644985 M 788.185393676909 394.13866523962673 L 799.6548626445646 374.78146292111006 M 821.7499348692777 398.11097445839977 L 814.1900108901948 376.919052661864 " stroke="#8B4513" stroke-width="7" fill="none" stroke-linecap="butt" />
    <path d="M 442.5 131 L 442.5 133 L 442.5 135 L 442.5 137 L 442.5 139 L 442.5 141 L 442.5 143 L 442.5 146 L 442.5 148 L 442.5 150 L 442.5 152 L 442.5 155 L 442.5 158 L 442.5 160 L 442.5 164 L 442.5 167 L 442.5 171 L 442.5 173 L 442.5 175 L 442.5 178 L 442.5 182 L 442.5 184 L 442.5 186 L 442.5 188 L 442.5 190 L 442.5 192 L 442.5 195 L 442.5 197 L 442.5 200 L 442.5 202 L 442.5 204 L 442.5 207 L 442.5 211 L 442.5 215.21708245126285 L 443.5 218.21708245126285 L 443.5 219 L 443.5 222.21708245126285 L 444.5 225.21708245126285 L 444.5 227 L 444.5 230 L 444.5 233.77050983124843 L 445.923608819558 236.6177274703644 L 446.5 238.92329219213246 L 446.5 242.77050983124843 L 447.5 244.77050983124843 L 447.5 245 L 447.5 247 L 447.5 249 L 447.5 253.77050983124843 L 448.5 255.77050983124843 L 448.5 256 L 448.5 258 L 448.5 261.77050983124843 L 450.2917960675006 265.3541019662497 L 450.5 265.77050983124843 L 450.5 268.21708245126285 L 451.7937902591304 272.098453228654 L 452.5 274.92329219213246 L 452.5 278.77050983124843 L 453.5 280.77050983124843 L 453.5 282.77050983124843 L 454.84262115976753 285.45575215078344 L 455.7372180496585 289.92873660023827 L 456.7937902591304 293.098453228654 L 457.923608819558 297.6177274703644 L 459.5 300.77050983124843 L 459.5 302.77050983124843 L 461.0534273799856 305.8773645912196 L 461.88487526462114 308.3717082451263 L 463.0534273799856 311.8773645912196 L 464.2917960675006 314.3541019662497 L 464.5 314.77050983124843 L 464.5 316.77050983124843 L 465.5 318.77050983124843 L 465.5 323.6352549156242 L 468.86726898574454 325.3188894084965 L 469.0534273799856 325.8773645912196 L 470.2917960675006 328.3541019662497 L 471.5006149034831 330.77173963821457 L 472.5 332.27081728299 L 472.5 334.07737973711323 L 476.66062527526026 341.0117551958803 L 478.66062527526026 344.0117551958803 L 481.42060971759446 348.6117292664374 L 484.5006149034831 354.77173963821457 L 486.5006149034831 357.77173963821457 L 487.2917960675006 359.3541019662497 L 488.2917960675006 361.3541019662497 L 489.2917960675006 363.3541019662497 L 491.40983005625054 367.59016994374946 L 493.40983005625054 368.59016994374946 L 493.5006149034831 368.77173963821457 L 496.40552724737046 373.12910815404564 L 501.9904231917553 377.5970249095535 L 503.6966991411009 379.3033008588991 L 506.07359312880715 381.6801948466054 L 510.6665382639197 385.12490369793977 L 513.8397485283108 387.2403772075338 L 519.9882448041196 391.33937472473974 L 525.8472486555737 394.8547770356122 L 532.1226354087804 396.9465726200144 L 539.3882707335626 400.57939028240554 L 544.3882707335626 403.57939028240554 L 553.1226354087804 407.9465726200144 L 556.1226354087804 408.9465726200144 L 557.6458980337503 409.7082039324994 L 561.2294901687516 411.5 L 563.7829175487371 411.5 L 566.7829175487371 412.5 L 570 412.5 L 574 412.5 L 576.7829175487371 412.5 L 579.0712633997617 413.26278195034155 L 585.2573536480542 414.5 L 591 414.5 L 597 414.5 L 600 414.5 L 604.7426463519458 414.5 L 609.7426463519458 413.5 L 613 413.5 L 616.9232921921324 413.5 L 622.098453228654 412.2062097408696 L 624.9287366002383 411.26278195034155 L 629.9287366002383 410.2627819503415 L 633.3717082451262 409.11512473537886 L 636.098453228654 408.2062097408696 L 641.0793323375044 406.96098996365697 L 644.3245521147171 404.7975101121819 L 647.3245521147171 403.7975101121819 L 650.7717396382146 401.4993850965169 L 653.442693604348 400.1639081134502 L 654.1066017177982 399.5 L 654.2170824512629 399.5 L 659.3245521147171 397.7975101121819 L 662.3245521147171 395.7975101121819 L 666.0513613510659 394.55524036673233 L 668.7781705874147 391.8284311303835 L 670.0793323375044 390.96098996365697 L 674.0793323375044 389.96098996365697 L 678.3334617360803 387.12490369793977 L 682.9264068711929 383.6801948466054 L 684.7781705874147 381.8284311303835 L 687.7781705874147 379.8284311303835 L 690.7781705874147 376.8284311303835 L 694.408326913196 374.408326913196 L 696.8284311303835 370.7781705874147 L 699.8284311303835 367.7781705874147 L 702.1249036979398 364.3334617360803 L 704.6801948466053 360.92640687119285 L 708.1639081134502 357.442693604348 L 709.7082039324994 354.3541019662497 L 711.5901699437495 350.59016994374946 L 714.1327310142555 349.3188894084965 L 716.1151247353788 343.3717082451263 L 716.9465726200144 340.8773645912196 L 718.7082039324994 337.3541019662497 L 719.9465726200144 334.8773645912196 L 720.9465726200144 331.8773645912196 L 722.5 328.77050983124843 L 722.5 326.77050983124843 L 722.9465726200144 325.8773645912196 L 724.5 321.21708245126285 L 724.5 318.77050983124843 L 725.5 316.77050983124843 L 725.5 314.77050983124843 L 726.5 312.77050983124843 L 726.5 309 L 726.5 307 L 726.5 303 L 726.5 301 L 726.5 295 L 726.5 293 L 726.5 290 L 726.5 288 L 726.5 285 L 726.5 282 L 726.5 280 L 726.5 278 L 726.5 276 L 726.5 274 L 726.5 271 L 726.5 269 L 726.5 265 L 726.5 263 L 726.5 259 L 726.5 255 L 726.5 251 L 726.5 248 L 726.5 246 L 726.5 244 L 726.5 241.07670780786754 L 725.5 237.07670780786754 L 725.5 236 L 725.5 234 L 725.5 232 L 725.5 228.78291754873715 L 724.5 225.78291754873715 L 724.5 223 L 724.5 220 L 724.5 218 L 724.5 216 L 724.5 214 L 724.5 211.07670780786754 L 723.5 207.07670780786754 L 723.5 204 L 723.5 199 L 723.5 197 L 723.5 195 L 723.5 193 L 723.5 189 L 723.5 187 L 723.5 185 L 723.5 183.77050983124843 L 723.9465726200144 182.8773645912196 L 725.5 178.21708245126285 L 725.5 174.4443680267544 L 727.045428849017 170.58079590421212 L 728.1151247353788 167.37170824512629 L 729.5 163.21708245126285 L 729.5 160 L 729.5 157 L 729.5 155 L 729.5 153 L 729.5 150 L 729.5 148 L 729.5 146 L 729.5 144 L 729.5 142 L 729.5 139 L 729.5 137 L 729.5 135 L 729.5 133 L 729.5 131 L 729.5 129 L 729.5 127 L 729.5 125 L 729.5 123 L 729.5 121 L 729.5 120.77050983124842 L 729.7082039324994 120.35410196624969 L 730.7082039324994 118.35410196624969 L 732.5 114.77050983124842 L 732.5 115.63525491562422 L 731.442693604348 116.1639081134502 L 734.3033008588991 113.3033008588991 L 734.1066017177982 113.5 L 734.7705098312484 113.5 L 736.7705098312484 112.5 L 738 112.5 L 740 112.5 L 742 112.5 L 744 112.5 L 741.3647450843758 112.5 L 741.4098300562505 112.59016994374947 L 743.4098300562505 113.59016994374947 L 743.2917960675006 113.35410196624969 L 743.5 113.77050983124842 L 743.5 115.77050983124842 L 744.5 117.77050983124842 L 744.5 118 L 744.5 120 L 744.5 122 L 744.5 124 L 744.5 126 L 744.5 128 L 744.5 131 L 744.5 133 L 744.5 136 L 744.5 138 L 744.5 140 L 744.5 142 L 744.5 144 L 744.5 146 L 744.5 148 L 744.5 150 L 744.5 153 L 744.5 156 L 744.5 159 L 744.5 163 L 744.5 166 L 744.5 168 L 744.5 170 L 744.5 172 L 744.5 174 L 744.5 176 L 744.5 178 L 744.5 180 L 744.5 182 L 744.5 184 L 744.5 186 L 744.5 188 L 744.5 191 L 744.5 193 L 744.5 195 L 744.5 197 L 744.5 199 L 744.5 202.21708245126285 L 745.5 205.21708245126285 L 745.5 206 L 745.5 209 L 745.5 211 L 745.5 213 L 745.5 215 L 745.5 217 L 745.5 219 L 745.5 221 L 745.5 223 L 745.5 225 L 745.5 227 L 745.5 229 L 745.5 231 L 745.5 234 L 745.5 237 L 745.5 239 L 745.5 241 L 745.5 243 L 745.5 245 L 745.5 245.22949016875157 L 744.5 247.22949016875157 L 744.5 251 L 744.5 253 L 744.5 255 L 744.5 257 L 744.5 260 L 744.5 262 L 744.5 264 L 744.5 266 L 744.5 268 L 744.5 270 L 744.5 272 L 744.5 272.78291754873715 L 743.5 275.78291754873715 L 743.5 280 L 743.5 282 L 743.5 284 L 743.5 286 L 743.5 288 L 743.5 290 L 743.5 292 L 743.5 294 L 743.5 296 L 743.5 298 L 743.5 300 L 743.5 302 L 743.5 304 L 743.5 306 L 743.5 308 L 743.5 311.21708245126285 L 744.8848752646212 315.3717082451263 L 746.0534273799856 318.8773645912196 L 746.5 319.77050983124843 L 746.5 321.77050983124843 L 748.0534273799856 324.8773645912196 L 748.8848752646212 327.3717082451263 L 750.0534273799856 330.8773645912196 L 751.2917960675006 333.3541019662497 L 752.2917960675006 335.3541019662497 L 752.5 335.77050983124843 L 752.5 339.1066017177982 L 754.5 341.1066017177982 L 754.5 341.77050983124843 L 756.2917960675006 345.3541019662497 L 757.2917960675006 347.3541019662497 L 759.4098300562505 351.59016994374946 L 759.5 351.6352549156242 L 759.5 354.6352549156242 L 763.4098300562505 356.59016994374946 L 763.0534273799856 355.8773645912196 L 764.4447596332677 360.0513613510659 L 765.5 361.1066017177982 L 765.5 361.77050983124843 L 767.8360918865498 366.442693604348 L 769.8360918865498 368.442693604348 L 770.2917960675006 369.3541019662497 L 771.2917960675006 371.3541019662497 L 773.4098300562505 375.59016994374946 L 775.4098300562505 376.59016994374946 L 775.2917960675006 376.3541019662497 L 777.4098300562505 380.59016994374946 L 780.557306395652 382.1639081134502 L 780.8360918865498 382.442693604348 L 782.4098300562505 385.59016994374946 L 786.6458980337503 387.7082039324994 L 786.4098300562505 387.59016994374946 L 787.4098300562505 389.59016994374946 L 793.2294901687516 392.5 L 795.2294901687516 392.5 L 797.2294901687516 393.5 L 799.2294901687516 393.5 L 801.2294901687516 394.5 L 805 394.5 L 807 394.5 L 807.2294901687516 394.5 L 809.2294901687516 395.5 L 813 395.5 L 815 395.5 L 818.7705098312484 395.5 L 822.3541019662497 393.7082039324994 " stroke="#4a5568" stroke-width="2" fill="none" stroke-linecap="butt" stroke-linejoin="round" />
    <path d="M 457.5 131 L 457.5 133 L 457.5 135 L 457.5 137 L 457.5 139 L 457.5 141 L 457.5 143 L 457.5 146 L 457.5 148 L 457.5 150 L 457.5 152 L 457.5 155 L 457.5 158 L 457.5 160 L 457.5 164 L 457.5 167 L 457.5 171 L 457.5 173 L 457.5 175 L 457.5 178 L 457.5 182 L 457.5 184 L 457.5 186 L 457.5 188 L 457.5 190 L 457.5 192 L 457.5 195 L 457.5 197 L 457.5 200 L 457.5 202 L 457.5 204 L 457.5 207 L 457.5 211 L 457.5 212.78291754873715 L 458.5 215.78291754873715 L 458.5 219 L 458.5 219.78291754873715 L 459.5 222.78291754873715 L 459.5 227 L 459.5 230 L 459.5 230.22949016875157 L 460.076391180442 231.3822725296356 L 461.5 237.07670780786754 L 461.5 239.22949016875157 L 462.5 241.22949016875157 L 462.5 245 L 462.5 247 L 462.5 249 L 462.5 250.22949016875157 L 463.5 252.22949016875157 L 463.5 256 L 463.5 258 L 463.5 258.22949016875157 L 463.7082039324994 258.6458980337503 L 465.5 262.22949016875157 L 465.5 265.78291754873715 L 466.2062097408696 267.901546771346 L 467.5 273.07670780786754 L 467.5 275.22949016875157 L 468.5 277.22949016875157 L 468.5 279.22949016875157 L 469.15737884023247 280.54424784921656 L 470.2627819503415 286.07126339976173 L 471.2062097408696 288.901546771346 L 472.076391180442 292.3822725296356 L 474.5 297.22949016875157 L 474.5 299.22949016875157 L 474.9465726200144 300.1226354087804 L 476.11512473537886 303.6282917548737 L 476.9465726200144 306.1226354087804 L 477.7082039324994 307.6458980337503 L 479.5 311.22949016875157 L 479.5 313.22949016875157 L 480.5 315.22949016875157 L 480.5 314.3647450843758 L 481.13273101425546 314.6811105915035 L 482.9465726200144 320.1226354087804 L 483.7082039324994 321.6458980337503 L 484.4993850965169 323.22826036178543 L 487.5 327.72918271701 L 487.5 329.92262026288677 L 489.33937472473974 332.9882448041197 L 491.33937472473974 335.9882448041197 L 494.57939028240554 341.3882707335626 L 497.4993850965169 347.22826036178543 L 499.4993850965169 350.22826036178543 L 500.7082039324994 352.6458980337503 L 501.7082039324994 354.6458980337503 L 502.7082039324994 356.6458980337503 L 502.59016994374946 356.40983005625054 L 504.59016994374946 357.40983005625054 L 506.4993850965169 361.22826036178543 L 507.59447275262954 362.87089184595436 L 512.0095768082447 366.4029750904465 L 514.3033008588991 368.6966991411009 L 515.9264068711929 370.3198051533946 L 519.3334617360803 372.87509630206023 L 522.1602514716892 374.7596227924662 L 528.0117551958804 378.66062527526026 L 532.1527513444263 381.1452229643878 L 537.8773645912196 383.0534273799856 L 546.6117292664374 387.42060971759446 L 551.6117292664374 390.42060971759446 L 558.8773645912196 394.0534273799856 L 561.8773645912196 395.0534273799856 L 564.3541019662497 396.2917960675006 L 564.7705098312484 396.5 L 566.2170824512629 396.5 L 569.2170824512629 397.5 L 570 397.5 L 574 397.5 L 579.2170824512629 397.5 L 582.9287366002383 398.73721804965845 L 586.7426463519458 399.5 L 591 399.5 L 597 399.5 L 600 399.5 L 603.2573536480542 399.5 L 608.2573536480542 398.5 L 613 398.5 L 615.0767078078676 398.5 L 617.901546771346 397.7937902591304 L 621.0712633997617 396.73721804965845 L 626.0712633997617 395.7372180496585 L 628.6282917548738 394.88487526462114 L 631.901546771346 393.7937902591304 L 634.9206676624956 393.03901003634303 L 637.6754478852829 391.2024898878181 L 640.6754478852829 390.2024898878181 L 643.2282603617854 388.5006149034831 L 644.557306395652 387.8360918865498 L 647.8933982822018 384.5 L 651.7829175487371 384.5 L 652.6754478852829 384.2024898878181 L 655.6754478852829 382.2024898878181 L 657.9486386489341 381.44475963326767 L 659.2218294125853 380.1715688696165 L 663.9206676624956 377.03901003634303 L 667.9206676624956 376.03901003634303 L 669.6665382639197 374.87509630206023 L 673.0735931288071 372.3198051533946 L 675.2218294125853 370.1715688696165 L 678.2218294125853 368.1715688696165 L 681.2218294125853 365.1715688696165 L 683.591673086804 363.591673086804 L 685.1715688696165 361.2218294125853 L 688.1715688696165 358.2218294125853 L 689.8750963020602 355.6665382639197 L 693.3198051533947 351.07359312880715 L 695.8360918865498 348.557306395652 L 696.2917960675006 347.6458980337503 L 700.4098300562505 339.40983005625054 L 701.8672689857445 338.6811105915035 L 701.8848752646212 338.6282917548737 L 703.0534273799856 335.1226354087804 L 705.2917960675006 330.6458980337503 L 706.0534273799856 329.1226354087804 L 707.0534273799856 326.1226354087804 L 707.5 325.22949016875157 L 707.5 323.22949016875157 L 709.0534273799856 320.1226354087804 L 709.5 318.78291754873715 L 709.5 315.22949016875157 L 710.5 313.22949016875157 L 710.5 311.22949016875157 L 711.5 309.22949016875157 L 711.5 309 L 711.5 307 L 711.5 303 L 711.5 301 L 711.5 295 L 711.5 293 L 711.5 290 L 711.5 288 L 711.5 285 L 711.5 282 L 711.5 280 L 711.5 278 L 711.5 276 L 711.5 274 L 711.5 271 L 711.5 269 L 711.5 265 L 711.5 263 L 711.5 259 L 711.5 255 L 711.5 251 L 711.5 248 L 711.5 246 L 711.5 244 L 711.5 242.92329219213246 L 710.5 238.92329219213246 L 710.5 236 L 710.5 234 L 710.5 232 L 710.5 231.21708245126285 L 709.5 228.21708245126285 L 709.5 223 L 709.5 220 L 709.5 218 L 709.5 216 L 709.5 214 L 709.5 212.92329219213246 L 708.5 208.92329219213246 L 708.5 204 L 708.5 199 L 708.5 197 L 708.5 195 L 708.5 193 L 708.5 189 L 708.5 187 L 708.5 185 L 708.5 180.22949016875157 L 710.0534273799856 177.1226354087804 L 710.5 175.78291754873715 L 710.5 171.5556319732456 L 712.954571150983 165.41920409578788 L 713.8848752646212 162.62829175487371 L 714.5 160.78291754873715 L 714.5 160 L 714.5 157 L 714.5 155 L 714.5 153 L 714.5 150 L 714.5 148 L 714.5 146 L 714.5 144 L 714.5 142 L 714.5 139 L 714.5 137 L 714.5 135 L 714.5 133 L 714.5 131 L 714.5 129 L 714.5 127 L 714.5 125 L 714.5 123 L 714.5 121 L 714.5 117.22949016875158 L 716.2917960675006 113.64589803375031 L 717.2917960675006 111.64589803375031 L 717.5 111.22949016875158 L 717.5 106.36474508437578 L 722.557306395652 103.8360918865498 L 723.6966991411009 102.6966991411009 L 727.8933982822018 98.5 L 731.2294901687516 98.5 L 733.2294901687516 97.5 L 738 97.5 L 740 97.5 L 742 97.5 L 744 97.5 L 750.6352549156242 97.5 L 752.5901699437495 101.40983005625053 L 754.5901699437495 102.40983005625053 L 756.7082039324994 106.64589803375031 L 758.5 110.22949016875158 L 758.5 112.22949016875158 L 759.5 114.22949016875158 L 759.5 118 L 759.5 120 L 759.5 122 L 759.5 124 L 759.5 126 L 759.5 128 L 759.5 131 L 759.5 133 L 759.5 136 L 759.5 138 L 759.5 140 L 759.5 142 L 759.5 144 L 759.5 146 L 759.5 148 L 759.5 150 L 759.5 153 L 759.5 156 L 759.5 159 L 759.5 163 L 759.5 166 L 759.5 168 L 759.5 170 L 759.5 172 L 759.5 174 L 759.5 176 L 759.5 178 L 759.5 180 L 759.5 182 L 759.5 184 L 759.5 186 L 759.5 188 L 759.5 191 L 759.5 193 L 759.5 195 L 759.5 197 L 759.5 199 L 759.5 199.78291754873715 L 760.5 202.78291754873715 L 760.5 206 L 760.5 209 L 760.5 211 L 760.5 213 L 760.5 215 L 760.5 217 L 760.5 219 L 760.5 221 L 760.5 223 L 760.5 225 L 760.5 227 L 760.5 229 L 760.5 231 L 760.5 234 L 760.5 237 L 760.5 239 L 760.5 241 L 760.5 243 L 760.5 245 L 760.5 248.77050983124843 L 759.5 250.77050983124843 L 759.5 251 L 759.5 253 L 759.5 255 L 759.5 257 L 759.5 260 L 759.5 262 L 759.5 264 L 759.5 266 L 759.5 268 L 759.5 270 L 759.5 272 L 759.5 275.21708245126285 L 758.5 278.21708245126285 L 758.5 280 L 758.5 282 L 758.5 284 L 758.5 286 L 758.5 288 L 758.5 290 L 758.5 292 L 758.5 294 L 758.5 296 L 758.5 298 L 758.5 300 L 758.5 302 L 758.5 304 L 758.5 306 L 758.5 308 L 758.5 308.78291754873715 L 759.1151247353788 310.6282917548737 L 759.9465726200144 313.1226354087804 L 761.5 316.22949016875157 L 761.5 318.22949016875157 L 761.9465726200144 319.1226354087804 L 763.1151247353788 322.6282917548737 L 763.9465726200144 325.1226354087804 L 764.7082039324994 326.6458980337503 L 765.7082039324994 328.6458980337503 L 767.5 332.22949016875157 L 767.5 332.8933982822018 L 769.5 334.8933982822018 L 769.5 338.22949016875157 L 769.7082039324994 338.6458980337503 L 770.7082039324994 340.6458980337503 L 770.5901699437495 340.40983005625054 L 774.5 342.3647450843758 L 774.5 345.3647450843758 L 774.5901699437495 345.40983005625054 L 776.9465726200144 350.1226354087804 L 777.5552403667323 351.9486386489341 L 780.5 354.8933982822018 L 780.5 358.22949016875157 L 780.1639081134502 357.557306395652 L 782.1639081134502 359.557306395652 L 783.7082039324994 362.6458980337503 L 784.7082039324994 364.6458980337503 L 784.5901699437495 364.40983005625054 L 786.5901699437495 365.40983005625054 L 788.7082039324994 369.6458980337503 L 788.5901699437495 369.40983005625054 L 789.442693604348 369.8360918865498 L 793.1639081134502 373.557306395652 L 793.5901699437495 374.40983005625054 L 793.3541019662497 374.2917960675006 L 797.5901699437495 376.40983005625054 L 798.5901699437495 378.40983005625054 L 796.7705098312484 377.5 L 798.7705098312484 377.5 L 800.7705098312484 378.5 L 802.7705098312484 378.5 L 804.7705098312484 379.5 L 805 379.5 L 807 379.5 L 810.7705098312484 379.5 L 812.7705098312484 380.5 L 813 380.5 L 815 380.5 L 815.2294901687516 380.5 L 815.6458980337503 380.2917960675006 " stroke="#4a5568" stroke-width="2" fill="none" stroke-linecap="butt" stroke-linejoin="round" />
  </g>
</svg>