<svg xmlns="http://www.w3.org/2000/svg" width="1334" height="864" viewBox="0 0 1334 864">
  <g fill="none">
    <path d="M 278.6394341886993 93.24037720753383 L 297.3605658113007 80.75962279246617 M 288.0248964313379 111.72282549754482 L 309.72511602882116 105.77719942277335 M 297.5042020894099 136.11815140758026 L 318.2003542570012 127.290961285242 M 307.7426248614069 158.89408991192727 L 327.74775933030134 148.59629427978098 M 317.6577790807245 180.40803625706025 L 338.44506856222847 171.79765902884571 M 327.96188142324087 201.95549665068955 L 349.0642942585949 194.1492060766535 M 338.4578577218079 223.9482257707873 L 359.7500785678182 216.67558309809107 M 347.4013590221088 247.69019990268973 L 368.1886485036128 239.0798226744752 M 357.3400839280261 270.22194141264987 L 377.8482472883865 260.96638980376275 M 367.7630174391126 294.28184742030027 L 386.7876876926161 282.26885771142844 M 377.4325987666138 314.7839191362047 L 398.2198882481178 306.1735419079902 M 385.84616479047725 338.05249331757017 L 406.7359531762845 329.693860582715 M 393.81647868953206 362.58974686218824 L 413.79100652755125 352.2327087890616 M 403.55032978355365 383.64684440112353 L 424.4896929752229 375.4131897370412 M 416.75008684144615 407.36867816123254 L 435.12857990126264 394.3886553241849 M 428.1105204962154 423.43156153990884 L 449.8894795037846 417.78116823088857 M 445.499897619029 449.1091898290474 L 459.1233114782263 431.20241471958025 M 473.4979982112059 462.25 L 473.4979982112059 439.75 M 503.05355211166244 447.65091317402994 L 484.80060294521235 434.4949317690953 M 517.949051131512 422.6466844635449 L 496.05094886848804 417.4772437512293 M 523.949051131512 399.0630923285435 L 502.05094886848804 393.89365161622794 M 528.2271719122872 373.13896144600335 L 505.77282808771275 371.7063263187663 M 533.7691423512651 350.94453791665137 L 511.8710400882412 345.7750972043358 M 539.6489191590184 327.18498430114494 L 517.7508168959945 322.01554358882936 M 543.2371831482586 302.7180275475325 L 521.3353849628576 297.5642681191188 M 548.2759813686746 278.4888594280305 L 526.2291988773534 273.9955998338858 M 553.2496726314239 252.1827742593804 L 530.7503273685761 252.01112711210553 M 560.1935425222515 232.55225973567573 L 538.9250043952321 225.21064642935684 M 558.5457968527327 231.66190352619893 L 578.624596246526 221.5084895730598 M 560.8079442868024 251.84552136410556 L 583.1920557131976 249.56482944042878 M 566.8724927411341 279.8810482021163 L 586.5831769327577 269.0302911456673 M 574.0542056974066 301.7087560681653 L 595.0922683721981 293.73066614064845 M 577.050948868488 324.6399357845086 L 598.949051131512 319.47049507219305 M 581.3780179454338 348.89156833454894 L 603.2872507279542 343.7695063590032 M 588.8374836957107 371.62870301622604 L 611.0469514925544 368.0246025485693 M 595.9802609675726 396.9648943788384 L 617.0860371957106 389.1677019477279 M 604.928371790085 421.01046004337474 L 625.1797493772134 411.2057822912222 M 618.439770983081 444.2945059886611 L 635.6182801018813 429.76354509630124 M 651.8178663959186 456.4893684883785 L 645.2877667913242 434.9578149180001 M 675.1118693411968 432.9320260644791 L 654.9872575436987 422.86972016573003 M 684.2723125844312 408.13803771600004 L 662.9678286792342 400.90139722933776 M 691.1103674653353 382.811199517839 L 669.0728236497663 378.27284490665284 M 697.3037313284932 360.2984846758082 L 676.1239726236298 352.7045514917614 M 703.2490586356523 332.6238736036246 L 680.7509413643477 332.33280789520154 M 709.3955931183507 316.1902577145164 L 690.6150194781626 303.7991296889703 M 722.037290592041 291.2289111845116 L 699.962709407959 286.8742739381528 M 728.2215933979257 268.0396358233302 L 706.3234911349018 262.8701951110146 M 733.0065850639851 243.09649673713852 L 710.7971172671414 239.4923962694818 M 740.1263756736215 221.60246826323993 L 719.0239628382675 213.7961776892039 M 747.7810355686912 198.2306079915099 L 726.5105149898224 190.8947403329494 M 756.2994393700561 173.34205071983104 L 734.180715024845 169.21748609546574 M 762.240523359166 150.3384521016697 L 740.5569374744239 144.33244650901395 M 772.1813148872221 128.12019284473752 L 750.2832126241982 122.95075213242188 M 776.0085119733893 107.23940041926429 L 756.2189954956176 96.53309211172885 M 783.25 78.12533927590766 L 760.75 78.12533927590766 M 790.4436456398528 60.26847346716713 L 770.3190338423547 50.20616756841807 " stroke="#8B4513" stroke-width="7" fill="none" stroke-linecap="butt" />
    <path d="M 281.7596227924662 91.16025147168922 L 282.5 92.27081728298997 L 282.5 95.10660171779821 L 285.8360918865498 98.44269360434801 L 286.0534273799856 98.87736459121957 L 287.2024898878181 102.32455211471708 L 288.5 104.27081728298997 L 288.5 106.27081728298997 L 291.5006149034831 110.77173963821457 L 291.5 110.77050983124842 L 291.5 112.77050983124842 L 293.0534273799856 115.87736459121957 L 294.0534273799856 118.87736459121957 L 295.5 121.77050983124842 L 295.5 123.77050983124842 L 297.2917960675006 127.35410196624969 L 298.2917960675006 129.3541019662497 L 299.2917960675006 131.3541019662497 L 300.2917960675006 133.3541019662497 L 301.0534273799856 134.8773645912196 L 301.88487526462114 137.37170824512629 L 302.5 139.21708245126285 L 302.5 143.1066017177982 L 305.44475963326767 146.0513613510659 L 306.44475963326767 149.0513613510659 L 308.8360918865498 151.442693604348 L 309.2917960675006 152.3541019662497 L 309.5 152.77050983124843 L 309.5 156.1066017177982 L 312.8360918865498 159.442693604348 L 312.5 158.77050983124843 L 312.5 160.77050983124843 L 314.2917960675006 164.3541019662497 L 315.5006149034831 166.77173963821457 L 317.2024898878181 169.32455211471708 L 318.0534273799856 171.8773645912196 L 319.2917960675006 174.3541019662497 L 320.0534273799856 175.8773645912196 L 321.0534273799856 178.8773645912196 L 322.0534273799856 180.8773645912196 L 323.44475963326767 185.0513613510659 L 325.8360918865498 187.442693604348 L 325.5 186.77050983124843 L 325.5 191.1066017177982 L 328.8360918865498 194.442693604348 L 329.2917960675006 195.3541019662497 L 330.2917960675006 197.3541019662497 L 330.923608819558 198.6177274703644 L 331.923608819558 202.6177274703644 L 334.2917960675006 207.3541019662497 L 335.8360918865498 210.442693604348 L 337.2277698418886 211.8343715596868 L 337.923608819558 214.6177274703644 L 339.5006149034831 217.77173963821457 L 341.2024898878181 220.32455211471708 L 341.88487526462114 222.37170824512629 L 343.0534273799856 225.8773645912196 L 345.2917960675006 230.3541019662497 L 346.2917960675006 232.3541019662497 L 347.5 234.77050983124843 L 347.5 238.77050983124843 L 349.2917960675006 242.3541019662497 L 350.0534273799856 243.8773645912196 L 351.0534273799856 246.8773645912196 L 352.2917960675006 249.3541019662497 L 353.0534273799856 250.8773645912196 L 353.5 252.21708245126285 L 353.5 254.77050983124843 L 355.8360918865498 259.442693604348 L 356.5 260.1066017177982 L 356.5 260.77050983124843 L 358.0534273799856 263.8773645912196 L 359.44475963326767 268.0513613510659 L 360.5 269.1066017177982 L 360.5 269.21708245126285 L 362.0534273799856 273.8773645912196 L 363.2917960675006 276.3541019662497 L 365.5006149034831 280.77173963821457 L 367.2024898878181 283.32455211471705 L 368.0534273799856 285.8773645912196 L 369.0534273799856 287.8773645912196 L 370.44475963326767 292.0513613510659 L 372.8360918865498 294.442693604348 L 374.2917960675006 297.3541019662497 L 375.5006149034831 299.77173963821457 L 377.5006149034831 302.77173963821457 L 377.5 302.77050983124843 L 377.5 304.21708245126285 L 379.0534273799856 308.8773645912196 L 380.0534273799856 310.8773645912196 L 381.0534273799856 313.8773645912196 L 382.0534273799856 315.8773645912196 L 382.73721804965845 317.92873660023827 L 383.84262115976753 323.45575215078344 L 386.0534273799856 327.8773645912196 L 386.88487526462114 330.3717082451263 L 388.0534273799856 333.8773645912196 L 389.0534273799856 335.8773645912196 L 389.9545711509831 338.5807959042121 L 391.5 342.4443680267544 L 391.5 344.77050983124843 L 392.923608819558 347.6177274703644 L 393.923608819558 351.6177274703644 L 395.5 354.77050983124843 L 395.5 356.21708245126285 L 397.44475963326767 362.0513613510659 L 399.8360918865498 364.442693604348 L 399.5 363.77050983124843 L 399.5 366.27081728299 L 402.2024898878181 370.32455211471705 L 403.0534273799856 372.8773645912196 L 404.2917960675006 375.3541019662497 L 405.2917960675006 377.3541019662497 L 405.5 377.77050983124843 L 405.5 380.27081728299 L 408.2024898878181 384.32455211471705 L 409.0534273799856 386.8773645912196 L 410.5006149034831 389.77173963821457 L 413.1715688696165 393.7781705874147 L 413.5 394.1066017177982 L 413.5 396.1066017177982 L 416.8360918865498 399.442693604348 L 417.2917960675006 400.3541019662497 L 418.2917960675006 402.3541019662497 L 419.8360918865498 405.442693604348 L 422.6966991411009 408.3033008588991 L 423.8360918865498 409.442693604348 L 425.40983005625054 412.59016994374946 L 427.40983005625054 413.59016994374946 L 427.8360918865498 414.442693604348 L 428.5 415.1066017177982 L 428.5 415.77050983124843 L 430.8360918865498 420.442693604348 L 431.5 421.1066017177982 L 431.5 422.77050983124843 L 433.8360918865498 427.442693604348 L 435.8360918865498 429.442693604348 L 436.8360918865498 431.442693604348 L 437.5 432.1066017177982 L 437.5 434.1066017177982 L 439.5 436.1066017177982 L 439.5 439.6352549156242 L 443.40983005625054 441.59016994374946 L 443.8360918865498 442.442693604348 L 447.557306395652 446.1639081134502 L 448.40983005625054 446.59016994374946 L 449.40983005625054 448.59016994374946 L 453.6458980337503 450.7082039324994 L 454.557306395652 451.1639081134502 L 456.557306395652 453.1639081134502 L 459.6458980337503 454.7082039324994 L 463.22949016875157 456.5 L 464.72918271701 456.5 L 467.72918271701 458.5 L 472 458.5 L 474 458.5 L 476 458.5 L 478 458.5 L 480 458.5 L 482 458.5 L 485.77050983124843 458.5 L 489.3541019662497 456.7082039324994 L 492.442693604348 455.1639081134502 L 496.1639081134502 451.442693604348 L 497.7082039324994 448.3541019662497 L 498.1639081134502 447.442693604348 L 500.1639081134502 445.442693604348 L 501.7082039324994 442.3541019662497 L 502.4993850965169 440.77173963821457 L 504.2403772075338 438.1602514716892 L 505.8284311303835 435.7781705874147 L 507.8284311303835 433.7781705874147 L 510.2403772075338 430.1602514716892 L 512.4993850965169 426.77173963821457 L 514.5 422.77050983124843 L 514.5 420.77050983124843 L 514.7082039324994 420.3541019662497 L 515.7082039324994 418.3541019662497 L 517.5 414.77050983124843 L 517.5 412.77050983124843 L 518.5 410.77050983124843 L 518.5 407 L 518.5 404 L 518.5 403.77050983124843 L 518.7082039324994 403.3541019662497 L 520.5 399.77050983124843 L 520.5 397.77050983124843 L 521.5 395.77050983124843 L 521.5 393.77050983124843 L 522.5 391.77050983124843 L 522.5 388 L 522.5 386 L 522.5 384 L 522.5 383.77050983124843 L 524.5 379.77050983124843 L 524.5 375 L 524.5 371.7426463519459 L 525.1573788402325 368.45575215078344 L 526.076391180442 366.6177274703644 L 527.27606875109 361.8190171877725 L 528.2062097408696 358.098453228654 L 529.5 354.21708245126285 L 529.5 351.77050983124843 L 530.5 349.77050983124843 L 530.5 345 L 530.5 344.77050983124843 L 531.9465726200144 341.8773645912196 L 533.5 337.21708245126285 L 533.5 335.21708245126285 L 534.5 332.21708245126285 L 534.5 329.77050983124843 L 536.5 325.77050983124843 L 536.5 323.21708245126285 L 537.5 320.21708245126285 L 537.5 315.21708245126285 L 538.5 312.21708245126285 L 538.5 306.7426463519459 L 539.2627819503415 302.92873660023827 L 540.5 299.21708245126285 L 540.5 296.77050983124843 L 540.7082039324994 296.3541019662497 L 542.5 292.77050983124843 L 542.5 289 L 542.5 287.77050983124843 L 543.5 285.77050983124843 L 543.5 282.77050983124843 L 544.5 280.77050983124843 L 544.5 278.21708245126285 L 545.1151247353788 276.3717082451263 L 546.5 272.21708245126285 L 546.5 268.7426463519459 L 547.1573788402325 265.45575215078344 L 548.5 262.77050983124843 L 548.5 259 L 548.5 258.77050983124843 L 549.5 256.77050983124843 L 549.5 252 L 549.5 251.77050983124843 L 550.5 249.77050983124843 L 550.5 247.77050983124843 L 551.5 245.77050983124843 L 551.5 243.77050983124843 L 551.7082039324994 243.3541019662497 L 553.5 239.77050983124843 L 553.5 237.77050983124843 L 553.7082039324994 237.3541019662497 L 554.7082039324994 235.3541019662497 L 555.7082039324994 233.3541019662497 L 557.5 229.77050983124843 L 557.5 229.63525491562422 L 555.3541019662497 230.70820393249937 L 557.3541019662497 229.70820393249937 L 557.7705098312484 229.5 L 558 229.5 L 561 229.5 L 561.2294901687516 229.5 L 560.557306395652 229.16390811345022 L 561.6966991411009 230.3033008588991 L 561.5 230.1066017177982 L 561.5 230.77050983124843 L 563.2917960675006 234.3541019662497 L 563.5 234.77050983124843 L 563.5 236 L 563.5 238 L 563.5 240 L 563.5 243 L 563.5 245 L 563.5 248.77050983124843 L 564.5 250.77050983124843 L 564.5 252 L 564.5 254 L 564.5 256 L 564.5 258 L 564.5 261.77050983124843 L 565.5 263.77050983124843 L 565.5 264 L 565.5 266 L 565.5 269.77050983124843 L 567.5006149034831 273.77173963821457 L 569.5006149034831 276.77173963821457 L 571.2917960675006 280.3541019662497 L 571.5 280.77050983124843 L 571.5 282.77050983124843 L 572.5 284.77050983124843 L 572.5 286.77050983124843 L 574.2917960675006 290.3541019662497 L 574.5 290.77050983124843 L 574.5 292.77050983124843 L 576.0534273799856 295.8773645912196 L 576.8848752646212 298.3717082451263 L 578.0534273799856 301.8773645912196 L 578.5 302.77050983124843 L 578.5 303 L 578.5 305 L 578.5 308 L 578.5 310.92329219213246 L 579.5 314.92329219213246 L 579.5 318.77050983124843 L 580.5 320.77050983124843 L 580.5 324.77050983124843 L 581.5 326.77050983124843 L 581.5 330.21708245126285 L 582.5 333.21708245126285 L 582.5 334.92329219213246 L 583.5 338.92329219213246 L 583.5 343.21708245126285 L 584.7937902591304 347.098453228654 L 585.5 349.92329219213246 L 585.5 352.21708245126285 L 587.0534273799856 356.8773645912196 L 588.2917960675006 359.3541019662497 L 589.2917960675006 361.3541019662497 L 590.2917960675006 363.3541019662497 L 591.0534273799856 364.8773645912196 L 591.5 366.21708245126285 L 591.5 368.21708245126285 L 592.5 371.21708245126285 L 592.5 375.1066017177982 L 594.5 377.1066017177982 L 594.5 377.77050983124843 L 596.0534273799856 380.8773645912196 L 596.5 382.21708245126285 L 596.5 384.21708245126285 L 598.0534273799856 388.8773645912196 L 598.5 389.77050983124843 L 598.5 390 L 598.5 393.77050983124843 L 600.2917960675006 397.3541019662497 L 600.5 397.77050983124843 L 600.5 399.21708245126285 L 602.0534273799856 403.8773645912196 L 602.5 404.77050983124843 L 602.5 407.27081728299 L 605.5006149034831 411.77173963821457 L 605.923608819558 412.6177274703644 L 606.923608819558 416.6177274703644 L 608.2917960675006 419.3541019662497 L 608.5 419.77050983124843 L 608.5 421.77050983124843 L 610.2917960675006 425.3541019662497 L 611.2917960675006 427.3541019662497 L 612.8360918865498 430.442693604348 L 613.5 431.1066017177982 L 613.5 433.1066017177982 L 616.8360918865498 436.442693604348 L 617.8360918865498 438.442693604348 L 620.6966991411009 441.3033008588991 L 621.8360918865498 442.442693604348 L 622.8360918865498 444.442693604348 L 626.557306395652 448.1639081134502 L 629.6458980337503 449.7082039324994 L 631.6458980337503 450.7082039324994 L 633.6458980337503 451.7082039324994 L 637.2294901687516 453.5 L 641 453.5 L 643 453.5 L 645 453.5 L 649.7705098312484 453.5 L 653.3541019662497 451.7082039324994 L 655.3541019662497 450.7082039324994 L 658.442693604348 449.1639081134502 L 661.3033008588991 446.3033008588991 L 664.1639081134502 443.442693604348 L 665.4993850965169 440.77173963821457 L 666.8284311303835 438.7781705874147 L 669.1639081134502 436.442693604348 L 670.7082039324994 433.3541019662497 L 671.7082039324994 431.3541019662497 L 672.7082039324994 429.3541019662497 L 673.7082039324994 427.3541019662497 L 674.7082039324994 425.3541019662497 L 675.9465726200144 422.8773645912196 L 677.1151247353788 419.3717082451263 L 678.2062097408696 416.098453228654 L 679.2062097408696 412.098453228654 L 680.2062097408696 409.098453228654 L 681.076391180442 405.6177274703644 L 682.076391180442 403.6177274703644 L 683.27606875109 398.8190171877725 L 684.5 393.92329219213246 L 684.5 392.4443680267544 L 686.2193113300766 388.1460897015629 L 687.3543550676819 382.4708710135364 L 688.2627819503415 377.92873660023827 L 689.2062097408696 375.098453228654 L 690.3193541598134 370.64587555287875 L 691.2193113300766 366.1460897015629 L 693.1060440580476 361.4292578816355 L 695.0199348357023 354.73064015984374 L 697.5 349.77050983124843 L 697.5 345.21708245126285 L 699.5 339.21708245126285 L 699.5 332 L 699.5 324.77050983124843 L 699.7082039324994 324.3541019662497 L 700.1639081134502 323.442693604348 L 704.3918442059708 319.21475751182743 L 706.3918442059708 314.21475751182743 L 707.8284311303835 312.7781705874147 L 710.4993850965169 308.77173963821457 L 712.5 304.77050983124843 L 712.5 305.6352549156242 L 714.5 304.6352549156242 L 714.5 301.1066017177982 L 715.5552403667323 300.0513613510659 L 717.1151247353788 295.3717082451263 L 718.5 291.21708245126285 L 718.5 289.77050983124843 L 719.5 287.77050983124843 L 719.5 284.77050983124843 L 719.9465726200144 283.8773645912196 L 721.5 279.21708245126285 L 721.5 278.27081728299 L 723.0633797339874 275.9257476820089 L 724.5 268.7426463519459 L 724.5 267.77050983124843 L 725.5 265.77050983124843 L 725.5 263.77050983124843 L 726.5 261.77050983124843 L 726.5 257 L 726.5 256.21708245126285 L 727.2062097408696 254.09845322865402 L 728.5 248.92329219213246 L 728.5 245.21708245126285 L 730.5 239.21708245126285 L 730.5 236.92329219213246 L 731.2062097408696 234.09845322865402 L 731.9465726200144 231.8773645912196 L 732.7082039324994 230.3541019662497 L 733.9465726200144 227.8773645912196 L 734.9465726200144 224.8773645912196 L 736.076391180442 222.6177274703644 L 737.076391180442 218.6177274703644 L 738.5 215.77050983124843 L 738.5 215.1066017177982 L 740.5 213.1066017177982 L 740.5 209.21708245126285 L 740.9465726200144 207.8773645912196 L 741.9465726200144 205.8773645912196 L 743.5 201.21708245126285 L 743.5 199.21708245126285 L 744.1151247353788 197.37170824512629 L 744.9465726200144 194.8773645912196 L 747.5 189.77050983124843 L 747.5 187.77050983124843 L 747.7082039324994 187.3541019662497 L 749.076391180442 184.6177274703644 L 750.076391180442 180.6177274703644 L 752.5 175.77050983124843 L 752.5 173.21708245126285 L 753.2627819503415 170.9287366002383 L 754.2627819503415 165.9287366002383 L 755.1151247353788 163.37170824512629 L 756.9465726200144 157.8773645912196 L 758.5 154.77050983124843 L 758.5 150 L 758.5 150.07737973711326 L 761.5 145.07737973711326 L 761.5 143.1066017177982 L 763.5 141.1066017177982 L 763.5 138.27081728298995 L 763.8284311303835 137.7781705874147 L 766.5552403667323 135.0513613510659 L 768.5 129.21708245126285 L 768.5 127.77050983124842 L 769.5 125.77050983124842 L 769.5 123.77050983124842 L 770.5 121.77050983124842 L 770.5 118 L 770.5 116 L 770.5 115.77050983124842 L 771.5 113.77050983124842 L 771.5 110 L 771.5 109.77050983124842 L 772.5 107.77050983124842 L 772.5 106.10660171779821 L 773.3918442059708 105.21475751182743 L 776.045428849017 98.58079590421211 L 777.1151247353788 95.37170824512629 L 778.5 91.21708245126284 L 778.5 89.21708245126284 L 779.5 86.21708245126284 L 779.5 83 L 779.5 81 L 779.5 79 L 779.5 77 L 779.5 76.77050983124842 L 779.7082039324994 76.35410196624969 L 781.5 72.77050983124842 L 781.5 70.77050983124842 L 781.4993850965169 70.77173963821457 L 784.5 66.27081728298997 L 784.5 63.770509831248425 L 784.7082039324994 63.35410196624969 L 785.7082039324994 61.35410196624969 L 786.7082039324994 59.35410196624969 L 787.7082039324994 57.35410196624969 " stroke="#4a5568" stroke-width="2" fill="none" stroke-linecap="butt" stroke-linejoin="round" />
    <path d="M 294.2403772075338 82.83974852831078 L 297.5 87.72918271701003 L 297.5 88.89339828220179 L 298.1639081134502 89.55730639565199 L 299.9465726200144 93.12263540878043 L 300.7975101121819 95.67544788528292 L 303.5 99.72918271701003 L 303.5 101.72918271701003 L 304.4993850965169 103.22826036178543 L 306.5 107.22949016875158 L 306.5 109.22949016875158 L 306.9465726200144 110.12263540878043 L 307.9465726200144 113.12263540878043 L 310.5 118.22949016875158 L 310.5 120.22949016875158 L 310.7082039324994 120.64589803375031 L 311.7082039324994 122.64589803375031 L 312.7082039324994 124.64589803375031 L 313.7082039324994 126.64589803375031 L 314.9465726200144 129.1226354087804 L 316.11512473537886 132.62829175487371 L 317.5 136.78291754873715 L 317.5 136.8933982822018 L 318.55524036673233 137.9486386489341 L 319.55524036673233 140.9486386489341 L 321.1639081134502 142.557306395652 L 322.7082039324994 145.6458980337503 L 324.5 149.22949016875157 L 324.5 149.8933982822018 L 325.1639081134502 150.557306395652 L 327.5 155.22949016875157 L 327.5 157.22949016875157 L 327.7082039324994 157.6458980337503 L 328.4993850965169 159.22826036178543 L 330.7975101121819 162.67544788528292 L 331.9465726200144 166.1226354087804 L 332.7082039324994 167.6458980337503 L 333.9465726200144 170.1226354087804 L 334.9465726200144 173.1226354087804 L 335.9465726200144 175.1226354087804 L 336.55524036673233 176.9486386489341 L 338.1639081134502 178.557306395652 L 340.5 183.22949016875157 L 340.5 184.8933982822018 L 341.1639081134502 185.557306395652 L 342.7082039324994 188.6458980337503 L 343.7082039324994 190.6458980337503 L 345.076391180442 193.3822725296356 L 346.076391180442 197.3822725296356 L 347.7082039324994 200.6458980337503 L 348.1639081134502 201.557306395652 L 350.7722301581114 204.1656284403132 L 352.076391180442 209.3822725296356 L 352.4993850965169 210.22826036178543 L 354.7975101121819 213.67544788528292 L 356.11512473537886 217.62829175487371 L 356.9465726200144 220.1226354087804 L 358.7082039324994 223.6458980337503 L 359.7082039324994 225.6458980337503 L 362.5 231.22949016875157 L 362.5 235.22949016875157 L 362.7082039324994 235.6458980337503 L 363.9465726200144 238.1226354087804 L 364.9465726200144 241.1226354087804 L 365.7082039324994 242.6458980337503 L 366.9465726200144 245.1226354087804 L 368.5 249.78291754873715 L 368.5 251.22949016875157 L 368.1639081134502 250.557306395652 L 371.5 253.8933982822018 L 371.5 257.22949016875157 L 371.9465726200144 258.1226354087804 L 372.55524036673233 259.9486386489341 L 375.5 262.8933982822018 L 375.5 266.78291754873715 L 375.9465726200144 268.1226354087804 L 376.7082039324994 269.6458980337503 L 378.4993850965169 273.22826036178543 L 380.7975101121819 276.67544788528295 L 381.9465726200144 280.1226354087804 L 382.9465726200144 282.1226354087804 L 383.55524036673233 283.9486386489341 L 385.1639081134502 285.557306395652 L 387.7082039324994 290.6458980337503 L 388.4993850965169 292.22826036178543 L 390.4993850965169 295.22826036178543 L 392.5 299.22949016875157 L 392.5 301.78291754873715 L 392.9465726200144 303.1226354087804 L 393.9465726200144 305.1226354087804 L 394.9465726200144 308.1226354087804 L 395.9465726200144 310.1226354087804 L 397.26278195034155 314.07126339976173 L 398.15737884023247 318.54424784921656 L 399.9465726200144 322.1226354087804 L 401.11512473537886 325.6282917548737 L 401.9465726200144 328.1226354087804 L 402.9465726200144 330.1226354087804 L 404.0454288490169 333.4192040957879 L 406.5 339.5556319732456 L 406.5 341.22949016875157 L 407.076391180442 342.3822725296356 L 408.076391180442 346.3822725296356 L 410.5 351.22949016875157 L 410.5 353.78291754873715 L 410.55524036673233 353.9486386489341 L 412.1639081134502 355.557306395652 L 414.5 360.22949016875157 L 414.5 361.72918271701 L 415.7975101121819 363.67544788528295 L 416.9465726200144 367.1226354087804 L 417.7082039324994 368.6458980337503 L 418.7082039324994 370.6458980337503 L 420.5 374.22949016875157 L 420.5 375.72918271701 L 421.7975101121819 377.67544788528295 L 422.9465726200144 381.1226354087804 L 423.4993850965169 382.22826036178543 L 424.8284311303835 384.2218294125853 L 428.5 387.8933982822018 L 428.5 389.8933982822018 L 429.1639081134502 390.557306395652 L 430.7082039324994 393.6458980337503 L 431.7082039324994 395.6458980337503 L 432.1639081134502 396.557306395652 L 433.3033008588991 397.6966991411009 L 436.1639081134502 400.557306395652 L 436.59016994374946 401.40983005625054 L 438.59016994374946 402.40983005625054 L 440.1639081134502 405.557306395652 L 443.5 408.8933982822018 L 443.5 412.22949016875157 L 443.1639081134502 411.557306395652 L 446.5 414.8933982822018 L 446.5 419.22949016875157 L 446.1639081134502 418.557306395652 L 448.1639081134502 420.557306395652 L 449.1639081134502 422.557306395652 L 452.5 425.8933982822018 L 452.5 427.8933982822018 L 454.5 429.8933982822018 L 454.5 430.3647450843758 L 454.59016994374946 430.40983005625054 L 456.1639081134502 433.557306395652 L 456.442693604348 433.8360918865498 L 459.59016994374946 435.40983005625054 L 460.59016994374946 437.40983005625054 L 460.3541019662497 437.2917960675006 L 463.442693604348 438.8360918865498 L 465.442693604348 440.8360918865498 L 466.3541019662497 441.2917960675006 L 466.77050983124843 441.5 L 469.27081728299 441.5 L 472.27081728299 443.5 L 472 443.5 L 474 443.5 L 476 443.5 L 478 443.5 L 480 443.5 L 482 443.5 L 482.22949016875157 443.5 L 482.6458980337503 443.2917960675006 L 483.557306395652 442.8360918865498 L 483.8360918865498 442.557306395652 L 484.2917960675006 441.6458980337503 L 485.8360918865498 438.557306395652 L 487.8360918865498 436.557306395652 L 488.2917960675006 435.6458980337503 L 489.5006149034831 433.22826036178543 L 491.7596227924662 429.8397485283108 L 494.1715688696165 426.2218294125853 L 496.1715688696165 424.2218294125853 L 497.7596227924662 421.8397485283108 L 499.5006149034831 419.22826036178543 L 499.5 419.22949016875157 L 499.5 417.22949016875157 L 501.2917960675006 413.6458980337503 L 502.2917960675006 411.6458980337503 L 502.5 411.22949016875157 L 502.5 409.22949016875157 L 503.5 407.22949016875157 L 503.5 407 L 503.5 404 L 503.5 400.22949016875157 L 505.2917960675006 396.6458980337503 L 505.5 396.22949016875157 L 505.5 394.22949016875157 L 506.5 392.22949016875157 L 506.5 390.22949016875157 L 507.5 388.22949016875157 L 507.5 388 L 507.5 386 L 507.5 384 L 507.5 380.22949016875157 L 509.5 376.22949016875157 L 509.5 375 L 509.5 370.2573536480541 L 510.84262115976753 363.54424784921656 L 511.923608819558 361.3822725296356 L 512.72393124891 358.1809828122275 L 513.7937902591304 353.901546771346 L 514.5 351.78291754873715 L 514.5 348.22949016875157 L 515.5 346.22949016875157 L 515.5 345 L 515.5 341.22949016875157 L 518.0534273799856 336.1226354087804 L 518.5 334.78291754873715 L 518.5 332.78291754873715 L 519.5 329.78291754873715 L 519.5 326.22949016875157 L 521.5 322.22949016875157 L 521.5 320.78291754873715 L 522.5 317.78291754873715 L 522.5 312.78291754873715 L 523.5 309.78291754873715 L 523.5 305.2573536480541 L 524.7372180496585 299.07126339976173 L 525.5 296.78291754873715 L 525.5 293.22949016875157 L 527.2917960675006 289.6458980337503 L 527.5 289.22949016875157 L 527.5 289 L 527.5 284.22949016875157 L 528.5 282.22949016875157 L 528.5 279.22949016875157 L 529.5 277.22949016875157 L 529.5 275.78291754873715 L 530.8848752646212 271.6282917548737 L 531.5 269.78291754873715 L 531.5 267.2573536480541 L 532.8426211597675 260.54424784921656 L 533.5 259.22949016875157 L 533.5 259 L 533.5 255.22949016875157 L 534.5 253.22949016875157 L 534.5 252 L 534.5 248.22949016875157 L 535.5 246.22949016875157 L 535.5 244.22949016875157 L 536.5 242.22949016875157 L 536.5 240.22949016875157 L 538.2917960675006 236.6458980337503 L 538.5 236.22949016875157 L 538.5 234.22949016875157 L 540.2917960675006 230.6458980337503 L 541.2917960675006 228.6458980337503 L 542.2917960675006 226.6458980337503 L 542.5 226.22949016875157 L 542.5 220.36474508437578 L 548.6458980337503 217.29179606750063 L 550.6458980337503 216.29179606750063 L 554.2294901687516 214.5 L 558 214.5 L 561 214.5 L 564.7705098312484 214.5 L 569.442693604348 216.83609188654978 L 572.3033008588991 219.6966991411009 L 576.5 223.8933982822018 L 576.5 227.22949016875157 L 576.7082039324994 227.6458980337503 L 578.5 231.22949016875157 L 578.5 236 L 578.5 238 L 578.5 240 L 578.5 243 L 578.5 245 L 578.5 245.22949016875157 L 579.5 247.22949016875157 L 579.5 252 L 579.5 254 L 579.5 256 L 579.5 258 L 579.5 258.22949016875157 L 580.5 260.22949016875157 L 580.5 264 L 580.5 266 L 580.5 266.22949016875157 L 580.4993850965169 266.22826036178543 L 582.4993850965169 269.22826036178543 L 584.7082039324994 273.6458980337503 L 586.5 277.22949016875157 L 586.5 279.22949016875157 L 587.5 281.22949016875157 L 587.5 283.22949016875157 L 587.7082039324994 283.6458980337503 L 589.5 287.22949016875157 L 589.5 289.22949016875157 L 589.9465726200144 290.1226354087804 L 591.1151247353788 293.6282917548737 L 591.9465726200144 296.1226354087804 L 593.5 299.22949016875157 L 593.5 303 L 593.5 305 L 593.5 308 L 593.5 309.07670780786754 L 594.5 313.07670780786754 L 594.5 315.22949016875157 L 595.5 317.22949016875157 L 595.5 321.22949016875157 L 596.5 323.22949016875157 L 596.5 327.78291754873715 L 597.5 330.78291754873715 L 597.5 333.07670780786754 L 598.5 337.07670780786754 L 598.5 340.78291754873715 L 599.2062097408696 342.901546771346 L 600.5 348.07670780786754 L 600.5 349.78291754873715 L 600.9465726200144 351.1226354087804 L 601.7082039324994 352.6458980337503 L 602.7082039324994 354.6458980337503 L 603.7082039324994 356.6458980337503 L 604.9465726200144 359.1226354087804 L 606.5 363.78291754873715 L 606.5 365.78291754873715 L 607.5 368.78291754873715 L 607.5 368.8933982822018 L 609.5 370.8933982822018 L 609.5 374.22949016875157 L 609.9465726200144 375.1226354087804 L 611.5 379.78291754873715 L 611.5 381.78291754873715 L 611.9465726200144 383.1226354087804 L 613.5 386.22949016875157 L 613.5 390 L 613.5 390.22949016875157 L 613.7082039324994 390.6458980337503 L 615.5 394.22949016875157 L 615.5 396.78291754873715 L 615.9465726200144 398.1226354087804 L 617.5 401.22949016875157 L 617.5 402.72918271701 L 618.4993850965169 404.22826036178543 L 620.076391180442 407.3822725296356 L 621.076391180442 411.3822725296356 L 621.7082039324994 412.6458980337503 L 623.5 416.22949016875157 L 623.5 418.22949016875157 L 623.7082039324994 418.6458980337503 L 624.7082039324994 420.6458980337503 L 625.1639081134502 421.557306395652 L 628.5 424.8933982822018 L 628.5 426.8933982822018 L 629.1639081134502 427.557306395652 L 630.1639081134502 429.557306395652 L 631.3033008588991 430.6966991411009 L 634.1639081134502 433.557306395652 L 635.1639081134502 435.557306395652 L 635.442693604348 435.8360918865498 L 636.3541019662497 436.2917960675006 L 638.3541019662497 437.2917960675006 L 640.3541019662497 438.2917960675006 L 640.7705098312484 438.5 L 641 438.5 L 643 438.5 L 645 438.5 L 646.2294901687516 438.5 L 646.6458980337503 438.2917960675006 L 648.6458980337503 437.2917960675006 L 649.557306395652 436.8360918865498 L 650.6966991411009 435.6966991411009 L 651.8360918865498 434.557306395652 L 652.5006149034831 433.22826036178543 L 655.1715688696165 429.2218294125853 L 656.8360918865498 427.557306395652 L 657.2917960675006 426.6458980337503 L 658.2917960675006 424.6458980337503 L 659.2917960675006 422.6458980337503 L 660.2917960675006 420.6458980337503 L 661.2917960675006 418.6458980337503 L 662.0534273799856 417.1226354087804 L 662.8848752646212 414.6282917548737 L 663.7937902591304 411.901546771346 L 664.7937902591304 407.901546771346 L 665.7937902591304 404.901546771346 L 666.923608819558 400.3822725296356 L 667.923608819558 398.3822725296356 L 668.72393124891 395.1809828122275 L 669.5 392.07670780786754 L 669.5 389.5556319732456 L 671.7806886699234 383.8539102984371 L 672.6456449323181 379.5291289864636 L 673.7372180496585 374.07126339976173 L 674.7937902591304 370.901546771346 L 675.6806458401866 367.35412444712125 L 676.7806886699234 361.8539102984371 L 678.8939559419524 356.5707421183645 L 680.9800651642977 349.26935984015626 L 682.5 346.22949016875157 L 682.5 342.78291754873715 L 684.5 336.78291754873715 L 684.5 332 L 684.5 321.22949016875157 L 686.2917960675006 317.6458980337503 L 687.8360918865498 314.557306395652 L 691.6081557940292 310.78524248817257 L 693.6081557940292 305.78524248817257 L 696.1715688696165 303.2218294125853 L 697.5006149034831 301.22826036178543 L 697.5 301.22949016875157 L 697.5 296.3647450843758 L 699.5 295.3647450843758 L 699.5 294.8933982822018 L 702.4447596332677 291.9486386489341 L 702.8848752646212 290.6282917548737 L 703.5 288.78291754873715 L 703.5 286.22949016875157 L 704.5 284.22949016875157 L 704.5 281.22949016875157 L 706.0534273799856 278.1226354087804 L 706.5 276.78291754873715 L 706.5 273.72918271701 L 708.9366202660126 270.0742523179911 L 709.5 267.2573536480541 L 709.5 264.22949016875157 L 710.5 262.22949016875157 L 710.5 260.22949016875157 L 711.5 258.22949016875157 L 711.5 257 L 711.5 253.78291754873715 L 712.7937902591304 249.90154677134598 L 713.5 247.07670780786754 L 713.5 242.78291754873715 L 715.5 236.78291754873715 L 715.5 235.07670780786754 L 716.7937902591304 229.90154677134598 L 718.0534273799856 226.1226354087804 L 719.2917960675006 223.6458980337503 L 720.0534273799856 222.1226354087804 L 721.0534273799856 219.1226354087804 L 721.923608819558 217.3822725296356 L 722.923608819558 213.3822725296356 L 723.5 212.22949016875157 L 723.5 208.8933982822018 L 725.5 206.8933982822018 L 725.5 206.78291754873715 L 727.0534273799856 202.1226354087804 L 728.0534273799856 200.1226354087804 L 728.5 198.78291754873715 L 728.5 196.78291754873715 L 729.8848752646212 192.62829175487371 L 731.0534273799856 189.1226354087804 L 732.5 186.22949016875157 L 732.5 184.22949016875157 L 734.2917960675006 180.6458980337503 L 734.923608819558 179.3822725296356 L 735.923608819558 175.3822725296356 L 737.5 172.22949016875157 L 737.5 170.78291754873715 L 738.7372180496585 167.0712633997617 L 739.7372180496585 162.0712633997617 L 740.8848752646212 158.62829175487371 L 743.0534273799856 152.1226354087804 L 743.5 151.22949016875157 L 743.5 150 L 743.5 145.92262026288674 L 746.5 140.92262026288674 L 746.5 136.8933982822018 L 748.5 134.8933982822018 L 748.5 133.72918271701005 L 752.1715688696165 128.2218294125853 L 753.4447596332677 126.94863864893411 L 753.5 126.78291754873716 L 753.5 124.22949016875158 L 754.5 122.22949016875158 L 754.5 120.22949016875158 L 755.5 118.22949016875158 L 755.5 118 L 755.5 116 L 755.5 112.22949016875158 L 756.5 110.22949016875158 L 756.5 110 L 756.5 106.22949016875158 L 757.5 104.22949016875158 L 757.5 99.89339828220179 L 760.6081557940292 96.78524248817257 L 761.954571150983 93.41920409578789 L 762.8848752646212 90.62829175487371 L 763.5 88.78291754873716 L 763.5 86.78291754873716 L 764.5 83.78291754873716 L 764.5 83 L 764.5 81 L 764.5 79 L 764.5 77 L 764.5 73.22949016875158 L 766.2917960675006 69.64589803375031 L 766.5 69.22949016875158 L 766.5 67.22949016875158 L 768.5006149034831 63.22826036178543 L 769.5 61.72918271701004 L 769.5 60.229490168751575 L 771.2917960675006 56.64589803375031 L 772.2917960675006 54.64589803375031 L 773.2917960675006 52.64589803375031 L 774.2917960675006 50.64589803375031 " stroke="#4a5568" stroke-width="2" fill="none" stroke-linecap="butt" stroke-linejoin="round" />
  </g>
</svg>