<svg xmlns="http://www.w3.org/2000/svg" width="1334" height="864" viewBox="0 0 1334 864">
  <g fill="none">
    <path d="M 416.75 112 L 439.25 112 M 433.56925835937756 138.17523801736272 L 451.6612997557201 124.79883946943416 M 447.3252168714491 158.2049406844296 L 466.16997977434966 145.91165344571826 M 462.83431696825176 179.29873206490106 L 480.1465405730571 164.92733986173505 M 476.94890055873145 197.1653853641473 L 496.4093776538998 185.87203195479958 M 492.9064234638329 217.6372876213982 L 511.1382343074479 204.4520279211632 M 510.83543910993114 237.29075542975903 L 526.4528829060961 221.0936739249438 M 528.4726400236475 254.3825426003448 L 544.3825426003448 238.47264002364747 M 546.1503095533112 272.06021213000844 L 562.0602121300085 256.15030955331116 M 561.5622483512765 290.04683967074146 L 578.9937215360295 275.82032419402566 M 577.6882055672127 309.55962362180287 L 594.6655571353695 294.79413908077925 M 596.6672300829943 328.812315858907 L 610.3338489838144 310.9384934411995 M 613.847860154455 344.7577627311523 L 629.7577627311523 328.847860154455 M 630.8317941676174 361.4302150745655 L 648.2319923477202 347.16546469844087 M 646.5845708220811 382.4446361116675 L 661.4968418755391 365.5960702371426 M 662.5075781127849 400.41748068948215 L 678.4174806894822 384.50757811278487 M 677.7224222610434 418.5965945849129 L 694.662264811622 403.7880924877524 M 697.1199253456209 437.97543260726917 L 710.2759067505556 419.7224834408191 " stroke="#8B4513" stroke-width="7" fill="none" stroke-linecap="butt" />
    <path d="M 376 450.25 L 376 427.75 M 403.4013006407892 439.4031735403136 L 393.961369599227 418.9792243156766 M 425.7492091089729 427.70327781894986 L 415.6869032102238 407.57866602145174 M 447.7933482713014 412.7120749336315 L 434.79796802683404 394.3444378427669 M 468.4083107366216 397.42416354149213 L 454.14356036049696 380.0239653613893 M 487.8095368529788 380.1003657237185 L 471.8996342762815 364.1904631470212 M 505.95167247670975 362.95823009998753 L 490.04176990001247 347.04832752329025 M 523.7681527684109 344.3452918906891 L 506.77043878100756 329.6032527100862 M 540.2314402385012 326.61945551942273 L 524.1144030463548 310.9194201007693 M 557.3196014428127 308.5885319834207 L 541.1742109973795 292.91765557638723 M 573.7160585329271 290.2443857045888 L 558.0238840018168 274.1196947467698 M 592.259461297503 273.650025207075 L 576.4650363445093 257.6254771509129 M 610.4756672338158 256.43423534288155 L 594.5657646571185 240.52433276618424 M 627.3751020127471 240.10572783385769 L 613.5493058446845 222.3547458801971 M 646.4737933294786 224.03300204101694 L 632.2317090356938 206.61424677639687 M 664.2132668632412 204.9403273108366 L 647.2199726878237 190.19319358703387 M 680.4734721867508 186.4077956278464 L 663.4427876861541 171.70385787494703 M 695.9131214579271 168.57874216710468 L 680.3310644074157 152.34761472399066 M 713.750572556036 149.01255166388367 L 695.8313141038894 135.4055616761909 M 728.2999665819705 129.81700838013157 L 711.1871724221546 115.20871361161836 " stroke="#8B4513" stroke-width="7" fill="none" stroke-linecap="butt" />
    <path d="M 420.5 112 L 420.5 117.75 L 426.3246766504219 122.11850748781643 L 428.8671316644573 126.35593251120872 L 434.11530885394984 132.65374513859982 L 436.9476814915409 136.4302419887212 L 441.7229056129401 143.11555575868005 L 444.828347699376 148.2912925694066 L 448.77824933425364 153.2286696130036 L 452.61633601972073 159.94532131257102 L 457.1715688696165 166.7781705874147 L 461.1715688696165 170.7781705874147 L 462.9401626487865 173.43106125616976 L 467.4029750904465 179.0095768082447 L 470.3198051533946 181.92640687119285 L 472.59423525312735 184.95898033750316 L 475.18252626805867 190.13556236736574 L 478.18252626805867 192.13556236736574 L 478.5006149034831 192.77173963821457 L 480.5006149034831 195.77173963821457 L 481.8360918865498 198.442693604348 L 484.3198051533946 200.92640687119285 L 486.59423525312735 203.95898033750316 L 487.59423525312735 205.95898033750316 L 491.3198051533946 210.92640687119285 L 493.6966991411009 213.3033008588991 L 495.8360918865498 215.442693604348 L 497.08359213500125 217.93769410125094 L 501.3246766504219 221.11850748781643 L 504.3246766504219 226.11850748781643 L 509.07359312880715 229.68019484660536 L 511.3198051533946 231.92640687119285 L 515.0623058987491 236.91640786499875 L 517.0623058987491 237.91640786499875 L 519.6428571428571 241.35714285714286 L 524.0735931288071 244.68019484660536 L 527.6966991411009 248.3033008588991 L 529.6966991411009 250.3033008588991 L 533.6966991411009 254.3033008588991 L 536.6966991411009 257.3033008588991 L 538.6966991411009 259.3033008588991 L 543.6966991411009 264.3033008588991 L 546.6966991411009 267.3033008588991 L 550.6966991411009 271.3033008588991 L 553.6966991411009 274.3033008588991 L 555.6966991411009 276.3033008588991 L 558.8360918865498 279.442693604348 L 560.6810808532645 283.1326715377773 L 566.4561360196911 290.0627377374894 L 570.4029750904465 294.0095768082447 L 574.0702953422391 298.59372712298546 L 580.3198051533947 306.92640687119285 L 582.4029750904465 309.0095768082447 L 586.4029750904465 314.0095768082447 L 589.0735931288071 316.6801948466054 L 592.0835921350013 318.93769410125094 L 592.8360918865498 320.442693604348 L 596.0735931288071 323.6801948466054 L 600.6665382639197 327.12490369793977 L 603.2218294125853 328.8284311303835 L 607.6966991411009 333.3033008588991 L 610.6966991411009 336.3033008588991 L 616.6966991411009 342.3033008588991 L 622.9904231917553 348.5970249095535 L 627.9904231917553 352.5970249095535 L 632.1715688696165 356.7781705874147 L 634.1715688696165 359.7781705874147 L 637.3198051533947 362.92640687119285 L 639.8750963020602 366.3334617360803 L 642.1715688696165 369.7781705874147 L 644.5 372.1066017177982 L 644.5 373.27081728299 L 648.8644376326342 379.81747373194133 L 650.4098300562505 380.59016994374946 L 650.5006149034831 380.77173963821457 L 653.1715688696165 384.7781705874147 L 656.6966991411009 388.3033008588991 L 658.3198051533947 389.92640687119285 L 661.3198051533947 393.92640687119285 L 664.6966991411009 397.3033008588991 L 667.6966991411009 400.3033008588991 L 668.8360918865498 401.442693604348 L 670.4098300562505 404.59016994374946 L 671.8672689857445 405.3188894084965 L 672.4447596332677 407.0513613510659 L 676.1715688696165 410.7781705874147 L 678.1715688696165 413.7781705874147 L 681.4029750904465 417.0095768082447 L 685.4029750904465 422.0095768082447 L 688.6966991411009 425.3033008588991 L 691.6966991411009 428.3033008588991 L 694.6966991411009 431.3033008588991 L 697.557306395652 434.1639081134502 L 699.557306395652 435.1639081134502 L 699.8360918865498 435.442693604348 L 702.3647450843758 440.5 L 706.5 440.5 L 708.6665382639197 442.12490369793977 L 708.5 442.01387818866 L 708.5 444.6352549156242 L 712.4098300562505 446.59016994374946 L 712.2917960675006 446.3541019662497 L 713.2917960675006 448.3541019662497 " stroke="#4a5568" stroke-width="2" fill="none" stroke-linecap="butt" stroke-linejoin="round" />
    <path d="M 435.5 112 L 435.5 110.25 L 437.6753233495781 111.88149251218357 L 441.1328683355427 117.64406748879128 L 445.88469114605016 123.34625486140018 L 449.0523185084591 127.56975801127881 L 454.2770943870599 134.88444424131995 L 457.171652300624 139.7087074305934 L 461.22175066574636 144.7713303869964 L 465.38366398027927 152.05467868742898 L 468.8284311303835 157.2218294125853 L 472.8284311303835 161.2218294125853 L 475.0598373512135 164.56893874383024 L 478.5970249095535 168.9904231917553 L 481.6801948466054 172.07359312880715 L 485.40576474687265 177.04101966249684 L 486.81747373194133 179.86443763263426 L 489.81747373194133 181.86443763263426 L 491.4993850965169 185.22826036178543 L 493.4993850965169 188.22826036178543 L 494.1639081134502 189.557306395652 L 495.6801948466054 191.07359312880715 L 499.40576474687265 196.04101966249684 L 500.40576474687265 198.04101966249684 L 502.6801948466054 201.07359312880715 L 504.3033008588991 202.6966991411009 L 508.1639081134502 206.557306395652 L 508.91640786499875 208.06230589874906 L 512.6753233495781 210.88149251218357 L 515.6753233495781 215.88149251218357 L 518.9264068711929 218.31980515339464 L 522.6801948466053 222.07359312880715 L 524.9376941012509 225.08359213500125 L 526.9376941012509 226.08359213500125 L 530.3571428571429 230.64285714285714 L 533.9264068711929 233.31980515339464 L 538.3033008588991 237.6966991411009 L 540.3033008588991 239.6966991411009 L 544.3033008588991 243.6966991411009 L 547.3033008588991 246.6966991411009 L 549.3033008588991 248.6966991411009 L 554.3033008588991 253.6966991411009 L 557.3033008588991 256.6966991411009 L 561.3033008588991 260.6966991411009 L 564.3033008588991 263.6966991411009 L 566.3033008588991 265.6966991411009 L 571.1639081134502 270.557306395652 L 573.3189191467355 274.8673284622227 L 577.5438639803089 279.9372622625106 L 581.5970249095535 283.9904231917553 L 585.9297046577609 289.40627287701454 L 591.6801948466053 297.07359312880715 L 593.5970249095535 298.9904231917553 L 597.5970249095535 303.9904231917553 L 598.9264068711929 305.3198051533946 L 603.9164078649987 309.06230589874906 L 605.1639081134502 311.557306395652 L 605.9264068711929 312.3198051533946 L 609.3334617360803 314.87509630206023 L 612.7781705874147 317.1715688696165 L 618.3033008588991 322.6966991411009 L 621.3033008588991 325.6966991411009 L 627.3033008588991 331.6966991411009 L 633.0095768082447 337.4029750904465 L 638.0095768082447 341.4029750904465 L 643.8284311303835 347.2218294125853 L 645.8284311303835 350.2218294125853 L 648.6801948466053 353.07359312880715 L 652.1249036979398 357.6665382639197 L 653.8284311303835 360.2218294125853 L 659.5 365.8933982822018 L 659.5 368.72918271701 L 659.1355623673658 368.18252626805867 L 661.5901699437495 369.40983005625054 L 663.4993850965169 373.22826036178543 L 664.8284311303835 375.2218294125853 L 667.3033008588991 377.6966991411009 L 669.6801948466053 380.07359312880715 L 672.6801948466053 384.07359312880715 L 675.3033008588991 386.6966991411009 L 678.3033008588991 389.6966991411009 L 681.1639081134502 392.557306395652 L 681.5901699437495 393.40983005625054 L 684.1327310142555 394.6811105915035 L 685.5552403667323 398.9486386489341 L 687.8284311303835 401.2218294125853 L 689.8284311303835 404.2218294125853 L 692.5970249095535 406.9904231917553 L 696.5970249095535 411.9904231917553 L 699.3033008588991 414.6966991411009 L 702.3033008588991 417.6966991411009 L 705.3033008588991 420.6966991411009 L 706.442693604348 421.8360918865498 L 708.442693604348 422.8360918865498 L 712.1639081134502 426.557306395652 L 711.6352549156242 425.5 L 711.5 425.5 L 717.3334617360803 429.87509630206023 L 723.5 433.98612181134 L 723.5 435.3647450843758 L 723.5901699437495 435.40983005625054 L 725.7082039324994 439.6458980337503 L 726.7082039324994 441.6458980337503 " stroke="#4a5568" stroke-width="2" fill="none" stroke-linecap="butt" stroke-linejoin="round" />
    <path d="M 376 446.5 L 380.07737973711323 446.5 L 386.15275134442624 442.8547770356122 L 391.5807959042121 441.0454288490169 L 397.34340315783095 438.7403859475694 L 402.15275134442624 435.8547770356122 L 404.5807959042121 435.0454288490169 L 410.34340315783095 432.7403859475694 L 416.0117551958803 429.33937472473974 L 419.1602514716892 427.2403772075338 L 421.77173963821457 425.4993850965169 L 423.3541019662497 424.7082039324994 L 425.3541019662497 423.7082039324994 L 427.95898033750314 422.40576474687265 L 432.3334617360803 419.12490369793977 L 435.3334617360803 417.12490369793977 L 439.3334617360803 414.12490369793977 L 442.3334617360803 412.12490369793977 L 446.3334617360803 409.12490369793977 L 449.1602514716892 407.2403772075338 L 452.1602514716892 405.2403772075338 L 455.7781705874147 402.8284311303835 L 458.442693604348 400.1639081134502 L 459.77173963821457 399.4993850965169 L 463.7781705874147 396.8284311303835 L 466.7781705874147 393.8284311303835 L 469.1602514716892 392.2403772075338 L 472.7781705874147 389.8284311303835 L 475.3033008588991 387.3033008588991 L 479.3033008588991 383.3033008588991 L 482.3033008588991 380.3033008588991 L 486.3033008588991 376.3033008588991 L 489.92640687119285 372.6801948466054 L 493.92640687119285 369.6801948466054 L 499.3033008588991 364.3033008588991 L 503.3033008588991 360.3033008588991 L 510.3033008588991 353.3033008588991 L 513.3033008588991 350.3033008588991 L 518.6801948466053 344.92640687119285 L 521.6801948466053 340.92640687119285 L 527.8284311303835 334.7781705874147 L 530.1249036979398 331.3334617360803 L 532.4287130822202 328.2617158903732 L 537.4287130822202 324.2617158903732 L 540.2291827170101 320.5277563773199 L 542.7781705874147 318.8284311303835 L 548.8284311303835 312.7781705874147 L 550.8284311303835 309.7781705874147 L 555.3033008588991 305.3033008588991 L 558.3033008588991 302.3033008588991 L 562.3033008588991 298.3033008588991 L 566.7422154569143 293.8643862608839 L 571.3040132435054 287.4778693596564 L 577.2291827170101 283.52775637732 L 580.4743758102334 279.20083225302216 L 586.0627377374893 274.54386398030886 L 590.3033008588991 270.3033008588991 L 595.0996285948909 265.50697312290737 L 602.0996285948909 259.50697312290737 L 604.3033008588991 257.3033008588991 L 608.3033008588991 253.3033008588991 L 610.9264068711929 250.68019484660536 L 615.2617158903732 247.4287130822201 L 619.5970249095535 242.0095768082447 L 622.0095768082447 239.5970249095535 L 626.4310612561698 236.05983735121347 L 630.2291827170101 233.52775637731995 L 633.2291827170101 229.52775637731995 L 635.7781705874147 227.82843113038348 L 639.3033008588991 224.3033008588991 L 640.442693604348 223.16390811345022 L 641.3541019662497 222.70820393249937 L 645.5901699437495 220.5901699437495 L 646.8174737319414 218.13556236736574 L 648.7781705874147 216.82843113038348 L 652.5552403667323 213.0513613510659 L 653.1327310142555 211.3188894084965 L 652.9589803375031 211.40576474687265 L 658.52775637732 207.22918271701005 L 661.4993850965169 202.77173963821457 L 661.5901699437495 202.5901699437495 L 662.442693604348 202.16390811345022 L 666.3033008588991 198.3033008588991 L 671.1639081134502 193.442693604348 L 672.1639081134502 191.442693604348 L 674.1639081134502 189.442693604348 L 675.4057647468726 186.95898033750316 L 677.6801948466053 183.92640687119285 L 680.3033008588991 181.3033008588991 L 683.3033008588991 178.3033008588991 L 687.1639081134502 174.442693604348 L 688.8174737319414 171.13556236736574 L 691.5635015484532 169.30487715635778 L 694.3075355612763 164.73148713498605 L 696.1355623673658 163.81747373194133 L 698.8284311303835 159.7781705874147 L 701.3033008588991 157.3033008588991 L 703.3033008588991 155.3033008588991 L 706.8284311303835 151.7781705874147 L 708.8284311303835 148.7781705874147 L 712.1639081134502 145.442693604348 L 713.1639081134502 143.442693604348 L 714.8284311303835 141.7781705874147 L 716.8284311303835 138.7781705874147 L 719.1639081134502 136.442693604348 L 720.1639081134502 134.442693604348 L 721.3033008588991 133.3033008588991 L 724.1639081134502 130.442693604348 L 725.7082039324994 127.35410196624969 L 725.5901699437495 127.59016994374947 L 728.1327310142555 126.31888940849649 L 728.4056941504209 125.5 L 728.1066017177982 125.5 L 733.1639081134502 120.44269360434801 L 734.7082039324994 117.35410196624969 " stroke="#4a5568" stroke-width="2" fill="none" stroke-linecap="butt" stroke-linejoin="round" />
    <path d="M 376 431.5 L 375.92262026288677 431.5 L 379.84724865557376 429.1452229643878 L 386.4192040957879 426.9545711509831 L 390.65659684216905 425.2596140524306 L 395.84724865557376 422.1452229643878 L 399.4192040957879 420.9545711509831 L 403.65659684216905 419.2596140524306 L 407.9882448041197 416.66062527526026 L 410.8397485283108 414.7596227924662 L 414.22826036178543 412.5006149034831 L 416.6458980337503 411.2917960675006 L 418.6458980337503 410.2917960675006 L 420.04101966249686 409.59423525312735 L 423.6665382639197 406.87509630206023 L 426.6665382639197 404.87509630206023 L 430.6665382639197 401.87509630206023 L 433.6665382639197 399.87509630206023 L 437.6665382639197 396.87509630206023 L 440.8397485283108 394.7596227924662 L 443.8397485283108 392.7596227924662 L 446.2218294125853 391.1715688696165 L 449.557306395652 387.8360918865498 L 452.22826036178543 386.5006149034831 L 454.2218294125853 385.1715688696165 L 457.2218294125853 382.1715688696165 L 460.8397485283108 379.7596227924662 L 463.2218294125853 378.1715688696165 L 464.6966991411009 376.6966991411009 L 468.6966991411009 372.6966991411009 L 471.6966991411009 369.6966991411009 L 475.6966991411009 365.6966991411009 L 480.07359312880715 361.3198051533946 L 484.07359312880715 358.3198051533946 L 488.6966991411009 353.6966991411009 L 492.6966991411009 349.6966991411009 L 499.6966991411009 342.6966991411009 L 502.6966991411009 339.6966991411009 L 507.3198051533946 335.07359312880715 L 510.3198051533946 331.07359312880715 L 516.1715688696165 325.2218294125853 L 517.8750963020602 322.6665382639197 L 521.5712869177798 317.7382841096268 L 526.5712869177798 313.7382841096268 L 529.7708172829899 309.4722436226801 L 533.2218294125853 307.1715688696165 L 537.1715688696165 303.2218294125853 L 539.1715688696165 300.2218294125853 L 544.6966991411009 294.6966991411009 L 547.6966991411009 291.6966991411009 L 551.6966991411009 287.6966991411009 L 555.2577845430857 284.1356137391161 L 560.6959867564946 276.5221306403436 L 566.7708172829899 272.47224362268 L 569.5256241897666 268.79916774697784 L 575.9372622625107 263.45613601969114 L 579.6966991411009 259.6966991411009 L 584.9003714051091 254.49302687709263 L 591.9003714051091 248.49302687709263 L 593.6966991411009 246.6966991411009 L 597.6966991411009 242.6966991411009 L 601.0735931288071 239.31980515339464 L 604.7382841096268 236.5712869177799 L 608.4029750904465 231.9904231917553 L 611.9904231917553 228.4029750904465 L 617.5689387438302 223.94016264878653 L 619.7708172829899 222.47224362268005 L 622.7708172829899 218.47224362268005 L 626.2218294125853 216.17156886961652 L 628.6966991411009 213.6966991411009 L 631.557306395652 210.83609188654978 L 634.6458980337503 209.29179606750063 L 634.4098300562505 209.4098300562505 L 635.1825262680586 207.86443763263426 L 639.2218294125853 205.17156886961652 L 639.4447596332677 204.9486386489341 L 640.8672689857445 200.6811105915035 L 645.0410196624969 198.59423525312735 L 647.47224362268 196.77081728298995 L 648.5006149034831 195.22826036178543 L 650.4098300562505 191.4098300562505 L 653.557306395652 189.83609188654978 L 655.6966991411009 187.6966991411009 L 658.8360918865498 184.557306395652 L 659.8360918865498 182.557306395652 L 661.8360918865498 180.557306395652 L 662.5942352531274 179.04101966249684 L 666.3198051533947 174.07359312880715 L 669.6966991411009 170.6966991411009 L 672.6966991411009 167.6966991411009 L 674.8360918865498 165.557306395652 L 677.1825262680586 160.86443763263426 L 680.4364984515468 158.69512284364222 L 683.6924644387237 153.26851286501395 L 685.8644376326342 152.18252626805867 L 687.1715688696165 150.2218294125853 L 690.6966991411009 146.6966991411009 L 692.6966991411009 144.6966991411009 L 695.1715688696165 142.2218294125853 L 697.1715688696165 139.2218294125853 L 699.8360918865498 136.557306395652 L 700.8360918865498 134.557306395652 L 703.1715688696165 132.2218294125853 L 705.1715688696165 129.2218294125853 L 706.8360918865498 127.55730639565199 L 707.8360918865498 125.55730639565199 L 710.6966991411009 122.6966991411009 L 711.8360918865498 121.55730639565199 L 712.2917960675006 120.64589803375031 L 714.4098300562505 116.40983005625053 L 715.8672689857445 115.68111059150351 L 717.5943058495791 110.5 L 721.8933982822018 110.5 L 720.8360918865498 111.55730639565199 L 721.2917960675006 110.64589803375031 " stroke="#4a5568" stroke-width="2" fill="none" stroke-linecap="butt" stroke-linejoin="round" />
  </g>
</svg>