<svg xmlns="http://www.w3.org/2000/svg" width="1334" height="864" viewBox="0 0 1334 864">
  <g fill="none">
    <path d="M 732 107.75 L 732 130.25 M 720.622707545421 94.62678914818778 L 706.3579571692965 112.02698732829057 M 702.5027263809925 77.65615866715252 L 688.0743588260457 94.92092653988566 M 682.9006511932876 61.19618590759512 L 669.7446697883529 79.44913507404524 M 657.9125812427981 47.63365550899168 L 652.0856692531613 69.36605290700156 M 631.7041968512696 42.50689667216798 L 629.6663519945788 64.91442193356308 M 605.9799233693171 39.75035306045508 L 605.8016680963216 62.24964693954492 M 580.8907957328194 39.75 L 580.8907957328194 62.25 M 553.6909715343099 45.24600989179634 L 559.6268799486716 66.94888968449463 M 528.4245445817496 58.86592562925885 L 541.7335197857569 77.00762287673595 M 509.50257534328756 78.64213757757203 L 526.6750076832255 93.18027939591504 M 493.4245612442311 98.9797958796625 L 511.9407999748787 111.76255392593981 M 480.49128587605003 122.90084298789068 L 501.1459302327046 131.82472479460014 M 471.4409798338093 147.17367007841787 L 492.79959130869196 154.2489591795792 M 465.8170525984323 173.40759210883 L 488.1829474015677 175.86049847783005 M 463.75 199.47964064159981 L 486.25 199.47964064159981 M 466.0422188094407 226.61549668484346 L 488.04779702935633 221.92459834793866 M 473.4731046344373 251.9686476901029 L 494.5256625784964 244.02888673576456 M 494.17424565572685 275.6156298230894 L 506.43966074145976 256.7527140152225 M 515.2054813778793 290.17640876035136 L 525.785328830337 270.3189963437568 M 540.8756590331383 302.0470093507285 L 545.1305782591247 279.9529906492715 M 564.7097435182117 309.4922351685077 L 568.5458423414174 287.3216612963996 M 591.5547849209471 310.25 L 591.5547849209471 287.75 M 619.1568986800429 306.8257573326717 L 613.0362849284307 285.1742426673283 M 643.1349769692282 295.9943964400125 L 634.1001417252875 275.38804421272965 M 666.5655356867006 286.4397358355571 L 656.5924208004468 266.270775042656 M 689.2296085402668 267.5166145041056 L 671.2071034753887 254.04667348023898 M 704.6504399599818 252.55663509799643 L 691.2058116565414 234.51523909374197 " stroke="#8B4513" stroke-width="7" fill="none" stroke-linecap="butt" />
    <path d="M 732 111.5 L 734.01387818866 111.5 L 733.8284311303835 111.22182941258528 L 727.442693604348 104.8360918865498 L 725.442693604348 103.8360918865498 L 720.7781705874147 99.17156886961651 L 717.7781705874147 97.17156886961651 L 713.7781705874147 93.17156886961651 L 710.7781705874147 91.17156886961651 L 707.3033008588991 87.6966991411009 L 703.3033008588991 83.6966991411009 L 699.7781705874147 80.17156886961651 L 696.7781705874147 78.17156886961651 L 693.3033008588991 74.6966991411009 L 689.3033008588991 70.6966991411009 L 685.442693604348 66.8360918865498 L 681.442693604348 64.8360918865498 L 676.442693604348 59.83609188654979 L 672.442693604348 57.83609188654979 L 670.1545571305008 55.54795541270263 L 659.9514416721396 51.72178711581715 L 653.9514416721396 50.72178711581715 L 645.9514416721396 47.72178711581715 L 638.6207189772366 46.5 L 633.4669331122391 46.5 L 626.2021684181238 45.59190441323559 L 621.2021684181238 44.59190441323559 L 612.4669331122391 43.5 L 605 43.5 L 599 43.5 L 590 43.5 L 585 43.5 L 579 43.5 L 573.0767078078676 43.5 L 563.6871722488758 45.84738388974796 L 558.6871722488758 47.84738388974796 L 555.0597486665116 48.75423978533898 L 547.2693598401563 50.98006516429765 L 542.6458980337503 53.29179606750063 L 537.557306395652 55.83609188654979 L 534.9904231917553 58.40297509044649 L 530.5689387438302 61.940162648786526 L 527.5689387438302 63.940162648786526 L 521.5274917464518 68.77332024668928 L 513.2805949756233 80.1128033065785 L 506.09271669952216 87.3006815826796 L 501.09271669952216 95.3006815826796 L 497.95394563289716 98.43945264930466 L 492.3646769011604 108.5001363664308 L 490.42060971759446 112.3882707335626 L 487.42060971759446 117.3882707335626 L 481.923608819558 128.3822725296356 L 479.86044237991723 136.63493828819867 L 474.86044237991723 148.63493828819867 L 473.7937902591304 152.90154677134598 L 471.5 159.78291754873715 L 471.5 162.72918271701005 L 469.5 165.72918271701005 L 469.5 174.2573536480541 L 468.58181445397884 178.84828137816004 L 467.5 188.58461146396937 L 467.5 194 L 467.5 199 L 467.5 207 L 467.5 211 L 467.5 214.62071897723663 L 468.6512866074479 221.52843862192407 L 469.6512866074479 225.52843862192407 L 470.78744771350296 232.34540525825432 L 472.84262115976753 236.45575215078344 L 473.7806886699234 241.1460897015629 L 475.5 245.44436802675438 L 475.5 247.77050983124843 L 479.8360918865498 256.442693604348 L 482.1715688696165 258.7781705874147 L 483.5006149034831 260.77173963821457 L 485.40983005625054 264.59016994374946 L 488.557306395652 266.1639081134502 L 492.2218294125853 269.8284311303835 L 495.9882448041197 272.33937472473974 L 499.6951228436422 274.5635015484533 L 501.6951228436422 277.5635015484533 L 507.34956531117433 280.9561670289726 L 509.557306395652 283.1639081134502 L 514.6458980337503 285.7082039324994 L 520.2282603617854 288.4993850965169 L 523.4126905840156 290.6223385780038 L 530.8430277692197 293.80676880023407 L 534.9249229507755 295.84771639101194 L 541.5556319732456 298.5 L 543.5556319732456 298.5 L 547.2145699273442 299.96357518163944 L 551.9249229507755 301.84771639101194 L 556.6545947417457 304.21255228649704 L 563.471561378076 305.3487133925521 L 568.0767078078676 306.5 L 575 306.5 L 578 306.5 L 581 306.5 L 586 306.5 L 589 306.5 L 593 306.5 L 596 306.5 L 599 306.5 L 603.9232921921324 306.5 L 608.6458755528787 305.31935415981343 L 614.4557521507835 304.15737884023247 L 615.7705098312484 303.5 L 619.2708172829899 303.5 L 624.1602514716892 300.2403772075338 L 626.3245521147171 298.7975101121819 L 628.3717082451262 298.11512473537886 L 631.8773645912196 296.9465726200144 L 636.3541019662497 294.7082039324994 L 637.8773645912196 293.9465726200144 L 640.8773645912196 292.9465726200144 L 645.7717396382146 290.4993850965169 L 648.0793323375044 288.96098996365697 L 651.6177274703643 288.076391180442 L 654.3541019662497 286.7082039324994 L 655.6177274703643 286.076391180442 L 659.6177274703643 285.076391180442 L 661.6177274703643 284.076391180442 L 666.8343715596868 282.7722301581114 L 670.442693604348 279.1639081134502 L 671.3541019662497 278.7082039324994 L 674.442693604348 277.1639081134502 L 676.7781705874147 274.8284311303835 L 680.8174737319414 272.13556236736576 L 681.8174737319414 270.13556236736576 L 684.8174737319414 268.13556236736576 L 686.1639081134502 265.442693604348 L 687.3033008588991 264.3033008588991 L 689.3033008588991 262.3033008588991 L 691.3033008588991 260.3033008588991 L 693.3033008588991 258.3033008588991 L 695.3033008588991 256.3033008588991 L 696.442693604348 255.16390811345022 L 698.442693604348 254.16390811345022 L 702.1639081134502 250.442693604348 L 702.5901699437495 249.5901699437495 L 702.3541019662497 249.70820393249937 " stroke="#4a5568" stroke-width="2" fill="none" stroke-linecap="butt" stroke-linejoin="round" />
    <path d="M 732 126.5 L 725.98612181134 126.5 L 722.1715688696165 120.77817058741472 L 718.557306395652 117.1639081134502 L 716.557306395652 116.1639081134502 L 711.2218294125853 110.82843113038349 L 708.2218294125853 108.82843113038349 L 704.2218294125853 104.82843113038349 L 701.2218294125853 102.82843113038349 L 696.6966991411009 98.3033008588991 L 692.6966991411009 94.3033008588991 L 690.2218294125853 91.82843113038349 L 687.2218294125853 89.82843113038349 L 682.6966991411009 85.3033008588991 L 678.6966991411009 81.3033008588991 L 676.557306395652 79.1639081134502 L 672.557306395652 77.1639081134502 L 667.557306395652 72.1639081134502 L 663.557306395652 70.1639081134502 L 661.8454428694992 68.45204458729737 L 656.0485583278604 66.27821288418285 L 650.0485583278604 65.27821288418285 L 642.0485583278604 62.27821288418285 L 637.3792810227634 61.5 L 632.5330668877609 61.5 L 623.7978315818762 60.40809558676441 L 618.7978315818762 59.40809558676441 L 611.5330668877609 58.5 L 605 58.5 L 599 58.5 L 590 58.5 L 585 58.5 L 579 58.5 L 574.9232921921324 58.5 L 568.3128277511242 60.15261611025204 L 563.3128277511242 62.15261611025204 L 558.9402513334884 63.24576021466102 L 552.7306401598437 65.01993483570234 L 549.3541019662497 66.70820393249937 L 546.442693604348 68.1639081134502 L 545.0095768082447 69.59702490955351 L 539.4310612561698 74.05983735121347 L 536.4310612561698 76.05983735121347 L 532.4725082535482 79.22667975331072 L 524.7194050243767 89.8871966934215 L 517.9072833004778 96.6993184173204 L 512.9072833004778 104.6993184173204 L 510.04605436710284 107.56054735069534 L 505.6353230988396 115.4998636335692 L 503.57939028240554 119.6117292664374 L 500.57939028240554 124.6117292664374 L 496.076391180442 133.6177274703644 L 494.13955762008277 141.36506171180133 L 489.13955762008277 153.36506171180133 L 488.2062097408696 157.09845322865402 L 486.5 162.21708245126285 L 486.5 167.27081728298995 L 484.5 170.27081728298995 L 484.5 175.7426463519459 L 483.41818554602116 181.15171862183996 L 482.5 189.41538853603063 L 482.5 194 L 482.5 199 L 482.5 207 L 482.5 211 L 482.5 213.37928102276337 L 483.3487133925521 218.47156137807593 L 484.3487133925521 222.47156137807593 L 485.21255228649704 227.65459474174568 L 487.15737884023247 231.54424784921656 L 488.2193113300766 236.8539102984371 L 490.5 242.55563197324562 L 490.5 244.22949016875157 L 492.1639081134502 247.557306395652 L 493.8284311303835 249.2218294125853 L 496.4993850965169 253.22826036178543 L 496.59016994374946 253.4098300562505 L 497.442693604348 253.83609188654978 L 501.7781705874147 258.1715688696165 L 504.0117551958803 259.66062527526026 L 510.3048771563578 263.4364984515467 L 512.3048771563577 266.4364984515467 L 516.6504346888256 269.0438329710274 L 518.442693604348 270.8360918865498 L 521.3541019662497 272.2917960675006 L 527.7717396382146 275.5006149034831 L 530.5873094159844 277.3776614219962 L 537.1569722307803 280.19323119976593 L 541.0750770492245 282.15228360898806 L 544.4443680267544 283.5 L 546.4443680267544 283.5 L 552.7854300726558 286.03642481836056 L 558.0750770492245 288.15228360898806 L 561.3454052582543 289.78744771350296 L 566.528438621924 290.6512866074479 L 569.9232921921324 291.5 L 575 291.5 L 578 291.5 L 581 291.5 L 586 291.5 L 589 291.5 L 593 291.5 L 596 291.5 L 599 291.5 L 602.0767078078676 291.5 L 605.3541244471213 290.68064584018657 L 609.5442478492165 289.84262115976753 L 612.2294901687516 288.5 L 614.7291827170101 288.5 L 615.8397485283108 287.7596227924662 L 619.6754478852829 285.2024898878181 L 623.6282917548738 283.88487526462114 L 626.1226354087804 283.0534273799856 L 629.6458980337503 281.2917960675006 L 632.1226354087804 280.0534273799856 L 635.1226354087804 279.0534273799856 L 638.2282603617854 277.5006149034831 L 641.9206676624956 275.03901003634303 L 646.3822725296357 273.923608819558 L 647.6458980337503 273.2917960675006 L 650.3822725296357 271.923608819558 L 654.3822725296357 270.923608819558 L 656.3822725296357 269.923608819558 L 659.1656284403132 269.2277698418886 L 661.557306395652 266.8360918865498 L 664.6458980337503 265.2917960675006 L 665.557306395652 264.8360918865498 L 667.2218294125853 263.1715688696165 L 669.1825262680586 261.86443763263424 L 670.1825262680586 259.86443763263424 L 673.1825262680586 257.86443763263424 L 673.8360918865498 256.557306395652 L 676.6966991411009 253.6966991411009 L 678.6966991411009 251.6966991411009 L 680.6966991411009 249.6966991411009 L 682.6966991411009 247.6966991411009 L 684.6966991411009 245.6966991411009 L 687.557306395652 242.83609188654978 L 689.557306395652 241.83609188654978 L 689.8360918865498 241.557306395652 L 691.4098300562505 238.4098300562505 L 695.6458980337503 236.29179606750063 " stroke="#4a5568" stroke-width="2" fill="none" stroke-linecap="butt" stroke-linejoin="round" />
  </g>
</svg>